<svg version="1.1" viewBox="0.0 0.0 1007.0 417.0" fill="none" stroke="none" stroke-linecap="square" stroke-miterlimit="10" width="1007" height="417" xmlns:xlink="http://www.w3.org/1999/xlink" xmlns="http://www.w3.org/2000/svg"><path fill="#ffffff" d="M0 0L1007.0 0L1007.0 417.0L0 417.0L0 0Z" fill-rule="nonzero"/><path stroke="#333333" stroke-width="1.0" stroke-linecap="butt" d="M88.5 93.5L88.5 344.5" fill-rule="nonzero"/><path stroke="#cccccc" stroke-width="1.0" stroke-linecap="butt" d="M305.5 93.5L305.5 344.5" fill-rule="nonzero"/><path stroke="#cccccc" stroke-width="1.0" stroke-linecap="butt" d="M522.5 93.5L522.5 344.5" fill-rule="nonzero"/><path stroke="#cccccc" stroke-width="1.0" stroke-linecap="butt" d="M738.5 93.5L738.5 344.5" fill-rule="nonzero"/><path stroke="#cccccc" stroke-width="1.0" stroke-linecap="butt" d="M955.5 93.5L955.5 344.5" fill-rule="nonzero"/><path stroke="#333333" stroke-width="1.0" stroke-linecap="butt" d="M79.5 344.5L986.5 344.5" fill-rule="nonzero"/><path stroke="#cccccc" stroke-width="1.0" stroke-linecap="butt" d="M79.5 294.5L986.5 294.5" fill-rule="nonzero"/><path stroke="#cccccc" stroke-width="1.0" stroke-linecap="butt" d="M79.5 243.5L986.5 243.5" fill-rule="nonzero"/><path stroke="#cccccc" stroke-width="1.0" stroke-linecap="butt" d="M79.5 193.5L986.5 193.5" fill-rule="nonzero"/><path stroke="#cccccc" stroke-width="1.0" stroke-linecap="butt" d="M79.5 143.5L986.5 143.5" fill-rule="nonzero"/><path stroke="#cccccc" stroke-width="1.0" stroke-linecap="butt" d="M79.5 93.5L986.5 93.5" fill-rule="nonzero"/><clipPath id="id_0"><path d="M79.85 93.65L986.15 93.65L986.15 344.15L79.85 344.15L79.85 93.65Z" clip-rule="nonzero"/></clipPath><path stroke="#6aa84f" stroke-width="2.0" stroke-linecap="butt" clip-path="url(#id_0)" d="M89.63409 141.245L90.500885 178.82L92.234474 184.331L95.70165 184.331L102.63602 186.836L116.504745 169.802L144.2422 195.353L199.71712 234.431L310.66696 268.499L532.5666 281.024L976.3659 280.022" fill-rule="nonzero"/><path stroke="#fbbc04" stroke-width="2.0" stroke-linecap="butt" clip-path="url(#id_0)" d="M89.63409 136.235L90.500885 121.706L92.234474 191.345L95.70165 259.481L102.63602 297.056L116.504745 301.565L144.2422 302.567L199.71712 313.088L310.66696 309.581L532.5666 298.559L976.3659 298.559" fill-rule="nonzero"/><path stroke="#6aa84f" stroke-width="2.0" stroke-linecap="butt" stroke-dasharray="2.0,3.0" clip-path="url(#id_0)" d="M89.63409 118.7L90.500885 154.271L92.234474 154.271L95.70165 171.305L102.63602 173.309L116.504745 169.802L144.2422 190.343L199.71712 234.431L310.66696 263.99L532.5666 240.443L976.3659 241.445" fill-rule="nonzero"/><path fill="#6aa84f" clip-path="url(#id_0)" d="M85.39145 137.00237L89.63409 139.745L93.876724 137.00237L91.13409 141.245L93.876724 145.48764L89.63409 142.745L85.39145 145.48764L88.13409 141.245Z" fill-rule="nonzero"/><path fill="#6aa84f" clip-path="url(#id_0)" d="M86.25824 174.57736L90.500885 177.32L94.74352 174.57736L92.000885 178.82L94.74352 183.06264L90.500885 180.32L86.25824 183.06264L89.000885 178.82Z" fill-rule="nonzero"/><path fill="#6aa84f" clip-path="url(#id_0)" d="M87.99184 180.08836L92.234474 182.831L96.47711 180.08836L93.734474 184.331L96.47711 188.57364L92.234474 185.831L87.99184 188.57364L90.734474 184.331Z" fill-rule="nonzero"/><path fill="#6aa84f" clip-path="url(#id_0)" d="M91.459015 180.08836L95.70165 182.831L99.9443 180.08836L97.20165 184.331L99.9443 188.57364L95.70165 185.831L91.459015 188.57364L94.20165 184.331Z" fill-rule="nonzero"/><path fill="#6aa84f" clip-path="url(#id_0)" d="M98.39338 182.59335L102.63602 185.336L106.87866 182.59335L104.13602 186.836L106.87866 191.07864L102.63602 188.336L98.39338 191.07864L101.13602 186.836Z" fill-rule="nonzero"/><path fill="#6aa84f" clip-path="url(#id_0)" d="M112.26211 165.55936L116.504745 168.302L120.74739 165.55936L118.004745 169.802L120.74739 174.04465L116.504745 171.302L112.26211 174.04465L115.004745 169.802Z" fill-rule="nonzero"/><path fill="#6aa84f" clip-path="url(#id_0)" d="M139.99956 191.11037L144.2422 193.853L148.48485 191.11037L145.7422 195.353L148.48485 199.59564L144.2422 196.853L139.99956 199.59564L142.7422 195.353Z" fill-rule="nonzero"/><path fill="#6aa84f" clip-path="url(#id_0)" d="M195.47447 230.18835L199.71712 232.931L203.95976 230.18835L201.21712 234.431L203.95976 238.67365L199.71712 235.931L195.47447 238.67365L198.21712 234.431Z" fill-rule="nonzero"/><path fill="#6aa84f" clip-path="url(#id_0)" d="M306.42432 264.25635L310.66696 266.999L314.90958 264.25635L312.16696 268.499L314.90958 272.74164L310.66696 269.999L306.42432 272.74164L309.16696 268.499Z" fill-rule="nonzero"/><path fill="#6aa84f" clip-path="url(#id_0)" d="M528.324 276.78137L532.5666 279.524L536.80927 276.78137L534.0666 281.024L536.80927 285.26663L532.5666 282.524L528.324 285.26663L531.0666 281.024Z" fill-rule="nonzero"/><path fill="#6aa84f" clip-path="url(#id_0)" d="M972.1233 275.77936L976.3659 278.522L980.6086 275.77936L977.8659 280.022L980.6086 284.26465L976.3659 281.522L972.1233 284.26465L974.8659 280.022Z" fill-rule="nonzero"/><path fill="#fbbc04" clip-path="url(#id_0)" d="M85.39145 131.99236L89.63409 134.735L93.876724 131.99236L91.13409 136.235L93.876724 140.47765L89.63409 137.735L85.39145 140.47765L88.13409 136.235Z" fill-rule="nonzero"/><path fill="#fbbc04" clip-path="url(#id_0)" d="M86.25824 117.463356L90.500885 120.206L94.74352 117.463356L92.000885 121.706L94.74352 125.94864L90.500885 123.206L86.25824 125.94864L89.000885 121.706Z" fill-rule="nonzero"/><path fill="#fbbc04" clip-path="url(#id_0)" d="M87.99184 187.10236L92.234474 189.845L96.47711 187.10236L93.734474 191.345L96.47711 195.58765L92.234474 192.845L87.99184 195.58765L90.734474 191.345Z" fill-rule="nonzero"/><path fill="#fbbc04" clip-path="url(#id_0)" d="M91.459015 255.23836L95.70165 257.981L99.9443 255.23836L97.20165 259.481L99.9443 263.72363L95.70165 260.981L91.459015 263.72363L94.20165 259.481Z" fill-rule="nonzero"/><path fill="#fbbc04" clip-path="url(#id_0)" d="M98.39338 292.81335L102.63602 295.556L106.87866 292.81335L104.13602 297.056L106.87866 301.29865L102.63602 298.556L98.39338 301.29865L101.13602 297.056Z" fill-rule="nonzero"/><path fill="#fbbc04" clip-path="url(#id_0)" d="M112.26211 297.32236L116.504745 300.065L120.74739 297.32236L118.004745 301.565L120.74739 305.80765L116.504745 303.065L112.26211 305.80765L115.004745 301.565Z" fill-rule="nonzero"/><path fill="#fbbc04" clip-path="url(#id_0)" d="M139.99956 298.32437L144.2422 301.067L148.48485 298.32437L145.7422 302.567L148.48485 306.80963L144.2422 304.067L139.99956 306.80963L142.7422 302.567Z" fill-rule="nonzero"/><path fill="#fbbc04" clip-path="url(#id_0)" d="M195.47447 308.84537L199.71712 311.588L203.95976 308.84537L201.21712 313.088L203.95976 317.33063L199.71712 314.588L195.47447 317.33063L198.21712 313.088Z" fill-rule="nonzero"/><path fill="#fbbc04" clip-path="url(#id_0)" d="M306.42432 305.33835L310.66696 308.081L314.90958 305.33835L312.16696 309.581L314.90958 313.82364L310.66696 311.081L306.42432 313.82364L309.16696 309.581Z" fill-rule="nonzero"/><path fill="#fbbc04" clip-path="url(#id_0)" d="M528.324 294.31635L532.5666 297.059L536.80927 294.31635L534.0666 298.559L536.80927 302.80164L532.5666 300.059L528.324 302.80164L531.0666 298.559Z" fill-rule="nonzero"/><path fill="#fbbc04" clip-path="url(#id_0)" d="M972.1233 294.31635L976.3659 297.059L980.6086 294.31635L977.8659 298.559L980.6086 302.80164L976.3659 300.059L972.1233 302.80164L974.8659 298.559Z" fill-rule="nonzero"/><path fill="#000000" fill-opacity="0.0" clip-path="url(#id_0)" d="M92.63409 118.7C92.63409 120.35686 91.29094 121.7 89.63409 121.7C87.977234 121.7 86.63409 120.35686 86.63409 118.7C86.63409 117.043144 87.977234 115.7 89.63409 115.7C91.29094 115.7 92.63409 117.043144 92.63409 118.7Z" fill-rule="nonzero"/><path fill="#000000" fill-opacity="0.0" clip-path="url(#id_0)" d="M93.500885 154.271C93.500885 155.92786 92.15774 157.271 90.500885 157.271C88.84403 157.271 87.500885 155.92786 87.500885 154.271C87.500885 152.61415 88.84403 151.271 90.500885 151.271C92.15774 151.271 93.500885 152.61415 93.500885 154.271Z" fill-rule="nonzero"/><path fill="#000000" fill-opacity="0.0" clip-path="url(#id_0)" d="M95.234474 154.271C95.234474 155.92786 93.89133 157.271 92.234474 157.271C90.57762 157.271 89.234474 155.92786 89.234474 154.271C89.234474 152.61415 90.57762 151.271 92.234474 151.271C93.89133 151.271 95.234474 152.61415 95.234474 154.271Z" fill-rule="nonzero"/><path fill="#000000" fill-opacity="0.0" clip-path="url(#id_0)" d="M98.70165 171.305C98.70165 172.96185 97.35851 174.305 95.70165 174.305C94.0448 174.305 92.70165 172.96185 92.70165 171.305C92.70165 169.64815 94.0448 168.305 95.70165 168.305C97.35851 168.305 98.70165 169.64815 98.70165 171.305Z" fill-rule="nonzero"/><path fill="#000000" fill-opacity="0.0" clip-path="url(#id_0)" d="M105.63602 173.309C105.63602 174.96585 104.29288 176.309 102.63602 176.309C100.979164 176.309 99.63602 174.96585 99.63602 173.309C99.63602 171.65215 100.979164 170.309 102.63602 170.309C104.29288 170.309 105.63602 171.65215 105.63602 173.309Z" fill-rule="nonzero"/><path fill="#000000" fill-opacity="0.0" clip-path="url(#id_0)" d="M119.504745 169.802C119.504745 171.45885 118.161606 172.802 116.504745 172.802C114.84789 172.802 113.504745 171.45885 113.504745 169.802C113.504745 168.14514 114.84789 166.802 116.504745 166.802C118.161606 166.802 119.504745 168.14514 119.504745 169.802Z" fill-rule="nonzero"/><path fill="#000000" fill-opacity="0.0" clip-path="url(#id_0)" d="M147.2422 190.343C147.2422 191.99985 145.89906 193.343 144.2422 193.343C142.58536 193.343 141.2422 191.99985 141.2422 190.343C141.2422 188.68614 142.58536 187.343 144.2422 187.343C145.89906 187.343 147.2422 188.68614 147.2422 190.343Z" fill-rule="nonzero"/><path fill="#000000" fill-opacity="0.0" clip-path="url(#id_0)" d="M202.71712 234.431C202.71712 236.08786 201.37398 237.431 199.71712 237.431C198.06027 237.431 196.71712 236.08786 196.71712 234.431C196.71712 232.77414 198.06027 231.431 199.71712 231.431C201.37398 231.431 202.71712 232.77414 202.71712 234.431Z" fill-rule="nonzero"/><path fill="#000000" fill-opacity="0.0" clip-path="url(#id_0)" d="M313.66696 263.99C313.66696 265.64685 312.3238 266.99 310.66696 266.99C309.0101 266.99 307.66696 265.64685 307.66696 263.99C307.66696 262.33316 309.0101 260.99 310.66696 260.99C312.3238 260.99 313.66696 262.33316 313.66696 263.99Z" fill-rule="nonzero"/><path fill="#000000" fill-opacity="0.0" clip-path="url(#id_0)" d="M535.5666 240.443C535.5666 242.09985 534.22345 243.443 532.5666 243.443C530.9097 243.443 529.5666 242.09985 529.5666 240.443C529.5666 238.78615 530.9097 237.443 532.5666 237.443C534.22345 237.443 535.5666 238.78615 535.5666 240.443Z" fill-rule="nonzero"/><path fill="#000000" fill-opacity="0.0" clip-path="url(#id_0)" d="M979.3659 241.445C979.3659 243.10185 978.02277 244.445 976.3659 244.445C974.70905 244.445 973.3659 243.10185 973.3659 241.445C973.3659 239.78815 974.70905 238.445 976.3659 238.445C978.02277 238.445 979.3659 239.78815 979.3659 241.445Z" fill-rule="nonzero"/><path fill="#000000" d="M505.375 393.15L505.375 384.55624L508.60938 384.55624Q509.59375 384.55624 510.1875 384.82187Q510.78125 385.0875 511.10938 385.63437Q511.45312 386.16562 511.45312 386.75937Q511.45312 387.30624 511.15625 387.79062Q510.85938 388.275 510.25 388.57187Q511.03125 388.80624 511.4375 389.36874Q511.85938 389.91562 511.85938 390.66562Q511.85938 391.25937 511.60938 391.79062Q511.35938 392.30624 510.98438 392.5875Q510.60938 392.86874 510.03125 393.00937Q509.46875 393.15 508.65625 393.15L505.375 393.15ZM506.51562 388.16562L508.375 388.16562Q509.125 388.16562 509.45312 388.07187Q509.89062 387.94687 510.10938 387.65Q510.32812 387.3375 510.32812 386.88437Q510.32812 386.4625 510.125 386.13437Q509.92188 385.80624 509.53125 385.69687Q509.15625 385.57187 508.23438 385.57187L506.51562 385.57187L506.51562 388.16562ZM506.51562 392.13437L508.65625 392.13437Q509.20312 392.13437 509.42188 392.0875Q509.82812 392.025 510.07812 391.86874Q510.34375 391.69687 510.51562 391.38437Q510.6875 391.07187 510.6875 390.66562Q510.6875 390.18124 510.4375 389.82187Q510.20312 389.4625 509.76562 389.32187Q509.32812 389.18124 508.5 389.18124L506.51562 389.18124L506.51562 392.13437ZM517.3594 392.38437Q516.7656 392.88437 516.21875 393.0875Q515.6875 393.29062 515.0625 393.29062Q514.03125 393.29062 513.4844 392.79062Q512.9375 392.29062 512.9375 391.50937Q512.9375 391.05624 513.1406 390.68124Q513.34375 390.29062 513.6875 390.07187Q514.03125 389.8375 514.4531 389.72812Q514.75 389.63437 515.3906 389.55624Q516.65625 389.41562 517.2656 389.19687Q517.2656 388.97812 517.2656 388.93124Q517.2656 388.275 516.96875 388.00937Q516.5625 387.66562 515.7656 387.66562Q515.03125 387.66562 514.6719 387.93124Q514.3125 388.18124 514.1406 388.8375L513.1094 388.69687Q513.25 388.04062 513.5781 387.63437Q513.90625 387.22812 514.5156 387.00937Q515.125 386.79062 515.9219 386.79062Q516.71875 386.79062 517.21875 386.97812Q517.71875 387.16562 517.9531 387.44687Q518.1875 387.72812 518.28125 388.16562Q518.3281 388.43124 518.3281 389.13437L518.3281 390.54062Q518.3281 392.00937 518.3906 392.4Q518.46875 392.79062 518.6719 393.15L517.5625 393.15Q517.40625 392.82187 517.3594 392.38437ZM517.2656 390.025Q516.6875 390.25937 515.5469 390.43124Q514.8906 390.525 514.625 390.65Q514.3594 390.75937 514.2031 390.97812Q514.0625 391.19687 514.0625 391.47812Q514.0625 391.9 514.375 392.18124Q514.7031 392.4625 515.3125 392.4625Q515.9219 392.4625 516.3906 392.19687Q516.875 391.93124 517.09375 391.4625Q517.2656 391.10312 517.2656 390.41562L517.2656 390.025ZM522.59375 392.2125L522.75 393.13437Q522.2969 393.22812 521.9531 393.22812Q521.375 393.22812 521.0625 393.05624Q520.75 392.86874 520.6094 392.57187Q520.4844 392.275 520.4844 391.32187L520.4844 387.74374L519.71875 387.74374L519.71875 386.93124L520.4844 386.93124L520.4844 385.38437L521.53125 384.75937L521.53125 386.93124L522.59375 386.93124L522.59375 387.74374L521.53125 387.74374L521.53125 391.38437Q521.53125 391.8375 521.5781 391.9625Q521.6406 392.0875 521.7656 392.16562Q521.8906 392.24374 522.125 392.24374Q522.3125 392.24374 522.59375 392.2125ZM527.3594 390.86874L528.3906 391.00937Q528.21875 392.07187 527.5156 392.68124Q526.8125 393.29062 525.7969 393.29062Q524.5156 393.29062 523.7344 392.4625Q522.96875 391.61874 522.96875 390.05624Q522.96875 389.05624 523.2969 388.30624Q523.6406 387.54062 524.3125 387.16562Q525.0 386.79062 525.8125 386.79062Q526.8125 386.79062 527.4531 387.30624Q528.1094 387.80624 528.2969 388.75937L527.2656 388.91562Q527.125 388.29062 526.75 387.97812Q526.375 387.65 525.84375 387.65Q525.0469 387.65 524.5469 388.22812Q524.0469 388.79062 524.0469 390.025Q524.0469 391.29062 524.53125 391.85312Q525.0156 392.41562 525.78125 392.41562Q526.40625 392.41562 526.8125 392.04062Q527.2344 391.66562 527.3594 390.86874ZM529.2969 393.15L529.2969 384.55624L530.34375 384.55624L530.34375 387.63437Q531.0781 386.79062 532.2031 386.79062Q532.90625 386.79062 533.40625 387.07187Q533.9219 387.3375 534.1406 387.82187Q534.3594 388.29062 534.3594 389.2125L534.3594 393.15L533.3125 393.15L533.3125 389.2125Q533.3125 388.41562 532.96875 388.05624Q532.625 387.69687 532.0 387.69687Q531.53125 387.69687 531.1094 387.94687Q530.7031 388.18124 530.5156 388.60312Q530.34375 389.00937 530.34375 389.74374L530.34375 393.15L529.2969 393.15ZM539.0469 390.38437L540.1094 390.29062Q540.1875 390.94687 540.46875 391.35312Q540.75 391.75937 541.3281 392.025Q541.9219 392.275 542.65625 392.275Q543.2969 392.275 543.7969 392.0875Q544.2969 391.88437 544.53125 391.55624Q544.78125 391.2125 544.78125 390.82187Q544.78125 390.41562 544.5469 390.11874Q544.3125 389.80624 543.78125 389.60312Q543.4219 389.4625 542.2344 389.18124Q541.0625 388.9 540.59375 388.65Q539.96875 388.32187 539.6719 387.85312Q539.375 387.36874 539.375 386.775Q539.375 386.13437 539.7344 385.57187Q540.1094 384.99374 540.8125 384.7125Q541.53125 384.41562 542.3906 384.41562Q543.34375 384.41562 544.0781 384.72812Q544.8125 385.025 545.2031 385.63437Q545.59375 386.22812 545.625 386.97812L544.53125 387.05624Q544.4375 386.24374 543.9219 385.8375Q543.4219 385.41562 542.4375 385.41562Q541.40625 385.41562 540.9375 385.79062Q540.46875 386.16562 540.46875 386.69687Q540.46875 387.16562 540.7969 387.4625Q541.125 387.75937 542.5 388.07187Q543.8906 388.38437 544.40625 388.61874Q545.15625 388.97812 545.5156 389.50937Q545.875 390.025 545.875 390.72812Q545.875 391.41562 545.4844 392.025Q545.09375 392.61874 544.3594 392.9625Q543.625 393.29062 542.7031 393.29062Q541.53125 393.29062 540.7344 392.9625Q539.9531 392.61874 539.5 391.93124Q539.0625 391.24374 539.0469 390.38437ZM547.2969 385.775L547.2969 384.55624L548.3594 384.55624L548.3594 385.775L547.2969 385.775ZM547.2969 393.15L547.2969 386.93124L548.3594 386.93124L548.3594 393.15L547.2969 393.15ZM549.7344 393.15L549.7344 392.29062L553.7031 387.74374Q553.0156 387.775 552.5 387.775L549.96875 387.775L549.96875 386.93124L555.0625 386.93124L555.0625 387.61874L551.6875 391.57187L551.03125 392.29062Q551.75 392.24374 552.3594 392.24374L555.25 392.24374L555.25 393.15L549.7344 393.15ZM559.5469 391.15L560.6406 391.275Q560.3906 392.22812 559.6875 392.75937Q558.9844 393.29062 557.90625 393.29062Q556.5469 393.29062 555.7344 392.44687Q554.9375 391.60312 554.9375 390.0875Q554.9375 388.525 555.75 387.66562Q556.5625 386.79062 557.84375 386.79062Q559.09375 386.79062 559.875 387.63437Q560.6719 388.47812 560.6719 390.025Q560.6719 390.11874 560.6719 390.30624L556.03125 390.30624Q556.09375 391.3375 556.6094 391.88437Q557.125 392.41562 557.90625 392.41562Q558.4844 392.41562 558.8906 392.11874Q559.3125 391.80624 559.5469 391.15ZM556.09375 389.44687L559.5625 389.44687Q559.5 388.65 559.1719 388.25937Q558.65625 387.65 557.8594 387.65Q557.125 387.65 556.625 388.13437Q556.1406 388.61874 556.09375 389.44687Z" fill-rule="nonzero"/><path fill="#000000" d="M29.08437 259.85312L28.99062 258.79062Q29.64687 258.7125 30.05312 258.43124Q30.45937 258.15 30.724995 257.57187Q30.974995 256.97812 30.974995 256.24374Q30.974995 255.60312 30.787495 255.10312Q30.58437 254.60312 30.256245 254.36874Q29.912495 254.11874 29.52187 254.11874Q29.11562 254.11874 28.818745 254.35312Q28.506245 254.5875 28.30312 255.11874Q28.162495 255.47812 27.881245 256.66562Q27.599995 257.8375 27.349995 258.30624Q27.02187 258.93124 26.55312 259.22812Q26.068745 259.525 25.474995 259.525Q24.83437 259.525 24.27187 259.16562Q23.693745 258.79062 23.412495 258.0875Q23.11562 257.36874 23.11562 256.50937Q23.11562 255.55624 23.42812 254.82187Q23.724995 254.0875 24.33437 253.69687Q24.92812 253.30624 25.67812 253.275L25.756245 254.36874Q24.943745 254.4625 24.537495 254.97812Q24.11562 255.47812 24.11562 256.4625Q24.11562 257.49374 24.49062 257.9625Q24.86562 258.43124 25.39687 258.43124Q25.86562 258.43124 26.162495 258.10312Q26.45937 257.775 26.77187 256.4Q27.08437 255.00937 27.318745 254.49374Q27.67812 253.74374 28.20937 253.38437Q28.724995 253.025 29.42812 253.025Q30.11562 253.025 30.724995 253.41562Q31.318745 253.80624 31.662495 254.54062Q31.99062 255.275 31.99062 256.19687Q31.99062 257.36874 31.662495 258.16562Q31.318745 258.94687 30.631245 259.4Q29.943745 259.8375 29.08437 259.85312ZM34.24062 251.60312L25.631245 251.60312L25.631245 250.65L26.42812 250.65Q25.95937 250.30624 25.724995 249.88437Q25.49062 249.44687 25.49062 248.8375Q25.49062 248.04062 25.89687 247.43124Q26.30312 246.82187 27.05312 246.525Q27.80312 246.2125 28.693745 246.2125Q29.64687 246.2125 30.412495 246.55624Q31.17812 246.88437 31.58437 247.54062Q31.99062 248.19687 31.99062 248.91562Q31.99062 249.44687 31.77187 249.86874Q31.537495 250.29062 31.20937 250.55624L34.24062 250.55624L34.24062 251.60312ZM28.77187 250.65Q29.974995 250.65 30.55312 250.16562Q31.11562 249.68124 31.11562 248.99374Q31.11562 248.29062 30.52187 247.79062Q29.92812 247.29062 28.67812 247.29062Q27.49062 247.29062 26.912495 247.775Q26.318745 248.25937 26.318745 248.94687Q26.318745 249.61874 26.943745 250.13437Q27.568745 250.65 28.77187 250.65ZM29.849995 240.35312L29.974995 239.25937Q30.92812 239.50937 31.45937 240.2125Q31.99062 240.91562 31.99062 241.99374Q31.99062 243.35312 31.14687 244.16562Q30.30312 244.9625 28.787495 244.9625Q27.224995 244.9625 26.36562 244.15Q25.49062 243.3375 25.49062 242.05624Q25.49062 240.80624 26.33437 240.025Q27.17812 239.22812 28.724995 239.22812Q28.818745 239.22812 29.006245 239.22812L29.006245 243.86874Q30.037495 243.80624 30.58437 243.29062Q31.11562 242.775 31.11562 241.99374Q31.11562 241.41562 30.818745 241.00937Q30.506245 240.5875 29.849995 240.35312ZM28.14687 243.80624L28.14687 240.3375Q27.349995 240.4 26.95937 240.72812Q26.349995 241.24374 26.349995 242.04062Q26.349995 242.775 26.83437 243.275Q27.318745 243.75937 28.14687 243.80624ZM29.849995 233.35312L29.974995 232.25937Q30.92812 232.50937 31.45937 233.2125Q31.99062 233.91562 31.99062 234.99374Q31.99062 236.35312 31.14687 237.16562Q30.30312 237.9625 28.787495 237.9625Q27.224995 237.9625 26.36562 237.15Q25.49062 236.3375 25.49062 235.05624Q25.49062 233.80624 26.33437 233.025Q27.17812 232.22812 28.724995 232.22812Q28.818745 232.22812 29.006245 232.22812L29.006245 236.86874Q30.037495 236.80624 30.58437 236.29062Q31.11562 235.775 31.11562 234.99374Q31.11562 234.41562 30.818745 234.00937Q30.506245 233.5875 29.849995 233.35312ZM28.14687 236.80624L28.14687 233.3375Q27.349995 233.4 26.95937 233.72812Q26.349995 234.24374 26.349995 235.04062Q26.349995 235.775 26.83437 236.275Q27.318745 236.75937 28.14687 236.80624ZM31.849995 226.57187L31.068745 226.57187Q31.99062 227.16562 31.99062 228.30624Q31.99062 229.05624 31.58437 229.68124Q31.162495 230.30624 30.42812 230.65Q29.693745 230.99374 28.74062 230.99374Q27.818745 230.99374 27.05312 230.68124Q26.287495 230.36874 25.89687 229.74374Q25.49062 229.11874 25.49062 228.35312Q25.49062 227.79062 25.724995 227.35312Q25.95937 226.91562 26.33437 226.63437L23.256245 226.63437L23.256245 225.5875L31.849995 225.5875L31.849995 226.57187ZM28.74062 229.9Q29.943745 229.9 30.537495 229.4Q31.11562 228.9 31.11562 228.2125Q31.11562 227.525 30.55312 227.04062Q29.99062 226.55624 28.83437 226.55624Q27.55312 226.55624 26.95937 227.05624Q26.36562 227.54062 26.36562 228.25937Q26.36562 228.9625 26.943745 229.43124Q27.506245 229.9 28.74062 229.9ZM29.27187 224.025L28.20937 224.025L28.20937 220.775L29.27187 220.775L29.27187 224.025ZM31.849995 215.525L30.92812 215.525Q31.99062 216.25937 31.99062 217.50937Q31.99062 218.05624 31.787495 218.54062Q31.568745 219.00937 31.256245 219.24374Q30.92812 219.47812 30.45937 219.57187Q30.162495 219.63437 29.474995 219.63437L25.631245 219.63437L25.631245 218.57187L29.08437 218.57187Q29.89687 218.57187 30.193745 218.50937Q30.599995 218.41562 30.849995 218.10312Q31.08437 217.775 31.08437 217.29062Q31.08437 216.82187 30.849995 216.41562Q30.599995 215.99374 30.17812 215.82187Q29.756245 215.63437 28.95937 215.63437L25.631245 215.63437L25.631245 214.5875L31.849995 214.5875L31.849995 215.525ZM34.24062 212.60312L25.631245 212.60312L25.631245 211.65L26.42812 211.65Q25.95937 211.30624 25.724995 210.88437Q25.49062 210.44687 25.49062 209.8375Q25.49062 209.04062 25.89687 208.43124Q26.30312 207.82187 27.05312 207.525Q27.80312 207.2125 28.693745 207.2125Q29.64687 207.2125 30.412495 207.55624Q31.17812 207.88437 31.58437 208.54062Q31.99062 209.19687 31.99062 209.91562Q31.99062 210.44687 31.77187 210.86874Q31.537495 211.29062 31.20937 211.55624L34.24062 211.55624L34.24062 212.60312ZM28.77187 211.65Q29.974995 211.65 30.55312 211.16562Q31.11562 210.68124 31.11562 209.99374Q31.11562 209.29062 30.52187 208.79062Q29.92812 208.29062 28.67812 208.29062Q27.49062 208.29062 26.912495 208.775Q26.318745 209.25937 26.318745 209.94687Q26.318745 210.61874 26.943745 211.13437Q27.568745 211.65 28.77187 211.65ZM34.381245 200.5875Q33.27187 201.4625 31.80312 202.07187Q30.318745 202.66562 28.74062 202.66562Q27.349995 202.66562 26.068745 202.22812Q24.58437 201.69687 23.11562 200.5875L23.11562 199.8375Q24.33437 200.54062 24.849995 200.775Q25.662495 201.13437 26.537495 201.3375Q27.631245 201.5875 28.74062 201.5875Q31.568745 201.5875 34.381245 199.8375L34.381245 200.5875ZM31.849995 199.30624L28.61562 197.04062L25.631245 199.13437L25.631245 197.82187L27.08437 196.86874Q27.506245 196.60312 27.787495 196.43124Q27.39687 196.18124 27.099995 195.9625L25.631245 194.91562L25.631245 193.65L28.55312 195.80624L31.849995 193.49374L31.849995 194.775L29.912495 196.05624L29.39687 196.4L31.849995 198.04062L31.849995 199.30624ZM34.381245 192.91562L34.381245 193.66562Q31.568745 191.91562 28.74062 191.91562Q27.64687 191.91562 26.55312 192.16562Q25.67812 192.36874 24.86562 192.72812Q24.349995 192.9625 23.11562 193.66562L23.11562 192.91562Q24.58437 191.82187 26.068745 191.29062Q27.349995 190.8375 28.74062 190.8375Q30.318745 190.8375 31.80312 191.44687Q33.27187 192.05624 34.381245 192.91562Z" fill-rule="nonzero"/><path fill="#000000" d="M67.35 343.91562Q67.35 342.38437 67.6625 341.4625Q67.975 340.525 68.58437 340.025Q69.20937 339.525 70.14687 339.525Q70.83437 339.525 71.35 339.80624Q71.88125 340.0875 72.225 340.61874Q72.56875 341.13437 72.75625 341.88437Q72.94375 342.63437 72.94375 343.91562Q72.94375 345.43124 72.63125 346.35312Q72.33437 347.275 71.70937 347.79062Q71.1 348.29062 70.14687 348.29062Q68.9125 348.29062 68.19375 347.4Q67.35 346.3375 67.35 343.91562ZM68.42812 343.91562Q68.42812 346.025 68.92812 346.72812Q69.42812 347.43124 70.14687 347.43124Q70.88125 347.43124 71.36562 346.72812Q71.86562 346.025 71.86562 343.91562Q71.86562 341.79062 71.36562 341.10312Q70.88125 340.4 70.13125 340.4Q69.4125 340.4 68.975 341.00937Q68.42812 341.79062 68.42812 343.91562Z" fill-rule="nonzero"/><path fill="#000000" d="M71.31875 298.05L70.27187 298.05L70.27187 291.33124Q69.88125 291.6906 69.25625 292.0656Q68.64687 292.425 68.1625 292.59686L68.1625 291.58124Q69.0375 291.15936 69.69375 290.58124Q70.36562 289.9875 70.64687 289.425L71.31875 289.425L71.31875 298.05Z" fill-rule="nonzero"/><path fill="#000000" d="M72.89687 246.93437L72.89687 247.95L67.20937 247.95Q67.20937 247.575 67.33437 247.21562Q67.55312 246.6375 68.02187 246.075Q68.50625 245.5125 69.4125 244.77812Q70.81875 243.62187 71.30312 242.95Q71.80312 242.27812 71.80312 241.68437Q71.80312 241.05937 71.35 240.6375Q70.89687 240.2 70.17812 240.2Q69.4125 240.2 68.95937 240.65312Q68.50625 241.10625 68.49062 241.91875L67.4125 241.80937Q67.52187 240.59062 68.24062 239.96562Q68.975 239.325 70.20937 239.325Q71.44375 239.325 72.1625 240.0125Q72.88125 240.7 72.88125 241.71562Q72.88125 242.23125 72.6625 242.73125Q72.45937 243.21562 71.95937 243.77812Q71.475 244.325 70.35 245.27812Q69.39687 246.075 69.11562 246.37187Q68.85 246.65312 68.67812 246.93437L72.89687 246.93437Z" fill-rule="nonzero"/><path fill="#000000" d="M67.35 195.58438L68.4125 195.44376Q68.58437 196.33438 69.02187 196.74063Q69.45937 197.13126 70.08437 197.13126Q70.83437 197.13126 71.35 196.61563Q71.86562 196.1 71.86562 195.33438Q71.86562 194.61563 71.38125 194.14688Q70.9125 193.6625 70.17812 193.6625Q69.88125 193.6625 69.42812 193.7875L69.55312 192.85Q69.6625 192.86563 69.725 192.86563Q70.39687 192.86563 70.92812 192.52188Q71.475 192.1625 71.475 191.42813Q71.475 190.85 71.08437 190.475Q70.69375 190.08438 70.06875 190.08438Q69.45937 190.08438 69.0375 190.475Q68.63125 190.86563 68.52187 191.63126L67.45937 191.44376Q67.64687 190.39688 68.33437 189.81876Q69.02187 189.225 70.0375 189.225Q70.74062 189.225 71.33437 189.5375Q71.92812 189.83438 72.24062 190.35Q72.55312 190.86563 72.55312 191.45938Q72.55312 192.00626 72.25625 192.475Q71.95937 192.92813 71.38125 193.19376Q72.13125 193.36563 72.55312 193.92813Q72.975 194.475 72.975 195.31876Q72.975 196.44376 72.14687 197.225Q71.33437 198.00626 70.08437 198.00626Q68.95937 198.00626 68.20937 197.33438Q67.45937 196.64688 67.35 195.58438Z" fill-rule="nonzero"/><path fill="#000000" d="M70.725 147.75L70.725 145.6875L67.00625 145.6875L67.00625 144.71875L70.92812 139.15625L71.7875 139.15625L71.7875 144.71875L72.94375 144.71875L72.94375 145.6875L71.7875 145.6875L71.7875 147.75L70.725 147.75ZM70.725 144.71875L70.725 140.85938L68.0375 144.71875L70.725 144.71875Z" fill-rule="nonzero"/><path fill="#000000" d="M67.35 95.4L68.45937 95.30625Q68.58437 96.11875 69.02187 96.525Q69.475 96.93125 70.11562 96.93125Q70.86562 96.93125 71.39687 96.35313Q71.92812 95.775 71.92812 94.8375Q71.92812 93.93125 71.4125 93.41563Q70.9125 92.88438 70.08437 92.88438Q69.58437 92.88438 69.1625 93.11875Q68.75625 93.35313 68.52187 93.7125L67.5375 93.5875L68.36562 89.18125L72.64687 89.18125L72.64687 90.18125L69.20937 90.18125L68.75625 92.49375Q69.52187 91.94688 70.36562 91.94688Q71.49062 91.94688 72.25625 92.72813Q73.0375 93.50938 73.0375 94.74375Q73.0375 95.9 72.36562 96.75938Q71.5375 97.79063 70.11562 97.79063Q68.94375 97.79063 68.19375 97.13438Q67.45937 96.47813 67.35 95.4Z" fill-rule="nonzero"/><path fill="#000000" d="M85.76729 356.91562Q85.76729 355.38437 86.07979 354.4625Q86.39229 353.525 87.00166 353.025Q87.62666 352.525 88.56416 352.525Q89.25166 352.525 89.76729 352.80624Q90.29854 353.0875 90.64229 353.61874Q90.98604 354.13437 91.17354 354.88437Q91.36104 355.63437 91.36104 356.91562Q91.36104 358.43124 91.04854 359.35312Q90.75166 360.275 90.12666 360.79062Q89.51729 361.29062 88.56416 361.29062Q87.32979 361.29062 86.61104 360.4Q85.76729 359.3375 85.76729 356.91562ZM86.84541 356.91562Q86.84541 359.025 87.34541 359.72812Q87.84541 360.43124 88.56416 360.43124Q89.29854 360.43124 89.78291 359.72812Q90.28291 359.025 90.28291 356.91562Q90.28291 354.79062 89.78291 354.10312Q89.29854 353.4 88.54854 353.4Q87.82979 353.4 87.39229 354.00937Q86.84541 354.79062 86.84541 356.91562Z" fill-rule="nonzero"/><path fill="#000000" d="M301.01306 360.13437L301.01306 361.15L295.32556 361.15Q295.32556 360.775 295.45056 360.41562Q295.6693 359.8375 296.13806 359.275Q296.62244 358.7125 297.5287 357.97812Q298.93494 356.82187 299.4193 356.15Q299.9193 355.47812 299.9193 354.88437Q299.9193 354.25937 299.4662 353.8375Q299.01306 353.4 298.2943 353.4Q297.5287 353.4 297.07556 353.85312Q296.62244 354.30624 296.6068 355.11874L295.5287 355.00937Q295.63806 353.79062 296.3568 353.16562Q297.0912 352.525 298.32556 352.525Q299.55994 352.525 300.2787 353.2125Q300.99744 353.9 300.99744 354.91562Q300.99744 355.43124 300.7787 355.93124Q300.57556 356.41562 300.07556 356.97812Q299.5912 357.525 298.4662 358.47812Q297.51306 359.275 297.2318 359.57187Q296.9662 359.85312 296.7943 360.13437L301.01306 360.13437ZM302.4662 358.9L303.57556 358.80624Q303.70056 359.61874 304.13806 360.025Q304.5912 360.43124 305.2318 360.43124Q305.9818 360.43124 306.51306 359.85312Q307.0443 359.275 307.0443 358.3375Q307.0443 357.43124 306.5287 356.91562Q306.0287 356.38437 305.20056 356.38437Q304.70056 356.38437 304.2787 356.61874Q303.87244 356.85312 303.63806 357.2125L302.6537 357.0875L303.4818 352.68124L307.76306 352.68124L307.76306 353.68124L304.32556 353.68124L303.87244 355.99374Q304.63806 355.44687 305.4818 355.44687Q306.6068 355.44687 307.37244 356.22812Q308.1537 357.00937 308.1537 358.24374Q308.1537 359.4 307.4818 360.25937Q306.6537 361.29062 305.2318 361.29062Q304.05994 361.29062 303.30994 360.63437Q302.57556 359.97812 302.4662 358.9ZM309.4662 356.91562Q309.4662 355.38437 309.7787 354.4625Q310.0912 353.525 310.70056 353.025Q311.32556 352.525 312.26306 352.525Q312.95056 352.525 313.4662 352.80624Q313.99744 353.0875 314.3412 353.61874Q314.68494 354.13437 314.87244 354.88437Q315.05994 355.63437 315.05994 356.91562Q315.05994 358.43124 314.74744 359.35312Q314.45056 360.275 313.82556 360.79062Q313.2162 361.29062 312.26306 361.29062Q311.0287 361.29062 310.30994 360.4Q309.4662 359.3375 309.4662 356.91562ZM310.5443 356.91562Q310.5443 359.025 311.0443 359.72812Q311.5443 360.43124 312.26306 360.43124Q312.99744 360.43124 313.4818 359.72812Q313.9818 359.025 313.9818 356.91562Q313.9818 354.79062 313.4818 354.10312Q312.99744 353.4 312.24744 353.4Q311.5287 353.4 311.0912 354.00937Q310.5443 354.79062 310.5443 356.91562Z" fill-rule="nonzero"/><path fill="#000000" d="M512.16504 358.9L513.2744 358.80624Q513.3994 359.61874 513.8369 360.025Q514.29004 360.43124 514.93066 360.43124Q515.68066 360.43124 516.2119 359.85312Q516.74316 359.275 516.74316 358.3375Q516.74316 357.43124 516.22754 356.91562Q515.72754 356.38437 514.8994 356.38437Q514.3994 356.38437 513.97754 356.61874Q513.5713 356.85312 513.3369 357.2125L512.35254 357.0875L513.18066 352.68124L517.4619 352.68124L517.4619 353.68124L514.0244 353.68124L513.5713 355.99374Q514.3369 355.44687 515.18066 355.44687Q516.30566 355.44687 517.0713 356.22812Q517.85254 357.00937 517.85254 358.24374Q517.85254 359.4 517.18066 360.25937Q516.35254 361.29062 514.93066 361.29062Q513.7588 361.29062 513.0088 360.63437Q512.2744 359.97812 512.16504 358.9ZM519.16504 356.91562Q519.16504 355.38437 519.47754 354.4625Q519.79004 353.525 520.3994 353.025Q521.0244 352.525 521.9619 352.525Q522.6494 352.525 523.16504 352.80624Q523.6963 353.0875 524.04004 353.61874Q524.3838 354.13437 524.5713 354.88437Q524.7588 355.63437 524.7588 356.91562Q524.7588 358.43124 524.4463 359.35312Q524.1494 360.275 523.5244 360.79062Q522.91504 361.29062 521.9619 361.29062Q520.72754 361.29062 520.0088 360.4Q519.16504 359.3375 519.16504 356.91562ZM520.24316 356.91562Q520.24316 359.025 520.74316 359.72812Q521.24316 360.43124 521.9619 360.43124Q522.6963 360.43124 523.18066 359.72812Q523.68066 359.025 523.68066 356.91562Q523.68066 354.79062 523.18066 354.10312Q522.6963 353.4 521.9463 353.4Q521.22754 353.4 520.79004 354.00937Q520.24316 354.79062 520.24316 356.91562ZM526.16504 356.91562Q526.16504 355.38437 526.47754 354.4625Q526.79004 353.525 527.3994 353.025Q528.0244 352.525 528.9619 352.525Q529.6494 352.525 530.16504 352.80624Q530.6963 353.0875 531.04004 353.61874Q531.3838 354.13437 531.5713 354.88437Q531.7588 355.63437 531.7588 356.91562Q531.7588 358.43124 531.4463 359.35312Q531.1494 360.275 530.5244 360.79062Q529.91504 361.29062 528.9619 361.29062Q527.72754 361.29062 527.0088 360.4Q526.16504 359.3375 526.16504 356.91562ZM527.24316 356.91562Q527.24316 359.025 527.74316 359.72812Q528.24316 360.43124 528.9619 360.43124Q529.6963 360.43124 530.18066 359.72812Q530.68066 359.025 530.68066 356.91562Q530.68066 354.79062 530.18066 354.10312Q529.6963 353.4 528.9463 353.4Q528.22754 353.4 527.79004 354.00937Q527.24316 354.79062 527.24316 356.91562Z" fill-rule="nonzero"/><path fill="#000000" d="M728.92645 353.68124L728.92645 352.66562L734.48895 352.66562L734.48895 353.49374Q733.67645 354.36874 732.86395 355.82187Q732.0671 357.25937 731.6296 358.79062Q731.30145 359.86874 731.2233 361.15L730.1296 361.15Q730.1452 360.13437 730.5202 358.69687Q730.9108 357.25937 731.61395 355.93124Q732.3327 354.60312 733.1452 353.68124L728.92645 353.68124ZM735.86395 358.9L736.9733 358.80624Q737.0983 359.61874 737.5358 360.025Q737.98895 360.43124 738.6296 360.43124Q739.3796 360.43124 739.9108 359.85312Q740.4421 359.275 740.4421 358.3375Q740.4421 357.43124 739.92645 356.91562Q739.42645 356.38437 738.5983 356.38437Q738.0983 356.38437 737.67645 356.61874Q737.2702 356.85312 737.0358 357.2125L736.05145 357.0875L736.8796 352.68124L741.1608 352.68124L741.1608 353.68124L737.7233 353.68124L737.2702 355.99374Q738.0358 355.44687 738.8796 355.44687Q740.0046 355.44687 740.7702 356.22812Q741.55145 357.00937 741.55145 358.24374Q741.55145 359.4 740.8796 360.25937Q740.05145 361.29062 738.6296 361.29062Q737.4577 361.29062 736.7077 360.63437Q735.9733 359.97812 735.86395 358.9ZM742.86395 356.91562Q742.86395 355.38437 743.17645 354.4625Q743.48895 353.525 744.0983 353.025Q744.7233 352.525 745.6608 352.525Q746.3483 352.525 746.86395 352.80624Q747.3952 353.0875 747.73895 353.61874Q748.0827 354.13437 748.2702 354.88437Q748.4577 355.63437 748.4577 356.91562Q748.4577 358.43124 748.1452 359.35312Q747.8483 360.275 747.2233 360.79062Q746.61395 361.29062 745.6608 361.29062Q744.42645 361.29062 743.7077 360.4Q742.86395 359.3375 742.86395 356.91562ZM743.9421 356.91562Q743.9421 359.025 744.4421 359.72812Q744.9421 360.43124 745.6608 360.43124Q746.3952 360.43124 746.8796 359.72812Q747.3796 359.025 747.3796 356.91562Q747.3796 354.79062 746.8796 354.10312Q746.3952 353.4 745.6452 353.4Q744.92645 353.4 744.48895 354.00937Q743.9421 354.79062 743.9421 356.91562Z" fill-rule="nonzero"/><path fill="#000000" d="M946.03156 361.15L944.9847 361.15L944.9847 354.43124Q944.59406 354.79062 943.96906 355.16562Q943.3597 355.525 942.8753 355.69687L942.8753 354.68124Q943.7503 354.25937 944.40656 353.68124Q945.0784 353.0875 945.3597 352.525L946.03156 352.525L946.03156 361.15ZM949.0628 356.91562Q949.0628 355.38437 949.3753 354.4625Q949.6878 353.525 950.2972 353.025Q950.9222 352.525 951.8597 352.525Q952.5472 352.525 953.0628 352.80624Q953.59406 353.0875 953.9378 353.61874Q954.28156 354.13437 954.46906 354.88437Q954.65656 355.63437 954.65656 356.91562Q954.65656 358.43124 954.34406 359.35312Q954.0472 360.275 953.4222 360.79062Q952.8128 361.29062 951.8597 361.29062Q950.6253 361.29062 949.90656 360.4Q949.0628 359.3375 949.0628 356.91562ZM950.1409 356.91562Q950.1409 359.025 950.6409 359.72812Q951.1409 360.43124 951.8597 360.43124Q952.59406 360.43124 953.0784 359.72812Q953.5784 359.025 953.5784 356.91562Q953.5784 354.79062 953.0784 354.10312Q952.59406 353.4 951.84406 353.4Q951.1253 353.4 950.6878 354.00937Q950.1409 354.79062 950.1409 356.91562ZM956.0628 356.91562Q956.0628 355.38437 956.3753 354.4625Q956.6878 353.525 957.2972 353.025Q957.9222 352.525 958.8597 352.525Q959.5472 352.525 960.0628 352.80624Q960.59406 353.0875 960.9378 353.61874Q961.28156 354.13437 961.46906 354.88437Q961.65656 355.63437 961.65656 356.91562Q961.65656 358.43124 961.34406 359.35312Q961.0472 360.275 960.4222 360.79062Q959.8128 361.29062 958.8597 361.29062Q957.6253 361.29062 956.90656 360.4Q956.0628 359.3375 956.0628 356.91562ZM957.1409 356.91562Q957.1409 359.025 957.6409 359.72812Q958.1409 360.43124 958.8597 360.43124Q959.59406 360.43124 960.0784 359.72812Q960.5784 359.025 960.5784 356.91562Q960.5784 354.79062 960.0784 354.10312Q959.59406 353.4 958.84406 353.4Q958.1253 353.4 957.6878 354.00937Q957.1409 354.79062 957.1409 356.91562ZM963.0628 356.91562Q963.0628 355.38437 963.3753 354.4625Q963.6878 353.525 964.2972 353.025Q964.9222 352.525 965.8597 352.525Q966.5472 352.525 967.0628 352.80624Q967.59406 353.0875 967.9378 353.61874Q968.28156 354.13437 968.46906 354.88437Q968.65656 355.63437 968.65656 356.91562Q968.65656 358.43124 968.34406 359.35312Q968.0472 360.275 967.4222 360.79062Q966.8128 361.29062 965.8597 361.29062Q964.6253 361.29062 963.90656 360.4Q963.0628 359.3375 963.0628 356.91562ZM964.1409 356.91562Q964.1409 359.025 964.6409 359.72812Q965.1409 360.43124 965.8597 360.43124Q966.59406 360.43124 967.0784 359.72812Q967.5784 359.025 967.5784 356.91562Q967.5784 354.79062 967.0784 354.10312Q966.59406 353.4 965.84406 353.4Q965.1253 353.4 964.6878 354.00937Q964.1409 354.79062 964.1409 356.91562Z" fill-rule="nonzero"/><path fill="#6aa84f" d="M290.25735 61.50736L294.5 64.25L298.74265 61.50736L296.0 65.75L298.74265 69.99264L294.5 67.25L290.25735 69.99264L293.0 65.75Z" fill-rule="nonzero"/><path fill="#1a1a1a" d="M313.45312 66.375L313.45312 65.375L317.07812 65.359375L317.07812 68.546875Q316.25 69.21875 315.35938 69.5625Q314.46875 69.890625 313.53125 69.890625Q312.26562 69.890625 311.21875 69.359375Q310.1875 68.8125 309.65625 67.796875Q309.14062 66.765625 309.14062 65.5Q309.14062 64.234375 309.65625 63.15625Q310.1875 62.0625 311.17188 61.546875Q312.15625 61.015625 313.4375 61.015625Q314.375 61.015625 315.125 61.3125Q315.875 61.609375 316.29688 62.15625Q316.73438 62.6875 316.95312 63.5625L315.9375 63.84375Q315.73438 63.1875 315.4375 62.8125Q315.15625 62.4375 314.625 62.21875Q314.09375 61.984375 313.45312 61.984375Q312.67188 61.984375 312.09375 62.21875Q311.53125 62.453125 311.17188 62.84375Q310.82812 63.234375 310.64062 63.703125Q310.3125 64.5 310.3125 65.421875Q310.3125 66.578125 310.70312 67.359375Q311.10938 68.125 311.85938 68.5Q312.60938 68.875 313.46875 68.875Q314.20312 68.875 314.90625 68.59375Q315.60938 68.296875 315.96875 67.984375L315.96875 66.375L313.45312 66.375ZM322.54688 67.75L323.64062 67.875Q323.39062 68.828125 322.6875 69.359375Q321.98438 69.890625 320.90625 69.890625Q319.54688 69.890625 318.73438 69.046875Q317.9375 68.203125 317.9375 66.6875Q317.9375 65.125 318.75 64.265625Q319.5625 63.390625 320.84375 63.390625Q322.09375 63.390625 322.875 64.234375Q323.67188 65.078125 323.67188 66.625Q323.67188 66.71875 323.67188 66.90625L319.03125 66.90625Q319.09375 67.9375 319.60938 68.484375Q320.125 69.015625 320.90625 69.015625Q321.48438 69.015625 321.89062 68.71875Q322.3125 68.40625 322.54688 67.75ZM319.09375 66.046875L322.5625 66.046875Q322.5 65.25 322.17188 64.859375Q321.65625 64.25 320.85938 64.25Q320.125 64.25 319.625 64.734375Q319.14062 65.21875 319.09375 66.046875ZM325.29688 69.75L325.29688 63.53125L326.23438 63.53125L326.23438 64.40625Q326.53125 63.9375 327.01562 63.671875Q327.5 63.390625 328.125 63.390625Q328.8125 63.390625 329.25 63.671875Q329.70312 63.953125 329.875 64.46875Q330.625 63.390625 331.79688 63.390625Q332.73438 63.390625 333.21875 63.90625Q333.71875 64.40625 333.71875 65.484375L333.71875 69.75L332.67188 69.75L332.67188 65.828125Q332.67188 65.203125 332.5625 64.921875Q332.46875 64.640625 332.20312 64.46875Q331.9375 64.296875 331.5625 64.296875Q330.90625 64.296875 330.46875 64.734375Q330.04688 65.171875 330.04688 66.140625L330.04688 69.75L328.98438 69.75L328.98438 65.703125Q328.98438 65.0 328.71875 64.65625Q328.46875 64.296875 327.89062 64.296875Q327.4375 64.296875 327.0625 64.53125Q326.6875 64.765625 326.51562 65.21875Q326.34375 65.671875 326.34375 66.515625L326.34375 69.75L325.29688 69.75ZM336.375 69.75L336.375 61.15625L337.51562 61.15625L337.51562 68.734375L341.75 68.734375L341.75 69.75L336.375 69.75ZM343.29688 62.375L343.29688 61.15625L344.35938 61.15625L344.35938 62.375L343.29688 62.375ZM343.29688 69.75L343.29688 63.53125L344.35938 63.53125L344.35938 69.75L343.29688 69.75ZM348.59375 68.8125L348.75 69.734375Q348.29688 69.828125 347.95312 69.828125Q347.375 69.828125 347.0625 69.65625Q346.75 69.46875 346.60938 69.171875Q346.48438 68.875 346.48438 67.921875L346.48438 64.34375L345.71875 64.34375L345.71875 63.53125L346.48438 63.53125L346.48438 61.984375L347.53125 61.359375L347.53125 63.53125L348.59375 63.53125L348.59375 64.34375L347.53125 64.34375L347.53125 67.984375Q347.53125 68.4375 347.57812 68.5625Q347.64062 68.6875 347.76562 68.765625Q347.89062 68.84375 348.125 68.84375Q348.3125 68.84375 348.59375 68.8125ZM353.54688 67.75L354.64062 67.875Q354.39062 68.828125 353.6875 69.359375Q352.98438 69.890625 351.90625 69.890625Q350.54688 69.890625 349.73438 69.046875Q348.9375 68.203125 348.9375 66.6875Q348.9375 65.125 349.75 64.265625Q350.5625 63.390625 351.84375 63.390625Q353.09375 63.390625 353.875 64.234375Q354.67188 65.078125 354.67188 66.625Q354.67188 66.71875 354.67188 66.90625L350.03125 66.90625Q350.09375 67.9375 350.60938 68.484375Q351.125 69.015625 351.90625 69.015625Q352.48438 69.015625 352.89062 68.71875Q353.3125 68.40625 353.54688 67.75ZM350.09375 66.046875L353.5625 66.046875Q353.5 65.25 353.17188 64.859375Q352.65625 64.25 351.85938 64.25Q351.125 64.25 350.625 64.734375Q350.14062 65.21875 350.09375 66.046875ZM355.875 67.171875L355.875 66.109375L359.125 66.109375L359.125 67.171875L355.875 67.171875ZM362.60938 69.75L362.60938 62.171875L359.78125 62.171875L359.78125 61.15625L366.59375 61.15625L366.59375 62.171875L363.75 62.171875L363.75 69.75L362.60938 69.75ZM367.28125 69.75L367.28125 63.53125L368.23438 63.53125L368.23438 64.46875Q368.59375 63.8125 368.89062 63.609375Q369.20312 63.390625 369.57812 63.390625Q370.10938 63.390625 370.65625 63.71875L370.29688 64.703125Q369.90625 64.46875 369.53125 64.46875Q369.17188 64.46875 368.89062 64.6875Q368.625 64.890625 368.51562 65.265625Q368.32812 65.828125 368.32812 66.484375L368.32812 69.75L367.28125 69.75ZM371.29688 62.375L371.29688 61.15625L372.35938 61.15625L372.35938 62.375L371.29688 62.375ZM371.29688 69.75L371.29688 63.53125L372.35938 63.53125L372.35938 69.75L371.29688 69.75ZM376.59375 68.8125L376.75 69.734375Q376.29688 69.828125 375.95312 69.828125Q375.375 69.828125 375.0625 69.65625Q374.75 69.46875 374.60938 69.171875Q374.48438 68.875 374.48438 67.921875L374.48438 64.34375L373.71875 64.34375L373.71875 63.53125L374.48438 63.53125L374.48438 61.984375L375.53125 61.359375L375.53125 63.53125L376.59375 63.53125L376.59375 64.34375L375.53125 64.34375L375.53125 67.984375Q375.53125 68.4375 375.57812 68.5625Q375.64062 68.6875 375.76562 68.765625Q375.89062 68.84375 376.125 68.84375Q376.3125 68.84375 376.59375 68.8125ZM376.90625 66.640625Q376.90625 64.90625 377.85938 64.078125Q378.65625 63.390625 379.8125 63.390625Q381.09375 63.390625 381.90625 64.234375Q382.73438 65.0625 382.73438 66.546875Q382.73438 67.75 382.375 68.4375Q382.01562 69.125 381.3125 69.515625Q380.625 69.890625 379.8125 69.890625Q378.51562 69.890625 377.70312 69.0625Q376.90625 68.21875 376.90625 66.640625ZM377.98438 66.640625Q377.98438 67.828125 378.5 68.421875Q379.03125 69.015625 379.8125 69.015625Q380.60938 69.015625 381.125 68.421875Q381.64062 67.828125 381.64062 66.609375Q381.64062 65.453125 381.10938 64.859375Q380.59375 64.265625 379.8125 64.265625Q379.03125 64.265625 378.5 64.859375Q377.98438 65.4375 377.98438 66.640625ZM384.29688 69.75L384.29688 63.53125L385.23438 63.53125L385.23438 64.40625Q385.92188 63.390625 387.21875 63.390625Q387.78125 63.390625 388.25 63.59375Q388.73438 63.796875 388.96875 64.125Q389.20312 64.453125 389.29688 64.890625Q389.34375 65.1875 389.34375 65.921875L389.34375 69.75L388.29688 69.75L388.29688 65.96875Q388.29688 65.3125 388.17188 65.0Q388.04688 64.6875 387.73438 64.5Q387.42188 64.296875 387.0 64.296875Q386.32812 64.296875 385.82812 64.734375Q385.34375 65.15625 385.34375 66.34375L385.34375 69.75L384.29688 69.75ZM396.3125 72.28125Q395.4375 71.171875 394.82812 69.703125Q394.23438 68.21875 394.23438 66.640625Q394.23438 65.25 394.67188 63.96875Q395.20312 62.484375 396.3125 61.015625L397.0625 61.015625Q396.35938 62.234375 396.125 62.75Q395.76562 63.5625 395.5625 64.4375Q395.3125 65.53125 395.3125 66.640625Q395.3125 69.46875 397.0625 72.28125L396.3125 72.28125ZM397.48438 69.75L400.78125 61.15625L402.0 61.15625L405.51562 69.75L404.23438 69.75L403.21875 67.140625L399.64062 67.140625L398.6875 69.75L397.48438 69.75ZM399.96875 66.21875L402.875 66.21875L401.98438 63.84375Q401.5625 62.765625 401.375 62.0625Q401.20312 62.890625 400.90625 63.703125L399.96875 66.21875ZM408.96875 69.75L407.92188 69.75L407.92188 63.03125Q407.53125 63.390625 406.90625 63.765625Q406.29688 64.125 405.8125 64.296875L405.8125 63.28125Q406.6875 62.859375 407.34375 62.28125Q408.01562 61.6875 408.29688 61.125L408.96875 61.125L408.96875 69.75ZM417.46875 63.265625L416.42188 63.34375Q416.28125 62.71875 416.03125 62.4375Q415.59375 61.984375 414.96875 61.984375Q414.46875 61.984375 414.07812 62.265625Q413.59375 62.640625 413.29688 63.34375Q413.01562 64.03125 413.0 65.3125Q413.375 64.734375 413.92188 64.453125Q414.48438 64.171875 415.09375 64.171875Q416.14062 64.171875 416.875 64.953125Q417.625 65.734375 417.625 66.953125Q417.625 67.765625 417.26562 68.46875Q416.92188 69.15625 416.3125 69.53125Q415.70312 69.890625 414.9375 69.890625Q413.60938 69.890625 412.78125 68.921875Q411.95312 67.953125 411.95312 65.734375Q411.95312 63.234375 412.875 62.109375Q413.67188 61.125 415.03125 61.125Q416.04688 61.125 416.6875 61.703125Q417.34375 62.265625 417.46875 63.265625ZM413.17188 66.96875Q413.17188 67.515625 413.39062 68.015625Q413.625 68.5 414.03125 68.765625Q414.45312 69.03125 414.92188 69.03125Q415.57812 69.03125 416.0625 68.5Q416.54688 67.953125 416.54688 67.03125Q416.54688 66.140625 416.0625 65.625Q415.59375 65.109375 414.875 65.109375Q414.15625 65.109375 413.65625 65.625Q413.17188 66.140625 413.17188 66.96875ZM419.98438 72.28125L419.23438 72.28125Q420.98438 69.46875 420.98438 66.640625Q420.98438 65.546875 420.73438 64.453125Q420.53125 63.578125 420.17188 62.765625Q419.9375 62.25 419.23438 61.015625L419.98438 61.015625Q421.07812 62.484375 421.60938 63.96875Q422.0625 65.25 422.0625 66.640625Q422.0625 68.21875 421.45312 69.703125Q420.84375 71.171875 419.98438 72.28125Z" fill-rule="nonzero"/><path fill="#fbbc04" d="M440.25735 61.50736L444.5 64.25L448.74265 61.50736L446.0 65.75L448.74265 69.99264L444.5 67.25L440.25735 69.99264L443.0 65.75Z" fill-rule="nonzero"/><path fill="#1a1a1a" d="M459.375 69.75L459.375 61.15625L462.60938 61.15625Q463.59375 61.15625 464.1875 61.421875Q464.78125 61.6875 465.10938 62.234375Q465.45312 62.765625 465.45312 63.359375Q465.45312 63.90625 465.15625 64.390625Q464.85938 64.875 464.25 65.171875Q465.03125 65.40625 465.4375 65.96875Q465.85938 66.515625 465.85938 67.265625Q465.85938 67.859375 465.60938 68.390625Q465.35938 68.90625 464.98438 69.1875Q464.60938 69.46875 464.03125 69.609375Q463.46875 69.75 462.65625 69.75L459.375 69.75ZM460.51562 64.765625L462.375 64.765625Q463.125 64.765625 463.45312 64.671875Q463.89062 64.546875 464.10938 64.25Q464.32812 63.9375 464.32812 63.484375Q464.32812 63.0625 464.125 62.734375Q463.92188 62.40625 463.53125 62.296875Q463.15625 62.171875 462.23438 62.171875L460.51562 62.171875L460.51562 64.765625ZM460.51562 68.734375L462.65625 68.734375Q463.20312 68.734375 463.42188 68.6875Q463.82812 68.625 464.07812 68.46875Q464.34375 68.296875 464.51562 67.984375Q464.6875 67.671875 464.6875 67.265625Q464.6875 66.78125 464.4375 66.421875Q464.20312 66.0625 463.76562 65.921875Q463.32812 65.78125 462.5 65.78125L460.51562 65.78125L460.51562 68.734375ZM467.29688 62.375L467.29688 61.15625L468.35938 61.15625L468.35938 62.375L467.29688 62.375ZM467.29688 69.75L467.29688 63.53125L468.35938 63.53125L468.35938 69.75L467.29688 69.75ZM472.59375 68.8125L472.75 69.734375Q472.29688 69.828125 471.95312 69.828125Q471.375 69.828125 471.0625 69.65625Q470.75 69.46875 470.60938 69.171875Q470.48438 68.875 470.48438 67.921875L470.48438 64.34375L469.71875 64.34375L469.71875 63.53125L470.48438 63.53125L470.48438 61.984375L471.53125 61.359375L471.53125 63.53125L472.59375 63.53125L472.59375 64.34375L471.53125 64.34375L471.53125 67.984375Q471.53125 68.4375 471.57812 68.5625Q471.64062 68.6875 471.76562 68.765625Q471.89062 68.84375 472.125 68.84375Q472.3125 68.84375 472.59375 68.8125ZM473.375 69.75L473.375 61.15625L476.60938 61.15625Q477.59375 61.15625 478.1875 61.421875Q478.78125 61.6875 479.10938 62.234375Q479.45312 62.765625 479.45312 63.359375Q479.45312 63.90625 479.15625 64.390625Q478.85938 64.875 478.25 65.171875Q479.03125 65.40625 479.4375 65.96875Q479.85938 66.515625 479.85938 67.265625Q479.85938 67.859375 479.60938 68.390625Q479.35938 68.90625 478.98438 69.1875Q478.60938 69.46875 478.03125 69.609375Q477.46875 69.75 476.65625 69.75L473.375 69.75ZM474.51562 64.765625L476.375 64.765625Q477.125 64.765625 477.45312 64.671875Q477.89062 64.546875 478.10938 64.25Q478.32812 63.9375 478.32812 63.484375Q478.32812 63.0625 478.125 62.734375Q477.92188 62.40625 477.53125 62.296875Q477.15625 62.171875 476.23438 62.171875L474.51562 62.171875L474.51562 64.765625ZM474.51562 68.734375L476.65625 68.734375Q477.20312 68.734375 477.42188 68.6875Q477.82812 68.625 478.07812 68.46875Q478.34375 68.296875 478.51562 67.984375Q478.6875 67.671875 478.6875 67.265625Q478.6875 66.78125 478.4375 66.421875Q478.20312 66.0625 477.76562 65.921875Q477.32812 65.78125 476.5 65.78125L474.51562 65.78125L474.51562 68.734375ZM481.375 69.75L481.375 61.15625L482.51562 61.15625L482.51562 68.734375L486.75 68.734375L486.75 69.75L481.375 69.75ZM487.48438 69.75L490.78125 61.15625L492.0 61.15625L495.51562 69.75L494.23438 69.75L493.21875 67.140625L489.64062 67.140625L488.6875 69.75L487.48438 69.75ZM489.96875 66.21875L492.875 66.21875L491.98438 63.84375Q491.5625 62.765625 491.375 62.0625Q491.20312 62.890625 490.90625 63.703125L489.96875 66.21875ZM495.04688 66.984375L496.10938 66.890625Q496.1875 67.546875 496.46875 67.953125Q496.75 68.359375 497.32812 68.625Q497.92188 68.875 498.65625 68.875Q499.29688 68.875 499.79688 68.6875Q500.29688 68.484375 500.53125 68.15625Q500.78125 67.8125 500.78125 67.421875Q500.78125 67.015625 500.54688 66.71875Q500.3125 66.40625 499.78125 66.203125Q499.42188 66.0625 498.23438 65.78125Q497.0625 65.5 496.59375 65.25Q495.96875 64.921875 495.67188 64.453125Q495.375 63.96875 495.375 63.375Q495.375 62.734375 495.73438 62.171875Q496.10938 61.59375 496.8125 61.3125Q497.53125 61.015625 498.39062 61.015625Q499.34375 61.015625 500.07812 61.328125Q500.8125 61.625 501.20312 62.234375Q501.59375 62.828125 501.625 63.578125L500.53125 63.65625Q500.4375 62.84375 499.92188 62.4375Q499.42188 62.015625 498.4375 62.015625Q497.40625 62.015625 496.9375 62.390625Q496.46875 62.765625 496.46875 63.296875Q496.46875 63.765625 496.79688 64.0625Q497.125 64.359375 498.5 64.671875Q499.89062 64.984375 500.40625 65.21875Q501.15625 65.578125 501.51562 66.109375Q501.875 66.625 501.875 67.328125Q501.875 68.015625 501.48438 68.625Q501.09375 69.21875 500.35938 69.5625Q499.625 69.890625 498.70312 69.890625Q497.53125 69.890625 496.73438 69.5625Q495.95312 69.21875 495.5 68.53125Q495.0625 67.84375 495.04688 66.984375ZM508.3125 72.28125Q507.4375 71.171875 506.82812 69.703125Q506.23438 68.21875 506.23438 66.640625Q506.23438 65.25 506.67188 63.96875Q507.20312 62.484375 508.3125 61.015625L509.0625 61.015625Q508.35938 62.234375 508.125 62.75Q507.76562 63.5625 507.5625 64.4375Q507.3125 65.53125 507.3125 66.640625Q507.3125 69.46875 509.0625 72.28125L508.3125 72.28125ZM509.48438 69.75L512.78125 61.15625L514.0 61.15625L517.5156 69.75L516.2344 69.75L515.21875 67.140625L511.64062 67.140625L510.6875 69.75L509.48438 69.75ZM511.96875 66.21875L514.875 66.21875L513.9844 63.84375Q513.5625 62.765625 513.375 62.0625Q513.2031 62.890625 512.90625 63.703125L511.96875 66.21875ZM520.96875 69.75L519.9219 69.75L519.9219 63.03125Q519.53125 63.390625 518.90625 63.765625Q518.2969 64.125 517.8125 64.296875L517.8125 63.28125Q518.6875 62.859375 519.34375 62.28125Q520.0156 61.6875 520.2969 61.125L520.96875 61.125L520.96875 69.75ZM529.46875 63.265625L528.4219 63.34375Q528.28125 62.71875 528.03125 62.4375Q527.59375 61.984375 526.96875 61.984375Q526.46875 61.984375 526.0781 62.265625Q525.59375 62.640625 525.2969 63.34375Q525.0156 64.03125 525.0 65.3125Q525.375 64.734375 525.9219 64.453125Q526.4844 64.171875 527.09375 64.171875Q528.1406 64.171875 528.875 64.953125Q529.625 65.734375 529.625 66.953125Q529.625 67.765625 529.2656 68.46875Q528.9219 69.15625 528.3125 69.53125Q527.7031 69.890625 526.9375 69.890625Q525.6094 69.890625 524.78125 68.921875Q523.9531 67.953125 523.9531 65.734375Q523.9531 63.234375 524.875 62.109375Q525.6719 61.125 527.03125 61.125Q528.0469 61.125 528.6875 61.703125Q529.34375 62.265625 529.46875 63.265625ZM525.1719 66.96875Q525.1719 67.515625 525.3906 68.015625Q525.625 68.5 526.03125 68.765625Q526.4531 69.03125 526.9219 69.03125Q527.5781 69.03125 528.0625 68.5Q528.5469 67.953125 528.5469 67.03125Q528.5469 66.140625 528.0625 65.625Q527.59375 65.109375 526.875 65.109375Q526.15625 65.109375 525.65625 65.625Q525.1719 66.140625 525.1719 66.96875ZM531.9844 72.28125L531.2344 72.28125Q532.9844 69.46875 532.9844 66.640625Q532.9844 65.546875 532.7344 64.453125Q532.53125 63.578125 532.1719 62.765625Q531.9375 62.25 531.2344 61.015625L531.9844 61.015625Q533.0781 62.484375 533.6094 63.96875Q534.0625 65.25 534.0625 66.640625Q534.0625 68.21875 533.4531 69.703125Q532.84375 71.171875 531.9844 72.28125Z" fill-rule="nonzero"/><path stroke="#6aa84f" stroke-width="4.0" stroke-linecap="butt" stroke-dasharray="4.0,5.0" d="M550.5 65.75L563.5 65.75" fill-rule="nonzero"/><path fill="#1a1a1a" d="M576.4531 66.375L576.4531 65.375L580.0781 65.359375L580.0781 68.546875Q579.25 69.21875 578.3594 69.5625Q577.46875 69.890625 576.53125 69.890625Q575.2656 69.890625 574.21875 69.359375Q573.1875 68.8125 572.65625 67.796875Q572.1406 66.765625 572.1406 65.5Q572.1406 64.234375 572.65625 63.15625Q573.1875 62.0625 574.1719 61.546875Q575.15625 61.015625 576.4375 61.015625Q577.375 61.015625 578.125 61.3125Q578.875 61.609375 579.2969 62.15625Q579.7344 62.6875 579.9531 63.5625L578.9375 63.84375Q578.7344 63.1875 578.4375 62.8125Q578.15625 62.4375 577.625 62.21875Q577.09375 61.984375 576.4531 61.984375Q575.6719 61.984375 575.09375 62.21875Q574.53125 62.453125 574.1719 62.84375Q573.8281 63.234375 573.6406 63.703125Q573.3125 64.5 573.3125 65.421875Q573.3125 66.578125 573.7031 67.359375Q574.1094 68.125 574.8594 68.5Q575.6094 68.875 576.46875 68.875Q577.2031 68.875 577.90625 68.59375Q578.6094 68.296875 578.96875 67.984375L578.96875 66.375L576.4531 66.375ZM585.5469 67.75L586.6406 67.875Q586.3906 68.828125 585.6875 69.359375Q584.9844 69.890625 583.90625 69.890625Q582.5469 69.890625 581.7344 69.046875Q580.9375 68.203125 580.9375 66.6875Q580.9375 65.125 581.75 64.265625Q582.5625 63.390625 583.84375 63.390625Q585.09375 63.390625 585.875 64.234375Q586.6719 65.078125 586.6719 66.625Q586.6719 66.71875 586.6719 66.90625L582.03125 66.90625Q582.09375 67.9375 582.6094 68.484375Q583.125 69.015625 583.90625 69.015625Q584.4844 69.015625 584.8906 68.71875Q585.3125 68.40625 585.5469 67.75ZM582.09375 66.046875L585.5625 66.046875Q585.5 65.25 585.1719 64.859375Q584.65625 64.25 583.8594 64.25Q583.125 64.25 582.625 64.734375Q582.1406 65.21875 582.09375 66.046875ZM588.2969 69.75L588.2969 63.53125L589.2344 63.53125L589.2344 64.40625Q589.53125 63.9375 590.0156 63.671875Q590.5 63.390625 591.125 63.390625Q591.8125 63.390625 592.25 63.671875Q592.7031 63.953125 592.875 64.46875Q593.625 63.390625 594.7969 63.390625Q595.7344 63.390625 596.21875 63.90625Q596.71875 64.40625 596.71875 65.484375L596.71875 69.75L595.6719 69.75L595.6719 65.828125Q595.6719 65.203125 595.5625 64.921875Q595.46875 64.640625 595.2031 64.46875Q594.9375 64.296875 594.5625 64.296875Q593.90625 64.296875 593.46875 64.734375Q593.0469 65.171875 593.0469 66.140625L593.0469 69.75L591.9844 69.75L591.9844 65.703125Q591.9844 65.0 591.71875 64.65625Q591.46875 64.296875 590.8906 64.296875Q590.4375 64.296875 590.0625 64.53125Q589.6875 64.765625 589.5156 65.21875Q589.34375 65.671875 589.34375 66.515625L589.34375 69.75L588.2969 69.75ZM599.375 69.75L599.375 61.15625L600.5156 61.15625L600.5156 68.734375L604.75 68.734375L604.75 69.75L599.375 69.75ZM606.2969 62.375L606.2969 61.15625L607.3594 61.15625L607.3594 62.375L606.2969 62.375ZM606.2969 69.75L606.2969 63.53125L607.3594 63.53125L607.3594 69.75L606.2969 69.75ZM611.59375 68.8125L611.75 69.734375Q611.2969 69.828125 610.9531 69.828125Q610.375 69.828125 610.0625 69.65625Q609.75 69.46875 609.6094 69.171875Q609.4844 68.875 609.4844 67.921875L609.4844 64.34375L608.71875 64.34375L608.71875 63.53125L609.4844 63.53125L609.4844 61.984375L610.53125 61.359375L610.53125 63.53125L611.59375 63.53125L611.59375 64.34375L610.53125 64.34375L610.53125 67.984375Q610.53125 68.4375 610.5781 68.5625Q610.6406 68.6875 610.7656 68.765625Q610.8906 68.84375 611.125 68.84375Q611.3125 68.84375 611.59375 68.8125ZM616.5469 67.75L617.6406 67.875Q617.3906 68.828125 616.6875 69.359375Q615.9844 69.890625 614.90625 69.890625Q613.5469 69.890625 612.7344 69.046875Q611.9375 68.203125 611.9375 66.6875Q611.9375 65.125 612.75 64.265625Q613.5625 63.390625 614.84375 63.390625Q616.09375 63.390625 616.875 64.234375Q617.6719 65.078125 617.6719 66.625Q617.6719 66.71875 617.6719 66.90625L613.03125 66.90625Q613.09375 67.9375 613.6094 68.484375Q614.125 69.015625 614.90625 69.015625Q615.4844 69.015625 615.8906 68.71875Q616.3125 68.40625 616.5469 67.75ZM613.09375 66.046875L616.5625 66.046875Q616.5 65.25 616.1719 64.859375Q615.65625 64.25 614.8594 64.25Q614.125 64.25 613.625 64.734375Q613.1406 65.21875 613.09375 66.046875ZM618.875 67.171875L618.875 66.109375L622.125 66.109375L622.125 67.171875L618.875 67.171875ZM625.6094 69.75L625.6094 62.171875L622.78125 62.171875L622.78125 61.15625L629.59375 61.15625L629.59375 62.171875L626.75 62.171875L626.75 69.75L625.6094 69.75ZM630.28125 69.75L630.28125 63.53125L631.2344 63.53125L631.2344 64.46875Q631.59375 63.8125 631.8906 63.609375Q632.2031 63.390625 632.5781 63.390625Q633.1094 63.390625 633.65625 63.71875L633.2969 64.703125Q632.90625 64.46875 632.53125 64.46875Q632.1719 64.46875 631.8906 64.6875Q631.625 64.890625 631.5156 65.265625Q631.3281 65.828125 631.3281 66.484375L631.3281 69.75L630.28125 69.75ZM634.2969 62.375L634.2969 61.15625L635.3594 61.15625L635.3594 62.375L634.2969 62.375ZM634.2969 69.75L634.2969 63.53125L635.3594 63.53125L635.3594 69.75L634.2969 69.75ZM639.59375 68.8125L639.75 69.734375Q639.2969 69.828125 638.9531 69.828125Q638.375 69.828125 638.0625 69.65625Q637.75 69.46875 637.6094 69.171875Q637.4844 68.875 637.4844 67.921875L637.4844 64.34375L636.71875 64.34375L636.71875 63.53125L637.4844 63.53125L637.4844 61.984375L638.53125 61.359375L638.53125 63.53125L639.59375 63.53125L639.59375 64.34375L638.53125 64.34375L638.53125 67.984375Q638.53125 68.4375 638.5781 68.5625Q638.6406 68.6875 638.7656 68.765625Q638.8906 68.84375 639.125 68.84375Q639.3125 68.84375 639.59375 68.8125ZM639.90625 66.640625Q639.90625 64.90625 640.8594 64.078125Q641.65625 63.390625 642.8125 63.390625Q644.09375 63.390625 644.90625 64.234375Q645.7344 65.0625 645.7344 66.546875Q645.7344 67.75 645.375 68.4375Q645.0156 69.125 644.3125 69.515625Q643.625 69.890625 642.8125 69.890625Q641.5156 69.890625 640.7031 69.0625Q639.90625 68.21875 639.90625 66.640625ZM640.9844 66.640625Q640.9844 67.828125 641.5 68.421875Q642.03125 69.015625 642.8125 69.015625Q643.6094 69.015625 644.125 68.421875Q644.6406 67.828125 644.6406 66.609375Q644.6406 65.453125 644.1094 64.859375Q643.59375 64.265625 642.8125 64.265625Q642.03125 64.265625 641.5 64.859375Q640.9844 65.4375 640.9844 66.640625ZM647.2969 69.75L647.2969 63.53125L648.2344 63.53125L648.2344 64.40625Q648.9219 63.390625 650.21875 63.390625Q650.78125 63.390625 651.25 63.59375Q651.7344 63.796875 651.96875 64.125Q652.2031 64.453125 652.2969 64.890625Q652.34375 65.1875 652.34375 65.921875L652.34375 69.75L651.2969 69.75L651.2969 65.96875Q651.2969 65.3125 651.1719 65.0Q651.0469 64.6875 650.7344 64.5Q650.4219 64.296875 650.0 64.296875Q649.3281 64.296875 648.8281 64.734375Q648.34375 65.15625 648.34375 66.34375L648.34375 69.75L647.2969 69.75ZM659.3125 72.28125Q658.4375 71.171875 657.8281 69.703125Q657.2344 68.21875 657.2344 66.640625Q657.2344 65.25 657.6719 63.96875Q658.2031 62.484375 659.3125 61.015625L660.0625 61.015625Q659.3594 62.234375 659.125 62.75Q658.7656 63.5625 658.5625 64.4375Q658.3125 65.53125 658.3125 66.640625Q658.3125 69.46875 660.0625 72.28125L659.3125 72.28125ZM660.4844 69.75L663.78125 61.15625L665.0 61.15625L668.5156 69.75L667.2344 69.75L666.21875 67.140625L662.6406 67.140625L661.6875 69.75L660.4844 69.75ZM662.96875 66.21875L665.875 66.21875L664.9844 63.84375Q664.5625 62.765625 664.375 62.0625Q664.2031 62.890625 663.90625 63.703125L662.96875 66.21875ZM669.625 65.09375Q668.96875 64.84375 668.6406 64.40625Q668.3281 63.953125 668.3281 63.34375Q668.3281 62.40625 669.0 61.765625Q669.6875 61.125 670.7969 61.125Q671.9219 61.125 672.6094 61.78125Q673.2969 62.4375 673.2969 63.375Q673.2969 63.96875 672.9844 64.40625Q672.6719 64.84375 672.03125 65.09375Q672.8281 65.34375 673.2344 65.921875Q673.6406 66.5 673.6406 67.296875Q673.6406 68.390625 672.8594 69.140625Q672.09375 69.890625 670.8125 69.890625Q669.5469 69.890625 668.7656 69.140625Q667.9844 68.390625 667.9844 67.265625Q667.9844 66.421875 668.40625 65.859375Q668.84375 65.296875 669.625 65.09375ZM669.40625 63.296875Q669.40625 63.90625 669.7969 64.296875Q670.2031 64.6875 670.8281 64.6875Q671.4375 64.6875 671.8281 64.3125Q672.21875 63.921875 672.21875 63.359375Q672.21875 62.78125 671.8125 62.390625Q671.40625 61.984375 670.8125 61.984375Q670.2031 61.984375 669.7969 62.375Q669.40625 62.765625 669.40625 63.296875ZM669.0781 67.265625Q669.0781 67.71875 669.28125 68.140625Q669.5 68.5625 669.9219 68.796875Q670.34375 69.03125 670.8281 69.03125Q671.5781 69.03125 672.0625 68.546875Q672.5625 68.0625 672.5625 67.3125Q672.5625 66.546875 672.0625 66.046875Q671.5625 65.546875 670.7969 65.546875Q670.0469 65.546875 669.5625 66.046875Q669.0781 66.53125 669.0781 67.265625ZM677.875 67.171875L677.875 66.109375L681.125 66.109375L681.125 67.171875L677.875 67.171875ZM687.84375 66.0L682.15625 68.421875L682.15625 67.375L686.65625 65.5L682.15625 63.65625L682.15625 62.609375L687.84375 65.015625L687.84375 66.0ZM692.0781 65.5625Q692.0781 63.421875 693.21875 62.21875Q694.375 61.0 696.1875 61.0Q697.3906 61.0 698.34375 61.578125Q699.2969 62.140625 699.7969 63.15625Q700.2969 64.171875 700.2969 65.46875Q700.2969 66.765625 699.7656 67.796875Q699.2344 68.828125 698.2656 69.359375Q697.3125 69.890625 696.1875 69.890625Q694.96875 69.890625 694.0156 69.3125Q693.0625 68.71875 692.5625 67.71875Q692.0781 66.703125 692.0781 65.5625ZM693.25 65.578125Q693.25 67.140625 694.0781 68.03125Q694.9219 68.921875 696.1875 68.921875Q697.46875 68.921875 698.2969 68.03125Q699.125 67.125 699.125 65.453125Q699.125 64.40625 698.7656 63.625Q698.4219 62.84375 697.7344 62.421875Q697.0469 61.984375 696.2031 61.984375Q695.0 61.984375 694.125 62.8125Q693.25 63.640625 693.25 65.578125ZM701.0 67.484375L702.0625 67.34375Q702.2344 68.234375 702.6719 68.640625Q703.1094 69.03125 703.7344 69.03125Q704.4844 69.03125 705.0 68.515625Q705.5156 68.0 705.5156 67.234375Q705.5156 66.515625 705.03125 66.046875Q704.5625 65.5625 703.8281 65.5625Q703.53125 65.5625 703.0781 65.6875L703.2031 64.75Q703.3125 64.765625 703.375 64.765625Q704.0469 64.765625 704.5781 64.421875Q705.125 64.0625 705.125 63.328125Q705.125 62.75 704.7344 62.375Q704.34375 61.984375 703.71875 61.984375Q703.1094 61.984375 702.6875 62.375Q702.28125 62.765625 702.1719 63.53125L701.1094 63.34375Q701.2969 62.296875 701.9844 61.71875Q702.6719 61.125 703.6875 61.125Q704.3906 61.125 704.9844 61.4375Q705.5781 61.734375 705.8906 62.25Q706.2031 62.765625 706.2031 63.359375Q706.2031 63.90625 705.90625 64.375Q705.6094 64.828125 705.03125 65.09375Q705.78125 65.265625 706.2031 65.828125Q706.625 66.375 706.625 67.21875Q706.625 68.34375 705.7969 69.125Q704.9844 69.90625 703.7344 69.90625Q702.6094 69.90625 701.8594 69.234375Q701.1094 68.546875 701.0 67.484375ZM713.5469 68.734375L713.5469 69.75L707.8594 69.75Q707.8594 69.375 707.9844 69.015625Q708.2031 68.4375 708.6719 67.875Q709.15625 67.3125 710.0625 66.578125Q711.46875 65.421875 711.9531 64.75Q712.4531 64.078125 712.4531 63.484375Q712.4531 62.859375 712.0 62.4375Q711.5469 62.0 710.8281 62.0Q710.0625 62.0 709.6094 62.453125Q709.15625 62.90625 709.1406 63.71875L708.0625 63.609375Q708.1719 62.390625 708.8906 61.765625Q709.625 61.125 710.8594 61.125Q712.09375 61.125 712.8125 61.8125Q713.53125 62.5 713.53125 63.515625Q713.53125 64.03125 713.3125 64.53125Q713.1094 65.015625 712.6094 65.578125Q712.125 66.125 711.0 67.078125Q710.0469 67.875 709.7656 68.171875Q709.5 68.453125 709.3281 68.734375L713.5469 68.734375ZM715.9844 72.28125L715.2344 72.28125Q716.9844 69.46875 716.9844 66.640625Q716.9844 65.546875 716.7344 64.453125Q716.53125 63.578125 716.1719 62.765625Q715.9375 62.25 715.2344 61.015625L715.9844 61.015625Q717.0781 62.484375 717.6094 63.96875Q718.0625 65.25 718.0625 66.640625Q718.0625 68.21875 717.4531 69.703125Q716.84375 71.171875 715.9844 72.28125Z" fill-rule="nonzero"/><path fill="#757575" d="M203.40625 35.25625L205.1875 35.1Q205.3125 36.1625 205.76562 36.85Q206.23438 37.5375 207.20312 37.975Q208.1875 38.396873 209.42188 38.396873Q210.5 38.396873 211.32812 38.084373Q212.15625 37.75625 212.5625 37.19375Q212.96875 36.63125 212.96875 35.959373Q212.96875 35.2875 212.57812 34.7875Q212.1875 34.2875 211.29688 33.94375Q210.71875 33.709373 208.73438 33.240623Q206.76562 32.771873 205.98438 32.35Q204.95312 31.818748 204.45312 31.021873Q203.95312 30.224998 203.95312 29.240623Q203.95312 28.146873 204.5625 27.209373Q205.17188 26.271873 206.35938 25.787498Q207.54688 25.287498 208.98438 25.287498Q210.57812 25.287498 211.79688 25.803123Q213.01562 26.318748 213.65625 27.318748Q214.3125 28.303123 214.35938 29.568748L212.54688 29.709373Q212.40625 28.349998 211.5625 27.662498Q210.71875 26.959373 209.0625 26.959373Q207.34375 26.959373 206.54688 27.599998Q205.76562 28.224998 205.76562 29.099998Q205.76562 29.881248 206.32812 30.381248Q206.875 30.881248 209.1875 31.396873Q211.5 31.912498 212.35938 32.303123Q213.60938 32.88125 214.20312 33.771873Q214.79688 34.646873 214.79688 35.803123Q214.79688 36.94375 214.14062 37.959373Q213.48438 38.975 212.25 39.5375Q211.03125 40.1 209.5 40.1Q207.5625 40.1 206.25 39.5375Q204.9375 38.959373 204.1875 37.81875Q203.4375 36.678123 203.40625 35.25625ZM216.8125 43.81875L216.8125 29.474998L218.42188 29.474998L218.42188 30.818748Q218.98438 30.037498 219.6875 29.646873Q220.40625 29.240623 221.42188 29.240623Q222.75 29.240623 223.76562 29.928123Q224.78125 30.615623 225.29688 31.865623Q225.82812 33.1 225.82812 34.584373Q225.82812 36.178123 225.25 37.459373Q224.6875 38.725 223.59375 39.4125Q222.5 40.084373 221.29688 40.084373Q220.42188 40.084373 219.71875 39.709373Q219.03125 39.334373 218.57812 38.771873L218.57812 43.81875L216.8125 43.81875ZM218.40625 34.725Q218.40625 36.725 219.21875 37.678123Q220.03125 38.63125 221.1875 38.63125Q222.35938 38.63125 223.1875 37.646873Q224.03125 36.6625 224.03125 34.56875Q224.03125 32.6 223.20312 31.615623Q222.39062 30.615623 221.26562 30.615623Q220.14062 30.615623 219.26562 31.678123Q218.40625 32.725 218.40625 34.725ZM234.92188 36.50625L236.73438 36.740623Q236.3125 38.31875 235.14062 39.209373Q233.98438 40.084373 232.17188 40.084373Q229.90625 40.084373 228.5625 38.69375Q227.23438 37.2875 227.23438 34.75625Q227.23438 32.13125 228.57812 30.693748Q229.92188 29.240623 232.07812 29.240623Q234.15625 29.240623 235.46875 30.662498Q236.79688 32.06875 236.79688 34.646873Q236.79688 34.803123 236.78125 35.115623L229.04688 35.115623Q229.14062 36.81875 230.01562 37.725Q230.89062 38.63125 232.1875 38.63125Q233.15625 38.63125 233.82812 38.13125Q234.51562 37.615623 234.92188 36.50625ZM229.14062 33.6625L234.9375 33.6625Q234.82812 32.365623 234.28125 31.709373Q233.4375 30.693748 232.09375 30.693748Q230.89062 30.693748 230.0625 31.506248Q229.23438 32.303123 229.14062 33.6625ZM245.92188 36.50625L247.73438 36.740623Q247.3125 38.31875 246.14062 39.209373Q244.98438 40.084373 243.17188 40.084373Q240.90625 40.084373 239.5625 38.69375Q238.23438 37.2875 238.23438 34.75625Q238.23438 32.13125 239.57812 30.693748Q240.92188 29.240623 243.07812 29.240623Q245.15625 29.240623 246.46875 30.662498Q247.79688 32.06875 247.79688 34.646873Q247.79688 34.803123 247.78125 35.115623L240.04688 35.115623Q240.14062 36.81875 241.01562 37.725Q241.89062 38.63125 243.1875 38.63125Q244.15625 38.63125 244.82812 38.13125Q245.51562 37.615623 245.92188 36.50625ZM240.14062 33.6625L245.9375 33.6625Q245.82812 32.365623 245.28125 31.709373Q244.4375 30.693748 243.09375 30.693748Q241.89062 30.693748 241.0625 31.506248Q240.23438 32.303123 240.14062 33.6625ZM256.54688 39.85L256.54688 38.5375Q255.5625 40.084373 253.64062 40.084373Q252.40625 40.084373 251.35938 39.396873Q250.32812 38.709373 249.75 37.490623Q249.1875 36.271873 249.1875 34.678123Q249.1875 33.115623 249.70312 31.849998Q250.21875 30.584373 251.25 29.912498Q252.29688 29.240623 253.5625 29.240623Q254.5 29.240623 255.23438 29.646873Q255.96875 30.037498 256.4375 30.662498L256.4375 25.537498L258.17188 25.537498L258.17188 39.85L256.54688 39.85ZM250.98438 34.678123Q250.98438 36.6625 251.82812 37.646873Q252.67188 38.63125 253.8125 38.63125Q254.96875 38.63125 255.76562 37.69375Q256.57812 36.75625 256.57812 34.81875Q256.57812 32.69375 255.75 31.693748Q254.9375 30.693748 253.73438 30.693748Q252.5625 30.693748 251.76562 31.662498Q250.98438 32.615623 250.98438 34.678123ZM269.70312 39.85L265.75 29.474998L267.60938 29.474998L269.84375 35.69375Q270.20312 36.69375 270.5 37.771873Q270.73438 36.959373 271.15625 35.803123L273.45312 29.474998L275.26562 29.474998L271.34375 39.85L269.70312 39.85ZM275.10938 36.75625L276.85938 36.475Q277.0 37.521873 277.67188 38.084373Q278.34375 38.63125 279.54688 38.63125Q280.75 38.63125 281.32812 38.146873Q281.92188 37.646873 281.92188 36.990623Q281.92188 36.396873 281.40625 36.053123Q281.04688 35.81875 279.60938 35.459373Q277.67188 34.959373 276.92188 34.615623Q276.1875 34.25625 275.79688 33.63125Q275.40625 32.990623 275.40625 32.225Q275.40625 31.537498 275.71875 30.943748Q276.04688 30.349998 276.59375 29.959373Q277.0 29.662498 277.70312 29.459373Q278.42188 29.240623 279.23438 29.240623Q280.45312 29.240623 281.375 29.599998Q282.29688 29.943748 282.73438 30.553123Q283.17188 31.146873 283.34375 32.146873L281.625 32.38125Q281.5 31.584373 280.9375 31.146873Q280.375 30.693748 279.35938 30.693748Q278.14062 30.693748 277.625 31.099998Q277.10938 31.490623 277.10938 32.021873Q277.10938 32.365623 277.32812 32.646873Q277.53125 32.928123 278.0 33.115623Q278.26562 33.209373 279.54688 33.553123Q281.42188 34.053123 282.15625 34.38125Q282.89062 34.69375 283.3125 35.303123Q283.73438 35.896873 283.73438 36.803123Q283.73438 37.678123 283.21875 38.459373Q282.70312 39.240623 281.73438 39.6625Q280.76562 40.084373 279.54688 40.084373Q277.53125 40.084373 276.46875 39.240623Q275.40625 38.396873 275.10938 36.75625ZM286.3125 39.85L286.3125 37.85L288.3125 37.85L288.3125 39.85L286.3125 39.85ZM298.14062 39.85L298.14062 25.537498L307.79688 25.537498L307.79688 27.224998L300.03125 27.224998L300.03125 31.662498L306.75 31.662498L306.75 33.35L300.03125 33.35L300.03125 39.85L298.14062 39.85ZM310.04688 39.85L310.04688 25.537498L315.4375 25.537498Q316.875 25.537498 317.625 25.662498Q318.67188 25.849998 319.39062 26.349998Q320.10938 26.834373 320.53125 27.724998Q320.96875 28.615623 320.96875 29.678123Q320.96875 31.506248 319.79688 32.771873Q318.64062 34.021873 315.60938 34.021873L311.9375 34.021873L311.9375 39.85L310.04688 39.85ZM311.9375 32.334373L315.64062 32.334373Q317.46875 32.334373 318.23438 31.662498Q319.01562 30.974998 319.01562 29.724998Q319.01562 28.834373 318.5625 28.193748Q318.10938 27.553123 317.375 27.349998Q316.89062 27.224998 315.59375 27.224998L311.9375 27.224998L311.9375 32.334373ZM328.95312 39.85L327.1875 39.85L327.1875 28.646873Q326.5625 29.256248 325.53125 29.865623Q324.5 30.459373 323.67188 30.771873L323.67188 29.068748Q325.15625 28.381248 326.25 27.396873Q327.35938 26.396873 327.8125 25.474998L328.95312 25.474998L328.95312 39.85ZM342.45312 29.037498L340.70312 29.178123Q340.46875 28.146873 340.04688 27.678123Q339.32812 26.912498 338.28125 26.912498Q337.4375 26.912498 336.8125 27.381248Q335.98438 27.990623 335.5 29.162498Q335.01562 30.318748 335.0 32.459373Q335.64062 31.506248 336.54688 31.037498Q337.46875 30.568748 338.48438 30.568748Q340.23438 30.568748 341.46875 31.865623Q342.70312 33.146873 342.70312 35.19375Q342.70312 36.553123 342.125 37.709373Q341.54688 38.865623 340.53125 39.490623Q339.51562 40.1 338.21875 40.1Q336.03125 40.1 334.64062 38.490623Q333.25 36.865623 333.25 33.146873Q333.25 29.006248 334.78125 27.115623Q336.125 25.474998 338.39062 25.474998Q340.07812 25.474998 341.15625 26.428123Q342.23438 27.365623 342.45312 29.037498ZM335.28125 35.209373Q335.28125 36.115623 335.65625 36.94375Q336.04688 37.771873 336.73438 38.209373Q337.4375 38.646873 338.1875 38.646873Q339.3125 38.646873 340.10938 37.75625Q340.90625 36.85 340.90625 35.303123Q340.90625 33.81875 340.10938 32.975Q339.32812 32.115623 338.125 32.115623Q336.9375 32.115623 336.10938 32.975Q335.28125 33.81875 335.28125 35.209373ZM354.17188 44.053123Q352.71875 42.225 351.71875 39.771873Q350.71875 37.303123 350.71875 34.6625Q350.71875 32.334373 351.46875 30.209373Q352.34375 27.740623 354.17188 25.287498L355.4375 25.287498Q354.25 27.318748 353.875 28.193748Q353.28125 29.537498 352.9375 31.006248Q352.51562 32.834373 352.51562 34.678123Q352.51562 39.365623 355.4375 44.053123L354.17188 44.053123ZM360.54688 39.85L356.75 25.537498L358.6875 25.537498L360.85938 34.9125Q361.21875 36.396873 361.46875 37.85Q362.01562 35.553123 362.10938 35.19375L364.84375 25.537498L367.125 25.537498L369.17188 32.771873Q369.95312 35.475 370.29688 37.85Q370.5625 36.490623 371.0 34.725L373.25 25.537498L375.15625 25.537498L371.23438 39.85L369.40625 39.85L366.39062 28.943748Q366.0 27.568748 365.9375 27.256248Q365.70312 28.240623 365.51562 28.943748L362.48438 39.85L360.54688 39.85ZM385.5625 38.1625L385.5625 39.85L376.10938 39.85Q376.09375 39.209373 376.3125 38.63125Q376.67188 37.6625 377.46875 36.725Q378.26562 35.7875 379.76562 34.553123Q382.10938 32.646873 382.92188 31.537498Q383.75 30.412498 383.75 29.412498Q383.75 28.365623 383.0 27.646873Q382.25 26.928123 381.04688 26.928123Q379.78125 26.928123 379.01562 27.693748Q378.25 28.459373 378.25 29.803123L376.4375 29.615623Q376.625 27.599998 377.82812 26.537498Q379.04688 25.474998 381.09375 25.474998Q383.14062 25.474998 384.34375 26.615623Q385.54688 27.756248 385.54688 29.443748Q385.54688 30.303123 385.1875 31.146873Q384.84375 31.974998 384.03125 32.896873Q383.21875 33.803123 381.32812 35.4125Q379.73438 36.740623 379.28125 37.209373Q378.84375 37.678123 378.54688 38.1625L385.5625 38.1625ZM387.14062 35.553123L387.14062 33.7875L392.53125 33.7875L392.53125 35.553123L387.14062 35.553123ZM396.4375 39.85L394.8125 39.85L394.8125 25.537498L396.5625 25.537498L396.5625 30.646873Q397.6875 29.240623 399.40625 29.240623Q400.35938 29.240623 401.21875 29.631248Q402.07812 30.021873 402.625 30.724998Q403.17188 31.412498 403.48438 32.396873Q403.79688 33.38125 403.79688 34.50625Q403.79688 37.178123 402.48438 38.63125Q401.17188 40.084373 399.32812 40.084373Q397.48438 40.084373 396.4375 38.553123L396.4375 39.85ZM396.42188 34.584373Q396.42188 36.44375 396.92188 37.2875Q397.76562 38.63125 399.17188 38.63125Q400.32812 38.63125 401.15625 37.63125Q402.0 36.63125 402.0 34.646873Q402.0 32.615623 401.1875 31.662498Q400.39062 30.693748 399.25 30.693748Q398.09375 30.693748 397.25 31.693748Q396.42188 32.69375 396.42188 34.584373ZM405.82812 27.553123L405.82812 25.537498L407.59375 25.537498L407.59375 27.553123L405.82812 27.553123ZM405.82812 39.85L405.82812 29.474998L407.59375 29.474998L407.59375 39.85L405.82812 39.85ZM413.65625 38.271873L413.90625 39.834373Q413.17188 39.990623 412.57812 39.990623Q411.625 39.990623 411.09375 39.69375Q410.57812 39.38125 410.35938 38.896873Q410.14062 38.396873 410.14062 36.81875L410.14062 30.849998L408.85938 30.849998L408.85938 29.474998L410.14062 29.474998L410.14062 26.912498L411.89062 25.849998L411.89062 29.474998L413.65625 29.474998L413.65625 30.849998L411.89062 30.849998L411.89062 36.9125Q411.89062 37.6625 411.98438 37.88125Q412.07812 38.084373 412.28125 38.225Q412.5 38.35 412.89062 38.35Q413.17188 38.35 413.65625 38.271873ZM416.28125 39.85L416.28125 37.85L418.28125 37.85L418.28125 39.85Q418.28125 40.959373 417.89062 41.63125Q417.5 42.31875 416.65625 42.678123L416.15625 41.928123Q416.71875 41.69375 416.98438 41.209373Q417.25 40.740623 417.28125 39.85L416.28125 39.85ZM427.5 40.709373L429.20312 40.959373Q429.3125 41.75625 429.79688 42.115623Q430.45312 42.6 431.59375 42.6Q432.8125 42.6 433.46875 42.115623Q434.14062 41.63125 434.375 40.75625Q434.51562 40.209373 434.5 38.490623Q433.34375 39.85 431.625 39.85Q429.48438 39.85 428.3125 38.303123Q427.14062 36.75625 427.14062 34.6Q427.14062 33.115623 427.67188 31.865623Q428.21875 30.615623 429.23438 29.928123Q430.26562 29.240623 431.64062 29.240623Q433.46875 29.240623 434.67188 30.724998L434.67188 29.474998L436.28125 29.474998L436.28125 38.44375Q436.28125 40.865623 435.78125 41.865623Q435.29688 42.88125 434.21875 43.459373Q433.15625 44.053123 431.59375 44.053123Q429.75 44.053123 428.59375 43.225Q427.45312 42.396873 427.5 40.709373ZM428.95312 34.475Q428.95312 36.521873 429.76562 37.459373Q430.57812 38.396873 431.79688 38.396873Q433.0 38.396873 433.8125 37.459373Q434.64062 36.521873 434.64062 34.5375Q434.64062 32.63125 433.79688 31.662498Q432.95312 30.693748 431.76562 30.693748Q430.59375 30.693748 429.76562 31.646873Q428.95312 32.6 428.95312 34.475ZM438.79688 39.85L438.79688 29.474998L440.375 29.474998L440.375 31.053123Q440.98438 29.943748 441.5 29.599998Q442.01562 29.240623 442.625 29.240623Q443.51562 29.240623 444.4375 29.803123L443.82812 31.443748Q443.1875 31.053123 442.54688 31.053123Q441.96875 31.053123 441.5 31.412498Q441.04688 31.756248 440.84375 32.365623Q440.5625 33.303123 440.5625 34.4125L440.5625 39.85L438.79688 39.85ZM445.17188 34.6625Q445.17188 31.787498 446.76562 30.396873Q448.10938 29.240623 450.03125 29.240623Q452.17188 29.240623 453.51562 30.646873Q454.875 32.053123 454.875 34.521873Q454.875 36.521873 454.28125 37.678123Q453.6875 38.81875 452.53125 39.459373Q451.39062 40.084373 450.03125 40.084373Q447.84375 40.084373 446.5 38.69375Q445.17188 37.2875 445.17188 34.6625ZM446.96875 34.6625Q446.96875 36.6625 447.82812 37.646873Q448.70312 38.63125 450.03125 38.63125Q451.34375 38.63125 452.20312 37.646873Q453.07812 36.646873 453.07812 34.6Q453.07812 32.678123 452.20312 31.693748Q451.32812 30.693748 450.03125 30.693748Q448.70312 30.693748 447.82812 31.693748Q446.96875 32.678123 446.96875 34.6625ZM463.60938 39.85L463.60938 38.31875Q462.40625 40.084373 460.32812 40.084373Q459.40625 40.084373 458.60938 39.740623Q457.8125 39.38125 457.42188 38.85Q457.04688 38.31875 456.89062 37.5375Q456.78125 37.021873 456.78125 35.896873L456.78125 29.474998L458.53125 29.474998L458.53125 35.225Q458.53125 36.6 458.64062 37.084373Q458.8125 37.771873 459.34375 38.178123Q459.89062 38.56875 460.67188 38.56875Q461.46875 38.56875 462.15625 38.1625Q462.85938 37.75625 463.14062 37.06875Q463.4375 36.365623 463.4375 35.0375L463.4375 29.474998L465.1875 29.474998L465.1875 39.85L463.60938 39.85ZM466.8125 43.81875L466.8125 29.474998L468.42188 29.474998L468.42188 30.818748Q468.98438 30.037498 469.6875 29.646873Q470.40625 29.240623 471.42188 29.240623Q472.75 29.240623 473.76562 29.928123Q474.78125 30.615623 475.29688 31.865623Q475.82812 33.1 475.82812 34.584373Q475.82812 36.178123 475.25 37.459373Q474.6875 38.725 473.59375 39.4125Q472.5 40.084373 471.29688 40.084373Q470.42188 40.084373 469.71875 39.709373Q469.03125 39.334373 468.57812 38.771873L468.57812 43.81875L466.8125 43.81875ZM468.40625 34.725Q468.40625 36.725 469.21875 37.678123Q470.03125 38.63125 471.1875 38.63125Q472.35938 38.63125 473.1875 37.646873Q474.03125 36.6625 474.03125 34.56875Q474.03125 32.6 473.20312 31.615623Q472.39062 30.615623 471.26562 30.615623Q470.14062 30.615623 469.26562 31.678123Q468.40625 32.725 468.40625 34.725ZM483.10938 36.75625L484.85938 36.475Q485.0 37.521873 485.67188 38.084373Q486.34375 38.63125 487.54688 38.63125Q488.75 38.63125 489.32812 38.146873Q489.92188 37.646873 489.92188 36.990623Q489.92188 36.396873 489.40625 36.053123Q489.04688 35.81875 487.60938 35.459373Q485.67188 34.959373 484.92188 34.615623Q484.1875 34.25625 483.79688 33.63125Q483.40625 32.990623 483.40625 32.225Q483.40625 31.537498 483.71875 30.943748Q484.04688 30.349998 484.59375 29.959373Q485.0 29.662498 485.70312 29.459373Q486.42188 29.240623 487.23438 29.240623Q488.45312 29.240623 489.375 29.599998Q490.29688 29.943748 490.73438 30.553123Q491.17188 31.146873 491.34375 32.146873L489.625 32.38125Q489.5 31.584373 488.9375 31.146873Q488.375 30.693748 487.35938 30.693748Q486.14062 30.693748 485.625 31.099998Q485.10938 31.490623 485.10938 32.021873Q485.10938 32.365623 485.32812 32.646873Q485.53125 32.928123 486.0 33.115623Q486.26562 33.209373 487.54688 33.553123Q489.42188 34.053123 490.15625 34.38125Q490.89062 34.69375 491.3125 35.303123Q491.73438 35.896873 491.73438 36.803123Q491.73438 37.678123 491.21875 38.459373Q490.70312 39.240623 489.73438 39.6625Q488.76562 40.084373 487.54688 40.084373Q485.53125 40.084373 484.46875 39.240623Q483.40625 38.396873 483.10938 36.75625ZM493.82812 27.553123L493.82812 25.537498L495.59375 25.537498L495.59375 27.553123L493.82812 27.553123ZM493.82812 39.85L493.82812 29.474998L495.59375 29.474998L495.59375 39.85L493.82812 39.85ZM496.89062 39.85L496.89062 38.428123L503.5 30.849998Q502.375 30.896873 501.51562 30.896873L497.28125 30.896873L497.28125 29.474998L505.76562 29.474998L505.76562 30.646873L500.14062 37.225L499.0625 38.428123Q500.23438 38.334373 501.28125 38.334373L506.07812 38.334373L506.07812 39.85L496.89062 39.85ZM513.9219 36.50625L515.7344 36.740623Q515.3125 38.31875 514.1406 39.209373Q512.9844 40.084373 511.17188 40.084373Q508.90625 40.084373 507.5625 38.69375Q506.23438 37.2875 506.23438 34.75625Q506.23438 32.13125 507.57812 30.693748Q508.92188 29.240623 511.07812 29.240623Q513.15625 29.240623 514.46875 30.662498Q515.7969 32.06875 515.7969 34.646873Q515.7969 34.803123 515.78125 35.115623L508.04688 35.115623Q508.14062 36.81875 509.01562 37.725Q509.89062 38.63125 511.1875 38.63125Q512.15625 38.63125 512.8281 38.13125Q513.5156 37.615623 513.9219 36.50625ZM508.14062 33.6625L513.9375 33.6625Q513.8281 32.365623 513.28125 31.709373Q512.4375 30.693748 511.09375 30.693748Q509.89062 30.693748 509.0625 31.506248Q508.23438 32.303123 508.14062 33.6625ZM527.0625 31.428123L517.6094 31.428123L517.6094 29.787498L527.0625 29.787498L527.0625 31.428123ZM527.0625 35.771873L517.6094 35.771873L517.6094 34.13125L527.0625 34.13125L527.0625 35.771873ZM535.9531 39.85L534.1875 39.85L534.1875 28.646873Q533.5625 29.256248 532.53125 29.865623Q531.5 30.459373 530.6719 30.771873L530.6719 29.068748Q532.15625 28.381248 533.25 27.396873Q534.3594 26.396873 534.8125 25.474998L535.9531 25.474998L535.9531 39.85ZM549.5625 38.1625L549.5625 39.85L540.1094 39.85Q540.09375 39.209373 540.3125 38.63125Q540.6719 37.6625 541.46875 36.725Q542.2656 35.7875 543.7656 34.553123Q546.1094 32.646873 546.9219 31.537498Q547.75 30.412498 547.75 29.412498Q547.75 28.365623 547.0 27.646873Q546.25 26.928123 545.0469 26.928123Q543.78125 26.928123 543.0156 27.693748Q542.25 28.459373 542.25 29.803123L540.4375 29.615623Q540.625 27.599998 541.8281 26.537498Q543.0469 25.474998 545.09375 25.474998Q547.1406 25.474998 548.34375 26.615623Q549.5469 27.756248 549.5469 29.443748Q549.5469 30.303123 549.1875 31.146873Q548.84375 31.974998 548.03125 32.896873Q547.21875 33.803123 545.3281 35.4125Q543.7344 36.740623 543.28125 37.209373Q542.84375 37.678123 542.5469 38.1625L549.5625 38.1625ZM554.03125 32.084373Q552.9375 31.678123 552.40625 30.943748Q551.8906 30.193748 551.8906 29.162498Q551.8906 27.599998 553.0156 26.537498Q554.1406 25.474998 556.0 25.474998Q557.875 25.474998 559.0156 26.568748Q560.15625 27.646873 560.15625 29.209373Q560.15625 30.209373 559.625 30.943748Q559.1094 31.678123 558.0469 32.084373Q559.375 32.521873 560.0625 33.475Q560.75 34.428123 560.75 35.75625Q560.75 37.6 559.4375 38.85Q558.1406 40.1 556.03125 40.1Q553.90625 40.1 552.6094 38.85Q551.3125 37.584373 551.3125 35.709373Q551.3125 34.31875 552.0156 33.38125Q552.7344 32.428123 554.03125 32.084373ZM553.6875 29.099998Q553.6875 30.115623 554.34375 30.771873Q555.0 31.412498 556.03125 31.412498Q557.0469 31.412498 557.7031 30.771873Q558.3594 30.131248 558.3594 29.209373Q558.3594 28.240623 557.6875 27.584373Q557.0156 26.912498 556.0156 26.912498Q555.0156 26.912498 554.34375 27.568748Q553.6875 28.209373 553.6875 29.099998ZM553.125 35.725Q553.125 36.475 553.46875 37.178123Q553.8281 37.88125 554.53125 38.271873Q555.2344 38.646873 556.0469 38.646873Q557.3125 38.646873 558.125 37.834373Q558.9531 37.021873 558.9531 35.771873Q558.9531 34.50625 558.1094 33.678123Q557.2656 32.85 555.9844 32.85Q554.75 32.85 553.9375 33.678123Q553.125 34.490623 553.125 35.725ZM563.96875 44.053123L562.71875 44.053123Q565.625 39.365623 565.625 34.678123Q565.625 32.834373 565.21875 31.037498Q564.875 29.568748 564.28125 28.224998Q563.90625 27.334373 562.71875 25.287498L563.96875 25.287498Q565.8125 27.740623 566.6875 30.209373Q567.4375 32.334373 567.4375 34.6625Q567.4375 37.303123 566.4219 39.771873Q565.4219 42.225 563.96875 44.053123ZM575.1406 35.553123L575.1406 33.7875L580.53125 33.7875L580.53125 35.553123L575.1406 35.553123ZM591.03125 32.084373Q589.9375 31.678123 589.40625 30.943748Q588.8906 30.193748 588.8906 29.162498Q588.8906 27.599998 590.0156 26.537498Q591.1406 25.474998 593.0 25.474998Q594.875 25.474998 596.0156 26.568748Q597.15625 27.646873 597.15625 29.209373Q597.15625 30.209373 596.625 30.943748Q596.1094 31.678123 595.0469 32.084373Q596.375 32.521873 597.0625 33.475Q597.75 34.428123 597.75 35.75625Q597.75 37.6 596.4375 38.85Q595.1406 40.1 593.03125 40.1Q590.90625 40.1 589.6094 38.85Q588.3125 37.584373 588.3125 35.709373Q588.3125 34.31875 589.0156 33.38125Q589.7344 32.428123 591.03125 32.084373ZM590.6875 29.099998Q590.6875 30.115623 591.34375 30.771873Q592.0 31.412498 593.03125 31.412498Q594.0469 31.412498 594.7031 30.771873Q595.3594 30.131248 595.3594 29.209373Q595.3594 28.240623 594.6875 27.584373Q594.0156 26.912498 593.0156 26.912498Q592.0156 26.912498 591.34375 27.568748Q590.6875 28.209373 590.6875 29.099998ZM590.125 35.725Q590.125 36.475 590.46875 37.178123Q590.8281 37.88125 591.53125 38.271873Q592.2344 38.646873 593.0469 38.646873Q594.3125 38.646873 595.125 37.834373Q595.9531 37.021873 595.9531 35.771873Q595.9531 34.50625 595.1094 33.678123Q594.2656 32.85 592.9844 32.85Q591.75 32.85 590.9375 33.678123Q590.125 34.490623 590.125 35.725ZM605.9531 39.85L604.1875 39.85L604.1875 28.646873Q603.5625 29.256248 602.53125 29.865623Q601.5 30.459373 600.6719 30.771873L600.6719 29.068748Q602.15625 28.381248 603.25 27.396873Q604.3594 26.396873 604.8125 25.474998L605.9531 25.474998L605.9531 39.85ZM610.59375 36.5375L612.28125 36.38125Q612.5 37.56875 613.09375 38.115623Q613.7031 38.646873 614.65625 38.646873Q615.46875 38.646873 616.0781 38.2875Q616.6875 37.9125 617.0781 37.2875Q617.46875 36.6625 617.7344 35.615623Q618.0 34.553123 618.0 33.459373Q618.0 33.35 617.9844 33.115623Q617.4531 33.94375 616.5469 34.475Q615.6406 34.990623 614.5625 34.990623Q612.7969 34.990623 611.5625 33.709373Q610.3281 32.4125 610.3281 30.303123Q610.3281 28.131248 611.6094 26.803123Q612.90625 25.474998 614.8281 25.474998Q616.2344 25.474998 617.3906 26.224998Q618.5469 26.974998 619.1406 28.365623Q619.75 29.756248 619.75 32.396873Q619.75 35.146873 619.1406 36.771873Q618.5469 38.396873 617.375 39.25625Q616.2031 40.1 614.625 40.1Q612.9375 40.1 611.875 39.1625Q610.8125 38.225 610.59375 36.5375ZM617.7969 30.224998Q617.7969 28.709373 616.9844 27.818748Q616.1875 26.928123 615.0469 26.928123Q613.875 26.928123 613.0 27.896873Q612.1406 28.849998 612.1406 30.365623Q612.1406 31.740623 612.9531 32.6Q613.78125 33.44375 615.0 33.44375Q616.21875 33.44375 617.0 32.6Q617.7969 31.740623 617.7969 30.224998ZM630.5625 38.1625L630.5625 39.85L621.1094 39.85Q621.09375 39.209373 621.3125 38.63125Q621.6719 37.6625 622.46875 36.725Q623.2656 35.7875 624.7656 34.553123Q627.1094 32.646873 627.9219 31.537498Q628.75 30.412498 628.75 29.412498Q628.75 28.365623 628.0 27.646873Q627.25 26.928123 626.0469 26.928123Q624.78125 26.928123 624.0156 27.693748Q623.25 28.459373 623.25 29.803123L621.4375 29.615623Q621.625 27.599998 622.8281 26.537498Q624.0469 25.474998 626.09375 25.474998Q628.1406 25.474998 629.34375 26.615623Q630.5469 27.756248 630.5469 29.443748Q630.5469 30.303123 630.1875 31.146873Q629.84375 31.974998 629.03125 32.896873Q628.21875 33.803123 626.3281 35.4125Q624.7344 36.740623 624.28125 37.209373Q623.84375 37.678123 623.5469 38.1625L630.5625 38.1625ZM637.6406 39.85L641.4375 34.459373L637.9375 29.474998L640.125 29.474998L641.71875 31.912498Q642.1719 32.6 642.4375 33.06875Q642.875 32.428123 643.2344 31.928123L644.9844 29.474998L647.0781 29.474998L643.5 34.365623L647.3594 39.85L645.2031 39.85L643.0625 36.63125L642.5 35.75625L639.78125 39.85L637.6406 39.85ZM656.03125 32.084373Q654.9375 31.678123 654.40625 30.943748Q653.8906 30.193748 653.8906 29.162498Q653.8906 27.599998 655.0156 26.537498Q656.1406 25.474998 658.0 25.474998Q659.875 25.474998 661.0156 26.568748Q662.15625 27.646873 662.15625 29.209373Q662.15625 30.209373 661.625 30.943748Q661.1094 31.678123 660.0469 32.084373Q661.375 32.521873 662.0625 33.475Q662.75 34.428123 662.75 35.75625Q662.75 37.6 661.4375 38.85Q660.1406 40.1 658.03125 40.1Q655.90625 40.1 654.6094 38.85Q653.3125 37.584373 653.3125 35.709373Q653.3125 34.31875 654.0156 33.38125Q654.7344 32.428123 656.03125 32.084373ZM655.6875 29.099998Q655.6875 30.115623 656.34375 30.771873Q657.0 31.412498 658.03125 31.412498Q659.0469 31.412498 659.7031 30.771873Q660.3594 30.131248 660.3594 29.209373Q660.3594 28.240623 659.6875 27.584373Q659.0156 26.912498 658.0156 26.912498Q657.0156 26.912498 656.34375 27.568748Q655.6875 28.209373 655.6875 29.099998ZM655.125 35.725Q655.125 36.475 655.46875 37.178123Q655.8281 37.88125 656.53125 38.271873Q657.2344 38.646873 658.0469 38.646873Q659.3125 38.646873 660.125 37.834373Q660.9531 37.021873 660.9531 35.771873Q660.9531 34.50625 660.1094 33.678123Q659.2656 32.85 657.9844 32.85Q656.75 32.85 655.9375 33.678123Q655.125 34.490623 655.125 35.725ZM670.9531 39.85L669.1875 39.85L669.1875 28.646873Q668.5625 29.256248 667.53125 29.865623Q666.5 30.459373 665.6719 30.771873L665.6719 29.068748Q667.15625 28.381248 668.25 27.396873Q669.3594 26.396873 669.8125 25.474998L670.9531 25.474998L670.9531 39.85ZM675.59375 36.5375L677.28125 36.38125Q677.5 37.56875 678.09375 38.115623Q678.7031 38.646873 679.65625 38.646873Q680.46875 38.646873 681.0781 38.2875Q681.6875 37.9125 682.0781 37.2875Q682.46875 36.6625 682.7344 35.615623Q683.0 34.553123 683.0 33.459373Q683.0 33.35 682.9844 33.115623Q682.4531 33.94375 681.5469 34.475Q680.6406 34.990623 679.5625 34.990623Q677.7969 34.990623 676.5625 33.709373Q675.3281 32.4125 675.3281 30.303123Q675.3281 28.131248 676.6094 26.803123Q677.90625 25.474998 679.8281 25.474998Q681.2344 25.474998 682.3906 26.224998Q683.5469 26.974998 684.1406 28.365623Q684.75 29.756248 684.75 32.396873Q684.75 35.146873 684.1406 36.771873Q683.5469 38.396873 682.375 39.25625Q681.2031 40.1 679.625 40.1Q677.9375 40.1 676.875 39.1625Q675.8125 38.225 675.59375 36.5375ZM682.7969 30.224998Q682.7969 28.709373 681.9844 27.818748Q681.1875 26.928123 680.0469 26.928123Q678.875 26.928123 678.0 27.896873Q677.1406 28.849998 677.1406 30.365623Q677.1406 31.740623 677.9531 32.6Q678.78125 33.44375 680.0 33.44375Q681.21875 33.44375 682.0 32.6Q682.7969 31.740623 682.7969 30.224998ZM695.5625 38.1625L695.5625 39.85L686.1094 39.85Q686.09375 39.209373 686.3125 38.63125Q686.6719 37.6625 687.46875 36.725Q688.2656 35.7875 689.7656 34.553123Q692.1094 32.646873 692.9219 31.537498Q693.75 30.412498 693.75 29.412498Q693.75 28.365623 693.0 27.646873Q692.25 26.928123 691.0469 26.928123Q689.78125 26.928123 689.0156 27.693748Q688.25 28.459373 688.25 29.803123L686.4375 29.615623Q686.625 27.599998 687.8281 26.537498Q689.0469 25.474998 691.09375 25.474998Q693.1406 25.474998 694.34375 26.615623Q695.5469 27.756248 695.5469 29.443748Q695.5469 30.303123 695.1875 31.146873Q694.84375 31.974998 694.03125 32.896873Q693.21875 33.803123 691.3281 35.4125Q689.7344 36.740623 689.28125 37.209373Q688.84375 37.678123 688.5469 38.1625L695.5625 38.1625ZM703.1406 35.553123L703.1406 33.7875L708.53125 33.7875L708.53125 35.553123L703.1406 35.553123ZM721.96875 39.85L721.96875 36.428123L715.75 36.428123L715.75 34.803123L722.28125 25.537498L723.71875 25.537498L723.71875 34.803123L725.65625 34.803123L725.65625 36.428123L723.71875 36.428123L723.71875 39.85L721.96875 39.85ZM721.96875 34.803123L721.96875 28.349998L717.4844 34.803123L721.96875 34.803123ZM727.3281 32.7875Q727.3281 30.256248 727.84375 28.709373Q728.375 27.146873 729.40625 26.318748Q730.4375 25.474998 732.0 25.474998Q733.15625 25.474998 734.0156 25.943748Q734.8906 26.396873 735.4531 27.271873Q736.0156 28.146873 736.34375 29.412498Q736.6719 30.662498 736.6719 32.7875Q736.6719 35.303123 736.1406 36.85Q735.625 38.396873 734.59375 39.25625Q733.5781 40.1 732.0 40.1Q729.9219 40.1 728.75 38.615623Q727.3281 36.81875 727.3281 32.7875ZM729.1406 32.7875Q729.1406 36.31875 729.9531 37.490623Q730.78125 38.646873 732.0 38.646873Q733.2031 38.646873 734.03125 37.475Q734.8594 36.303123 734.8594 32.7875Q734.8594 29.256248 734.03125 28.099998Q733.2031 26.928123 731.9844 26.928123Q730.7656 26.928123 730.0469 27.959373Q729.1406 29.256248 729.1406 32.7875ZM738.59375 36.5375L740.28125 36.38125Q740.5 37.56875 741.09375 38.115623Q741.7031 38.646873 742.65625 38.646873Q743.46875 38.646873 744.0781 38.2875Q744.6875 37.9125 745.0781 37.2875Q745.46875 36.6625 745.7344 35.615623Q746.0 34.553123 746.0 33.459373Q746.0 33.35 745.9844 33.115623Q745.4531 33.94375 744.5469 34.475Q743.6406 34.990623 742.5625 34.990623Q740.7969 34.990623 739.5625 33.709373Q738.3281 32.4125 738.3281 30.303123Q738.3281 28.131248 739.6094 26.803123Q740.90625 25.474998 742.8281 25.474998Q744.2344 25.474998 745.3906 26.224998Q746.5469 26.974998 747.1406 28.365623Q747.75 29.756248 747.75 32.396873Q747.75 35.146873 747.1406 36.771873Q746.5469 38.396873 745.375 39.25625Q744.2031 40.1 742.625 40.1Q740.9375 40.1 739.875 39.1625Q738.8125 38.225 738.59375 36.5375ZM745.7969 30.224998Q745.7969 28.709373 744.9844 27.818748Q744.1875 26.928123 743.0469 26.928123Q741.875 26.928123 741.0 27.896873Q740.1406 28.849998 740.1406 30.365623Q740.1406 31.740623 740.9531 32.6Q741.78125 33.44375 743.0 33.44375Q744.21875 33.44375 745.0 32.6Q745.7969 31.740623 745.7969 30.224998ZM749.3281 32.7875Q749.3281 30.256248 749.84375 28.709373Q750.375 27.146873 751.40625 26.318748Q752.4375 25.474998 754.0 25.474998Q755.15625 25.474998 756.0156 25.943748Q756.8906 26.396873 757.4531 27.271873Q758.0156 28.146873 758.34375 29.412498Q758.6719 30.662498 758.6719 32.7875Q758.6719 35.303123 758.1406 36.85Q757.625 38.396873 756.59375 39.25625Q755.5781 40.1 754.0 40.1Q751.9219 40.1 750.75 38.615623Q749.3281 36.81875 749.3281 32.7875ZM751.1406 32.7875Q751.1406 36.31875 751.9531 37.490623Q752.78125 38.646873 754.0 38.646873Q755.2031 38.646873 756.03125 37.475Q756.8594 36.303123 756.8594 32.7875Q756.8594 29.256248 756.03125 28.099998Q755.2031 26.928123 753.9844 26.928123Q752.7656 26.928123 752.0469 27.959373Q751.1406 29.256248 751.1406 32.7875ZM767.0781 39.85L767.0781 25.537498L773.4219 25.537498Q775.3281 25.537498 776.3281 25.928123Q777.3281 26.303123 777.9219 27.287498Q778.5156 28.256248 778.5156 29.443748Q778.5156 30.959373 777.53125 32.00625Q776.5469 33.053123 774.4844 33.334373Q775.2344 33.69375 775.625 34.053123Q776.4531 34.803123 777.2031 35.959373L779.6875 39.85L777.3125 39.85L775.40625 36.865623Q774.5781 35.584373 774.0469 34.896873Q773.5156 34.209373 773.0781 33.94375Q772.65625 33.6625 772.21875 33.553123Q771.8906 33.490623 771.1719 33.490623L768.96875 33.490623L768.96875 39.85L767.0781 39.85ZM768.96875 31.849998L773.0469 31.849998Q774.34375 31.849998 775.0625 31.584373Q775.7969 31.318748 776.1719 30.724998Q776.5625 30.131248 776.5625 29.443748Q776.5625 28.428123 775.8281 27.771873Q775.09375 27.115623 773.5 27.115623L768.96875 27.115623L768.96875 31.849998ZM784.6875 39.85L784.6875 27.224998L779.96875 27.224998L779.96875 25.537498L791.3125 25.537498L791.3125 27.224998L786.5781 27.224998L786.5781 39.85L784.6875 39.85ZM791.59375 39.85L797.125 32.38125L792.25 25.537498L794.5 25.537498L797.09375 29.209373Q797.90625 30.349998 798.25 30.959373Q798.7344 30.178123 799.375 29.334373L802.2656 25.537498L804.3281 25.537498L799.2969 32.2875L804.71875 39.85L802.375 39.85L798.7656 34.740623Q798.46875 34.303123 798.1406 33.7875Q797.65625 34.56875 797.4531 34.865623L793.8594 39.85L791.59375 39.85Z" fill-rule="nonzero"/></svg>