<svg version="1.1" viewBox="0.0 0.0 1007.0 417.0" fill="none" stroke="none" stroke-linecap="square" stroke-miterlimit="10" width="1007" height="417" xmlns:xlink="http://www.w3.org/1999/xlink" xmlns="http://www.w3.org/2000/svg"><path fill="#ffffff" d="M0 0L1007.0 0L1007.0 417.0L0 417.0L0 0Z" fill-rule="nonzero"/><path stroke="#333333" stroke-width="1.0" stroke-linecap="butt" d="M88.5 93.5L88.5 344.5" fill-rule="nonzero"/><path stroke="#cccccc" stroke-width="1.0" stroke-linecap="butt" d="M305.5 93.5L305.5 344.5" fill-rule="nonzero"/><path stroke="#cccccc" stroke-width="1.0" stroke-linecap="butt" d="M522.5 93.5L522.5 344.5" fill-rule="nonzero"/><path stroke="#cccccc" stroke-width="1.0" stroke-linecap="butt" d="M738.5 93.5L738.5 344.5" fill-rule="nonzero"/><path stroke="#cccccc" stroke-width="1.0" stroke-linecap="butt" d="M955.5 93.5L955.5 344.5" fill-rule="nonzero"/><path stroke="#333333" stroke-width="1.0" stroke-linecap="butt" d="M79.5 344.5L986.5 344.5" fill-rule="nonzero"/><path stroke="#cccccc" stroke-width="1.0" stroke-linecap="butt" d="M79.5 260.5L986.5 260.5" fill-rule="nonzero"/><path stroke="#cccccc" stroke-width="1.0" stroke-linecap="butt" d="M79.5 177.5L986.5 177.5" fill-rule="nonzero"/><path stroke="#cccccc" stroke-width="1.0" stroke-linecap="butt" d="M79.5 93.5L986.5 93.5" fill-rule="nonzero"/><clipPath id="id_0"><path d="M79.85 93.65L986.15 93.65L986.15 344.15L79.85 344.15L79.85 93.65Z" clip-rule="nonzero"/></clipPath><path stroke="#6aa84f" stroke-width="2.0" stroke-linecap="butt" clip-path="url(#id_0)" d="M89.63409 156.275L90.500885 153.77L92.234474 153.77L95.70165 154.605L102.63602 155.0225L116.504745 165.0425L144.2422 203.035L199.71712 255.64L310.66696 291.545L532.5666 292.7975L976.3659 289.4575" fill-rule="nonzero"/><path stroke="#fbbc04" stroke-width="2.0" stroke-linecap="butt" clip-path="url(#id_0)" d="M89.63409 138.3225L90.500885 216.395L92.234474 259.3975L95.70165 292.38L102.63602 305.3225L116.504745 303.6525L144.2422 305.3225L199.71712 310.3325L310.66696 306.575L532.5666 306.9925L976.3659 306.9925" fill-rule="nonzero"/><path stroke="#6aa84f" stroke-width="2.0" stroke-linecap="butt" stroke-dasharray="2.0,3.0" clip-path="url(#id_0)" d="M89.63409 148.3425L90.500885 134.9825L92.234474 136.235L95.70165 137.905L102.63602 139.9925L116.504745 143.3325L144.2422 195.9375L199.71712 244.785L310.66696 256.8925L532.5666 257.7275L976.3659 255.64" fill-rule="nonzero"/><path fill="#6aa84f" clip-path="url(#id_0)" d="M89.63409 150.275L90.98117 154.4209L95.34042 154.4209L91.81371 156.9832L93.1608 161.1291L89.63409 158.5668L86.107376 161.1291L87.45446 156.9832L83.92775 154.4209L88.287 154.4209Z" fill-rule="nonzero"/><path fill="#6aa84f" clip-path="url(#id_0)" d="M90.500885 147.77L91.84797 151.9159L96.20722 151.9159L92.68051 154.47821L94.027596 158.6241L90.500885 156.0618L86.974174 158.6241L88.32126 154.47821L84.79454 151.9159L89.1538 151.9159Z" fill-rule="nonzero"/><path fill="#6aa84f" clip-path="url(#id_0)" d="M92.234474 147.77L93.58156 151.9159L97.94081 151.9159L94.4141 154.47821L95.761185 158.6241L92.234474 156.0618L88.70776 158.6241L90.05485 154.47821L86.52814 151.9159L90.88739 151.9159Z" fill-rule="nonzero"/><path fill="#6aa84f" clip-path="url(#id_0)" d="M95.70165 148.605L97.04874 152.7509L101.408 152.7509L97.88129 155.3132L99.22837 159.4591L95.70165 156.89679L92.17494 159.4591L93.522026 155.3132L89.995316 152.7509L94.35457 152.7509Z" fill-rule="nonzero"/><path fill="#6aa84f" clip-path="url(#id_0)" d="M102.63602 149.0225L103.9831 153.1684L108.34236 153.1684L104.81565 155.7307L106.162735 159.8766L102.63602 157.3143L99.10931 159.8766L100.45639 155.7307L96.92968 153.1684L101.28893 153.1684Z" fill-rule="nonzero"/><path fill="#6aa84f" clip-path="url(#id_0)" d="M116.504745 159.0425L117.85183 163.1884L122.21109 163.1884L118.68438 165.7507L120.03146 169.8966L116.504745 167.33429L112.978035 169.8966L114.32512 165.7507L110.79841 163.1884L115.15766 163.1884Z" fill-rule="nonzero"/><path fill="#6aa84f" clip-path="url(#id_0)" d="M144.2422 197.035L145.5893 201.1809L149.94855 201.1809L146.42183 203.74321L147.76892 207.8891L144.2422 205.3268L140.7155 207.8891L142.06258 203.74321L138.53587 201.1809L142.89513 201.1809Z" fill-rule="nonzero"/><path fill="#6aa84f" clip-path="url(#id_0)" d="M199.71712 249.64L201.06421 253.7859L205.42346 253.7859L201.89674 256.3482L203.24384 260.4941L199.71712 257.9318L196.19041 260.4941L197.53749 256.3482L194.01077 253.7859L198.37004 253.7859Z" fill-rule="nonzero"/><path fill="#6aa84f" clip-path="url(#id_0)" d="M310.66696 285.545L312.01404 289.6909L316.3733 289.6909L312.8466 292.2532L314.19366 296.3991L310.66696 293.8368L307.14023 296.3991L308.4873 292.2532L304.9606 289.6909L309.31985 289.6909Z" fill-rule="nonzero"/><path fill="#6aa84f" clip-path="url(#id_0)" d="M532.5666 286.7975L533.9137 290.9434L538.27295 290.9434L534.7462 293.5057L536.0933 297.6516L532.5666 295.0893L529.0399 297.6516L530.38696 293.5057L526.8603 290.9434L531.21954 290.9434Z" fill-rule="nonzero"/><path fill="#6aa84f" clip-path="url(#id_0)" d="M976.3659 283.4575L977.713 287.6034L982.07227 287.6034L978.54553 290.1657L979.89264 294.3116L976.3659 291.7493L972.8392 294.3116L974.1863 290.1657L970.65955 287.6034L975.0188 287.6034Z" fill-rule="nonzero"/><path fill="#fbbc04" clip-path="url(#id_0)" d="M89.63409 132.3225L90.98117 136.4684L95.34042 136.4684L91.81371 139.0307L93.1608 143.1766L89.63409 140.6143L86.107376 143.1766L87.45446 139.0307L83.92775 136.4684L88.287 136.4684Z" fill-rule="nonzero"/><path fill="#fbbc04" clip-path="url(#id_0)" d="M90.500885 210.395L91.84797 214.5409L96.20722 214.5409L92.68051 217.10321L94.027596 221.2491L90.500885 218.6868L86.974174 221.2491L88.32126 217.10321L84.79454 214.5409L89.1538 214.5409Z" fill-rule="nonzero"/><path fill="#fbbc04" clip-path="url(#id_0)" d="M92.234474 253.3975L93.58156 257.5434L97.94081 257.5434L94.4141 260.1057L95.761185 264.2516L92.234474 261.6893L88.70776 264.2516L90.05485 260.1057L86.52814 257.5434L90.88739 257.5434Z" fill-rule="nonzero"/><path fill="#fbbc04" clip-path="url(#id_0)" d="M95.70165 286.38L97.04874 290.5259L101.408 290.5259L97.88129 293.0882L99.22837 297.2341L95.70165 294.67178L92.17494 297.2341L93.522026 293.0882L89.995316 290.5259L94.35457 290.5259Z" fill-rule="nonzero"/><path fill="#fbbc04" clip-path="url(#id_0)" d="M102.63602 299.3225L103.9831 303.46838L108.34236 303.46838L104.81565 306.0307L106.162735 310.1766L102.63602 307.6143L99.10931 310.1766L100.45639 306.0307L96.92968 303.46838L101.28893 303.46838Z" fill-rule="nonzero"/><path fill="#fbbc04" clip-path="url(#id_0)" d="M116.504745 297.6525L117.85183 301.7984L122.21109 301.7984L118.68438 304.36072L120.03146 308.5066L116.504745 305.9443L112.978035 308.5066L114.32512 304.36072L110.79841 301.7984L115.15766 301.7984Z" fill-rule="nonzero"/><path fill="#fbbc04" clip-path="url(#id_0)" d="M144.2422 299.3225L145.5893 303.46838L149.94855 303.46838L146.42183 306.0307L147.76892 310.1766L144.2422 307.6143L140.7155 310.1766L142.06258 306.0307L138.53587 303.46838L142.89513 303.46838Z" fill-rule="nonzero"/><path fill="#fbbc04" clip-path="url(#id_0)" d="M199.71712 304.3325L201.06421 308.4784L205.42346 308.4784L201.89674 311.0407L203.24384 315.1866L199.71712 312.6243L196.19041 315.1866L197.53749 311.0407L194.01077 308.4784L198.37004 308.4784Z" fill-rule="nonzero"/><path fill="#fbbc04" clip-path="url(#id_0)" d="M310.66696 300.575L312.01404 304.7209L316.3733 304.7209L312.8466 307.2832L314.19366 311.4291L310.66696 308.8668L307.14023 311.4291L308.4873 307.2832L304.9606 304.7209L309.31985 304.7209Z" fill-rule="nonzero"/><path fill="#fbbc04" clip-path="url(#id_0)" d="M532.5666 300.9925L533.9137 305.1384L538.27295 305.1384L534.7462 307.7007L536.0933 311.8466L532.5666 309.2843L529.0399 311.8466L530.38696 307.7007L526.8603 305.1384L531.21954 305.1384Z" fill-rule="nonzero"/><path fill="#fbbc04" clip-path="url(#id_0)" d="M976.3659 300.9925L977.713 305.1384L982.07227 305.1384L978.54553 307.7007L979.89264 311.8466L976.3659 309.2843L972.8392 311.8466L974.1863 307.7007L970.65955 305.1384L975.0188 305.1384Z" fill-rule="nonzero"/><path fill="#6aa84f" clip-path="url(#id_0)" d="M89.63409 148.3425L89.63409 148.3425L89.63409 148.3425L89.63409 148.3425Z" fill-rule="nonzero"/><path fill="#6aa84f" clip-path="url(#id_0)" d="M90.500885 134.9825L90.500885 134.9825L90.500885 134.9825L90.500885 134.9825Z" fill-rule="nonzero"/><path fill="#6aa84f" clip-path="url(#id_0)" d="M92.234474 136.235L92.234474 136.235L92.234474 136.235L92.234474 136.235Z" fill-rule="nonzero"/><path fill="#6aa84f" clip-path="url(#id_0)" d="M95.70165 137.905L95.70165 137.905L95.70165 137.905L95.70165 137.905Z" fill-rule="nonzero"/><path fill="#6aa84f" clip-path="url(#id_0)" d="M102.63602 139.9925L102.63602 139.9925L102.63602 139.9925L102.63602 139.9925Z" fill-rule="nonzero"/><path fill="#6aa84f" clip-path="url(#id_0)" d="M116.504745 143.3325L116.504745 143.3325L116.504745 143.3325L116.504745 143.3325Z" fill-rule="nonzero"/><path fill="#6aa84f" clip-path="url(#id_0)" d="M144.2422 195.9375L144.2422 195.9375L144.2422 195.9375L144.2422 195.9375Z" fill-rule="nonzero"/><path fill="#6aa84f" clip-path="url(#id_0)" d="M199.71712 244.785L199.71712 244.785L199.71712 244.785L199.71712 244.785Z" fill-rule="nonzero"/><path fill="#6aa84f" clip-path="url(#id_0)" d="M310.66696 256.8925L310.66696 256.8925L310.66696 256.8925L310.66696 256.8925Z" fill-rule="nonzero"/><path fill="#6aa84f" clip-path="url(#id_0)" d="M532.5666 257.7275L532.5666 257.7275L532.5666 257.7275L532.5666 257.7275Z" fill-rule="nonzero"/><path fill="#6aa84f" clip-path="url(#id_0)" d="M976.3659 255.64L976.3659 255.64L976.3659 255.64L976.3659 255.64Z" fill-rule="nonzero"/><path fill="#000000" d="M505.375 393.15L505.375 384.55624L508.60938 384.55624Q509.59375 384.55624 510.1875 384.82187Q510.78125 385.0875 511.10938 385.63437Q511.45312 386.16562 511.45312 386.75937Q511.45312 387.30624 511.15625 387.79062Q510.85938 388.275 510.25 388.57187Q511.03125 388.80624 511.4375 389.36874Q511.85938 389.91562 511.85938 390.66562Q511.85938 391.25937 511.60938 391.79062Q511.35938 392.30624 510.98438 392.5875Q510.60938 392.86874 510.03125 393.00937Q509.46875 393.15 508.65625 393.15L505.375 393.15ZM506.51562 388.16562L508.375 388.16562Q509.125 388.16562 509.45312 388.07187Q509.89062 387.94687 510.10938 387.65Q510.32812 387.3375 510.32812 386.88437Q510.32812 386.4625 510.125 386.13437Q509.92188 385.80624 509.53125 385.69687Q509.15625 385.57187 508.23438 385.57187L506.51562 385.57187L506.51562 388.16562ZM506.51562 392.13437L508.65625 392.13437Q509.20312 392.13437 509.42188 392.0875Q509.82812 392.025 510.07812 391.86874Q510.34375 391.69687 510.51562 391.38437Q510.6875 391.07187 510.6875 390.66562Q510.6875 390.18124 510.4375 389.82187Q510.20312 389.4625 509.76562 389.32187Q509.32812 389.18124 508.5 389.18124L506.51562 389.18124L506.51562 392.13437ZM517.3594 392.38437Q516.7656 392.88437 516.21875 393.0875Q515.6875 393.29062 515.0625 393.29062Q514.03125 393.29062 513.4844 392.79062Q512.9375 392.29062 512.9375 391.50937Q512.9375 391.05624 513.1406 390.68124Q513.34375 390.29062 513.6875 390.07187Q514.03125 389.8375 514.4531 389.72812Q514.75 389.63437 515.3906 389.55624Q516.65625 389.41562 517.2656 389.19687Q517.2656 388.97812 517.2656 388.93124Q517.2656 388.275 516.96875 388.00937Q516.5625 387.66562 515.7656 387.66562Q515.03125 387.66562 514.6719 387.93124Q514.3125 388.18124 514.1406 388.8375L513.1094 388.69687Q513.25 388.04062 513.5781 387.63437Q513.90625 387.22812 514.5156 387.00937Q515.125 386.79062 515.9219 386.79062Q516.71875 386.79062 517.21875 386.97812Q517.71875 387.16562 517.9531 387.44687Q518.1875 387.72812 518.28125 388.16562Q518.3281 388.43124 518.3281 389.13437L518.3281 390.54062Q518.3281 392.00937 518.3906 392.4Q518.46875 392.79062 518.6719 393.15L517.5625 393.15Q517.40625 392.82187 517.3594 392.38437ZM517.2656 390.025Q516.6875 390.25937 515.5469 390.43124Q514.8906 390.525 514.625 390.65Q514.3594 390.75937 514.2031 390.97812Q514.0625 391.19687 514.0625 391.47812Q514.0625 391.9 514.375 392.18124Q514.7031 392.4625 515.3125 392.4625Q515.9219 392.4625 516.3906 392.19687Q516.875 391.93124 517.09375 391.4625Q517.2656 391.10312 517.2656 390.41562L517.2656 390.025ZM522.59375 392.2125L522.75 393.13437Q522.2969 393.22812 521.9531 393.22812Q521.375 393.22812 521.0625 393.05624Q520.75 392.86874 520.6094 392.57187Q520.4844 392.275 520.4844 391.32187L520.4844 387.74374L519.71875 387.74374L519.71875 386.93124L520.4844 386.93124L520.4844 385.38437L521.53125 384.75937L521.53125 386.93124L522.59375 386.93124L522.59375 387.74374L521.53125 387.74374L521.53125 391.38437Q521.53125 391.8375 521.5781 391.9625Q521.6406 392.0875 521.7656 392.16562Q521.8906 392.24374 522.125 392.24374Q522.3125 392.24374 522.59375 392.2125ZM527.3594 390.86874L528.3906 391.00937Q528.21875 392.07187 527.5156 392.68124Q526.8125 393.29062 525.7969 393.29062Q524.5156 393.29062 523.7344 392.4625Q522.96875 391.61874 522.96875 390.05624Q522.96875 389.05624 523.2969 388.30624Q523.6406 387.54062 524.3125 387.16562Q525.0 386.79062 525.8125 386.79062Q526.8125 386.79062 527.4531 387.30624Q528.1094 387.80624 528.2969 388.75937L527.2656 388.91562Q527.125 388.29062 526.75 387.97812Q526.375 387.65 525.84375 387.65Q525.0469 387.65 524.5469 388.22812Q524.0469 388.79062 524.0469 390.025Q524.0469 391.29062 524.53125 391.85312Q525.0156 392.41562 525.78125 392.41562Q526.40625 392.41562 526.8125 392.04062Q527.2344 391.66562 527.3594 390.86874ZM529.2969 393.15L529.2969 384.55624L530.34375 384.55624L530.34375 387.63437Q531.0781 386.79062 532.2031 386.79062Q532.90625 386.79062 533.40625 387.07187Q533.9219 387.3375 534.1406 387.82187Q534.3594 388.29062 534.3594 389.2125L534.3594 393.15L533.3125 393.15L533.3125 389.2125Q533.3125 388.41562 532.96875 388.05624Q532.625 387.69687 532.0 387.69687Q531.53125 387.69687 531.1094 387.94687Q530.7031 388.18124 530.5156 388.60312Q530.34375 389.00937 530.34375 389.74374L530.34375 393.15L529.2969 393.15ZM539.0469 390.38437L540.1094 390.29062Q540.1875 390.94687 540.46875 391.35312Q540.75 391.75937 541.3281 392.025Q541.9219 392.275 542.65625 392.275Q543.2969 392.275 543.7969 392.0875Q544.2969 391.88437 544.53125 391.55624Q544.78125 391.2125 544.78125 390.82187Q544.78125 390.41562 544.5469 390.11874Q544.3125 389.80624 543.78125 389.60312Q543.4219 389.4625 542.2344 389.18124Q541.0625 388.9 540.59375 388.65Q539.96875 388.32187 539.6719 387.85312Q539.375 387.36874 539.375 386.775Q539.375 386.13437 539.7344 385.57187Q540.1094 384.99374 540.8125 384.7125Q541.53125 384.41562 542.3906 384.41562Q543.34375 384.41562 544.0781 384.72812Q544.8125 385.025 545.2031 385.63437Q545.59375 386.22812 545.625 386.97812L544.53125 387.05624Q544.4375 386.24374 543.9219 385.8375Q543.4219 385.41562 542.4375 385.41562Q541.40625 385.41562 540.9375 385.79062Q540.46875 386.16562 540.46875 386.69687Q540.46875 387.16562 540.7969 387.4625Q541.125 387.75937 542.5 388.07187Q543.8906 388.38437 544.40625 388.61874Q545.15625 388.97812 545.5156 389.50937Q545.875 390.025 545.875 390.72812Q545.875 391.41562 545.4844 392.025Q545.09375 392.61874 544.3594 392.9625Q543.625 393.29062 542.7031 393.29062Q541.53125 393.29062 540.7344 392.9625Q539.9531 392.61874 539.5 391.93124Q539.0625 391.24374 539.0469 390.38437ZM547.2969 385.775L547.2969 384.55624L548.3594 384.55624L548.3594 385.775L547.2969 385.775ZM547.2969 393.15L547.2969 386.93124L548.3594 386.93124L548.3594 393.15L547.2969 393.15ZM549.7344 393.15L549.7344 392.29062L553.7031 387.74374Q553.0156 387.775 552.5 387.775L549.96875 387.775L549.96875 386.93124L555.0625 386.93124L555.0625 387.61874L551.6875 391.57187L551.03125 392.29062Q551.75 392.24374 552.3594 392.24374L555.25 392.24374L555.25 393.15L549.7344 393.15ZM559.5469 391.15L560.6406 391.275Q560.3906 392.22812 559.6875 392.75937Q558.9844 393.29062 557.90625 393.29062Q556.5469 393.29062 555.7344 392.44687Q554.9375 391.60312 554.9375 390.0875Q554.9375 388.525 555.75 387.66562Q556.5625 386.79062 557.84375 386.79062Q559.09375 386.79062 559.875 387.63437Q560.6719 388.47812 560.6719 390.025Q560.6719 390.11874 560.6719 390.30624L556.03125 390.30624Q556.09375 391.3375 556.6094 391.88437Q557.125 392.41562 557.90625 392.41562Q558.4844 392.41562 558.8906 392.11874Q559.3125 391.80624 559.5469 391.15ZM556.09375 389.44687L559.5625 389.44687Q559.5 388.65 559.1719 388.25937Q558.65625 387.65 557.8594 387.65Q557.125 387.65 556.625 388.13437Q556.1406 388.61874 556.09375 389.44687Z" fill-rule="nonzero"/><path fill="#000000" d="M29.08437 259.85312L28.99062 258.79062Q29.64687 258.7125 30.05312 258.43124Q30.45937 258.15 30.724995 257.57187Q30.974995 256.97812 30.974995 256.24374Q30.974995 255.60312 30.787495 255.10312Q30.58437 254.60312 30.256245 254.36874Q29.912495 254.11874 29.52187 254.11874Q29.11562 254.11874 28.818745 254.35312Q28.506245 254.5875 28.30312 255.11874Q28.162495 255.47812 27.881245 256.66562Q27.599995 257.8375 27.349995 258.30624Q27.02187 258.93124 26.55312 259.22812Q26.068745 259.525 25.474995 259.525Q24.83437 259.525 24.27187 259.16562Q23.693745 258.79062 23.412495 258.0875Q23.11562 257.36874 23.11562 256.50937Q23.11562 255.55624 23.42812 254.82187Q23.724995 254.0875 24.33437 253.69687Q24.92812 253.30624 25.67812 253.275L25.756245 254.36874Q24.943745 254.4625 24.537495 254.97812Q24.11562 255.47812 24.11562 256.4625Q24.11562 257.49374 24.49062 257.9625Q24.86562 258.43124 25.39687 258.43124Q25.86562 258.43124 26.162495 258.10312Q26.45937 257.775 26.77187 256.4Q27.08437 255.00937 27.318745 254.49374Q27.67812 253.74374 28.20937 253.38437Q28.724995 253.025 29.42812 253.025Q30.11562 253.025 30.724995 253.41562Q31.318745 253.80624 31.662495 254.54062Q31.99062 255.275 31.99062 256.19687Q31.99062 257.36874 31.662495 258.16562Q31.318745 258.94687 30.631245 259.4Q29.943745 259.8375 29.08437 259.85312ZM34.24062 251.60312L25.631245 251.60312L25.631245 250.65L26.42812 250.65Q25.95937 250.30624 25.724995 249.88437Q25.49062 249.44687 25.49062 248.8375Q25.49062 248.04062 25.89687 247.43124Q26.30312 246.82187 27.05312 246.525Q27.80312 246.2125 28.693745 246.2125Q29.64687 246.2125 30.412495 246.55624Q31.17812 246.88437 31.58437 247.54062Q31.99062 248.19687 31.99062 248.91562Q31.99062 249.44687 31.77187 249.86874Q31.537495 250.29062 31.20937 250.55624L34.24062 250.55624L34.24062 251.60312ZM28.77187 250.65Q29.974995 250.65 30.55312 250.16562Q31.11562 249.68124 31.11562 248.99374Q31.11562 248.29062 30.52187 247.79062Q29.92812 247.29062 28.67812 247.29062Q27.49062 247.29062 26.912495 247.775Q26.318745 248.25937 26.318745 248.94687Q26.318745 249.61874 26.943745 250.13437Q27.568745 250.65 28.77187 250.65ZM29.849995 240.35312L29.974995 239.25937Q30.92812 239.50937 31.45937 240.2125Q31.99062 240.91562 31.99062 241.99374Q31.99062 243.35312 31.14687 244.16562Q30.30312 244.9625 28.787495 244.9625Q27.224995 244.9625 26.36562 244.15Q25.49062 243.3375 25.49062 242.05624Q25.49062 240.80624 26.33437 240.025Q27.17812 239.22812 28.724995 239.22812Q28.818745 239.22812 29.006245 239.22812L29.006245 243.86874Q30.037495 243.80624 30.58437 243.29062Q31.11562 242.775 31.11562 241.99374Q31.11562 241.41562 30.818745 241.00937Q30.506245 240.5875 29.849995 240.35312ZM28.14687 243.80624L28.14687 240.3375Q27.349995 240.4 26.95937 240.72812Q26.349995 241.24374 26.349995 242.04062Q26.349995 242.775 26.83437 243.275Q27.318745 243.75937 28.14687 243.80624ZM29.849995 233.35312L29.974995 232.25937Q30.92812 232.50937 31.45937 233.2125Q31.99062 233.91562 31.99062 234.99374Q31.99062 236.35312 31.14687 237.16562Q30.30312 237.9625 28.787495 237.9625Q27.224995 237.9625 26.36562 237.15Q25.49062 236.3375 25.49062 235.05624Q25.49062 233.80624 26.33437 233.025Q27.17812 232.22812 28.724995 232.22812Q28.818745 232.22812 29.006245 232.22812L29.006245 236.86874Q30.037495 236.80624 30.58437 236.29062Q31.11562 235.775 31.11562 234.99374Q31.11562 234.41562 30.818745 234.00937Q30.506245 233.5875 29.849995 233.35312ZM28.14687 236.80624L28.14687 233.3375Q27.349995 233.4 26.95937 233.72812Q26.349995 234.24374 26.349995 235.04062Q26.349995 235.775 26.83437 236.275Q27.318745 236.75937 28.14687 236.80624ZM31.849995 226.57187L31.068745 226.57187Q31.99062 227.16562 31.99062 228.30624Q31.99062 229.05624 31.58437 229.68124Q31.162495 230.30624 30.42812 230.65Q29.693745 230.99374 28.74062 230.99374Q27.818745 230.99374 27.05312 230.68124Q26.287495 230.36874 25.89687 229.74374Q25.49062 229.11874 25.49062 228.35312Q25.49062 227.79062 25.724995 227.35312Q25.95937 226.91562 26.33437 226.63437L23.256245 226.63437L23.256245 225.5875L31.849995 225.5875L31.849995 226.57187ZM28.74062 229.9Q29.943745 229.9 30.537495 229.4Q31.11562 228.9 31.11562 228.2125Q31.11562 227.525 30.55312 227.04062Q29.99062 226.55624 28.83437 226.55624Q27.55312 226.55624 26.95937 227.05624Q26.36562 227.54062 26.36562 228.25937Q26.36562 228.9625 26.943745 229.43124Q27.506245 229.9 28.74062 229.9ZM29.27187 224.025L28.20937 224.025L28.20937 220.775L29.27187 220.775L29.27187 224.025ZM31.849995 215.525L30.92812 215.525Q31.99062 216.25937 31.99062 217.50937Q31.99062 218.05624 31.787495 218.54062Q31.568745 219.00937 31.256245 219.24374Q30.92812 219.47812 30.45937 219.57187Q30.162495 219.63437 29.474995 219.63437L25.631245 219.63437L25.631245 218.57187L29.08437 218.57187Q29.89687 218.57187 30.193745 218.50937Q30.599995 218.41562 30.849995 218.10312Q31.08437 217.775 31.08437 217.29062Q31.08437 216.82187 30.849995 216.41562Q30.599995 215.99374 30.17812 215.82187Q29.756245 215.63437 28.95937 215.63437L25.631245 215.63437L25.631245 214.5875L31.849995 214.5875L31.849995 215.525ZM34.24062 212.60312L25.631245 212.60312L25.631245 211.65L26.42812 211.65Q25.95937 211.30624 25.724995 210.88437Q25.49062 210.44687 25.49062 209.8375Q25.49062 209.04062 25.89687 208.43124Q26.30312 207.82187 27.05312 207.525Q27.80312 207.2125 28.693745 207.2125Q29.64687 207.2125 30.412495 207.55624Q31.17812 207.88437 31.58437 208.54062Q31.99062 209.19687 31.99062 209.91562Q31.99062 210.44687 31.77187 210.86874Q31.537495 211.29062 31.20937 211.55624L34.24062 211.55624L34.24062 212.60312ZM28.77187 211.65Q29.974995 211.65 30.55312 211.16562Q31.11562 210.68124 31.11562 209.99374Q31.11562 209.29062 30.52187 208.79062Q29.92812 208.29062 28.67812 208.29062Q27.49062 208.29062 26.912495 208.775Q26.318745 209.25937 26.318745 209.94687Q26.318745 210.61874 26.943745 211.13437Q27.568745 211.65 28.77187 211.65ZM34.381245 200.5875Q33.27187 201.4625 31.80312 202.07187Q30.318745 202.66562 28.74062 202.66562Q27.349995 202.66562 26.068745 202.22812Q24.58437 201.69687 23.11562 200.5875L23.11562 199.8375Q24.33437 200.54062 24.849995 200.775Q25.662495 201.13437 26.537495 201.3375Q27.631245 201.5875 28.74062 201.5875Q31.568745 201.5875 34.381245 199.8375L34.381245 200.5875ZM31.849995 199.30624L28.61562 197.04062L25.631245 199.13437L25.631245 197.82187L27.08437 196.86874Q27.506245 196.60312 27.787495 196.43124Q27.39687 196.18124 27.099995 195.9625L25.631245 194.91562L25.631245 193.65L28.55312 195.80624L31.849995 193.49374L31.849995 194.775L29.912495 196.05624L29.39687 196.4L31.849995 198.04062L31.849995 199.30624ZM34.381245 192.91562L34.381245 193.66562Q31.568745 191.91562 28.74062 191.91562Q27.64687 191.91562 26.55312 192.16562Q25.67812 192.36874 24.86562 192.72812Q24.349995 192.9625 23.11562 193.66562L23.11562 192.91562Q24.58437 191.82187 26.068745 191.29062Q27.349995 190.8375 28.74062 190.8375Q30.318745 190.8375 31.80312 191.44687Q33.27187 192.05624 34.381245 192.91562Z" fill-rule="nonzero"/><path fill="#000000" d="M67.35 343.91562Q67.35 342.38437 67.6625 341.4625Q67.975 340.525 68.58437 340.025Q69.20937 339.525 70.14687 339.525Q70.83437 339.525 71.35 339.80624Q71.88125 340.0875 72.225 340.61874Q72.56875 341.13437 72.75625 341.88437Q72.94375 342.63437 72.94375 343.91562Q72.94375 345.43124 72.63125 346.35312Q72.33437 347.275 71.70937 347.79062Q71.1 348.29062 70.14687 348.29062Q68.9125 348.29062 68.19375 347.4Q67.35 346.3375 67.35 343.91562ZM68.42812 343.91562Q68.42812 346.025 68.92812 346.72812Q69.42812 347.43124 70.14687 347.43124Q70.88125 347.43124 71.36562 346.72812Q71.86562 346.025 71.86562 343.91562Q71.86562 341.79062 71.36562 341.10312Q70.88125 340.4 70.13125 340.4Q69.4125 340.4 68.975 341.00937Q68.42812 341.79062 68.42812 343.91562Z" fill-rule="nonzero"/><path fill="#000000" d="M72.89687 263.63437L72.89687 264.65L67.20937 264.65Q67.20937 264.275 67.33437 263.91562Q67.55312 263.3375 68.02187 262.775Q68.50625 262.2125 69.4125 261.47812Q70.81875 260.32187 71.30312 259.65Q71.80312 258.97812 71.80312 258.38437Q71.80312 257.75937 71.35 257.3375Q70.89687 256.9 70.17812 256.9Q69.4125 256.9 68.95937 257.35312Q68.50625 257.80624 68.49062 258.61874L67.4125 258.50937Q67.52187 257.29062 68.24062 256.66562Q68.975 256.025 70.20937 256.025Q71.44375 256.025 72.1625 256.7125Q72.88125 257.4 72.88125 258.41562Q72.88125 258.93124 72.6625 259.43124Q72.45937 259.91562 71.95937 260.47812Q71.475 261.025 70.35 261.97812Q69.39687 262.775 69.11562 263.07187Q68.85 263.35312 68.67812 263.63437L72.89687 263.63437Z" fill-rule="nonzero"/><path fill="#000000" d="M70.725 181.15L70.725 179.0875L67.00625 179.0875L67.00625 178.11874L70.92812 172.55624L71.7875 172.55624L71.7875 178.11874L72.94375 178.11874L72.94375 179.0875L71.7875 179.0875L71.7875 181.15L70.725 181.15ZM70.725 178.11874L70.725 174.25937L68.0375 178.11874L70.725 178.11874Z" fill-rule="nonzero"/><path fill="#000000" d="M72.81875 91.16563L71.77187 91.24375Q71.63125 90.61875 71.38125 90.3375Q70.94375 89.88438 70.31875 89.88438Q69.81875 89.88438 69.42812 90.16563Q68.94375 90.54063 68.64687 91.24375Q68.36562 91.93125 68.35 93.2125Q68.725 92.63438 69.27187 92.35313Q69.83437 92.07188 70.44375 92.07188Q71.49062 92.07188 72.225 92.85313Q72.975 93.63438 72.975 94.85313Q72.975 95.66563 72.61562 96.36875Q72.27187 97.05625 71.6625 97.43125Q71.05312 97.79063 70.2875 97.79063Q68.95937 97.79063 68.13125 96.82188Q67.30312 95.85313 67.30312 93.63438Q67.30312 91.13438 68.225 90.00938Q69.02187 89.025 70.38125 89.025Q71.39687 89.025 72.0375 89.60313Q72.69375 90.16563 72.81875 91.16563ZM68.52187 94.86875Q68.52187 95.41563 68.74062 95.91563Q68.975 96.4 69.38125 96.66563Q69.80312 96.93125 70.27187 96.93125Q70.92812 96.93125 71.4125 96.4Q71.89687 95.85313 71.89687 94.93125Q71.89687 94.04063 71.4125 93.525Q70.94375 93.00938 70.225 93.00938Q69.50625 93.00938 69.00625 93.525Q68.52187 94.04063 68.52187 94.86875Z" fill-rule="nonzero"/><path fill="#000000" d="M85.76729 356.91562Q85.76729 355.38437 86.07979 354.4625Q86.39229 353.525 87.00166 353.025Q87.62666 352.525 88.56416 352.525Q89.25166 352.525 89.76729 352.80624Q90.29854 353.0875 90.64229 353.61874Q90.98604 354.13437 91.17354 354.88437Q91.36104 355.63437 91.36104 356.91562Q91.36104 358.43124 91.04854 359.35312Q90.75166 360.275 90.12666 360.79062Q89.51729 361.29062 88.56416 361.29062Q87.32979 361.29062 86.61104 360.4Q85.76729 359.3375 85.76729 356.91562ZM86.84541 356.91562Q86.84541 359.025 87.34541 359.72812Q87.84541 360.43124 88.56416 360.43124Q89.29854 360.43124 89.78291 359.72812Q90.28291 359.025 90.28291 356.91562Q90.28291 354.79062 89.78291 354.10312Q89.29854 353.4 88.54854 353.4Q87.82979 353.4 87.39229 354.00937Q86.84541 354.79062 86.84541 356.91562Z" fill-rule="nonzero"/><path fill="#000000" d="M301.01306 360.13437L301.01306 361.15L295.32556 361.15Q295.32556 360.775 295.45056 360.41562Q295.6693 359.8375 296.13806 359.275Q296.62244 358.7125 297.5287 357.97812Q298.93494 356.82187 299.4193 356.15Q299.9193 355.47812 299.9193 354.88437Q299.9193 354.25937 299.4662 353.8375Q299.01306 353.4 298.2943 353.4Q297.5287 353.4 297.07556 353.85312Q296.62244 354.30624 296.6068 355.11874L295.5287 355.00937Q295.63806 353.79062 296.3568 353.16562Q297.0912 352.525 298.32556 352.525Q299.55994 352.525 300.2787 353.2125Q300.99744 353.9 300.99744 354.91562Q300.99744 355.43124 300.7787 355.93124Q300.57556 356.41562 300.07556 356.97812Q299.5912 357.525 298.4662 358.47812Q297.51306 359.275 297.2318 359.57187Q296.9662 359.85312 296.7943 360.13437L301.01306 360.13437ZM302.4662 358.9L303.57556 358.80624Q303.70056 359.61874 304.13806 360.025Q304.5912 360.43124 305.2318 360.43124Q305.9818 360.43124 306.51306 359.85312Q307.0443 359.275 307.0443 358.3375Q307.0443 357.43124 306.5287 356.91562Q306.0287 356.38437 305.20056 356.38437Q304.70056 356.38437 304.2787 356.61874Q303.87244 356.85312 303.63806 357.2125L302.6537 357.0875L303.4818 352.68124L307.76306 352.68124L307.76306 353.68124L304.32556 353.68124L303.87244 355.99374Q304.63806 355.44687 305.4818 355.44687Q306.6068 355.44687 307.37244 356.22812Q308.1537 357.00937 308.1537 358.24374Q308.1537 359.4 307.4818 360.25937Q306.6537 361.29062 305.2318 361.29062Q304.05994 361.29062 303.30994 360.63437Q302.57556 359.97812 302.4662 358.9ZM309.4662 356.91562Q309.4662 355.38437 309.7787 354.4625Q310.0912 353.525 310.70056 353.025Q311.32556 352.525 312.26306 352.525Q312.95056 352.525 313.4662 352.80624Q313.99744 353.0875 314.3412 353.61874Q314.68494 354.13437 314.87244 354.88437Q315.05994 355.63437 315.05994 356.91562Q315.05994 358.43124 314.74744 359.35312Q314.45056 360.275 313.82556 360.79062Q313.2162 361.29062 312.26306 361.29062Q311.0287 361.29062 310.30994 360.4Q309.4662 359.3375 309.4662 356.91562ZM310.5443 356.91562Q310.5443 359.025 311.0443 359.72812Q311.5443 360.43124 312.26306 360.43124Q312.99744 360.43124 313.4818 359.72812Q313.9818 359.025 313.9818 356.91562Q313.9818 354.79062 313.4818 354.10312Q312.99744 353.4 312.24744 353.4Q311.5287 353.4 311.0912 354.00937Q310.5443 354.79062 310.5443 356.91562Z" fill-rule="nonzero"/><path fill="#000000" d="M512.16504 358.9L513.2744 358.80624Q513.3994 359.61874 513.8369 360.025Q514.29004 360.43124 514.93066 360.43124Q515.68066 360.43124 516.2119 359.85312Q516.74316 359.275 516.74316 358.3375Q516.74316 357.43124 516.22754 356.91562Q515.72754 356.38437 514.8994 356.38437Q514.3994 356.38437 513.97754 356.61874Q513.5713 356.85312 513.3369 357.2125L512.35254 357.0875L513.18066 352.68124L517.4619 352.68124L517.4619 353.68124L514.0244 353.68124L513.5713 355.99374Q514.3369 355.44687 515.18066 355.44687Q516.30566 355.44687 517.0713 356.22812Q517.85254 357.00937 517.85254 358.24374Q517.85254 359.4 517.18066 360.25937Q516.35254 361.29062 514.93066 361.29062Q513.7588 361.29062 513.0088 360.63437Q512.2744 359.97812 512.16504 358.9ZM519.16504 356.91562Q519.16504 355.38437 519.47754 354.4625Q519.79004 353.525 520.3994 353.025Q521.0244 352.525 521.9619 352.525Q522.6494 352.525 523.16504 352.80624Q523.6963 353.0875 524.04004 353.61874Q524.3838 354.13437 524.5713 354.88437Q524.7588 355.63437 524.7588 356.91562Q524.7588 358.43124 524.4463 359.35312Q524.1494 360.275 523.5244 360.79062Q522.91504 361.29062 521.9619 361.29062Q520.72754 361.29062 520.0088 360.4Q519.16504 359.3375 519.16504 356.91562ZM520.24316 356.91562Q520.24316 359.025 520.74316 359.72812Q521.24316 360.43124 521.9619 360.43124Q522.6963 360.43124 523.18066 359.72812Q523.68066 359.025 523.68066 356.91562Q523.68066 354.79062 523.18066 354.10312Q522.6963 353.4 521.9463 353.4Q521.22754 353.4 520.79004 354.00937Q520.24316 354.79062 520.24316 356.91562ZM526.16504 356.91562Q526.16504 355.38437 526.47754 354.4625Q526.79004 353.525 527.3994 353.025Q528.0244 352.525 528.9619 352.525Q529.6494 352.525 530.16504 352.80624Q530.6963 353.0875 531.04004 353.61874Q531.3838 354.13437 531.5713 354.88437Q531.7588 355.63437 531.7588 356.91562Q531.7588 358.43124 531.4463 359.35312Q531.1494 360.275 530.5244 360.79062Q529.91504 361.29062 528.9619 361.29062Q527.72754 361.29062 527.0088 360.4Q526.16504 359.3375 526.16504 356.91562ZM527.24316 356.91562Q527.24316 359.025 527.74316 359.72812Q528.24316 360.43124 528.9619 360.43124Q529.6963 360.43124 530.18066 359.72812Q530.68066 359.025 530.68066 356.91562Q530.68066 354.79062 530.18066 354.10312Q529.6963 353.4 528.9463 353.4Q528.22754 353.4 527.79004 354.00937Q527.24316 354.79062 527.24316 356.91562Z" fill-rule="nonzero"/><path fill="#000000" d="M728.92645 353.68124L728.92645 352.66562L734.48895 352.66562L734.48895 353.49374Q733.67645 354.36874 732.86395 355.82187Q732.0671 357.25937 731.6296 358.79062Q731.30145 359.86874 731.2233 361.15L730.1296 361.15Q730.1452 360.13437 730.5202 358.69687Q730.9108 357.25937 731.61395 355.93124Q732.3327 354.60312 733.1452 353.68124L728.92645 353.68124ZM735.86395 358.9L736.9733 358.80624Q737.0983 359.61874 737.5358 360.025Q737.98895 360.43124 738.6296 360.43124Q739.3796 360.43124 739.9108 359.85312Q740.4421 359.275 740.4421 358.3375Q740.4421 357.43124 739.92645 356.91562Q739.42645 356.38437 738.5983 356.38437Q738.0983 356.38437 737.67645 356.61874Q737.2702 356.85312 737.0358 357.2125L736.05145 357.0875L736.8796 352.68124L741.1608 352.68124L741.1608 353.68124L737.7233 353.68124L737.2702 355.99374Q738.0358 355.44687 738.8796 355.44687Q740.0046 355.44687 740.7702 356.22812Q741.55145 357.00937 741.55145 358.24374Q741.55145 359.4 740.8796 360.25937Q740.05145 361.29062 738.6296 361.29062Q737.4577 361.29062 736.7077 360.63437Q735.9733 359.97812 735.86395 358.9ZM742.86395 356.91562Q742.86395 355.38437 743.17645 354.4625Q743.48895 353.525 744.0983 353.025Q744.7233 352.525 745.6608 352.525Q746.3483 352.525 746.86395 352.80624Q747.3952 353.0875 747.73895 353.61874Q748.0827 354.13437 748.2702 354.88437Q748.4577 355.63437 748.4577 356.91562Q748.4577 358.43124 748.1452 359.35312Q747.8483 360.275 747.2233 360.79062Q746.61395 361.29062 745.6608 361.29062Q744.42645 361.29062 743.7077 360.4Q742.86395 359.3375 742.86395 356.91562ZM743.9421 356.91562Q743.9421 359.025 744.4421 359.72812Q744.9421 360.43124 745.6608 360.43124Q746.3952 360.43124 746.8796 359.72812Q747.3796 359.025 747.3796 356.91562Q747.3796 354.79062 746.8796 354.10312Q746.3952 353.4 745.6452 353.4Q744.92645 353.4 744.48895 354.00937Q743.9421 354.79062 743.9421 356.91562Z" fill-rule="nonzero"/><path fill="#000000" d="M946.03156 361.15L944.9847 361.15L944.9847 354.43124Q944.59406 354.79062 943.96906 355.16562Q943.3597 355.525 942.8753 355.69687L942.8753 354.68124Q943.7503 354.25937 944.40656 353.68124Q945.0784 353.0875 945.3597 352.525L946.03156 352.525L946.03156 361.15ZM949.0628 356.91562Q949.0628 355.38437 949.3753 354.4625Q949.6878 353.525 950.2972 353.025Q950.9222 352.525 951.8597 352.525Q952.5472 352.525 953.0628 352.80624Q953.59406 353.0875 953.9378 353.61874Q954.28156 354.13437 954.46906 354.88437Q954.65656 355.63437 954.65656 356.91562Q954.65656 358.43124 954.34406 359.35312Q954.0472 360.275 953.4222 360.79062Q952.8128 361.29062 951.8597 361.29062Q950.6253 361.29062 949.90656 360.4Q949.0628 359.3375 949.0628 356.91562ZM950.1409 356.91562Q950.1409 359.025 950.6409 359.72812Q951.1409 360.43124 951.8597 360.43124Q952.59406 360.43124 953.0784 359.72812Q953.5784 359.025 953.5784 356.91562Q953.5784 354.79062 953.0784 354.10312Q952.59406 353.4 951.84406 353.4Q951.1253 353.4 950.6878 354.00937Q950.1409 354.79062 950.1409 356.91562ZM956.0628 356.91562Q956.0628 355.38437 956.3753 354.4625Q956.6878 353.525 957.2972 353.025Q957.9222 352.525 958.8597 352.525Q959.5472 352.525 960.0628 352.80624Q960.59406 353.0875 960.9378 353.61874Q961.28156 354.13437 961.46906 354.88437Q961.65656 355.63437 961.65656 356.91562Q961.65656 358.43124 961.34406 359.35312Q961.0472 360.275 960.4222 360.79062Q959.8128 361.29062 958.8597 361.29062Q957.6253 361.29062 956.90656 360.4Q956.0628 359.3375 956.0628 356.91562ZM957.1409 356.91562Q957.1409 359.025 957.6409 359.72812Q958.1409 360.43124 958.8597 360.43124Q959.59406 360.43124 960.0784 359.72812Q960.5784 359.025 960.5784 356.91562Q960.5784 354.79062 960.0784 354.10312Q959.59406 353.4 958.84406 353.4Q958.1253 353.4 957.6878 354.00937Q957.1409 354.79062 957.1409 356.91562ZM963.0628 356.91562Q963.0628 355.38437 963.3753 354.4625Q963.6878 353.525 964.2972 353.025Q964.9222 352.525 965.8597 352.525Q966.5472 352.525 967.0628 352.80624Q967.59406 353.0875 967.9378 353.61874Q968.28156 354.13437 968.46906 354.88437Q968.65656 355.63437 968.65656 356.91562Q968.65656 358.43124 968.34406 359.35312Q968.0472 360.275 967.4222 360.79062Q966.8128 361.29062 965.8597 361.29062Q964.6253 361.29062 963.90656 360.4Q963.0628 359.3375 963.0628 356.91562ZM964.1409 356.91562Q964.1409 359.025 964.6409 359.72812Q965.1409 360.43124 965.8597 360.43124Q966.59406 360.43124 967.0784 359.72812Q967.5784 359.025 967.5784 356.91562Q967.5784 354.79062 967.0784 354.10312Q966.59406 353.4 965.84406 353.4Q965.1253 353.4 964.6878 354.00937Q964.1409 354.79062 964.1409 356.91562Z" fill-rule="nonzero"/><path fill="#6aa84f" d="M294.5 59.75L295.84708 63.895897L300.20633 63.895897L296.67963 66.458206L298.0267 70.6041L294.5 68.041794L290.9733 70.6041L292.32037 66.458206L288.79367 63.895897L293.15292 63.895897Z" fill-rule="nonzero"/><path fill="#1a1a1a" d="M313.45312 66.375L313.45312 65.375L317.07812 65.359375L317.07812 68.546875Q316.25 69.21875 315.35938 69.5625Q314.46875 69.890625 313.53125 69.890625Q312.26562 69.890625 311.21875 69.359375Q310.1875 68.8125 309.65625 67.796875Q309.14062 66.765625 309.14062 65.5Q309.14062 64.234375 309.65625 63.15625Q310.1875 62.0625 311.17188 61.546875Q312.15625 61.015625 313.4375 61.015625Q314.375 61.015625 315.125 61.3125Q315.875 61.609375 316.29688 62.15625Q316.73438 62.6875 316.95312 63.5625L315.9375 63.84375Q315.73438 63.1875 315.4375 62.8125Q315.15625 62.4375 314.625 62.21875Q314.09375 61.984375 313.45312 61.984375Q312.67188 61.984375 312.09375 62.21875Q311.53125 62.453125 311.17188 62.84375Q310.82812 63.234375 310.64062 63.703125Q310.3125 64.5 310.3125 65.421875Q310.3125 66.578125 310.70312 67.359375Q311.10938 68.125 311.85938 68.5Q312.60938 68.875 313.46875 68.875Q314.20312 68.875 314.90625 68.59375Q315.60938 68.296875 315.96875 67.984375L315.96875 66.375L313.45312 66.375ZM322.54688 67.75L323.64062 67.875Q323.39062 68.828125 322.6875 69.359375Q321.98438 69.890625 320.90625 69.890625Q319.54688 69.890625 318.73438 69.046875Q317.9375 68.203125 317.9375 66.6875Q317.9375 65.125 318.75 64.265625Q319.5625 63.390625 320.84375 63.390625Q322.09375 63.390625 322.875 64.234375Q323.67188 65.078125 323.67188 66.625Q323.67188 66.71875 323.67188 66.90625L319.03125 66.90625Q319.09375 67.9375 319.60938 68.484375Q320.125 69.015625 320.90625 69.015625Q321.48438 69.015625 321.89062 68.71875Q322.3125 68.40625 322.54688 67.75ZM319.09375 66.046875L322.5625 66.046875Q322.5 65.25 322.17188 64.859375Q321.65625 64.25 320.85938 64.25Q320.125 64.25 319.625 64.734375Q319.14062 65.21875 319.09375 66.046875ZM325.29688 69.75L325.29688 63.53125L326.23438 63.53125L326.23438 64.40625Q326.53125 63.9375 327.01562 63.671875Q327.5 63.390625 328.125 63.390625Q328.8125 63.390625 329.25 63.671875Q329.70312 63.953125 329.875 64.46875Q330.625 63.390625 331.79688 63.390625Q332.73438 63.390625 333.21875 63.90625Q333.71875 64.40625 333.71875 65.484375L333.71875 69.75L332.67188 69.75L332.67188 65.828125Q332.67188 65.203125 332.5625 64.921875Q332.46875 64.640625 332.20312 64.46875Q331.9375 64.296875 331.5625 64.296875Q330.90625 64.296875 330.46875 64.734375Q330.04688 65.171875 330.04688 66.140625L330.04688 69.75L328.98438 69.75L328.98438 65.703125Q328.98438 65.0 328.71875 64.65625Q328.46875 64.296875 327.89062 64.296875Q327.4375 64.296875 327.0625 64.53125Q326.6875 64.765625 326.51562 65.21875Q326.34375 65.671875 326.34375 66.515625L326.34375 69.75L325.29688 69.75ZM336.375 69.75L336.375 61.15625L337.51562 61.15625L337.51562 68.734375L341.75 68.734375L341.75 69.75L336.375 69.75ZM343.29688 62.375L343.29688 61.15625L344.35938 61.15625L344.35938 62.375L343.29688 62.375ZM343.29688 69.75L343.29688 63.53125L344.35938 63.53125L344.35938 69.75L343.29688 69.75ZM348.59375 68.8125L348.75 69.734375Q348.29688 69.828125 347.95312 69.828125Q347.375 69.828125 347.0625 69.65625Q346.75 69.46875 346.60938 69.171875Q346.48438 68.875 346.48438 67.921875L346.48438 64.34375L345.71875 64.34375L345.71875 63.53125L346.48438 63.53125L346.48438 61.984375L347.53125 61.359375L347.53125 63.53125L348.59375 63.53125L348.59375 64.34375L347.53125 64.34375L347.53125 67.984375Q347.53125 68.4375 347.57812 68.5625Q347.64062 68.6875 347.76562 68.765625Q347.89062 68.84375 348.125 68.84375Q348.3125 68.84375 348.59375 68.8125ZM353.54688 67.75L354.64062 67.875Q354.39062 68.828125 353.6875 69.359375Q352.98438 69.890625 351.90625 69.890625Q350.54688 69.890625 349.73438 69.046875Q348.9375 68.203125 348.9375 66.6875Q348.9375 65.125 349.75 64.265625Q350.5625 63.390625 351.84375 63.390625Q353.09375 63.390625 353.875 64.234375Q354.67188 65.078125 354.67188 66.625Q354.67188 66.71875 354.67188 66.90625L350.03125 66.90625Q350.09375 67.9375 350.60938 68.484375Q351.125 69.015625 351.90625 69.015625Q352.48438 69.015625 352.89062 68.71875Q353.3125 68.40625 353.54688 67.75ZM350.09375 66.046875L353.5625 66.046875Q353.5 65.25 353.17188 64.859375Q352.65625 64.25 351.85938 64.25Q351.125 64.25 350.625 64.734375Q350.14062 65.21875 350.09375 66.046875ZM355.875 67.171875L355.875 66.109375L359.125 66.109375L359.125 67.171875L355.875 67.171875ZM362.60938 69.75L362.60938 62.171875L359.78125 62.171875L359.78125 61.15625L366.59375 61.15625L366.59375 62.171875L363.75 62.171875L363.75 69.75L362.60938 69.75ZM367.28125 69.75L367.28125 63.53125L368.23438 63.53125L368.23438 64.46875Q368.59375 63.8125 368.89062 63.609375Q369.20312 63.390625 369.57812 63.390625Q370.10938 63.390625 370.65625 63.71875L370.29688 64.703125Q369.90625 64.46875 369.53125 64.46875Q369.17188 64.46875 368.89062 64.6875Q368.625 64.890625 368.51562 65.265625Q368.32812 65.828125 368.32812 66.484375L368.32812 69.75L367.28125 69.75ZM371.29688 62.375L371.29688 61.15625L372.35938 61.15625L372.35938 62.375L371.29688 62.375ZM371.29688 69.75L371.29688 63.53125L372.35938 63.53125L372.35938 69.75L371.29688 69.75ZM376.59375 68.8125L376.75 69.734375Q376.29688 69.828125 375.95312 69.828125Q375.375 69.828125 375.0625 69.65625Q374.75 69.46875 374.60938 69.171875Q374.48438 68.875 374.48438 67.921875L374.48438 64.34375L373.71875 64.34375L373.71875 63.53125L374.48438 63.53125L374.48438 61.984375L375.53125 61.359375L375.53125 63.53125L376.59375 63.53125L376.59375 64.34375L375.53125 64.34375L375.53125 67.984375Q375.53125 68.4375 375.57812 68.5625Q375.64062 68.6875 375.76562 68.765625Q375.89062 68.84375 376.125 68.84375Q376.3125 68.84375 376.59375 68.8125ZM376.90625 66.640625Q376.90625 64.90625 377.85938 64.078125Q378.65625 63.390625 379.8125 63.390625Q381.09375 63.390625 381.90625 64.234375Q382.73438 65.0625 382.73438 66.546875Q382.73438 67.75 382.375 68.4375Q382.01562 69.125 381.3125 69.515625Q380.625 69.890625 379.8125 69.890625Q378.51562 69.890625 377.70312 69.0625Q376.90625 68.21875 376.90625 66.640625ZM377.98438 66.640625Q377.98438 67.828125 378.5 68.421875Q379.03125 69.015625 379.8125 69.015625Q380.60938 69.015625 381.125 68.421875Q381.64062 67.828125 381.64062 66.609375Q381.64062 65.453125 381.10938 64.859375Q380.59375 64.265625 379.8125 64.265625Q379.03125 64.265625 378.5 64.859375Q377.98438 65.4375 377.98438 66.640625ZM384.29688 69.75L384.29688 63.53125L385.23438 63.53125L385.23438 64.40625Q385.92188 63.390625 387.21875 63.390625Q387.78125 63.390625 388.25 63.59375Q388.73438 63.796875 388.96875 64.125Q389.20312 64.453125 389.29688 64.890625Q389.34375 65.1875 389.34375 65.921875L389.34375 69.75L388.29688 69.75L388.29688 65.96875Q388.29688 65.3125 388.17188 65.0Q388.04688 64.6875 387.73438 64.5Q387.42188 64.296875 387.0 64.296875Q386.32812 64.296875 385.82812 64.734375Q385.34375 65.15625 385.34375 66.34375L385.34375 69.75L384.29688 69.75ZM396.3125 72.28125Q395.4375 71.171875 394.82812 69.703125Q394.23438 68.21875 394.23438 66.640625Q394.23438 65.25 394.67188 63.96875Q395.20312 62.484375 396.3125 61.015625L397.0625 61.015625Q396.35938 62.234375 396.125 62.75Q395.76562 63.5625 395.5625 64.4375Q395.3125 65.53125 395.3125 66.640625Q395.3125 69.46875 397.0625 72.28125L396.3125 72.28125ZM397.48438 69.75L400.78125 61.15625L402.0 61.15625L405.51562 69.75L404.23438 69.75L403.21875 67.140625L399.64062 67.140625L398.6875 69.75L397.48438 69.75ZM399.96875 66.21875L402.875 66.21875L401.98438 63.84375Q401.5625 62.765625 401.375 62.0625Q401.20312 62.890625 400.90625 63.703125L399.96875 66.21875ZM408.96875 69.75L407.92188 69.75L407.92188 63.03125Q407.53125 63.390625 406.90625 63.765625Q406.29688 64.125 405.8125 64.296875L405.8125 63.28125Q406.6875 62.859375 407.34375 62.28125Q408.01562 61.6875 408.29688 61.125L408.96875 61.125L408.96875 69.75ZM417.46875 63.265625L416.42188 63.34375Q416.28125 62.71875 416.03125 62.4375Q415.59375 61.984375 414.96875 61.984375Q414.46875 61.984375 414.07812 62.265625Q413.59375 62.640625 413.29688 63.34375Q413.01562 64.03125 413.0 65.3125Q413.375 64.734375 413.92188 64.453125Q414.48438 64.171875 415.09375 64.171875Q416.14062 64.171875 416.875 64.953125Q417.625 65.734375 417.625 66.953125Q417.625 67.765625 417.26562 68.46875Q416.92188 69.15625 416.3125 69.53125Q415.70312 69.890625 414.9375 69.890625Q413.60938 69.890625 412.78125 68.921875Q411.95312 67.953125 411.95312 65.734375Q411.95312 63.234375 412.875 62.109375Q413.67188 61.125 415.03125 61.125Q416.04688 61.125 416.6875 61.703125Q417.34375 62.265625 417.46875 63.265625ZM413.17188 66.96875Q413.17188 67.515625 413.39062 68.015625Q413.625 68.5 414.03125 68.765625Q414.45312 69.03125 414.92188 69.03125Q415.57812 69.03125 416.0625 68.5Q416.54688 67.953125 416.54688 67.03125Q416.54688 66.140625 416.0625 65.625Q415.59375 65.109375 414.875 65.109375Q414.15625 65.109375 413.65625 65.625Q413.17188 66.140625 413.17188 66.96875ZM419.98438 72.28125L419.23438 72.28125Q420.98438 69.46875 420.98438 66.640625Q420.98438 65.546875 420.73438 64.453125Q420.53125 63.578125 420.17188 62.765625Q419.9375 62.25 419.23438 61.015625L419.98438 61.015625Q421.07812 62.484375 421.60938 63.96875Q422.0625 65.25 422.0625 66.640625Q422.0625 68.21875 421.45312 69.703125Q420.84375 71.171875 419.98438 72.28125Z" fill-rule="nonzero"/><path fill="#fbbc04" d="M444.5 59.75L445.84708 63.895897L450.20633 63.895897L446.67963 66.458206L448.0267 70.6041L444.5 68.041794L440.9733 70.6041L442.32037 66.458206L438.79367 63.895897L443.15292 63.895897Z" fill-rule="nonzero"/><path fill="#1a1a1a" d="M459.375 69.75L459.375 61.15625L462.60938 61.15625Q463.59375 61.15625 464.1875 61.421875Q464.78125 61.6875 465.10938 62.234375Q465.45312 62.765625 465.45312 63.359375Q465.45312 63.90625 465.15625 64.390625Q464.85938 64.875 464.25 65.171875Q465.03125 65.40625 465.4375 65.96875Q465.85938 66.515625 465.85938 67.265625Q465.85938 67.859375 465.60938 68.390625Q465.35938 68.90625 464.98438 69.1875Q464.60938 69.46875 464.03125 69.609375Q463.46875 69.75 462.65625 69.75L459.375 69.75ZM460.51562 64.765625L462.375 64.765625Q463.125 64.765625 463.45312 64.671875Q463.89062 64.546875 464.10938 64.25Q464.32812 63.9375 464.32812 63.484375Q464.32812 63.0625 464.125 62.734375Q463.92188 62.40625 463.53125 62.296875Q463.15625 62.171875 462.23438 62.171875L460.51562 62.171875L460.51562 64.765625ZM460.51562 68.734375L462.65625 68.734375Q463.20312 68.734375 463.42188 68.6875Q463.82812 68.625 464.07812 68.46875Q464.34375 68.296875 464.51562 67.984375Q464.6875 67.671875 464.6875 67.265625Q464.6875 66.78125 464.4375 66.421875Q464.20312 66.0625 463.76562 65.921875Q463.32812 65.78125 462.5 65.78125L460.51562 65.78125L460.51562 68.734375ZM467.29688 62.375L467.29688 61.15625L468.35938 61.15625L468.35938 62.375L467.29688 62.375ZM467.29688 69.75L467.29688 63.53125L468.35938 63.53125L468.35938 69.75L467.29688 69.75ZM472.59375 68.8125L472.75 69.734375Q472.29688 69.828125 471.95312 69.828125Q471.375 69.828125 471.0625 69.65625Q470.75 69.46875 470.60938 69.171875Q470.48438 68.875 470.48438 67.921875L470.48438 64.34375L469.71875 64.34375L469.71875 63.53125L470.48438 63.53125L470.48438 61.984375L471.53125 61.359375L471.53125 63.53125L472.59375 63.53125L472.59375 64.34375L471.53125 64.34375L471.53125 67.984375Q471.53125 68.4375 471.57812 68.5625Q471.64062 68.6875 471.76562 68.765625Q471.89062 68.84375 472.125 68.84375Q472.3125 68.84375 472.59375 68.8125ZM473.375 69.75L473.375 61.15625L476.60938 61.15625Q477.59375 61.15625 478.1875 61.421875Q478.78125 61.6875 479.10938 62.234375Q479.45312 62.765625 479.45312 63.359375Q479.45312 63.90625 479.15625 64.390625Q478.85938 64.875 478.25 65.171875Q479.03125 65.40625 479.4375 65.96875Q479.85938 66.515625 479.85938 67.265625Q479.85938 67.859375 479.60938 68.390625Q479.35938 68.90625 478.98438 69.1875Q478.60938 69.46875 478.03125 69.609375Q477.46875 69.75 476.65625 69.75L473.375 69.75ZM474.51562 64.765625L476.375 64.765625Q477.125 64.765625 477.45312 64.671875Q477.89062 64.546875 478.10938 64.25Q478.32812 63.9375 478.32812 63.484375Q478.32812 63.0625 478.125 62.734375Q477.92188 62.40625 477.53125 62.296875Q477.15625 62.171875 476.23438 62.171875L474.51562 62.171875L474.51562 64.765625ZM474.51562 68.734375L476.65625 68.734375Q477.20312 68.734375 477.42188 68.6875Q477.82812 68.625 478.07812 68.46875Q478.34375 68.296875 478.51562 67.984375Q478.6875 67.671875 478.6875 67.265625Q478.6875 66.78125 478.4375 66.421875Q478.20312 66.0625 477.76562 65.921875Q477.32812 65.78125 476.5 65.78125L474.51562 65.78125L474.51562 68.734375ZM481.375 69.75L481.375 61.15625L482.51562 61.15625L482.51562 68.734375L486.75 68.734375L486.75 69.75L481.375 69.75ZM487.48438 69.75L490.78125 61.15625L492.0 61.15625L495.51562 69.75L494.23438 69.75L493.21875 67.140625L489.64062 67.140625L488.6875 69.75L487.48438 69.75ZM489.96875 66.21875L492.875 66.21875L491.98438 63.84375Q491.5625 62.765625 491.375 62.0625Q491.20312 62.890625 490.90625 63.703125L489.96875 66.21875ZM495.04688 66.984375L496.10938 66.890625Q496.1875 67.546875 496.46875 67.953125Q496.75 68.359375 497.32812 68.625Q497.92188 68.875 498.65625 68.875Q499.29688 68.875 499.79688 68.6875Q500.29688 68.484375 500.53125 68.15625Q500.78125 67.8125 500.78125 67.421875Q500.78125 67.015625 500.54688 66.71875Q500.3125 66.40625 499.78125 66.203125Q499.42188 66.0625 498.23438 65.78125Q497.0625 65.5 496.59375 65.25Q495.96875 64.921875 495.67188 64.453125Q495.375 63.96875 495.375 63.375Q495.375 62.734375 495.73438 62.171875Q496.10938 61.59375 496.8125 61.3125Q497.53125 61.015625 498.39062 61.015625Q499.34375 61.015625 500.07812 61.328125Q500.8125 61.625 501.20312 62.234375Q501.59375 62.828125 501.625 63.578125L500.53125 63.65625Q500.4375 62.84375 499.92188 62.4375Q499.42188 62.015625 498.4375 62.015625Q497.40625 62.015625 496.9375 62.390625Q496.46875 62.765625 496.46875 63.296875Q496.46875 63.765625 496.79688 64.0625Q497.125 64.359375 498.5 64.671875Q499.89062 64.984375 500.40625 65.21875Q501.15625 65.578125 501.51562 66.109375Q501.875 66.625 501.875 67.328125Q501.875 68.015625 501.48438 68.625Q501.09375 69.21875 500.35938 69.5625Q499.625 69.890625 498.70312 69.890625Q497.53125 69.890625 496.73438 69.5625Q495.95312 69.21875 495.5 68.53125Q495.0625 67.84375 495.04688 66.984375ZM508.3125 72.28125Q507.4375 71.171875 506.82812 69.703125Q506.23438 68.21875 506.23438 66.640625Q506.23438 65.25 506.67188 63.96875Q507.20312 62.484375 508.3125 61.015625L509.0625 61.015625Q508.35938 62.234375 508.125 62.75Q507.76562 63.5625 507.5625 64.4375Q507.3125 65.53125 507.3125 66.640625Q507.3125 69.46875 509.0625 72.28125L508.3125 72.28125ZM509.48438 69.75L512.78125 61.15625L514.0 61.15625L517.5156 69.75L516.2344 69.75L515.21875 67.140625L511.64062 67.140625L510.6875 69.75L509.48438 69.75ZM511.96875 66.21875L514.875 66.21875L513.9844 63.84375Q513.5625 62.765625 513.375 62.0625Q513.2031 62.890625 512.90625 63.703125L511.96875 66.21875ZM520.96875 69.75L519.9219 69.75L519.9219 63.03125Q519.53125 63.390625 518.90625 63.765625Q518.2969 64.125 517.8125 64.296875L517.8125 63.28125Q518.6875 62.859375 519.34375 62.28125Q520.0156 61.6875 520.2969 61.125L520.96875 61.125L520.96875 69.75ZM529.46875 63.265625L528.4219 63.34375Q528.28125 62.71875 528.03125 62.4375Q527.59375 61.984375 526.96875 61.984375Q526.46875 61.984375 526.0781 62.265625Q525.59375 62.640625 525.2969 63.34375Q525.0156 64.03125 525.0 65.3125Q525.375 64.734375 525.9219 64.453125Q526.4844 64.171875 527.09375 64.171875Q528.1406 64.171875 528.875 64.953125Q529.625 65.734375 529.625 66.953125Q529.625 67.765625 529.2656 68.46875Q528.9219 69.15625 528.3125 69.53125Q527.7031 69.890625 526.9375 69.890625Q525.6094 69.890625 524.78125 68.921875Q523.9531 67.953125 523.9531 65.734375Q523.9531 63.234375 524.875 62.109375Q525.6719 61.125 527.03125 61.125Q528.0469 61.125 528.6875 61.703125Q529.34375 62.265625 529.46875 63.265625ZM525.1719 66.96875Q525.1719 67.515625 525.3906 68.015625Q525.625 68.5 526.03125 68.765625Q526.4531 69.03125 526.9219 69.03125Q527.5781 69.03125 528.0625 68.5Q528.5469 67.953125 528.5469 67.03125Q528.5469 66.140625 528.0625 65.625Q527.59375 65.109375 526.875 65.109375Q526.15625 65.109375 525.65625 65.625Q525.1719 66.140625 525.1719 66.96875ZM531.9844 72.28125L531.2344 72.28125Q532.9844 69.46875 532.9844 66.640625Q532.9844 65.546875 532.7344 64.453125Q532.53125 63.578125 532.1719 62.765625Q531.9375 62.25 531.2344 61.015625L531.9844 61.015625Q533.0781 62.484375 533.6094 63.96875Q534.0625 65.25 534.0625 66.640625Q534.0625 68.21875 533.4531 69.703125Q532.84375 71.171875 531.9844 72.28125Z" fill-rule="nonzero"/><path stroke="#6aa84f" stroke-width="4.0" stroke-linecap="butt" stroke-dasharray="4.0,5.0" d="M550.5 65.75L563.5 65.75" fill-rule="nonzero"/><path fill="#1a1a1a" d="M576.4531 66.375L576.4531 65.375L580.0781 65.359375L580.0781 68.546875Q579.25 69.21875 578.3594 69.5625Q577.46875 69.890625 576.53125 69.890625Q575.2656 69.890625 574.21875 69.359375Q573.1875 68.8125 572.65625 67.796875Q572.1406 66.765625 572.1406 65.5Q572.1406 64.234375 572.65625 63.15625Q573.1875 62.0625 574.1719 61.546875Q575.15625 61.015625 576.4375 61.015625Q577.375 61.015625 578.125 61.3125Q578.875 61.609375 579.2969 62.15625Q579.7344 62.6875 579.9531 63.5625L578.9375 63.84375Q578.7344 63.1875 578.4375 62.8125Q578.15625 62.4375 577.625 62.21875Q577.09375 61.984375 576.4531 61.984375Q575.6719 61.984375 575.09375 62.21875Q574.53125 62.453125 574.1719 62.84375Q573.8281 63.234375 573.6406 63.703125Q573.3125 64.5 573.3125 65.421875Q573.3125 66.578125 573.7031 67.359375Q574.1094 68.125 574.8594 68.5Q575.6094 68.875 576.46875 68.875Q577.2031 68.875 577.90625 68.59375Q578.6094 68.296875 578.96875 67.984375L578.96875 66.375L576.4531 66.375ZM585.5469 67.75L586.6406 67.875Q586.3906 68.828125 585.6875 69.359375Q584.9844 69.890625 583.90625 69.890625Q582.5469 69.890625 581.7344 69.046875Q580.9375 68.203125 580.9375 66.6875Q580.9375 65.125 581.75 64.265625Q582.5625 63.390625 583.84375 63.390625Q585.09375 63.390625 585.875 64.234375Q586.6719 65.078125 586.6719 66.625Q586.6719 66.71875 586.6719 66.90625L582.03125 66.90625Q582.09375 67.9375 582.6094 68.484375Q583.125 69.015625 583.90625 69.015625Q584.4844 69.015625 584.8906 68.71875Q585.3125 68.40625 585.5469 67.75ZM582.09375 66.046875L585.5625 66.046875Q585.5 65.25 585.1719 64.859375Q584.65625 64.25 583.8594 64.25Q583.125 64.25 582.625 64.734375Q582.1406 65.21875 582.09375 66.046875ZM588.2969 69.75L588.2969 63.53125L589.2344 63.53125L589.2344 64.40625Q589.53125 63.9375 590.0156 63.671875Q590.5 63.390625 591.125 63.390625Q591.8125 63.390625 592.25 63.671875Q592.7031 63.953125 592.875 64.46875Q593.625 63.390625 594.7969 63.390625Q595.7344 63.390625 596.21875 63.90625Q596.71875 64.40625 596.71875 65.484375L596.71875 69.75L595.6719 69.75L595.6719 65.828125Q595.6719 65.203125 595.5625 64.921875Q595.46875 64.640625 595.2031 64.46875Q594.9375 64.296875 594.5625 64.296875Q593.90625 64.296875 593.46875 64.734375Q593.0469 65.171875 593.0469 66.140625L593.0469 69.75L591.9844 69.75L591.9844 65.703125Q591.9844 65.0 591.71875 64.65625Q591.46875 64.296875 590.8906 64.296875Q590.4375 64.296875 590.0625 64.53125Q589.6875 64.765625 589.5156 65.21875Q589.34375 65.671875 589.34375 66.515625L589.34375 69.75L588.2969 69.75ZM599.375 69.75L599.375 61.15625L600.5156 61.15625L600.5156 68.734375L604.75 68.734375L604.75 69.75L599.375 69.75ZM606.2969 62.375L606.2969 61.15625L607.3594 61.15625L607.3594 62.375L606.2969 62.375ZM606.2969 69.75L606.2969 63.53125L607.3594 63.53125L607.3594 69.75L606.2969 69.75ZM611.59375 68.8125L611.75 69.734375Q611.2969 69.828125 610.9531 69.828125Q610.375 69.828125 610.0625 69.65625Q609.75 69.46875 609.6094 69.171875Q609.4844 68.875 609.4844 67.921875L609.4844 64.34375L608.71875 64.34375L608.71875 63.53125L609.4844 63.53125L609.4844 61.984375L610.53125 61.359375L610.53125 63.53125L611.59375 63.53125L611.59375 64.34375L610.53125 64.34375L610.53125 67.984375Q610.53125 68.4375 610.5781 68.5625Q610.6406 68.6875 610.7656 68.765625Q610.8906 68.84375 611.125 68.84375Q611.3125 68.84375 611.59375 68.8125ZM616.5469 67.75L617.6406 67.875Q617.3906 68.828125 616.6875 69.359375Q615.9844 69.890625 614.90625 69.890625Q613.5469 69.890625 612.7344 69.046875Q611.9375 68.203125 611.9375 66.6875Q611.9375 65.125 612.75 64.265625Q613.5625 63.390625 614.84375 63.390625Q616.09375 63.390625 616.875 64.234375Q617.6719 65.078125 617.6719 66.625Q617.6719 66.71875 617.6719 66.90625L613.03125 66.90625Q613.09375 67.9375 613.6094 68.484375Q614.125 69.015625 614.90625 69.015625Q615.4844 69.015625 615.8906 68.71875Q616.3125 68.40625 616.5469 67.75ZM613.09375 66.046875L616.5625 66.046875Q616.5 65.25 616.1719 64.859375Q615.65625 64.25 614.8594 64.25Q614.125 64.25 613.625 64.734375Q613.1406 65.21875 613.09375 66.046875ZM618.875 67.171875L618.875 66.109375L622.125 66.109375L622.125 67.171875L618.875 67.171875ZM625.6094 69.75L625.6094 62.171875L622.78125 62.171875L622.78125 61.15625L629.59375 61.15625L629.59375 62.171875L626.75 62.171875L626.75 69.75L625.6094 69.75ZM630.28125 69.75L630.28125 63.53125L631.2344 63.53125L631.2344 64.46875Q631.59375 63.8125 631.8906 63.609375Q632.2031 63.390625 632.5781 63.390625Q633.1094 63.390625 633.65625 63.71875L633.2969 64.703125Q632.90625 64.46875 632.53125 64.46875Q632.1719 64.46875 631.8906 64.6875Q631.625 64.890625 631.5156 65.265625Q631.3281 65.828125 631.3281 66.484375L631.3281 69.75L630.28125 69.75ZM634.2969 62.375L634.2969 61.15625L635.3594 61.15625L635.3594 62.375L634.2969 62.375ZM634.2969 69.75L634.2969 63.53125L635.3594 63.53125L635.3594 69.75L634.2969 69.75ZM639.59375 68.8125L639.75 69.734375Q639.2969 69.828125 638.9531 69.828125Q638.375 69.828125 638.0625 69.65625Q637.75 69.46875 637.6094 69.171875Q637.4844 68.875 637.4844 67.921875L637.4844 64.34375L636.71875 64.34375L636.71875 63.53125L637.4844 63.53125L637.4844 61.984375L638.53125 61.359375L638.53125 63.53125L639.59375 63.53125L639.59375 64.34375L638.53125 64.34375L638.53125 67.984375Q638.53125 68.4375 638.5781 68.5625Q638.6406 68.6875 638.7656 68.765625Q638.8906 68.84375 639.125 68.84375Q639.3125 68.84375 639.59375 68.8125ZM639.90625 66.640625Q639.90625 64.90625 640.8594 64.078125Q641.65625 63.390625 642.8125 63.390625Q644.09375 63.390625 644.90625 64.234375Q645.7344 65.0625 645.7344 66.546875Q645.7344 67.75 645.375 68.4375Q645.0156 69.125 644.3125 69.515625Q643.625 69.890625 642.8125 69.890625Q641.5156 69.890625 640.7031 69.0625Q639.90625 68.21875 639.90625 66.640625ZM640.9844 66.640625Q640.9844 67.828125 641.5 68.421875Q642.03125 69.015625 642.8125 69.015625Q643.6094 69.015625 644.125 68.421875Q644.6406 67.828125 644.6406 66.609375Q644.6406 65.453125 644.1094 64.859375Q643.59375 64.265625 642.8125 64.265625Q642.03125 64.265625 641.5 64.859375Q640.9844 65.4375 640.9844 66.640625ZM647.2969 69.75L647.2969 63.53125L648.2344 63.53125L648.2344 64.40625Q648.9219 63.390625 650.21875 63.390625Q650.78125 63.390625 651.25 63.59375Q651.7344 63.796875 651.96875 64.125Q652.2031 64.453125 652.2969 64.890625Q652.34375 65.1875 652.34375 65.921875L652.34375 69.75L651.2969 69.75L651.2969 65.96875Q651.2969 65.3125 651.1719 65.0Q651.0469 64.6875 650.7344 64.5Q650.4219 64.296875 650.0 64.296875Q649.3281 64.296875 648.8281 64.734375Q648.34375 65.15625 648.34375 66.34375L648.34375 69.75L647.2969 69.75ZM659.3125 72.28125Q658.4375 71.171875 657.8281 69.703125Q657.2344 68.21875 657.2344 66.640625Q657.2344 65.25 657.6719 63.96875Q658.2031 62.484375 659.3125 61.015625L660.0625 61.015625Q659.3594 62.234375 659.125 62.75Q658.7656 63.5625 658.5625 64.4375Q658.3125 65.53125 658.3125 66.640625Q658.3125 69.46875 660.0625 72.28125L659.3125 72.28125ZM660.4844 69.75L663.78125 61.15625L665.0 61.15625L668.5156 69.75L667.2344 69.75L666.21875 67.140625L662.6406 67.140625L661.6875 69.75L660.4844 69.75ZM662.96875 66.21875L665.875 66.21875L664.9844 63.84375Q664.5625 62.765625 664.375 62.0625Q664.2031 62.890625 663.90625 63.703125L662.96875 66.21875ZM669.625 65.09375Q668.96875 64.84375 668.6406 64.40625Q668.3281 63.953125 668.3281 63.34375Q668.3281 62.40625 669.0 61.765625Q669.6875 61.125 670.7969 61.125Q671.9219 61.125 672.6094 61.78125Q673.2969 62.4375 673.2969 63.375Q673.2969 63.96875 672.9844 64.40625Q672.6719 64.84375 672.03125 65.09375Q672.8281 65.34375 673.2344 65.921875Q673.6406 66.5 673.6406 67.296875Q673.6406 68.390625 672.8594 69.140625Q672.09375 69.890625 670.8125 69.890625Q669.5469 69.890625 668.7656 69.140625Q667.9844 68.390625 667.9844 67.265625Q667.9844 66.421875 668.40625 65.859375Q668.84375 65.296875 669.625 65.09375ZM669.40625 63.296875Q669.40625 63.90625 669.7969 64.296875Q670.2031 64.6875 670.8281 64.6875Q671.4375 64.6875 671.8281 64.3125Q672.21875 63.921875 672.21875 63.359375Q672.21875 62.78125 671.8125 62.390625Q671.40625 61.984375 670.8125 61.984375Q670.2031 61.984375 669.7969 62.375Q669.40625 62.765625 669.40625 63.296875ZM669.0781 67.265625Q669.0781 67.71875 669.28125 68.140625Q669.5 68.5625 669.9219 68.796875Q670.34375 69.03125 670.8281 69.03125Q671.5781 69.03125 672.0625 68.546875Q672.5625 68.0625 672.5625 67.3125Q672.5625 66.546875 672.0625 66.046875Q671.5625 65.546875 670.7969 65.546875Q670.0469 65.546875 669.5625 66.046875Q669.0781 66.53125 669.0781 67.265625ZM677.875 67.171875L677.875 66.109375L681.125 66.109375L681.125 67.171875L677.875 67.171875ZM687.84375 66.0L682.15625 68.421875L682.15625 67.375L686.65625 65.5L682.15625 63.65625L682.15625 62.609375L687.84375 65.015625L687.84375 66.0ZM692.0781 65.5625Q692.0781 63.421875 693.21875 62.21875Q694.375 61.0 696.1875 61.0Q697.3906 61.0 698.34375 61.578125Q699.2969 62.140625 699.7969 63.15625Q700.2969 64.171875 700.2969 65.46875Q700.2969 66.765625 699.7656 67.796875Q699.2344 68.828125 698.2656 69.359375Q697.3125 69.890625 696.1875 69.890625Q694.96875 69.890625 694.0156 69.3125Q693.0625 68.71875 692.5625 67.71875Q692.0781 66.703125 692.0781 65.5625ZM693.25 65.578125Q693.25 67.140625 694.0781 68.03125Q694.9219 68.921875 696.1875 68.921875Q697.46875 68.921875 698.2969 68.03125Q699.125 67.125 699.125 65.453125Q699.125 64.40625 698.7656 63.625Q698.4219 62.84375 697.7344 62.421875Q697.0469 61.984375 696.2031 61.984375Q695.0 61.984375 694.125 62.8125Q693.25 63.640625 693.25 65.578125ZM701.0 67.484375L702.0625 67.34375Q702.2344 68.234375 702.6719 68.640625Q703.1094 69.03125 703.7344 69.03125Q704.4844 69.03125 705.0 68.515625Q705.5156 68.0 705.5156 67.234375Q705.5156 66.515625 705.03125 66.046875Q704.5625 65.5625 703.8281 65.5625Q703.53125 65.5625 703.0781 65.6875L703.2031 64.75Q703.3125 64.765625 703.375 64.765625Q704.0469 64.765625 704.5781 64.421875Q705.125 64.0625 705.125 63.328125Q705.125 62.75 704.7344 62.375Q704.34375 61.984375 703.71875 61.984375Q703.1094 61.984375 702.6875 62.375Q702.28125 62.765625 702.1719 63.53125L701.1094 63.34375Q701.2969 62.296875 701.9844 61.71875Q702.6719 61.125 703.6875 61.125Q704.3906 61.125 704.9844 61.4375Q705.5781 61.734375 705.8906 62.25Q706.2031 62.765625 706.2031 63.359375Q706.2031 63.90625 705.90625 64.375Q705.6094 64.828125 705.03125 65.09375Q705.78125 65.265625 706.2031 65.828125Q706.625 66.375 706.625 67.21875Q706.625 68.34375 705.7969 69.125Q704.9844 69.90625 703.7344 69.90625Q702.6094 69.90625 701.8594 69.234375Q701.1094 68.546875 701.0 67.484375ZM713.5469 68.734375L713.5469 69.75L707.8594 69.75Q707.8594 69.375 707.9844 69.015625Q708.2031 68.4375 708.6719 67.875Q709.15625 67.3125 710.0625 66.578125Q711.46875 65.421875 711.9531 64.75Q712.4531 64.078125 712.4531 63.484375Q712.4531 62.859375 712.0 62.4375Q711.5469 62.0 710.8281 62.0Q710.0625 62.0 709.6094 62.453125Q709.15625 62.90625 709.1406 63.71875L708.0625 63.609375Q708.1719 62.390625 708.8906 61.765625Q709.625 61.125 710.8594 61.125Q712.09375 61.125 712.8125 61.8125Q713.53125 62.5 713.53125 63.515625Q713.53125 64.03125 713.3125 64.53125Q713.1094 65.015625 712.6094 65.578125Q712.125 66.125 711.0 67.078125Q710.0469 67.875 709.7656 68.171875Q709.5 68.453125 709.3281 68.734375L713.5469 68.734375ZM715.9844 72.28125L715.2344 72.28125Q716.9844 69.46875 716.9844 66.640625Q716.9844 65.546875 716.7344 64.453125Q716.53125 63.578125 716.1719 62.765625Q715.9375 62.25 715.2344 61.015625L715.9844 61.015625Q717.0781 62.484375 717.6094 63.96875Q718.0625 65.25 718.0625 66.640625Q718.0625 68.21875 717.4531 69.703125Q716.84375 71.171875 715.9844 72.28125Z" fill-rule="nonzero"/><path fill="#757575" d="M192.40625 35.25625L194.1875 35.1Q194.3125 36.1625 194.76562 36.85Q195.23438 37.5375 196.20312 37.975Q197.1875 38.396873 198.42188 38.396873Q199.5 38.396873 200.32812 38.084373Q201.15625 37.75625 201.5625 37.19375Q201.96875 36.63125 201.96875 35.959373Q201.96875 35.2875 201.57812 34.7875Q201.1875 34.2875 200.29688 33.94375Q199.71875 33.709373 197.73438 33.240623Q195.76562 32.771873 194.98438 32.35Q193.95312 31.818748 193.45312 31.021873Q192.95312 30.224998 192.95312 29.240623Q192.95312 28.146873 193.5625 27.209373Q194.17188 26.271873 195.35938 25.787498Q196.54688 25.287498 197.98438 25.287498Q199.57812 25.287498 200.79688 25.803123Q202.01562 26.318748 202.65625 27.318748Q203.3125 28.303123 203.35938 29.568748L201.54688 29.709373Q201.40625 28.349998 200.5625 27.662498Q199.71875 26.959373 198.0625 26.959373Q196.34375 26.959373 195.54688 27.599998Q194.76562 28.224998 194.76562 29.099998Q194.76562 29.881248 195.32812 30.381248Q195.875 30.881248 198.1875 31.396873Q200.5 31.912498 201.35938 32.303123Q202.60938 32.88125 203.20312 33.771873Q203.79688 34.646873 203.79688 35.803123Q203.79688 36.94375 203.14062 37.959373Q202.48438 38.975 201.25 39.5375Q200.03125 40.1 198.5 40.1Q196.5625 40.1 195.25 39.5375Q193.9375 38.959373 193.1875 37.81875Q192.4375 36.678123 192.40625 35.25625ZM205.8125 43.81875L205.8125 29.474998L207.42188 29.474998L207.42188 30.818748Q207.98438 30.037498 208.6875 29.646873Q209.40625 29.240623 210.42188 29.240623Q211.75 29.240623 212.76562 29.928123Q213.78125 30.615623 214.29688 31.865623Q214.82812 33.1 214.82812 34.584373Q214.82812 36.178123 214.25 37.459373Q213.6875 38.725 212.59375 39.4125Q211.5 40.084373 210.29688 40.084373Q209.42188 40.084373 208.71875 39.709373Q208.03125 39.334373 207.57812 38.771873L207.57812 43.81875L205.8125 43.81875ZM207.40625 34.725Q207.40625 36.725 208.21875 37.678123Q209.03125 38.63125 210.1875 38.63125Q211.35938 38.63125 212.1875 37.646873Q213.03125 36.6625 213.03125 34.56875Q213.03125 32.6 212.20312 31.615623Q211.39062 30.615623 210.26562 30.615623Q209.14062 30.615623 208.26562 31.678123Q207.40625 32.725 207.40625 34.725ZM223.92188 36.50625L225.73438 36.740623Q225.3125 38.31875 224.14062 39.209373Q222.98438 40.084373 221.17188 40.084373Q218.90625 40.084373 217.5625 38.69375Q216.23438 37.2875 216.23438 34.75625Q216.23438 32.13125 217.57812 30.693748Q218.92188 29.240623 221.07812 29.240623Q223.15625 29.240623 224.46875 30.662498Q225.79688 32.06875 225.79688 34.646873Q225.79688 34.803123 225.78125 35.115623L218.04688 35.115623Q218.14062 36.81875 219.01562 37.725Q219.89062 38.63125 221.1875 38.63125Q222.15625 38.63125 222.82812 38.13125Q223.51562 37.615623 223.92188 36.50625ZM218.14062 33.6625L223.9375 33.6625Q223.82812 32.365623 223.28125 31.709373Q222.4375 30.693748 221.09375 30.693748Q219.89062 30.693748 219.0625 31.506248Q218.23438 32.303123 218.14062 33.6625ZM234.92188 36.50625L236.73438 36.740623Q236.3125 38.31875 235.14062 39.209373Q233.98438 40.084373 232.17188 40.084373Q229.90625 40.084373 228.5625 38.69375Q227.23438 37.2875 227.23438 34.75625Q227.23438 32.13125 228.57812 30.693748Q229.92188 29.240623 232.07812 29.240623Q234.15625 29.240623 235.46875 30.662498Q236.79688 32.06875 236.79688 34.646873Q236.79688 34.803123 236.78125 35.115623L229.04688 35.115623Q229.14062 36.81875 230.01562 37.725Q230.89062 38.63125 232.1875 38.63125Q233.15625 38.63125 233.82812 38.13125Q234.51562 37.615623 234.92188 36.50625ZM229.14062 33.6625L234.9375 33.6625Q234.82812 32.365623 234.28125 31.709373Q233.4375 30.693748 232.09375 30.693748Q230.89062 30.693748 230.0625 31.506248Q229.23438 32.303123 229.14062 33.6625ZM245.54688 39.85L245.54688 38.5375Q244.5625 40.084373 242.64062 40.084373Q241.40625 40.084373 240.35938 39.396873Q239.32812 38.709373 238.75 37.490623Q238.1875 36.271873 238.1875 34.678123Q238.1875 33.115623 238.70312 31.849998Q239.21875 30.584373 240.25 29.912498Q241.29688 29.240623 242.5625 29.240623Q243.5 29.240623 244.23438 29.646873Q244.96875 30.037498 245.4375 30.662498L245.4375 25.537498L247.17188 25.537498L247.17188 39.85L245.54688 39.85ZM239.98438 34.678123Q239.98438 36.6625 240.82812 37.646873Q241.67188 38.63125 242.8125 38.63125Q243.96875 38.63125 244.76562 37.69375Q245.57812 36.75625 245.57812 34.81875Q245.57812 32.69375 244.75 31.693748Q243.9375 30.693748 242.73438 30.693748Q241.5625 30.693748 240.76562 31.662498Q239.98438 32.615623 239.98438 34.678123ZM258.70312 39.85L254.75 29.474998L256.60938 29.474998L258.84375 35.69375Q259.20312 36.69375 259.5 37.771873Q259.73438 36.959373 260.15625 35.803123L262.45312 29.474998L264.26562 29.474998L260.34375 39.85L258.70312 39.85ZM264.10938 36.75625L265.85938 36.475Q266.0 37.521873 266.67188 38.084373Q267.34375 38.63125 268.54688 38.63125Q269.75 38.63125 270.32812 38.146873Q270.92188 37.646873 270.92188 36.990623Q270.92188 36.396873 270.40625 36.053123Q270.04688 35.81875 268.60938 35.459373Q266.67188 34.959373 265.92188 34.615623Q265.1875 34.25625 264.79688 33.63125Q264.40625 32.990623 264.40625 32.225Q264.40625 31.537498 264.71875 30.943748Q265.04688 30.349998 265.59375 29.959373Q266.0 29.662498 266.70312 29.459373Q267.42188 29.240623 268.23438 29.240623Q269.45312 29.240623 270.375 29.599998Q271.29688 29.943748 271.73438 30.553123Q272.17188 31.146873 272.34375 32.146873L270.625 32.38125Q270.5 31.584373 269.9375 31.146873Q269.375 30.693748 268.35938 30.693748Q267.14062 30.693748 266.625 31.099998Q266.10938 31.490623 266.10938 32.021873Q266.10938 32.365623 266.32812 32.646873Q266.53125 32.928123 267.0 33.115623Q267.26562 33.209373 268.54688 33.553123Q270.42188 34.053123 271.15625 34.38125Q271.89062 34.69375 272.3125 35.303123Q272.73438 35.896873 272.73438 36.803123Q272.73438 37.678123 272.21875 38.459373Q271.70312 39.240623 270.73438 39.6625Q269.76562 40.084373 268.54688 40.084373Q266.53125 40.084373 265.46875 39.240623Q264.40625 38.396873 264.10938 36.75625ZM275.3125 39.85L275.3125 37.85L277.3125 37.85L277.3125 39.85L275.3125 39.85ZM287.14062 39.85L287.14062 25.537498L296.79688 25.537498L296.79688 27.224998L289.03125 27.224998L289.03125 31.662498L295.75 31.662498L295.75 33.35L289.03125 33.35L289.03125 39.85L287.14062 39.85ZM299.04688 39.85L299.04688 25.537498L304.4375 25.537498Q305.875 25.537498 306.625 25.662498Q307.67188 25.849998 308.39062 26.349998Q309.10938 26.834373 309.53125 27.724998Q309.96875 28.615623 309.96875 29.678123Q309.96875 31.506248 308.79688 32.771873Q307.64062 34.021873 304.60938 34.021873L300.9375 34.021873L300.9375 39.85L299.04688 39.85ZM300.9375 32.334373L304.64062 32.334373Q306.46875 32.334373 307.23438 31.662498Q308.01562 30.974998 308.01562 29.724998Q308.01562 28.834373 307.5625 28.193748Q307.10938 27.553123 306.375 27.349998Q305.89062 27.224998 304.59375 27.224998L300.9375 27.224998L300.9375 32.334373ZM317.95312 39.85L316.1875 39.85L316.1875 28.646873Q315.5625 29.256248 314.53125 29.865623Q313.5 30.459373 312.67188 30.771873L312.67188 29.068748Q314.15625 28.381248 315.25 27.396873Q316.35938 26.396873 316.8125 25.474998L317.95312 25.474998L317.95312 39.85ZM331.45312 29.037498L329.70312 29.178123Q329.46875 28.146873 329.04688 27.678123Q328.32812 26.912498 327.28125 26.912498Q326.4375 26.912498 325.8125 27.381248Q324.98438 27.990623 324.5 29.162498Q324.01562 30.318748 324.0 32.459373Q324.64062 31.506248 325.54688 31.037498Q326.46875 30.568748 327.48438 30.568748Q329.23438 30.568748 330.46875 31.865623Q331.70312 33.146873 331.70312 35.19375Q331.70312 36.553123 331.125 37.709373Q330.54688 38.865623 329.53125 39.490623Q328.51562 40.1 327.21875 40.1Q325.03125 40.1 323.64062 38.490623Q322.25 36.865623 322.25 33.146873Q322.25 29.006248 323.78125 27.115623Q325.125 25.474998 327.39062 25.474998Q329.07812 25.474998 330.15625 26.428123Q331.23438 27.365623 331.45312 29.037498ZM324.28125 35.209373Q324.28125 36.115623 324.65625 36.94375Q325.04688 37.771873 325.73438 38.209373Q326.4375 38.646873 327.1875 38.646873Q328.3125 38.646873 329.10938 37.75625Q329.90625 36.85 329.90625 35.303123Q329.90625 33.81875 329.10938 32.975Q328.32812 32.115623 327.125 32.115623Q325.9375 32.115623 325.10938 32.975Q324.28125 33.81875 324.28125 35.209373ZM343.17188 44.053123Q341.71875 42.225 340.71875 39.771873Q339.71875 37.303123 339.71875 34.6625Q339.71875 32.334373 340.46875 30.209373Q341.34375 27.740623 343.17188 25.287498L344.4375 25.287498Q343.25 27.318748 342.875 28.193748Q342.28125 29.537498 341.9375 31.006248Q341.51562 32.834373 341.51562 34.678123Q341.51562 39.365623 344.4375 44.053123L343.17188 44.053123ZM349.54688 39.85L345.75 25.537498L347.6875 25.537498L349.85938 34.9125Q350.21875 36.396873 350.46875 37.85Q351.01562 35.553123 351.10938 35.19375L353.84375 25.537498L356.125 25.537498L358.17188 32.771873Q358.95312 35.475 359.29688 37.85Q359.5625 36.490623 360.0 34.725L362.25 25.537498L364.15625 25.537498L360.23438 39.85L358.40625 39.85L355.39062 28.943748Q355.0 27.568748 354.9375 27.256248Q354.70312 28.240623 354.51562 28.943748L351.48438 39.85L349.54688 39.85ZM374.5625 38.1625L374.5625 39.85L365.10938 39.85Q365.09375 39.209373 365.3125 38.63125Q365.67188 37.6625 366.46875 36.725Q367.26562 35.7875 368.76562 34.553123Q371.10938 32.646873 371.92188 31.537498Q372.75 30.412498 372.75 29.412498Q372.75 28.365623 372.0 27.646873Q371.25 26.928123 370.04688 26.928123Q368.78125 26.928123 368.01562 27.693748Q367.25 28.459373 367.25 29.803123L365.4375 29.615623Q365.625 27.599998 366.82812 26.537498Q368.04688 25.474998 370.09375 25.474998Q372.14062 25.474998 373.34375 26.615623Q374.54688 27.756248 374.54688 29.443748Q374.54688 30.303123 374.1875 31.146873Q373.84375 31.974998 373.03125 32.896873Q372.21875 33.803123 370.32812 35.4125Q368.73438 36.740623 368.28125 37.209373Q367.84375 37.678123 367.54688 38.1625L374.5625 38.1625ZM376.14062 35.553123L376.14062 33.7875L381.53125 33.7875L381.53125 35.553123L376.14062 35.553123ZM385.4375 39.85L383.8125 39.85L383.8125 25.537498L385.5625 25.537498L385.5625 30.646873Q386.6875 29.240623 388.40625 29.240623Q389.35938 29.240623 390.21875 29.631248Q391.07812 30.021873 391.625 30.724998Q392.17188 31.412498 392.48438 32.396873Q392.79688 33.38125 392.79688 34.50625Q392.79688 37.178123 391.48438 38.63125Q390.17188 40.084373 388.32812 40.084373Q386.48438 40.084373 385.4375 38.553123L385.4375 39.85ZM385.42188 34.584373Q385.42188 36.44375 385.92188 37.2875Q386.76562 38.63125 388.17188 38.63125Q389.32812 38.63125 390.15625 37.63125Q391.0 36.63125 391.0 34.646873Q391.0 32.615623 390.1875 31.662498Q389.39062 30.693748 388.25 30.693748Q387.09375 30.693748 386.25 31.693748Q385.42188 32.69375 385.42188 34.584373ZM394.82812 27.553123L394.82812 25.537498L396.59375 25.537498L396.59375 27.553123L394.82812 27.553123ZM394.82812 39.85L394.82812 29.474998L396.59375 29.474998L396.59375 39.85L394.82812 39.85ZM402.65625 38.271873L402.90625 39.834373Q402.17188 39.990623 401.57812 39.990623Q400.625 39.990623 400.09375 39.69375Q399.57812 39.38125 399.35938 38.896873Q399.14062 38.396873 399.14062 36.81875L399.14062 30.849998L397.85938 30.849998L397.85938 29.474998L399.14062 29.474998L399.14062 26.912498L400.89062 25.849998L400.89062 29.474998L402.65625 29.474998L402.65625 30.849998L400.89062 30.849998L400.89062 36.9125Q400.89062 37.6625 400.98438 37.88125Q401.07812 38.084373 401.28125 38.225Q401.5 38.35 401.89062 38.35Q402.17188 38.35 402.65625 38.271873ZM405.28125 39.85L405.28125 37.85L407.28125 37.85L407.28125 39.85Q407.28125 40.959373 406.89062 41.63125Q406.5 42.31875 405.65625 42.678123L405.15625 41.928123Q405.71875 41.69375 405.98438 41.209373Q406.25 40.740623 406.28125 39.85L405.28125 39.85ZM416.5 40.709373L418.20312 40.959373Q418.3125 41.75625 418.79688 42.115623Q419.45312 42.6 420.59375 42.6Q421.8125 42.6 422.46875 42.115623Q423.14062 41.63125 423.375 40.75625Q423.51562 40.209373 423.5 38.490623Q422.34375 39.85 420.625 39.85Q418.48438 39.85 417.3125 38.303123Q416.14062 36.75625 416.14062 34.6Q416.14062 33.115623 416.67188 31.865623Q417.21875 30.615623 418.23438 29.928123Q419.26562 29.240623 420.64062 29.240623Q422.46875 29.240623 423.67188 30.724998L423.67188 29.474998L425.28125 29.474998L425.28125 38.44375Q425.28125 40.865623 424.78125 41.865623Q424.29688 42.88125 423.21875 43.459373Q422.15625 44.053123 420.59375 44.053123Q418.75 44.053123 417.59375 43.225Q416.45312 42.396873 416.5 40.709373ZM417.95312 34.475Q417.95312 36.521873 418.76562 37.459373Q419.57812 38.396873 420.79688 38.396873Q422.0 38.396873 422.8125 37.459373Q423.64062 36.521873 423.64062 34.5375Q423.64062 32.63125 422.79688 31.662498Q421.95312 30.693748 420.76562 30.693748Q419.59375 30.693748 418.76562 31.646873Q417.95312 32.6 417.95312 34.475ZM427.79688 39.85L427.79688 29.474998L429.375 29.474998L429.375 31.053123Q429.98438 29.943748 430.5 29.599998Q431.01562 29.240623 431.625 29.240623Q432.51562 29.240623 433.4375 29.803123L432.82812 31.443748Q432.1875 31.053123 431.54688 31.053123Q430.96875 31.053123 430.5 31.412498Q430.04688 31.756248 429.84375 32.365623Q429.5625 33.303123 429.5625 34.4125L429.5625 39.85L427.79688 39.85ZM434.17188 34.6625Q434.17188 31.787498 435.76562 30.396873Q437.10938 29.240623 439.03125 29.240623Q441.17188 29.240623 442.51562 30.646873Q443.875 32.053123 443.875 34.521873Q443.875 36.521873 443.28125 37.678123Q442.6875 38.81875 441.53125 39.459373Q440.39062 40.084373 439.03125 40.084373Q436.84375 40.084373 435.5 38.69375Q434.17188 37.2875 434.17188 34.6625ZM435.96875 34.6625Q435.96875 36.6625 436.82812 37.646873Q437.70312 38.63125 439.03125 38.63125Q440.34375 38.63125 441.20312 37.646873Q442.07812 36.646873 442.07812 34.6Q442.07812 32.678123 441.20312 31.693748Q440.32812 30.693748 439.03125 30.693748Q437.70312 30.693748 436.82812 31.693748Q435.96875 32.678123 435.96875 34.6625ZM452.60938 39.85L452.60938 38.31875Q451.40625 40.084373 449.32812 40.084373Q448.40625 40.084373 447.60938 39.740623Q446.8125 39.38125 446.42188 38.85Q446.04688 38.31875 445.89062 37.5375Q445.78125 37.021873 445.78125 35.896873L445.78125 29.474998L447.53125 29.474998L447.53125 35.225Q447.53125 36.6 447.64062 37.084373Q447.8125 37.771873 448.34375 38.178123Q448.89062 38.56875 449.67188 38.56875Q450.46875 38.56875 451.15625 38.1625Q451.85938 37.75625 452.14062 37.06875Q452.4375 36.365623 452.4375 35.0375L452.4375 29.474998L454.1875 29.474998L454.1875 39.85L452.60938 39.85ZM455.8125 43.81875L455.8125 29.474998L457.42188 29.474998L457.42188 30.818748Q457.98438 30.037498 458.6875 29.646873Q459.40625 29.240623 460.42188 29.240623Q461.75 29.240623 462.76562 29.928123Q463.78125 30.615623 464.29688 31.865623Q464.82812 33.1 464.82812 34.584373Q464.82812 36.178123 464.25 37.459373Q463.6875 38.725 462.59375 39.4125Q461.5 40.084373 460.29688 40.084373Q459.42188 40.084373 458.71875 39.709373Q458.03125 39.334373 457.57812 38.771873L457.57812 43.81875L455.8125 43.81875ZM457.40625 34.725Q457.40625 36.725 458.21875 37.678123Q459.03125 38.63125 460.1875 38.63125Q461.35938 38.63125 462.1875 37.646873Q463.03125 36.6625 463.03125 34.56875Q463.03125 32.6 462.20312 31.615623Q461.39062 30.615623 460.26562 30.615623Q459.14062 30.615623 458.26562 31.678123Q457.40625 32.725 457.40625 34.725ZM472.10938 36.75625L473.85938 36.475Q474.0 37.521873 474.67188 38.084373Q475.34375 38.63125 476.54688 38.63125Q477.75 38.63125 478.32812 38.146873Q478.92188 37.646873 478.92188 36.990623Q478.92188 36.396873 478.40625 36.053123Q478.04688 35.81875 476.60938 35.459373Q474.67188 34.959373 473.92188 34.615623Q473.1875 34.25625 472.79688 33.63125Q472.40625 32.990623 472.40625 32.225Q472.40625 31.537498 472.71875 30.943748Q473.04688 30.349998 473.59375 29.959373Q474.0 29.662498 474.70312 29.459373Q475.42188 29.240623 476.23438 29.240623Q477.45312 29.240623 478.375 29.599998Q479.29688 29.943748 479.73438 30.553123Q480.17188 31.146873 480.34375 32.146873L478.625 32.38125Q478.5 31.584373 477.9375 31.146873Q477.375 30.693748 476.35938 30.693748Q475.14062 30.693748 474.625 31.099998Q474.10938 31.490623 474.10938 32.021873Q474.10938 32.365623 474.32812 32.646873Q474.53125 32.928123 475.0 33.115623Q475.26562 33.209373 476.54688 33.553123Q478.42188 34.053123 479.15625 34.38125Q479.89062 34.69375 480.3125 35.303123Q480.73438 35.896873 480.73438 36.803123Q480.73438 37.678123 480.21875 38.459373Q479.70312 39.240623 478.73438 39.6625Q477.76562 40.084373 476.54688 40.084373Q474.53125 40.084373 473.46875 39.240623Q472.40625 38.396873 472.10938 36.75625ZM482.82812 27.553123L482.82812 25.537498L484.59375 25.537498L484.59375 27.553123L482.82812 27.553123ZM482.82812 39.85L482.82812 29.474998L484.59375 29.474998L484.59375 39.85L482.82812 39.85ZM485.89062 39.85L485.89062 38.428123L492.5 30.849998Q491.375 30.896873 490.51562 30.896873L486.28125 30.896873L486.28125 29.474998L494.76562 29.474998L494.76562 30.646873L489.14062 37.225L488.0625 38.428123Q489.23438 38.334373 490.28125 38.334373L495.07812 38.334373L495.07812 39.85L485.89062 39.85ZM502.92188 36.50625L504.73438 36.740623Q504.3125 38.31875 503.14062 39.209373Q501.98438 40.084373 500.17188 40.084373Q497.90625 40.084373 496.5625 38.69375Q495.23438 37.2875 495.23438 34.75625Q495.23438 32.13125 496.57812 30.693748Q497.92188 29.240623 500.07812 29.240623Q502.15625 29.240623 503.46875 30.662498Q504.79688 32.06875 504.79688 34.646873Q504.79688 34.803123 504.78125 35.115623L497.04688 35.115623Q497.14062 36.81875 498.01562 37.725Q498.89062 38.63125 500.1875 38.63125Q501.15625 38.63125 501.82812 38.13125Q502.51562 37.615623 502.92188 36.50625ZM497.14062 33.6625L502.9375 33.6625Q502.82812 32.365623 502.28125 31.709373Q501.4375 30.693748 500.09375 30.693748Q498.89062 30.693748 498.0625 31.506248Q497.23438 32.303123 497.14062 33.6625ZM516.0625 31.428123L506.60938 31.428123L506.60938 29.787498L516.0625 29.787498L516.0625 31.428123ZM516.0625 35.771873L506.60938 35.771873L506.60938 34.13125L516.0625 34.13125L516.0625 35.771873ZM524.9531 39.85L523.1875 39.85L523.1875 28.646873Q522.5625 29.256248 521.53125 29.865623Q520.5 30.459373 519.6719 30.771873L519.6719 29.068748Q521.15625 28.381248 522.25 27.396873Q523.3594 26.396873 523.8125 25.474998L524.9531 25.474998L524.9531 39.85ZM538.5625 38.1625L538.5625 39.85L529.1094 39.85Q529.09375 39.209373 529.3125 38.63125Q529.6719 37.6625 530.46875 36.725Q531.2656 35.7875 532.7656 34.553123Q535.1094 32.646873 535.9219 31.537498Q536.75 30.412498 536.75 29.412498Q536.75 28.365623 536.0 27.646873Q535.25 26.928123 534.0469 26.928123Q532.78125 26.928123 532.0156 27.693748Q531.25 28.459373 531.25 29.803123L529.4375 29.615623Q529.625 27.599998 530.8281 26.537498Q532.0469 25.474998 534.09375 25.474998Q536.1406 25.474998 537.34375 26.615623Q538.5469 27.756248 538.5469 29.443748Q538.5469 30.303123 538.1875 31.146873Q537.84375 31.974998 537.03125 32.896873Q536.21875 33.803123 534.3281 35.4125Q532.7344 36.740623 532.28125 37.209373Q531.84375 37.678123 531.5469 38.1625L538.5625 38.1625ZM543.03125 32.084373Q541.9375 31.678123 541.40625 30.943748Q540.8906 30.193748 540.8906 29.162498Q540.8906 27.599998 542.0156 26.537498Q543.1406 25.474998 545.0 25.474998Q546.875 25.474998 548.0156 26.568748Q549.15625 27.646873 549.15625 29.209373Q549.15625 30.209373 548.625 30.943748Q548.1094 31.678123 547.0469 32.084373Q548.375 32.521873 549.0625 33.475Q549.75 34.428123 549.75 35.75625Q549.75 37.6 548.4375 38.85Q547.1406 40.1 545.03125 40.1Q542.90625 40.1 541.6094 38.85Q540.3125 37.584373 540.3125 35.709373Q540.3125 34.31875 541.0156 33.38125Q541.7344 32.428123 543.03125 32.084373ZM542.6875 29.099998Q542.6875 30.115623 543.34375 30.771873Q544.0 31.412498 545.03125 31.412498Q546.0469 31.412498 546.7031 30.771873Q547.3594 30.131248 547.3594 29.209373Q547.3594 28.240623 546.6875 27.584373Q546.0156 26.912498 545.0156 26.912498Q544.0156 26.912498 543.34375 27.568748Q542.6875 28.209373 542.6875 29.099998ZM542.125 35.725Q542.125 36.475 542.46875 37.178123Q542.8281 37.88125 543.53125 38.271873Q544.2344 38.646873 545.0469 38.646873Q546.3125 38.646873 547.125 37.834373Q547.9531 37.021873 547.9531 35.771873Q547.9531 34.50625 547.1094 33.678123Q546.2656 32.85 544.9844 32.85Q543.75 32.85 542.9375 33.678123Q542.125 34.490623 542.125 35.725ZM552.96875 44.053123L551.71875 44.053123Q554.625 39.365623 554.625 34.678123Q554.625 32.834373 554.21875 31.037498Q553.875 29.568748 553.28125 28.224998Q552.90625 27.334373 551.71875 25.287498L552.96875 25.287498Q554.8125 27.740623 555.6875 30.209373Q556.4375 32.334373 556.4375 34.6625Q556.4375 37.303123 555.4219 39.771873Q554.4219 42.225 552.96875 44.053123ZM564.1406 35.553123L564.1406 33.7875L569.53125 33.7875L569.53125 35.553123L564.1406 35.553123ZM583.9531 39.85L582.1875 39.85L582.1875 28.646873Q581.5625 29.256248 580.53125 29.865623Q579.5 30.459373 578.6719 30.771873L578.6719 29.068748Q580.15625 28.381248 581.25 27.396873Q582.3594 26.396873 582.8125 25.474998L583.9531 25.474998L583.9531 39.85ZM597.4531 29.037498L595.7031 29.178123Q595.46875 28.146873 595.0469 27.678123Q594.3281 26.912498 593.28125 26.912498Q592.4375 26.912498 591.8125 27.381248Q590.9844 27.990623 590.5 29.162498Q590.0156 30.318748 590.0 32.459373Q590.6406 31.506248 591.5469 31.037498Q592.46875 30.568748 593.4844 30.568748Q595.2344 30.568748 596.46875 31.865623Q597.7031 33.146873 597.7031 35.19375Q597.7031 36.553123 597.125 37.709373Q596.5469 38.865623 595.53125 39.490623Q594.5156 40.1 593.21875 40.1Q591.03125 40.1 589.6406 38.490623Q588.25 36.865623 588.25 33.146873Q588.25 29.006248 589.78125 27.115623Q591.125 25.474998 593.3906 25.474998Q595.0781 25.474998 596.15625 26.428123Q597.2344 27.365623 597.4531 29.037498ZM590.28125 35.209373Q590.28125 36.115623 590.65625 36.94375Q591.0469 37.771873 591.7344 38.209373Q592.4375 38.646873 593.1875 38.646873Q594.3125 38.646873 595.1094 37.75625Q595.90625 36.85 595.90625 35.303123Q595.90625 33.81875 595.1094 32.975Q594.3281 32.115623 593.125 32.115623Q591.9375 32.115623 591.1094 32.975Q590.28125 33.81875 590.28125 35.209373ZM599.34375 36.06875L601.09375 35.834373Q601.40625 37.334373 602.125 37.990623Q602.8594 38.646873 603.90625 38.646873Q605.1406 38.646873 605.9844 37.7875Q606.84375 36.928123 606.84375 35.6625Q606.84375 34.44375 606.0469 33.6625Q605.2656 32.88125 604.0469 32.88125Q603.5469 32.88125 602.8125 33.06875L603.0 31.521873Q603.1719 31.553123 603.28125 31.553123Q604.40625 31.553123 605.2969 30.974998Q606.2031 30.381248 606.2031 29.162498Q606.2031 28.193748 605.5469 27.553123Q604.8906 26.912498 603.8594 26.912498Q602.84375 26.912498 602.15625 27.568748Q601.46875 28.209373 601.28125 29.490623L599.5156 29.178123Q599.84375 27.412498 600.9844 26.443748Q602.125 25.474998 603.8281 25.474998Q605.0 25.474998 605.9844 25.974998Q606.96875 26.474998 607.4844 27.349998Q608.0156 28.224998 608.0156 29.193748Q608.0156 30.115623 607.5156 30.881248Q607.0156 31.646873 606.0469 32.1Q607.3125 32.38125 608.0156 33.31875Q608.71875 34.240623 608.71875 35.615623Q608.71875 37.490623 607.34375 38.803123Q605.9844 40.1 603.8906 40.1Q602.0 40.1 600.75 38.975Q599.5156 37.85 599.34375 36.06875ZM613.03125 32.084373Q611.9375 31.678123 611.40625 30.943748Q610.8906 30.193748 610.8906 29.162498Q610.8906 27.599998 612.0156 26.537498Q613.1406 25.474998 615.0 25.474998Q616.875 25.474998 618.0156 26.568748Q619.15625 27.646873 619.15625 29.209373Q619.15625 30.209373 618.625 30.943748Q618.1094 31.678123 617.0469 32.084373Q618.375 32.521873 619.0625 33.475Q619.75 34.428123 619.75 35.75625Q619.75 37.6 618.4375 38.85Q617.1406 40.1 615.03125 40.1Q612.90625 40.1 611.6094 38.85Q610.3125 37.584373 610.3125 35.709373Q610.3125 34.31875 611.0156 33.38125Q611.7344 32.428123 613.03125 32.084373ZM612.6875 29.099998Q612.6875 30.115623 613.34375 30.771873Q614.0 31.412498 615.03125 31.412498Q616.0469 31.412498 616.7031 30.771873Q617.3594 30.131248 617.3594 29.209373Q617.3594 28.240623 616.6875 27.584373Q616.0156 26.912498 615.0156 26.912498Q614.0156 26.912498 613.34375 27.568748Q612.6875 28.209373 612.6875 29.099998ZM612.125 35.725Q612.125 36.475 612.46875 37.178123Q612.8281 37.88125 613.53125 38.271873Q614.2344 38.646873 615.0469 38.646873Q616.3125 38.646873 617.125 37.834373Q617.9531 37.021873 617.9531 35.771873Q617.9531 34.50625 617.1094 33.678123Q616.2656 32.85 614.9844 32.85Q613.75 32.85 612.9375 33.678123Q612.125 34.490623 612.125 35.725ZM626.96875 39.85L626.96875 36.428123L620.75 36.428123L620.75 34.803123L627.28125 25.537498L628.71875 25.537498L628.71875 34.803123L630.65625 34.803123L630.65625 36.428123L628.71875 36.428123L628.71875 39.85L626.96875 39.85ZM626.96875 34.803123L626.96875 28.349998L622.4844 34.803123L626.96875 34.803123ZM637.6406 39.85L641.4375 34.459373L637.9375 29.474998L640.125 29.474998L641.71875 31.912498Q642.1719 32.6 642.4375 33.06875Q642.875 32.428123 643.2344 31.928123L644.9844 29.474998L647.0781 29.474998L643.5 34.365623L647.3594 39.85L645.2031 39.85L643.0625 36.63125L642.5 35.75625L639.78125 39.85L637.6406 39.85ZM659.9531 39.85L658.1875 39.85L658.1875 28.646873Q657.5625 29.256248 656.53125 29.865623Q655.5 30.459373 654.6719 30.771873L654.6719 29.068748Q656.15625 28.381248 657.25 27.396873Q658.3594 26.396873 658.8125 25.474998L659.9531 25.474998L659.9531 39.85ZM673.4531 29.037498L671.7031 29.178123Q671.46875 28.146873 671.0469 27.678123Q670.3281 26.912498 669.28125 26.912498Q668.4375 26.912498 667.8125 27.381248Q666.9844 27.990623 666.5 29.162498Q666.0156 30.318748 666.0 32.459373Q666.6406 31.506248 667.5469 31.037498Q668.46875 30.568748 669.4844 30.568748Q671.2344 30.568748 672.46875 31.865623Q673.7031 33.146873 673.7031 35.19375Q673.7031 36.553123 673.125 37.709373Q672.5469 38.865623 671.53125 39.490623Q670.5156 40.1 669.21875 40.1Q667.03125 40.1 665.6406 38.490623Q664.25 36.865623 664.25 33.146873Q664.25 29.006248 665.78125 27.115623Q667.125 25.474998 669.3906 25.474998Q671.0781 25.474998 672.15625 26.428123Q673.2344 27.365623 673.4531 29.037498ZM666.28125 35.209373Q666.28125 36.115623 666.65625 36.94375Q667.0469 37.771873 667.7344 38.209373Q668.4375 38.646873 669.1875 38.646873Q670.3125 38.646873 671.1094 37.75625Q671.90625 36.85 671.90625 35.303123Q671.90625 33.81875 671.1094 32.975Q670.3281 32.115623 669.125 32.115623Q667.9375 32.115623 667.1094 32.975Q666.28125 33.81875 666.28125 35.209373ZM675.34375 36.06875L677.09375 35.834373Q677.40625 37.334373 678.125 37.990623Q678.8594 38.646873 679.90625 38.646873Q681.1406 38.646873 681.9844 37.7875Q682.84375 36.928123 682.84375 35.6625Q682.84375 34.44375 682.0469 33.6625Q681.2656 32.88125 680.0469 32.88125Q679.5469 32.88125 678.8125 33.06875L679.0 31.521873Q679.1719 31.553123 679.28125 31.553123Q680.40625 31.553123 681.2969 30.974998Q682.2031 30.381248 682.2031 29.162498Q682.2031 28.193748 681.5469 27.553123Q680.8906 26.912498 679.8594 26.912498Q678.84375 26.912498 678.15625 27.568748Q677.46875 28.209373 677.28125 29.490623L675.5156 29.178123Q675.84375 27.412498 676.9844 26.443748Q678.125 25.474998 679.8281 25.474998Q681.0 25.474998 681.9844 25.974998Q682.96875 26.474998 683.4844 27.349998Q684.0156 28.224998 684.0156 29.193748Q684.0156 30.115623 683.5156 30.881248Q683.0156 31.646873 682.0469 32.1Q683.3125 32.38125 684.0156 33.31875Q684.71875 34.240623 684.71875 35.615623Q684.71875 37.490623 683.34375 38.803123Q681.9844 40.1 679.8906 40.1Q678.0 40.1 676.75 38.975Q675.5156 37.85 675.34375 36.06875ZM689.03125 32.084373Q687.9375 31.678123 687.40625 30.943748Q686.8906 30.193748 686.8906 29.162498Q686.8906 27.599998 688.0156 26.537498Q689.1406 25.474998 691.0 25.474998Q692.875 25.474998 694.0156 26.568748Q695.15625 27.646873 695.15625 29.209373Q695.15625 30.209373 694.625 30.943748Q694.1094 31.678123 693.0469 32.084373Q694.375 32.521873 695.0625 33.475Q695.75 34.428123 695.75 35.75625Q695.75 37.6 694.4375 38.85Q693.1406 40.1 691.03125 40.1Q688.90625 40.1 687.6094 38.85Q686.3125 37.584373 686.3125 35.709373Q686.3125 34.31875 687.0156 33.38125Q687.7344 32.428123 689.03125 32.084373ZM688.6875 29.099998Q688.6875 30.115623 689.34375 30.771873Q690.0 31.412498 691.03125 31.412498Q692.0469 31.412498 692.7031 30.771873Q693.3594 30.131248 693.3594 29.209373Q693.3594 28.240623 692.6875 27.584373Q692.0156 26.912498 691.0156 26.912498Q690.0156 26.912498 689.34375 27.568748Q688.6875 28.209373 688.6875 29.099998ZM688.125 35.725Q688.125 36.475 688.46875 37.178123Q688.8281 37.88125 689.53125 38.271873Q690.2344 38.646873 691.0469 38.646873Q692.3125 38.646873 693.125 37.834373Q693.9531 37.021873 693.9531 35.771873Q693.9531 34.50625 693.1094 33.678123Q692.2656 32.85 690.9844 32.85Q689.75 32.85 688.9375 33.678123Q688.125 34.490623 688.125 35.725ZM702.96875 39.85L702.96875 36.428123L696.75 36.428123L696.75 34.803123L703.28125 25.537498L704.71875 25.537498L704.71875 34.803123L706.65625 34.803123L706.65625 36.428123L704.71875 36.428123L704.71875 39.85L702.96875 39.85ZM702.96875 34.803123L702.96875 28.349998L698.4844 34.803123L702.96875 34.803123ZM714.1406 35.553123L714.1406 33.7875L719.53125 33.7875L719.53125 35.553123L714.1406 35.553123ZM732.96875 39.85L732.96875 36.428123L726.75 36.428123L726.75 34.803123L733.28125 25.537498L734.71875 25.537498L734.71875 34.803123L736.65625 34.803123L736.65625 36.428123L734.71875 36.428123L734.71875 39.85L732.96875 39.85ZM732.96875 34.803123L732.96875 28.349998L728.4844 34.803123L732.96875 34.803123ZM738.3281 32.7875Q738.3281 30.256248 738.84375 28.709373Q739.375 27.146873 740.40625 26.318748Q741.4375 25.474998 743.0 25.474998Q744.15625 25.474998 745.0156 25.943748Q745.8906 26.396873 746.4531 27.271873Q747.0156 28.146873 747.34375 29.412498Q747.6719 30.662498 747.6719 32.7875Q747.6719 35.303123 747.1406 36.85Q746.625 38.396873 745.59375 39.25625Q744.5781 40.1 743.0 40.1Q740.9219 40.1 739.75 38.615623Q738.3281 36.81875 738.3281 32.7875ZM740.1406 32.7875Q740.1406 36.31875 740.9531 37.490623Q741.78125 38.646873 743.0 38.646873Q744.2031 38.646873 745.03125 37.475Q745.8594 36.303123 745.8594 32.7875Q745.8594 29.256248 745.03125 28.099998Q744.2031 26.928123 742.9844 26.928123Q741.7656 26.928123 741.0469 27.959373Q740.1406 29.256248 740.1406 32.7875ZM749.59375 36.5375L751.28125 36.38125Q751.5 37.56875 752.09375 38.115623Q752.7031 38.646873 753.65625 38.646873Q754.46875 38.646873 755.0781 38.2875Q755.6875 37.9125 756.0781 37.2875Q756.46875 36.6625 756.7344 35.615623Q757.0 34.553123 757.0 33.459373Q757.0 33.35 756.9844 33.115623Q756.4531 33.94375 755.5469 34.475Q754.6406 34.990623 753.5625 34.990623Q751.7969 34.990623 750.5625 33.709373Q749.3281 32.4125 749.3281 30.303123Q749.3281 28.131248 750.6094 26.803123Q751.90625 25.474998 753.8281 25.474998Q755.2344 25.474998 756.3906 26.224998Q757.5469 26.974998 758.1406 28.365623Q758.75 29.756248 758.75 32.396873Q758.75 35.146873 758.1406 36.771873Q757.5469 38.396873 756.375 39.25625Q755.2031 40.1 753.625 40.1Q751.9375 40.1 750.875 39.1625Q749.8125 38.225 749.59375 36.5375ZM756.7969 30.224998Q756.7969 28.709373 755.9844 27.818748Q755.1875 26.928123 754.0469 26.928123Q752.875 26.928123 752.0 27.896873Q751.1406 28.849998 751.1406 30.365623Q751.1406 31.740623 751.9531 32.6Q752.78125 33.44375 754.0 33.44375Q755.21875 33.44375 756.0 32.6Q756.7969 31.740623 756.7969 30.224998ZM760.3281 32.7875Q760.3281 30.256248 760.84375 28.709373Q761.375 27.146873 762.40625 26.318748Q763.4375 25.474998 765.0 25.474998Q766.15625 25.474998 767.0156 25.943748Q767.8906 26.396873 768.4531 27.271873Q769.0156 28.146873 769.34375 29.412498Q769.6719 30.662498 769.6719 32.7875Q769.6719 35.303123 769.1406 36.85Q768.625 38.396873 767.59375 39.25625Q766.5781 40.1 765.0 40.1Q762.9219 40.1 761.75 38.615623Q760.3281 36.81875 760.3281 32.7875ZM762.1406 32.7875Q762.1406 36.31875 762.9531 37.490623Q763.78125 38.646873 765.0 38.646873Q766.2031 38.646873 767.03125 37.475Q767.8594 36.303123 767.8594 32.7875Q767.8594 29.256248 767.03125 28.099998Q766.2031 26.928123 764.9844 26.928123Q763.7656 26.928123 763.0469 27.959373Q762.1406 29.256248 762.1406 32.7875ZM778.0781 39.85L778.0781 25.537498L784.4219 25.537498Q786.3281 25.537498 787.3281 25.928123Q788.3281 26.303123 788.9219 27.287498Q789.5156 28.256248 789.5156 29.443748Q789.5156 30.959373 788.53125 32.00625Q787.5469 33.053123 785.4844 33.334373Q786.2344 33.69375 786.625 34.053123Q787.4531 34.803123 788.2031 35.959373L790.6875 39.85L788.3125 39.85L786.40625 36.865623Q785.5781 35.584373 785.0469 34.896873Q784.5156 34.209373 784.0781 33.94375Q783.65625 33.6625 783.21875 33.553123Q782.8906 33.490623 782.1719 33.490623L779.96875 33.490623L779.96875 39.85L778.0781 39.85ZM779.96875 31.849998L784.0469 31.849998Q785.34375 31.849998 786.0625 31.584373Q786.7969 31.318748 787.1719 30.724998Q787.5625 30.131248 787.5625 29.443748Q787.5625 28.428123 786.8281 27.771873Q786.09375 27.115623 784.5 27.115623L779.96875 27.115623L779.96875 31.849998ZM795.6875 39.85L795.6875 27.224998L790.96875 27.224998L790.96875 25.537498L802.3125 25.537498L802.3125 27.224998L797.5781 27.224998L797.5781 39.85L795.6875 39.85ZM802.59375 39.85L808.125 32.38125L803.25 25.537498L805.5 25.537498L808.09375 29.209373Q808.90625 30.349998 809.25 30.959373Q809.7344 30.178123 810.375 29.334373L813.2656 25.537498L815.3281 25.537498L810.2969 32.2875L815.71875 39.85L813.375 39.85L809.7656 34.740623Q809.46875 34.303123 809.1406 33.7875Q808.65625 34.56875 808.4531 34.865623L804.8594 39.85L802.59375 39.85Z" fill-rule="nonzero"/></svg>