<svg version="1.1" viewBox="0.0 0.0 1007.0 398.0" fill="none" stroke="none" stroke-linecap="square" stroke-miterlimit="10" width="1007" height="398" xmlns:xlink="http://www.w3.org/1999/xlink" xmlns="http://www.w3.org/2000/svg"><path fill="#ffffff" d="M0 0L1007.0 0L1007.0 398.0L0 398.0L0 0Z" fill-rule="nonzero"/><path stroke="#333333" stroke-width="1.0" stroke-linecap="butt" d="M87.5 91.5L87.5 326.5" fill-rule="nonzero"/><path stroke="#cccccc" stroke-width="1.0" stroke-linecap="butt" d="M304.5 91.5L304.5 326.5" fill-rule="nonzero"/><path stroke="#cccccc" stroke-width="1.0" stroke-linecap="butt" d="M522.5 91.5L522.5 326.5" fill-rule="nonzero"/><path stroke="#cccccc" stroke-width="1.0" stroke-linecap="butt" d="M739.5 91.5L739.5 326.5" fill-rule="nonzero"/><path stroke="#cccccc" stroke-width="1.0" stroke-linecap="butt" d="M956.5 91.5L956.5 326.5" fill-rule="nonzero"/><path stroke="#333333" stroke-width="1.0" stroke-linecap="butt" d="M78.5 326.5L987.5 326.5" fill-rule="nonzero"/><path stroke="#cccccc" stroke-width="1.0" stroke-linecap="butt" d="M78.5 267.5L987.5 267.5" fill-rule="nonzero"/><path stroke="#cccccc" stroke-width="1.0" stroke-linecap="butt" d="M78.5 208.5L987.5 208.5" fill-rule="nonzero"/><path stroke="#cccccc" stroke-width="1.0" stroke-linecap="butt" d="M78.5 150.5L987.5 150.5" fill-rule="nonzero"/><path stroke="#cccccc" stroke-width="1.0" stroke-linecap="butt" d="M78.5 91.5L987.5 91.5" fill-rule="nonzero"/><clipPath id="id_0"><path d="M78.9 91.433334L987.1 91.433334L987.1 326.1L78.9 326.1L78.9 91.433334Z" clip-rule="nonzero"/></clipPath><path stroke="#6aa84f" stroke-width="2.0" stroke-linecap="butt" clip-path="url(#id_0)" d="M88.68453 150.39333L89.553185 141.88667L91.29048 143.64667L94.76509 147.16667L101.71431 153.91333L115.61274 187.06L143.4096 231.35333L199.00333 271.24667L310.19077 290.02L532.5657 288.84668L977.3155 290.02" fill-rule="nonzero"/><path stroke="#fbbc04" stroke-width="2.0" stroke-linecap="butt" clip-path="url(#id_0)" d="M88.68453 151.27333L89.553185 225.78L91.29048 273.59332L94.76509 278.87332L101.71431 280.34L115.61274 281.22L143.4096 283.86L199.00333 288.55334L310.19077 300.58L532.5657 300.58L977.3155 300.58" fill-rule="nonzero"/><path fill="#6aa84f" clip-path="url(#id_0)" d="M84.44189 146.1507L88.68453 148.89333L92.92717 146.1507L90.18453 150.39333L92.92717 154.63597L88.68453 151.89333L84.44189 154.63597L87.18453 150.39333Z" fill-rule="nonzero"/><path fill="#6aa84f" clip-path="url(#id_0)" d="M85.31054 137.64403L89.553185 140.38667L93.79582 137.64403L91.053185 141.88667L93.79582 146.1293L89.553185 143.38667L85.31054 146.1293L88.053185 141.88667Z" fill-rule="nonzero"/><path fill="#6aa84f" clip-path="url(#id_0)" d="M87.047844 139.40402L91.29048 142.14667L95.53313 139.40402L92.79048 143.64667L95.53313 147.88931L91.29048 145.14667L87.047844 147.88931L89.79048 143.64667Z" fill-rule="nonzero"/><path fill="#6aa84f" clip-path="url(#id_0)" d="M90.52245 142.92403L94.76509 145.66667L99.00774 142.92403L96.26509 147.16667L99.00774 151.4093L94.76509 148.66667L90.52245 151.4093L93.26509 147.16667Z" fill-rule="nonzero"/><path fill="#6aa84f" clip-path="url(#id_0)" d="M97.471664 149.6707L101.71431 152.41333L105.95695 149.6707L103.21431 153.91333L105.95695 158.15598L101.71431 155.41333L97.471664 158.15598L100.21431 153.91333Z" fill-rule="nonzero"/><path fill="#6aa84f" clip-path="url(#id_0)" d="M111.3701 182.81735L115.61274 185.56L119.85538 182.81735L117.11274 187.06L119.85538 191.30264L115.61274 188.56L111.3701 191.30264L114.11274 187.06Z" fill-rule="nonzero"/><path fill="#6aa84f" clip-path="url(#id_0)" d="M139.16696 227.11069L143.4096 229.85333L147.65224 227.11069L144.9096 231.35333L147.65224 235.59598L143.4096 232.85333L139.16696 235.59598L141.9096 231.35333Z" fill-rule="nonzero"/><path fill="#6aa84f" clip-path="url(#id_0)" d="M194.76068 267.00403L199.00333 269.74667L203.24597 267.00403L200.50333 271.24667L203.24597 275.48932L199.00333 272.74667L194.76068 275.48932L197.50333 271.24667Z" fill-rule="nonzero"/><path fill="#6aa84f" clip-path="url(#id_0)" d="M305.94812 285.77737L310.19077 288.52L314.4334 285.77737L311.69077 290.02L314.4334 294.26263L310.19077 291.52L305.94812 294.26263L308.69077 290.02Z" fill-rule="nonzero"/><path fill="#6aa84f" clip-path="url(#id_0)" d="M528.32306 284.60403L532.5657 287.34668L536.8083 284.60403L534.0657 288.84668L536.8083 293.0893L532.5657 290.34668L528.32306 293.0893L531.0657 288.84668Z" fill-rule="nonzero"/><path fill="#6aa84f" clip-path="url(#id_0)" d="M973.0728 285.77737L977.3155 288.52L981.5581 285.77737L978.8155 290.02L981.5581 294.26263L977.3155 291.52L973.0728 294.26263L975.8155 290.02Z" fill-rule="nonzero"/><path fill="#fbbc04" clip-path="url(#id_0)" d="M84.44189 147.03069L88.68453 149.77333L92.92717 147.03069L90.18453 151.27333L92.92717 155.51598L88.68453 152.77333L84.44189 155.51598L87.18453 151.27333Z" fill-rule="nonzero"/><path fill="#fbbc04" clip-path="url(#id_0)" d="M85.31054 221.53735L89.553185 224.28L93.79582 221.53735L91.053185 225.78L93.79582 230.02264L89.553185 227.28L85.31054 230.02264L88.053185 225.78Z" fill-rule="nonzero"/><path fill="#fbbc04" clip-path="url(#id_0)" d="M87.047844 269.35068L91.29048 272.09332L95.53313 269.35068L92.79048 273.59332L95.53313 277.83597L91.29048 275.09332L87.047844 277.83597L89.79048 273.59332Z" fill-rule="nonzero"/><path fill="#fbbc04" clip-path="url(#id_0)" d="M90.52245 274.6307L94.76509 277.37332L99.00774 274.6307L96.26509 278.87332L99.00774 283.11597L94.76509 280.37332L90.52245 283.11597L93.26509 278.87332Z" fill-rule="nonzero"/><path fill="#fbbc04" clip-path="url(#id_0)" d="M97.471664 276.09735L101.71431 278.84L105.95695 276.09735L103.21431 280.34L105.95695 284.58264L101.71431 281.84L97.471664 284.58264L100.21431 280.34Z" fill-rule="nonzero"/><path fill="#fbbc04" clip-path="url(#id_0)" d="M111.3701 276.97736L115.61274 279.72L119.85538 276.97736L117.11274 281.22L119.85538 285.46265L115.61274 282.72L111.3701 285.46265L114.11274 281.22Z" fill-rule="nonzero"/><path fill="#fbbc04" clip-path="url(#id_0)" d="M139.16696 279.61737L143.4096 282.36L147.65224 279.61737L144.9096 283.86L147.65224 288.10263L143.4096 285.36L139.16696 288.10263L141.9096 283.86Z" fill-rule="nonzero"/><path fill="#fbbc04" clip-path="url(#id_0)" d="M194.76068 284.3107L199.00333 287.05334L203.24597 284.3107L200.50333 288.55334L203.24597 292.79596L199.00333 290.05334L194.76068 292.79596L197.50333 288.55334Z" fill-rule="nonzero"/><path fill="#fbbc04" clip-path="url(#id_0)" d="M305.94812 296.33737L310.19077 299.08L314.4334 296.33737L311.69077 300.58L314.4334 304.82263L310.19077 302.08L305.94812 304.82263L308.69077 300.58Z" fill-rule="nonzero"/><path fill="#fbbc04" clip-path="url(#id_0)" d="M528.32306 296.33737L532.5657 299.08L536.8083 296.33737L534.0657 300.58L536.8083 304.82263L532.5657 302.08L528.32306 304.82263L531.0657 300.58Z" fill-rule="nonzero"/><path fill="#fbbc04" clip-path="url(#id_0)" d="M973.0728 296.33737L977.3155 299.08L981.5581 296.33737L978.8155 300.58L981.5581 304.82263L977.3155 302.08L973.0728 304.82263L975.8155 300.58Z" fill-rule="nonzero"/><path fill="#000000" d="M505.375 375.1L505.375 366.50626L508.60938 366.50626Q509.59375 366.50626 510.1875 366.77188Q510.78125 367.0375 511.10938 367.58438Q511.45312 368.11563 511.45312 368.70938Q511.45312 369.25626 511.15625 369.74063Q510.85938 370.225 510.25 370.52188Q511.03125 370.75626 511.4375 371.31876Q511.85938 371.86563 511.85938 372.61563Q511.85938 373.20938 511.60938 373.74063Q511.35938 374.25626 510.98438 374.5375Q510.60938 374.81876 510.03125 374.95938Q509.46875 375.1 508.65625 375.1L505.375 375.1ZM506.51562 370.11563L508.375 370.11563Q509.125 370.11563 509.45312 370.02188Q509.89062 369.89688 510.10938 369.6Q510.32812 369.2875 510.32812 368.83438Q510.32812 368.4125 510.125 368.08438Q509.92188 367.75626 509.53125 367.64688Q509.15625 367.52188 508.23438 367.52188L506.51562 367.52188L506.51562 370.11563ZM506.51562 374.08438L508.65625 374.08438Q509.20312 374.08438 509.42188 374.0375Q509.82812 373.975 510.07812 373.81876Q510.34375 373.64688 510.51562 373.33438Q510.6875 373.02188 510.6875 372.61563Q510.6875 372.13126 510.4375 371.77188Q510.20312 371.4125 509.76562 371.27188Q509.32812 371.13126 508.5 371.13126L506.51562 371.13126L506.51562 374.08438ZM517.3594 374.33438Q516.7656 374.83438 516.21875 375.0375Q515.6875 375.24063 515.0625 375.24063Q514.03125 375.24063 513.4844 374.74063Q512.9375 374.24063 512.9375 373.45938Q512.9375 373.00626 513.1406 372.63126Q513.34375 372.24063 513.6875 372.02188Q514.03125 371.7875 514.4531 371.67813Q514.75 371.58438 515.3906 371.50626Q516.65625 371.36563 517.2656 371.14688Q517.2656 370.92813 517.2656 370.88126Q517.2656 370.225 516.96875 369.95938Q516.5625 369.61563 515.7656 369.61563Q515.03125 369.61563 514.6719 369.88126Q514.3125 370.13126 514.1406 370.7875L513.1094 370.64688Q513.25 369.99063 513.5781 369.58438Q513.90625 369.17813 514.5156 368.95938Q515.125 368.74063 515.9219 368.74063Q516.71875 368.74063 517.21875 368.92813Q517.71875 369.11563 517.9531 369.39688Q518.1875 369.67813 518.28125 370.11563Q518.3281 370.38126 518.3281 371.08438L518.3281 372.49063Q518.3281 373.95938 518.3906 374.35Q518.46875 374.74063 518.6719 375.1L517.5625 375.1Q517.40625 374.77188 517.3594 374.33438ZM517.2656 371.975Q516.6875 372.20938 515.5469 372.38126Q514.8906 372.475 514.625 372.6Q514.3594 372.70938 514.2031 372.92813Q514.0625 373.14688 514.0625 373.42813Q514.0625 373.85 514.375 374.13126Q514.7031 374.4125 515.3125 374.4125Q515.9219 374.4125 516.3906 374.14688Q516.875 373.88126 517.09375 373.4125Q517.2656 373.05313 517.2656 372.36563L517.2656 371.975ZM522.59375 374.1625L522.75 375.08438Q522.2969 375.17813 521.9531 375.17813Q521.375 375.17813 521.0625 375.00626Q520.75 374.81876 520.6094 374.52188Q520.4844 374.225 520.4844 373.27188L520.4844 369.69376L519.71875 369.69376L519.71875 368.88126L520.4844 368.88126L520.4844 367.33438L521.53125 366.70938L521.53125 368.88126L522.59375 368.88126L522.59375 369.69376L521.53125 369.69376L521.53125 373.33438Q521.53125 373.7875 521.5781 373.9125Q521.6406 374.0375 521.7656 374.11563Q521.8906 374.19376 522.125 374.19376Q522.3125 374.19376 522.59375 374.1625ZM527.3594 372.81876L528.3906 372.95938Q528.21875 374.02188 527.5156 374.63126Q526.8125 375.24063 525.7969 375.24063Q524.5156 375.24063 523.7344 374.4125Q522.96875 373.56876 522.96875 372.00626Q522.96875 371.00626 523.2969 370.25626Q523.6406 369.49063 524.3125 369.11563Q525.0 368.74063 525.8125 368.74063Q526.8125 368.74063 527.4531 369.25626Q528.1094 369.75626 528.2969 370.70938L527.2656 370.86563Q527.125 370.24063 526.75 369.92813Q526.375 369.6 525.84375 369.6Q525.0469 369.6 524.5469 370.17813Q524.0469 370.74063 524.0469 371.975Q524.0469 373.24063 524.53125 373.80313Q525.0156 374.36563 525.78125 374.36563Q526.40625 374.36563 526.8125 373.99063Q527.2344 373.61563 527.3594 372.81876ZM529.2969 375.1L529.2969 366.50626L530.34375 366.50626L530.34375 369.58438Q531.0781 368.74063 532.2031 368.74063Q532.90625 368.74063 533.40625 369.02188Q533.9219 369.2875 534.1406 369.77188Q534.3594 370.24063 534.3594 371.1625L534.3594 375.1L533.3125 375.1L533.3125 371.1625Q533.3125 370.36563 532.96875 370.00626Q532.625 369.64688 532.0 369.64688Q531.53125 369.64688 531.1094 369.89688Q530.7031 370.13126 530.5156 370.55313Q530.34375 370.95938 530.34375 371.69376L530.34375 375.1L529.2969 375.1ZM539.0469 372.33438L540.1094 372.24063Q540.1875 372.89688 540.46875 373.30313Q540.75 373.70938 541.3281 373.975Q541.9219 374.225 542.65625 374.225Q543.2969 374.225 543.7969 374.0375Q544.2969 373.83438 544.53125 373.50626Q544.78125 373.1625 544.78125 372.77188Q544.78125 372.36563 544.5469 372.06876Q544.3125 371.75626 543.78125 371.55313Q543.4219 371.4125 542.2344 371.13126Q541.0625 370.85 540.59375 370.6Q539.96875 370.27188 539.6719 369.80313Q539.375 369.31876 539.375 368.725Q539.375 368.08438 539.7344 367.52188Q540.1094 366.94376 540.8125 366.6625Q541.53125 366.36563 542.3906 366.36563Q543.34375 366.36563 544.0781 366.67813Q544.8125 366.975 545.2031 367.58438Q545.59375 368.17813 545.625 368.92813L544.53125 369.00626Q544.4375 368.19376 543.9219 367.7875Q543.4219 367.36563 542.4375 367.36563Q541.40625 367.36563 540.9375 367.74063Q540.46875 368.11563 540.46875 368.64688Q540.46875 369.11563 540.7969 369.4125Q541.125 369.70938 542.5 370.02188Q543.8906 370.33438 544.40625 370.56876Q545.15625 370.92813 545.5156 371.45938Q545.875 371.975 545.875 372.67813Q545.875 373.36563 545.4844 373.975Q545.09375 374.56876 544.3594 374.9125Q543.625 375.24063 542.7031 375.24063Q541.53125 375.24063 540.7344 374.9125Q539.9531 374.56876 539.5 373.88126Q539.0625 373.19376 539.0469 372.33438ZM547.2969 367.725L547.2969 366.50626L548.3594 366.50626L548.3594 367.725L547.2969 367.725ZM547.2969 375.1L547.2969 368.88126L548.3594 368.88126L548.3594 375.1L547.2969 375.1ZM549.7344 375.1L549.7344 374.24063L553.7031 369.69376Q553.0156 369.725 552.5 369.725L549.96875 369.725L549.96875 368.88126L555.0625 368.88126L555.0625 369.56876L551.6875 373.52188L551.03125 374.24063Q551.75 374.19376 552.3594 374.19376L555.25 374.19376L555.25 375.1L549.7344 375.1ZM559.5469 373.1L560.6406 373.225Q560.3906 374.17813 559.6875 374.70938Q558.9844 375.24063 557.90625 375.24063Q556.5469 375.24063 555.7344 374.39688Q554.9375 373.55313 554.9375 372.0375Q554.9375 370.475 555.75 369.61563Q556.5625 368.74063 557.84375 368.74063Q559.09375 368.74063 559.875 369.58438Q560.6719 370.42813 560.6719 371.975Q560.6719 372.06876 560.6719 372.25626L556.03125 372.25626Q556.09375 373.2875 556.6094 373.83438Q557.125 374.36563 557.90625 374.36563Q558.4844 374.36563 558.8906 374.06876Q559.3125 373.75626 559.5469 373.1ZM556.09375 371.39688L559.5625 371.39688Q559.5 370.6 559.1719 370.20938Q558.65625 369.6 557.8594 369.6Q557.125 369.6 556.625 370.08438Q556.1406 370.56876 556.09375 371.39688Z" fill-rule="nonzero"/><path fill="#000000" d="M28.13438 249.71979L28.04063 248.65729Q28.69688 248.57916 29.10313 248.29791Q29.50938 248.01666 29.775005 247.43854Q30.025005 246.84479 30.025005 246.11041Q30.025005 245.46979 29.837505 244.96979Q29.63438 244.46979 29.306255 244.23541Q28.962505 243.98541 28.57188 243.98541Q28.16563 243.98541 27.868755 244.21979Q27.556255 244.45416 27.35313 244.98541Q27.212505 245.34479 26.931255 246.53229Q26.650005 247.70416 26.400005 248.17291Q26.07188 248.79791 25.60313 249.09479Q25.118755 249.39166 24.525005 249.39166Q23.88438 249.39166 23.32188 249.03229Q22.743755 248.65729 22.462505 247.95416Q22.16563 247.23541 22.16563 246.37604Q22.16563 245.42291 22.47813 244.68854Q22.775005 243.95416 23.38438 243.56354Q23.97813 243.17291 24.72813 243.14166L24.806255 244.23541Q23.993755 244.32916 23.587505 244.84479Q23.16563 245.34479 23.16563 246.32916Q23.16563 247.36041 23.54063 247.82916Q23.91563 248.29791 24.44688 248.29791Q24.91563 248.29791 25.212505 247.96979Q25.50938 247.64166 25.82188 246.26666Q26.13438 244.87604 26.368755 244.36041Q26.72813 243.61041 27.25938 243.25104Q27.775005 242.89166 28.47813 242.89166Q29.16563 242.89166 29.775005 243.28229Q30.368755 243.67291 30.712505 244.40729Q31.04063 245.14166 31.04063 246.06354Q31.04063 247.23541 30.712505 248.03229Q30.368755 248.81354 29.681255 249.26666Q28.993755 249.70416 28.13438 249.71979ZM33.29063 241.46979L24.681255 241.46979L24.681255 240.51666L25.47813 240.51666Q25.00938 240.17291 24.775005 239.75104Q24.54063 239.31354 24.54063 238.70416Q24.54063 237.90729 24.94688 237.29791Q25.35313 236.68854 26.10313 236.39166Q26.85313 236.07916 27.743755 236.07916Q28.69688 236.07916 29.462505 236.42291Q30.22813 236.75104 30.63438 237.40729Q31.04063 238.06354 31.04063 238.78229Q31.04063 239.31354 30.82188 239.73541Q30.587505 240.15729 30.25938 240.42291L33.29063 240.42291L33.29063 241.46979ZM27.82188 240.51666Q29.025005 240.51666 29.60313 240.03229Q30.16563 239.54791 30.16563 238.86041Q30.16563 238.15729 29.57188 237.65729Q28.97813 237.15729 27.72813 237.15729Q26.54063 237.15729 25.962505 237.64166Q25.368755 238.12604 25.368755 238.81354Q25.368755 239.48541 25.993755 240.00104Q26.618755 240.51666 27.82188 240.51666ZM28.900005 230.21979L29.025005 229.12604Q29.97813 229.37604 30.50938 230.07916Q31.04063 230.78229 31.04063 231.86041Q31.04063 233.21979 30.19688 234.03229Q29.35313 234.82916 27.837505 234.82916Q26.275005 234.82916 25.41563 234.01666Q24.54063 233.20416 24.54063 231.92291Q24.54063 230.67291 25.38438 229.89166Q26.22813 229.09479 27.775005 229.09479Q27.868755 229.09479 28.056255 229.09479L28.056255 233.73541Q29.087505 233.67291 29.63438 233.15729Q30.16563 232.64166 30.16563 231.86041Q30.16563 231.28229 29.868755 230.87604Q29.556255 230.45416 28.900005 230.21979ZM27.19688 233.67291L27.19688 230.20416Q26.400005 230.26666 26.00938 230.59479Q25.400005 231.11041 25.400005 231.90729Q25.400005 232.64166 25.88438 233.14166Q26.368755 233.62604 27.19688 233.67291ZM28.900005 223.21979L29.025005 222.12604Q29.97813 222.37604 30.50938 223.07916Q31.04063 223.78229 31.04063 224.86041Q31.04063 226.21979 30.19688 227.03229Q29.35313 227.82916 27.837505 227.82916Q26.275005 227.82916 25.41563 227.01666Q24.54063 226.20416 24.54063 224.92291Q24.54063 223.67291 25.38438 222.89166Q26.22813 222.09479 27.775005 222.09479Q27.868755 222.09479 28.056255 222.09479L28.056255 226.73541Q29.087505 226.67291 29.63438 226.15729Q30.16563 225.64166 30.16563 224.86041Q30.16563 224.28229 29.868755 223.87604Q29.556255 223.45416 28.900005 223.21979ZM27.19688 226.67291L27.19688 223.20416Q26.400005 223.26666 26.00938 223.59479Q25.400005 224.11041 25.400005 224.90729Q25.400005 225.64166 25.88438 226.14166Q26.368755 226.62604 27.19688 226.67291ZM30.900005 216.43854L30.118755 216.43854Q31.04063 217.03229 31.04063 218.17291Q31.04063 218.92291 30.63438 219.54791Q30.212505 220.17291 29.47813 220.51666Q28.743755 220.86041 27.79063 220.86041Q26.868755 220.86041 26.10313 220.54791Q25.337505 220.23541 24.94688 219.61041Q24.54063 218.98541 24.54063 218.21979Q24.54063 217.65729 24.775005 217.21979Q25.00938 216.78229 25.38438 216.50104L22.306255 216.50104L22.306255 215.45416L30.900005 215.45416L30.900005 216.43854ZM27.79063 219.76666Q28.993755 219.76666 29.587505 219.26666Q30.16563 218.76666 30.16563 218.07916Q30.16563 217.39166 29.60313 216.90729Q29.04063 216.42291 27.88438 216.42291Q26.60313 216.42291 26.00938 216.92291Q25.41563 217.40729 25.41563 218.12604Q25.41563 218.82916 25.993755 219.29791Q26.556255 219.76666 27.79063 219.76666ZM28.32188 213.89166L27.25938 213.89166L27.25938 210.64166L28.32188 210.64166L28.32188 213.89166ZM30.900005 205.39166L29.97813 205.39166Q31.04063 206.12604 31.04063 207.37604Q31.04063 207.92291 30.837505 208.40729Q30.618755 208.87604 30.306255 209.11041Q29.97813 209.34479 29.50938 209.43854Q29.212505 209.50104 28.525005 209.50104L24.681255 209.50104L24.681255 208.43854L28.13438 208.43854Q28.94688 208.43854 29.243755 208.37604Q29.650005 208.28229 29.900005 207.96979Q30.13438 207.64166 30.13438 207.15729Q30.13438 206.68854 29.900005 206.28229Q29.650005 205.86041 29.22813 205.68854Q28.806255 205.50104 28.00938 205.50104L24.681255 205.50104L24.681255 204.45416L30.900005 204.45416L30.900005 205.39166ZM33.29063 202.46979L24.681255 202.46979L24.681255 201.51666L25.47813 201.51666Q25.00938 201.17291 24.775005 200.75104Q24.54063 200.31354 24.54063 199.70416Q24.54063 198.90729 24.94688 198.29791Q25.35313 197.68854 26.10313 197.39166Q26.85313 197.07916 27.743755 197.07916Q28.69688 197.07916 29.462505 197.42291Q30.22813 197.75104 30.63438 198.40729Q31.04063 199.06354 31.04063 199.78229Q31.04063 200.31354 30.82188 200.73541Q30.587505 201.15729 30.25938 201.42291L33.29063 201.42291L33.29063 202.46979ZM27.82188 201.51666Q29.025005 201.51666 29.60313 201.03229Q30.16563 200.54791 30.16563 199.86041Q30.16563 199.15729 29.57188 198.65729Q28.97813 198.15729 27.72813 198.15729Q26.54063 198.15729 25.962505 198.64166Q25.368755 199.12604 25.368755 199.81354Q25.368755 200.48541 25.993755 201.00104Q26.618755 201.51666 27.82188 201.51666ZM33.431255 190.45416Q32.32188 191.32916 30.85313 191.93854Q29.368755 192.53229 27.79063 192.53229Q26.400005 192.53229 25.118755 192.09479Q23.63438 191.56354 22.16563 190.45416L22.16563 189.70416Q23.38438 190.40729 23.900005 190.64166Q24.712505 191.00104 25.587505 191.20416Q26.681255 191.45416 27.79063 191.45416Q30.618755 191.45416 33.431255 189.70416L33.431255 190.45416ZM30.900005 189.17291L27.66563 186.90729L24.681255 189.00104L24.681255 187.68854L26.13438 186.73541Q26.556255 186.46979 26.837505 186.29791Q26.44688 186.04791 26.150005 185.82916L24.681255 184.78229L24.681255 183.51666L27.60313 185.67291L30.900005 183.36041L30.900005 184.64166L28.962505 185.92291L28.44688 186.26666L30.900005 187.90729L30.900005 189.17291ZM33.431255 182.78229L33.431255 183.53229Q30.618755 181.78229 27.79063 181.78229Q26.69688 181.78229 25.60313 182.03229Q24.72813 182.23541 23.91563 182.59479Q23.400005 182.82916 22.16563 183.53229L22.16563 182.78229Q23.63438 181.68854 25.118755 181.15729Q26.400005 180.70416 27.79063 180.70416Q29.368755 180.70416 30.85313 181.31354Q32.32188 181.92291 33.431255 182.78229Z" fill-rule="nonzero"/><path fill="#000000" d="M66.4 325.86563Q66.4 324.33438 66.7125 323.4125Q67.025 322.475 67.63438 321.975Q68.25938 321.475 69.19688 321.475Q69.88438 321.475 70.4 321.75626Q70.93125 322.0375 71.275 322.56876Q71.61875 323.08438 71.80625 323.83438Q71.99375 324.58438 71.99375 325.86563Q71.99375 327.38126 71.68125 328.30313Q71.38438 329.225 70.75938 329.74063Q70.15 330.24063 69.19688 330.24063Q67.9625 330.24063 67.24375 329.35Q66.4 328.2875 66.4 325.86563ZM67.47813 325.86563Q67.47813 327.975 67.97813 328.67813Q68.47813 329.38126 69.19688 329.38126Q69.93125 329.38126 70.41563 328.67813Q70.91563 327.975 70.91563 325.86563Q70.91563 323.74063 70.41563 323.05313Q69.93125 322.35 69.18125 322.35Q68.4625 322.35 68.025 322.95938Q67.47813 323.74063 67.47813 325.86563Z" fill-rule="nonzero"/><path fill="#000000" d="M71.94688 270.4177L71.94688 271.43332L66.25938 271.43332Q66.25938 271.05832 66.38438 270.69894Q66.60313 270.12082 67.07188 269.55832Q67.55625 268.99582 68.4625 268.26144Q69.86875 267.1052 70.35313 266.43332Q70.85313 265.76144 70.85313 265.1677Q70.85313 264.5427 70.4 264.12082Q69.94688 263.68332 69.22813 263.68332Q68.4625 263.68332 68.00938 264.13644Q67.55625 264.58957 67.54063 265.40207L66.4625 265.2927Q66.57188 264.07394 67.29063 263.44894Q68.025 262.80832 69.25938 262.80832Q70.49375 262.80832 71.2125 263.49582Q71.93125 264.18332 71.93125 265.19894Q71.93125 265.71457 71.7125 266.21457Q71.50938 266.69894 71.00938 267.26144Q70.525 267.80832 69.4 268.76144Q68.44688 269.55832 68.16563 269.8552Q67.9 270.13644 67.72813 270.4177L71.94688 270.4177Z" fill-rule="nonzero"/><path fill="#000000" d="M69.775 212.76666L69.775 210.70416L66.05625 210.70416L66.05625 209.73541L69.97813 204.17291L70.8375 204.17291L70.8375 209.73541L71.99375 209.73541L71.99375 210.70416L70.8375 210.70416L70.8375 212.76666L69.775 212.76666ZM69.775 209.73541L69.775 205.87604L67.0875 209.73541L69.775 209.73541Z" fill-rule="nonzero"/><path fill="#000000" d="M71.86875 147.61563L70.82188 147.69376Q70.68125 147.06876 70.43125 146.7875Q69.99375 146.33438 69.36875 146.33438Q68.86875 146.33438 68.47813 146.61563Q67.99375 146.99063 67.69688 147.69376Q67.41563 148.38126 67.4 149.6625Q67.775 149.08438 68.32188 148.80313Q68.88438 148.52188 69.49375 148.52188Q70.54063 148.52188 71.275 149.30313Q72.025 150.08438 72.025 151.30313Q72.025 152.11563 71.66563 152.81876Q71.32188 153.50626 70.7125 153.88126Q70.10313 154.24063 69.3375 154.24063Q68.00938 154.24063 67.18125 153.27188Q66.35313 152.30313 66.35313 150.08438Q66.35313 147.58438 67.275 146.45938Q68.07188 145.475 69.43125 145.475Q70.44688 145.475 71.0875 146.05313Q71.74375 146.61563 71.86875 147.61563ZM67.57188 151.31876Q67.57188 151.86563 67.79063 152.36563Q68.025 152.85 68.43125 153.11563Q68.85313 153.38126 69.32188 153.38126Q69.97813 153.38126 70.4625 152.85Q70.94688 152.30313 70.94688 151.38126Q70.94688 150.49063 70.4625 149.975Q69.99375 149.45938 69.275 149.45938Q68.55625 149.45938 68.05625 149.975Q67.57188 150.49063 67.57188 151.31876Z" fill-rule="nonzero"/><path fill="#000000" d="M68.025 90.777084Q67.36875 90.527084 67.04063 90.089584Q66.72813 89.63646 66.72813 89.027084Q66.72813 88.089584 67.4 87.44896Q68.0875 86.808334 69.19688 86.808334Q70.32188 86.808334 71.00938 87.464584Q71.69688 88.120834 71.69688 89.058334Q71.69688 89.652084 71.38438 90.089584Q71.07188 90.527084 70.43125 90.777084Q71.22813 91.027084 71.63438 91.60521Q72.04063 92.183334 72.04063 92.98021Q72.04063 94.07396 71.25938 94.82396Q70.49375 95.57396 69.2125 95.57396Q67.94688 95.57396 67.16563 94.82396Q66.38438 94.07396 66.38438 92.94896Q66.38438 92.10521 66.80625 91.54271Q67.24375 90.98021 68.025 90.777084ZM67.80625 88.98021Q67.80625 89.589584 68.19688 89.98021Q68.60313 90.370834 69.22813 90.370834Q69.8375 90.370834 70.22813 89.995834Q70.61875 89.60521 70.61875 89.04271Q70.61875 88.464584 70.2125 88.07396Q69.80625 87.66771 69.2125 87.66771Q68.60313 87.66771 68.19688 88.058334Q67.80625 88.44896 67.80625 88.98021ZM67.47813 92.94896Q67.47813 93.402084 67.68125 93.82396Q67.9 94.245834 68.32188 94.48021Q68.74375 94.714584 69.22813 94.714584Q69.97813 94.714584 70.4625 94.23021Q70.9625 93.745834 70.9625 92.995834Q70.9625 92.23021 70.4625 91.73021Q69.9625 91.23021 69.19688 91.23021Q68.44688 91.23021 67.9625 91.73021Q67.47813 92.214584 67.47813 92.94896Z" fill-rule="nonzero"/><path fill="#000000" d="M84.81588 338.86563Q84.81588 337.33438 85.12838 336.4125Q85.44088 335.475 86.050255 334.975Q86.675255 334.475 87.612755 334.475Q88.300255 334.475 88.81588 334.75626Q89.34713 335.0375 89.69088 335.56876Q90.03463 336.08438 90.22213 336.83438Q90.40963 337.58438 90.40963 338.86563Q90.40963 340.38126 90.09713 341.30313Q89.800255 342.225 89.175255 342.74063Q88.56588 343.24063 87.612755 343.24063Q86.37838 343.24063 85.65963 342.35Q84.81588 341.2875 84.81588 338.86563ZM85.894005 338.86563Q85.894005 340.975 86.394005 341.67813Q86.894005 342.38126 87.612755 342.38126Q88.34713 342.38126 88.831505 341.67813Q89.331505 340.975 89.331505 338.86563Q89.331505 336.74063 88.831505 336.05313Q88.34713 335.35 87.59713 335.35Q86.87838 335.35 86.44088 335.95938Q85.894005 336.74063 85.894005 338.86563Z" fill-rule="nonzero"/><path fill="#000000" d="M300.52573 342.08438L300.52573 343.1L294.83823 343.1Q294.83823 342.725 294.96323 342.36563Q295.18198 341.7875 295.65073 341.225Q296.1351 340.6625 297.04135 339.92813Q298.4476 338.77188 298.93198 338.1Q299.43198 337.42813 299.43198 336.83438Q299.43198 336.20938 298.97885 335.7875Q298.52573 335.35 297.80698 335.35Q297.04135 335.35 296.58823 335.80313Q296.1351 336.25626 296.11948 337.06876L295.04135 336.95938Q295.15073 335.74063 295.86948 335.11563Q296.60385 334.475 297.83823 334.475Q299.0726 334.475 299.79135 335.1625Q300.5101 335.85 300.5101 336.86563Q300.5101 337.38126 300.29135 337.88126Q300.08823 338.36563 299.58823 338.92813Q299.10385 339.475 297.97885 340.42813Q297.02573 341.225 296.74448 341.52188Q296.47885 341.80313 296.30698 342.08438L300.52573 342.08438ZM301.97885 340.85L303.08823 340.75626Q303.21323 341.56876 303.65073 341.975Q304.10385 342.38126 304.74448 342.38126Q305.49448 342.38126 306.02573 341.80313Q306.55698 341.225 306.55698 340.2875Q306.55698 339.38126 306.04135 338.86563Q305.54135 338.33438 304.71323 338.33438Q304.21323 338.33438 303.79135 338.56876Q303.3851 338.80313 303.15073 339.1625L302.16635 339.0375L302.99448 334.63126L307.27573 334.63126L307.27573 335.63126L303.83823 335.63126L303.3851 337.94376Q304.15073 337.39688 304.99448 337.39688Q306.11948 337.39688 306.8851 338.17813Q307.66635 338.95938 307.66635 340.19376Q307.66635 341.35 306.99448 342.20938Q306.16635 343.24063 304.74448 343.24063Q303.5726 343.24063 302.8226 342.58438Q302.08823 341.92813 301.97885 340.85ZM308.97885 338.86563Q308.97885 337.33438 309.29135 336.4125Q309.60385 335.475 310.21323 334.975Q310.83823 334.475 311.77573 334.475Q312.46323 334.475 312.97885 334.75626Q313.5101 335.0375 313.85385 335.56876Q314.1976 336.08438 314.3851 336.83438Q314.5726 337.58438 314.5726 338.86563Q314.5726 340.38126 314.2601 341.30313Q313.96323 342.225 313.33823 342.74063Q312.72885 343.24063 311.77573 343.24063Q310.54135 343.24063 309.8226 342.35Q308.97885 341.2875 308.97885 338.86563ZM310.05698 338.86563Q310.05698 340.975 310.55698 341.67813Q311.05698 342.38126 311.77573 342.38126Q312.5101 342.38126 312.99448 341.67813Q313.49448 340.975 313.49448 338.86563Q313.49448 336.74063 312.99448 336.05313Q312.5101 335.35 311.7601 335.35Q311.04135 335.35 310.60385 335.95938Q310.05698 336.74063 310.05698 338.86563Z" fill-rule="nonzero"/><path fill="#000000" d="M512.14185 340.85L513.2512 340.75626Q513.3762 341.56876 513.8137 341.975Q514.26685 342.38126 514.9075 342.38126Q515.6575 342.38126 516.1887 341.80313Q516.72 341.225 516.72 340.2875Q516.72 339.38126 516.20435 338.86563Q515.70435 338.33438 514.8762 338.33438Q514.3762 338.33438 513.95435 338.56876Q513.5481 338.80313 513.3137 339.1625L512.32935 339.0375L513.1575 334.63126L517.4387 334.63126L517.4387 335.63126L514.0012 335.63126L513.5481 337.94376Q514.3137 337.39688 515.1575 337.39688Q516.2825 337.39688 517.0481 338.17813Q517.82935 338.95938 517.82935 340.19376Q517.82935 341.35 517.1575 342.20938Q516.32935 343.24063 514.9075 343.24063Q513.7356 343.24063 512.9856 342.58438Q512.2512 341.92813 512.14185 340.85ZM519.14185 338.86563Q519.14185 337.33438 519.45435 336.4125Q519.76685 335.475 520.3762 334.975Q521.0012 334.475 521.9387 334.475Q522.6262 334.475 523.14185 334.75626Q523.6731 335.0375 524.01685 335.56876Q524.3606 336.08438 524.5481 336.83438Q524.7356 337.58438 524.7356 338.86563Q524.7356 340.38126 524.4231 341.30313Q524.1262 342.225 523.5012 342.74063Q522.89185 343.24063 521.9387 343.24063Q520.70435 343.24063 519.9856 342.35Q519.14185 341.2875 519.14185 338.86563ZM520.22 338.86563Q520.22 340.975 520.72 341.67813Q521.22 342.38126 521.9387 342.38126Q522.6731 342.38126 523.1575 341.67813Q523.6575 340.975 523.6575 338.86563Q523.6575 336.74063 523.1575 336.05313Q522.6731 335.35 521.9231 335.35Q521.20435 335.35 520.76685 335.95938Q520.22 336.74063 520.22 338.86563ZM526.14185 338.86563Q526.14185 337.33438 526.45435 336.4125Q526.76685 335.475 527.3762 334.975Q528.0012 334.475 528.9387 334.475Q529.6262 334.475 530.14185 334.75626Q530.6731 335.0375 531.01685 335.56876Q531.3606 336.08438 531.5481 336.83438Q531.7356 337.58438 531.7356 338.86563Q531.7356 340.38126 531.4231 341.30313Q531.1262 342.225 530.5012 342.74063Q529.89185 343.24063 528.9387 343.24063Q527.70435 343.24063 526.9856 342.35Q526.14185 341.2875 526.14185 338.86563ZM527.22 338.86563Q527.22 340.975 527.72 341.67813Q528.22 342.38126 528.9387 342.38126Q529.6731 342.38126 530.1575 341.67813Q530.6575 340.975 530.6575 338.86563Q530.6575 336.74063 530.1575 336.05313Q529.6731 335.35 528.9231 335.35Q528.20435 335.35 527.76685 335.95938Q527.22 336.74063 527.22 338.86563Z" fill-rule="nonzero"/><path fill="#000000" d="M729.3673 335.63126L729.3673 334.61563L734.9298 334.61563L734.9298 335.44376Q734.1173 336.31876 733.3048 337.77188Q732.50793 339.20938 732.07043 340.74063Q731.7423 341.81876 731.6642 343.1L730.57043 343.1Q730.58606 342.08438 730.96106 340.64688Q731.3517 339.20938 732.0548 337.88126Q732.77356 336.55313 733.58606 335.63126L729.3673 335.63126ZM736.3048 340.85L737.4142 340.75626Q737.5392 341.56876 737.9767 341.975Q738.4298 342.38126 739.07043 342.38126Q739.82043 342.38126 740.3517 341.80313Q740.88293 341.225 740.88293 340.2875Q740.88293 339.38126 740.3673 338.86563Q739.8673 338.33438 739.0392 338.33438Q738.5392 338.33438 738.1173 338.56876Q737.71106 338.80313 737.4767 339.1625L736.4923 339.0375L737.32043 334.63126L741.6017 334.63126L741.6017 335.63126L738.1642 335.63126L737.71106 337.94376Q738.4767 337.39688 739.32043 337.39688Q740.44543 337.39688 741.21106 338.17813Q741.9923 338.95938 741.9923 340.19376Q741.9923 341.35 741.32043 342.20938Q740.4923 343.24063 739.07043 343.24063Q737.89856 343.24063 737.14856 342.58438Q736.4142 341.92813 736.3048 340.85ZM743.3048 338.86563Q743.3048 337.33438 743.6173 336.4125Q743.9298 335.475 744.5392 334.975Q745.1642 334.475 746.1017 334.475Q746.7892 334.475 747.3048 334.75626Q747.83606 335.0375 748.1798 335.56876Q748.52356 336.08438 748.71106 336.83438Q748.89856 337.58438 748.89856 338.86563Q748.89856 340.38126 748.58606 341.30313Q748.2892 342.225 747.6642 342.74063Q747.0548 343.24063 746.1017 343.24063Q744.8673 343.24063 744.14856 342.35Q743.3048 341.2875 743.3048 338.86563ZM744.38293 338.86563Q744.38293 340.975 744.88293 341.67813Q745.38293 342.38126 746.1017 342.38126Q746.83606 342.38126 747.32043 341.67813Q747.82043 340.975 747.82043 338.86563Q747.82043 336.74063 747.32043 336.05313Q746.83606 335.35 746.08606 335.35Q745.3673 335.35 744.9298 335.95938Q744.38293 336.74063 744.38293 338.86563Z" fill-rule="nonzero"/><path fill="#000000" d="M946.9366 343.1L945.8897 343.1L945.8897 336.38126Q945.4991 336.74063 944.8741 337.11563Q944.2647 337.475 943.78033 337.64688L943.78033 336.63126Q944.65533 336.20938 945.3116 335.63126Q945.98346 335.0375 946.2647 334.475L946.9366 334.475L946.9366 343.1ZM949.96783 338.86563Q949.96783 337.33438 950.28033 336.4125Q950.59283 335.475 951.2022 334.975Q951.8272 334.475 952.7647 334.475Q953.4522 334.475 953.96783 334.75626Q954.4991 335.0375 954.84283 335.56876Q955.1866 336.08438 955.3741 336.83438Q955.5616 337.58438 955.5616 338.86563Q955.5616 340.38126 955.2491 341.30313Q954.9522 342.225 954.3272 342.74063Q953.71783 343.24063 952.7647 343.24063Q951.53033 343.24063 950.8116 342.35Q949.96783 341.2875 949.96783 338.86563ZM951.04596 338.86563Q951.04596 340.975 951.54596 341.67813Q952.04596 342.38126 952.7647 342.38126Q953.4991 342.38126 953.98346 341.67813Q954.48346 340.975 954.48346 338.86563Q954.48346 336.74063 953.98346 336.05313Q953.4991 335.35 952.7491 335.35Q952.03033 335.35 951.59283 335.95938Q951.04596 336.74063 951.04596 338.86563ZM956.96783 338.86563Q956.96783 337.33438 957.28033 336.4125Q957.59283 335.475 958.2022 334.975Q958.8272 334.475 959.7647 334.475Q960.4522 334.475 960.96783 334.75626Q961.4991 335.0375 961.84283 335.56876Q962.1866 336.08438 962.3741 336.83438Q962.5616 337.58438 962.5616 338.86563Q962.5616 340.38126 962.2491 341.30313Q961.9522 342.225 961.3272 342.74063Q960.71783 343.24063 959.7647 343.24063Q958.53033 343.24063 957.8116 342.35Q956.96783 341.2875 956.96783 338.86563ZM958.04596 338.86563Q958.04596 340.975 958.54596 341.67813Q959.04596 342.38126 959.7647 342.38126Q960.4991 342.38126 960.98346 341.67813Q961.48346 340.975 961.48346 338.86563Q961.48346 336.74063 960.98346 336.05313Q960.4991 335.35 959.7491 335.35Q959.03033 335.35 958.59283 335.95938Q958.04596 336.74063 958.04596 338.86563ZM963.96783 338.86563Q963.96783 337.33438 964.28033 336.4125Q964.59283 335.475 965.2022 334.975Q965.8272 334.475 966.7647 334.475Q967.4522 334.475 967.96783 334.75626Q968.4991 335.0375 968.84283 335.56876Q969.1866 336.08438 969.3741 336.83438Q969.5616 337.58438 969.5616 338.86563Q969.5616 340.38126 969.2491 341.30313Q968.9522 342.225 968.3272 342.74063Q967.71783 343.24063 966.7647 343.24063Q965.53033 343.24063 964.8116 342.35Q963.96783 341.2875 963.96783 338.86563ZM965.04596 338.86563Q965.04596 340.975 965.54596 341.67813Q966.04596 342.38126 966.7647 342.38126Q967.4991 342.38126 967.98346 341.67813Q968.48346 340.975 968.48346 338.86563Q968.48346 336.74063 967.98346 336.05313Q967.4991 335.35 966.7491 335.35Q966.03033 335.35 965.59283 335.95938Q965.04596 336.74063 965.04596 338.86563Z" fill-rule="nonzero"/><path fill="#6aa84f" d="M382.25735 59.924026L386.5 62.666668L390.74265 59.924026L388.0 64.166664L390.74265 68.40931L386.5 65.666664L382.25735 68.40931L385.0 64.166664Z" fill-rule="nonzero"/><path fill="#1a1a1a" d="M405.45312 64.791664L405.45312 63.791664L409.07812 63.77604L409.07812 66.96354Q408.25 67.635414 407.35938 67.979164Q406.46875 68.30729 405.53125 68.30729Q404.26562 68.30729 403.21875 67.77604Q402.1875 67.229164 401.65625 66.21354Q401.14062 65.18229 401.14062 63.916664Q401.14062 62.65104 401.65625 61.572914Q402.1875 60.479164 403.17188 59.96354Q404.15625 59.43229 405.4375 59.43229Q406.375 59.43229 407.125 59.729164Q407.875 60.02604 408.29688 60.572914Q408.73438 61.104164 408.95312 61.979164L407.9375 62.260414Q407.73438 61.604164 407.4375 61.229164Q407.15625 60.854164 406.625 60.635414Q406.09375 60.40104 405.45312 60.40104Q404.67188 60.40104 404.09375 60.635414Q403.53125 60.86979 403.17188 61.260414Q402.82812 61.65104 402.64062 62.11979Q402.3125 62.916664 402.3125 63.83854Q402.3125 64.99479 402.70312 65.77604Q403.10938 66.541664 403.85938 66.916664Q404.60938 67.291664 405.46875 67.291664Q406.20312 67.291664 406.90625 67.010414Q407.60938 66.71354 407.96875 66.40104L407.96875 64.791664L405.45312 64.791664ZM414.54688 66.166664L415.64062 66.291664Q415.39062 67.24479 414.6875 67.77604Q413.98438 68.30729 412.90625 68.30729Q411.54688 68.30729 410.73438 67.46354Q409.9375 66.61979 409.9375 65.104164Q409.9375 63.541664 410.75 62.68229Q411.5625 61.80729 412.84375 61.80729Q414.09375 61.80729 414.875 62.65104Q415.67188 63.49479 415.67188 65.041664Q415.67188 65.135414 415.67188 65.322914L411.03125 65.322914Q411.09375 66.354164 411.60938 66.90104Q412.125 67.43229 412.90625 67.43229Q413.48438 67.43229 413.89062 67.135414Q414.3125 66.822914 414.54688 66.166664ZM411.09375 64.46354L414.5625 64.46354Q414.5 63.666664 414.17188 63.27604Q413.65625 62.666664 412.85938 62.666664Q412.125 62.666664 411.625 63.15104Q411.14062 63.635414 411.09375 64.46354ZM417.29688 68.166664L417.29688 61.947914L418.23438 61.947914L418.23438 62.822914Q418.53125 62.354164 419.01562 62.08854Q419.5 61.80729 420.125 61.80729Q420.8125 61.80729 421.25 62.08854Q421.70312 62.36979 421.875 62.885414Q422.625 61.80729 423.79688 61.80729Q424.73438 61.80729 425.21875 62.322914Q425.71875 62.822914 425.71875 63.90104L425.71875 68.166664L424.67188 68.166664L424.67188 64.24479Q424.67188 63.61979 424.5625 63.33854Q424.46875 63.05729 424.20312 62.885414Q423.9375 62.71354 423.5625 62.71354Q422.90625 62.71354 422.46875 63.15104Q422.04688 63.58854 422.04688 64.55729L422.04688 68.166664L420.98438 68.166664L420.98438 64.11979Q420.98438 63.416664 420.71875 63.072914Q420.46875 62.71354 419.89062 62.71354Q419.4375 62.71354 419.0625 62.947914Q418.6875 63.18229 418.51562 63.635414Q418.34375 64.08854 418.34375 64.93229L418.34375 68.166664L417.29688 68.166664ZM428.375 68.166664L428.375 59.572914L429.51562 59.572914L429.51562 67.15104L433.75 67.15104L433.75 68.166664L428.375 68.166664ZM435.29688 60.791664L435.29688 59.572914L436.35938 59.572914L436.35938 60.791664L435.29688 60.791664ZM435.29688 68.166664L435.29688 61.947914L436.35938 61.947914L436.35938 68.166664L435.29688 68.166664ZM440.59375 67.229164L440.75 68.15104Q440.29688 68.24479 439.95312 68.24479Q439.375 68.24479 439.0625 68.072914Q438.75 67.885414 438.60938 67.58854Q438.48438 67.291664 438.48438 66.33854L438.48438 62.760414L437.71875 62.760414L437.71875 61.947914L438.48438 61.947914L438.48438 60.40104L439.53125 59.77604L439.53125 61.947914L440.59375 61.947914L440.59375 62.760414L439.53125 62.760414L439.53125 66.40104Q439.53125 66.854164 439.57812 66.979164Q439.64062 67.104164 439.76562 67.18229Q439.89062 67.260414 440.125 67.260414Q440.3125 67.260414 440.59375 67.229164ZM445.54688 66.166664L446.64062 66.291664Q446.39062 67.24479 445.6875 67.77604Q444.98438 68.30729 443.90625 68.30729Q442.54688 68.30729 441.73438 67.46354Q440.9375 66.61979 440.9375 65.104164Q440.9375 63.541664 441.75 62.68229Q442.5625 61.80729 443.84375 61.80729Q445.09375 61.80729 445.875 62.65104Q446.67188 63.49479 446.67188 65.041664Q446.67188 65.135414 446.67188 65.322914L442.03125 65.322914Q442.09375 66.354164 442.60938 66.90104Q443.125 67.43229 443.90625 67.43229Q444.48438 67.43229 444.89062 67.135414Q445.3125 66.822914 445.54688 66.166664ZM442.09375 64.46354L445.5625 64.46354Q445.5 63.666664 445.17188 63.27604Q444.65625 62.666664 443.85938 62.666664Q443.125 62.666664 442.625 63.15104Q442.14062 63.635414 442.09375 64.46354ZM447.875 65.58854L447.875 64.52604L451.125 64.52604L451.125 65.58854L447.875 65.58854ZM454.60938 68.166664L454.60938 60.58854L451.78125 60.58854L451.78125 59.572914L458.59375 59.572914L458.59375 60.58854L455.75 60.58854L455.75 68.166664L454.60938 68.166664ZM459.28125 68.166664L459.28125 61.947914L460.23438 61.947914L460.23438 62.885414Q460.59375 62.229164 460.89062 62.02604Q461.20312 61.80729 461.57812 61.80729Q462.10938 61.80729 462.65625 62.135414L462.29688 63.11979Q461.90625 62.885414 461.53125 62.885414Q461.17188 62.885414 460.89062 63.104164Q460.625 63.30729 460.51562 63.68229Q460.32812 64.24479 460.32812 64.90104L460.32812 68.166664L459.28125 68.166664ZM463.29688 60.791664L463.29688 59.572914L464.35938 59.572914L464.35938 60.791664L463.29688 60.791664ZM463.29688 68.166664L463.29688 61.947914L464.35938 61.947914L464.35938 68.166664L463.29688 68.166664ZM468.59375 67.229164L468.75 68.15104Q468.29688 68.24479 467.95312 68.24479Q467.375 68.24479 467.0625 68.072914Q466.75 67.885414 466.60938 67.58854Q466.48438 67.291664 466.48438 66.33854L466.48438 62.760414L465.71875 62.760414L465.71875 61.947914L466.48438 61.947914L466.48438 60.40104L467.53125 59.77604L467.53125 61.947914L468.59375 61.947914L468.59375 62.760414L467.53125 62.760414L467.53125 66.40104Q467.53125 66.854164 467.57812 66.979164Q467.64062 67.104164 467.76562 67.18229Q467.89062 67.260414 468.125 67.260414Q468.3125 67.260414 468.59375 67.229164ZM468.90625 65.05729Q468.90625 63.322914 469.85938 62.49479Q470.65625 61.80729 471.8125 61.80729Q473.09375 61.80729 473.90625 62.65104Q474.73438 63.479164 474.73438 64.96354Q474.73438 66.166664 474.375 66.854164Q474.01562 67.541664 473.3125 67.93229Q472.625 68.30729 471.8125 68.30729Q470.51562 68.30729 469.70312 67.479164Q468.90625 66.635414 468.90625 65.05729ZM469.98438 65.05729Q469.98438 66.24479 470.5 66.83854Q471.03125 67.43229 471.8125 67.43229Q472.60938 67.43229 473.125 66.83854Q473.64062 66.24479 473.64062 65.02604Q473.64062 63.86979 473.10938 63.27604Q472.59375 62.68229 471.8125 62.68229Q471.03125 62.68229 470.5 63.27604Q469.98438 63.854164 469.98438 65.05729ZM476.29688 68.166664L476.29688 61.947914L477.23438 61.947914L477.23438 62.822914Q477.92188 61.80729 479.21875 61.80729Q479.78125 61.80729 480.25 62.010414Q480.73438 62.21354 480.96875 62.541664Q481.20312 62.86979 481.29688 63.30729Q481.34375 63.604164 481.34375 64.33854L481.34375 68.166664L480.29688 68.166664L480.29688 64.385414Q480.29688 63.729164 480.17188 63.416664Q480.04688 63.104164 479.73438 62.916664Q479.42188 62.71354 479.0 62.71354Q478.32812 62.71354 477.82812 63.15104Q477.34375 63.572914 477.34375 64.760414L477.34375 68.166664L476.29688 68.166664ZM488.3125 70.697914Q487.4375 69.58854 486.82812 68.11979Q486.23438 66.635414 486.23438 65.05729Q486.23438 63.666664 486.67188 62.385414Q487.20312 60.90104 488.3125 59.43229L489.0625 59.43229Q488.35938 60.65104 488.125 61.166664Q487.76562 61.979164 487.5625 62.854164Q487.3125 63.947914 487.3125 65.05729Q487.3125 67.885414 489.0625 70.697914L488.3125 70.697914ZM489.48438 68.166664L492.78125 59.572914L494.0 59.572914L497.51562 68.166664L496.23438 68.166664L495.21875 65.55729L491.64062 65.55729L490.6875 68.166664L489.48438 68.166664ZM491.96875 64.635414L494.875 64.635414L493.98438 62.260414Q493.5625 61.18229 493.375 60.479164Q493.20312 61.30729 492.90625 62.11979L491.96875 64.635414ZM500.96875 68.166664L499.92188 68.166664L499.92188 61.447914Q499.53125 61.80729 498.90625 62.18229Q498.29688 62.541664 497.8125 62.71354L497.8125 61.697914Q498.6875 61.27604 499.34375 60.697914Q500.01562 60.104164 500.29688 59.541664L500.96875 59.541664L500.96875 68.166664ZM509.46875 61.68229L508.42188 61.760414Q508.28125 61.135414 508.03125 60.854164Q507.59375 60.40104 506.96875 60.40104Q506.46875 60.40104 506.07812 60.68229Q505.59375 61.05729 505.29688 61.760414Q505.01562 62.447914 505.0 63.729164Q505.375 63.15104 505.92188 62.86979Q506.48438 62.58854 507.09375 62.58854Q508.14062 62.58854 508.875 63.36979Q509.625 64.15104 509.625 65.36979Q509.625 66.18229 509.26562 66.885414Q508.92188 67.572914 508.3125 67.947914Q507.70312 68.30729 506.9375 68.30729Q505.60938 68.30729 504.78125 67.33854Q503.95312 66.36979 503.95312 64.15104Q503.95312 61.65104 504.875 60.52604Q505.67188 59.541664 507.03125 59.541664Q508.04688 59.541664 508.6875 60.11979Q509.34375 60.68229 509.46875 61.68229ZM505.17188 65.385414Q505.17188 65.93229 505.39062 66.43229Q505.625 66.916664 506.03125 67.18229Q506.45312 67.447914 506.92188 67.447914Q507.57812 67.447914 508.0625 66.916664Q508.54688 66.36979 508.54688 65.447914Q508.54688 64.55729 508.0625 64.041664Q507.59375 63.52604 506.875 63.52604Q506.15625 63.52604 505.65625 64.041664Q505.17188 64.55729 505.17188 65.385414ZM511.98438 70.697914L511.23438 70.697914Q512.9844 67.885414 512.9844 65.05729Q512.9844 63.96354 512.7344 62.86979Q512.53125 61.99479 512.1719 61.18229Q511.9375 60.666664 511.23438 59.43229L511.98438 59.43229Q513.0781 60.90104 513.6094 62.385414Q514.0625 63.666664 514.0625 65.05729Q514.0625 66.635414 513.4531 68.11979Q512.84375 69.58854 511.98438 70.697914Z" fill-rule="nonzero"/><path fill="#fbbc04" d="M532.2574 59.924026L536.5 62.666668L540.7426 59.924026L538.0 64.166664L540.7426 68.40931L536.5 65.666664L532.2574 68.40931L535.0 64.166664Z" fill-rule="nonzero"/><path fill="#1a1a1a" d="M551.375 68.166664L551.375 59.572914L554.6094 59.572914Q555.59375 59.572914 556.1875 59.83854Q556.78125 60.104164 557.1094 60.65104Q557.4531 61.18229 557.4531 61.77604Q557.4531 62.322914 557.15625 62.80729Q556.8594 63.291664 556.25 63.58854Q557.03125 63.822914 557.4375 64.385414Q557.8594 64.93229 557.8594 65.68229Q557.8594 66.27604 557.6094 66.80729Q557.3594 67.322914 556.9844 67.604164Q556.6094 67.885414 556.03125 68.02604Q555.46875 68.166664 554.65625 68.166664L551.375 68.166664ZM552.5156 63.18229L554.375 63.18229Q555.125 63.18229 555.4531 63.08854Q555.8906 62.96354 556.1094 62.666664Q556.3281 62.354164 556.3281 61.90104Q556.3281 61.479164 556.125 61.15104Q555.9219 60.822914 555.53125 60.71354Q555.15625 60.58854 554.2344 60.58854L552.5156 60.58854L552.5156 63.18229ZM552.5156 67.15104L554.65625 67.15104Q555.2031 67.15104 555.4219 67.104164Q555.8281 67.041664 556.0781 66.885414Q556.34375 66.71354 556.5156 66.40104Q556.6875 66.08854 556.6875 65.68229Q556.6875 65.197914 556.4375 64.83854Q556.2031 64.479164 555.7656 64.33854Q555.3281 64.197914 554.5 64.197914L552.5156 64.197914L552.5156 67.15104ZM559.2969 60.791664L559.2969 59.572914L560.3594 59.572914L560.3594 60.791664L559.2969 60.791664ZM559.2969 68.166664L559.2969 61.947914L560.3594 61.947914L560.3594 68.166664L559.2969 68.166664ZM564.59375 67.229164L564.75 68.15104Q564.2969 68.24479 563.9531 68.24479Q563.375 68.24479 563.0625 68.072914Q562.75 67.885414 562.6094 67.58854Q562.4844 67.291664 562.4844 66.33854L562.4844 62.760414L561.71875 62.760414L561.71875 61.947914L562.4844 61.947914L562.4844 60.40104L563.53125 59.77604L563.53125 61.947914L564.59375 61.947914L564.59375 62.760414L563.53125 62.760414L563.53125 66.40104Q563.53125 66.854164 563.5781 66.979164Q563.6406 67.104164 563.7656 67.18229Q563.8906 67.260414 564.125 67.260414Q564.3125 67.260414 564.59375 67.229164ZM565.375 68.166664L565.375 59.572914L568.6094 59.572914Q569.59375 59.572914 570.1875 59.83854Q570.78125 60.104164 571.1094 60.65104Q571.4531 61.18229 571.4531 61.77604Q571.4531 62.322914 571.15625 62.80729Q570.8594 63.291664 570.25 63.58854Q571.03125 63.822914 571.4375 64.385414Q571.8594 64.93229 571.8594 65.68229Q571.8594 66.27604 571.6094 66.80729Q571.3594 67.322914 570.9844 67.604164Q570.6094 67.885414 570.03125 68.02604Q569.46875 68.166664 568.65625 68.166664L565.375 68.166664ZM566.5156 63.18229L568.375 63.18229Q569.125 63.18229 569.4531 63.08854Q569.8906 62.96354 570.1094 62.666664Q570.3281 62.354164 570.3281 61.90104Q570.3281 61.479164 570.125 61.15104Q569.9219 60.822914 569.53125 60.71354Q569.15625 60.58854 568.2344 60.58854L566.5156 60.58854L566.5156 63.18229ZM566.5156 67.15104L568.65625 67.15104Q569.2031 67.15104 569.4219 67.104164Q569.8281 67.041664 570.0781 66.885414Q570.34375 66.71354 570.5156 66.40104Q570.6875 66.08854 570.6875 65.68229Q570.6875 65.197914 570.4375 64.83854Q570.2031 64.479164 569.7656 64.33854Q569.3281 64.197914 568.5 64.197914L566.5156 64.197914L566.5156 67.15104ZM573.375 68.166664L573.375 59.572914L574.5156 59.572914L574.5156 67.15104L578.75 67.15104L578.75 68.166664L573.375 68.166664ZM579.4844 68.166664L582.78125 59.572914L584.0 59.572914L587.5156 68.166664L586.2344 68.166664L585.21875 65.55729L581.6406 65.55729L580.6875 68.166664L579.4844 68.166664ZM581.96875 64.635414L584.875 64.635414L583.9844 62.260414Q583.5625 61.18229 583.375 60.479164Q583.2031 61.30729 582.90625 62.11979L581.96875 64.635414ZM587.0469 65.40104L588.1094 65.30729Q588.1875 65.96354 588.46875 66.36979Q588.75 66.77604 589.3281 67.041664Q589.9219 67.291664 590.65625 67.291664Q591.2969 67.291664 591.7969 67.104164Q592.2969 66.90104 592.53125 66.572914Q592.78125 66.229164 592.78125 65.83854Q592.78125 65.43229 592.5469 65.135414Q592.3125 64.822914 591.78125 64.61979Q591.4219 64.479164 590.2344 64.197914Q589.0625 63.916664 588.59375 63.666664Q587.96875 63.33854 587.6719 62.86979Q587.375 62.385414 587.375 61.791664Q587.375 61.15104 587.7344 60.58854Q588.1094 60.010414 588.8125 59.729164Q589.53125 59.43229 590.3906 59.43229Q591.34375 59.43229 592.0781 59.74479Q592.8125 60.041664 593.2031 60.65104Q593.59375 61.24479 593.625 61.99479L592.53125 62.072914Q592.4375 61.260414 591.9219 60.854164Q591.4219 60.43229 590.4375 60.43229Q589.40625 60.43229 588.9375 60.80729Q588.46875 61.18229 588.46875 61.71354Q588.46875 62.18229 588.7969 62.479164Q589.125 62.77604 590.5 63.08854Q591.8906 63.40104 592.40625 63.635414Q593.15625 63.99479 593.5156 64.52604Q593.875 65.041664 593.875 65.74479Q593.875 66.43229 593.4844 67.041664Q593.09375 67.635414 592.3594 67.979164Q591.625 68.30729 590.7031 68.30729Q589.53125 68.30729 588.7344 67.979164Q587.9531 67.635414 587.5 66.947914Q587.0625 66.260414 587.0469 65.40104ZM600.3125 70.697914Q599.4375 69.58854 598.8281 68.11979Q598.2344 66.635414 598.2344 65.05729Q598.2344 63.666664 598.6719 62.385414Q599.2031 60.90104 600.3125 59.43229L601.0625 59.43229Q600.3594 60.65104 600.125 61.166664Q599.7656 61.979164 599.5625 62.854164Q599.3125 63.947914 599.3125 65.05729Q599.3125 67.885414 601.0625 70.697914L600.3125 70.697914ZM601.4844 68.166664L604.78125 59.572914L606.0 59.572914L609.5156 68.166664L608.2344 68.166664L607.21875 65.55729L603.6406 65.55729L602.6875 68.166664L601.4844 68.166664ZM603.96875 64.635414L606.875 64.635414L605.9844 62.260414Q605.5625 61.18229 605.375 60.479164Q605.2031 61.30729 604.90625 62.11979L603.96875 64.635414ZM612.96875 68.166664L611.9219 68.166664L611.9219 61.447914Q611.53125 61.80729 610.90625 62.18229Q610.2969 62.541664 609.8125 62.71354L609.8125 61.697914Q610.6875 61.27604 611.34375 60.697914Q612.0156 60.104164 612.2969 59.541664L612.96875 59.541664L612.96875 68.166664ZM621.46875 61.68229L620.4219 61.760414Q620.28125 61.135414 620.03125 60.854164Q619.59375 60.40104 618.96875 60.40104Q618.46875 60.40104 618.0781 60.68229Q617.59375 61.05729 617.2969 61.760414Q617.0156 62.447914 617.0 63.729164Q617.375 63.15104 617.9219 62.86979Q618.4844 62.58854 619.09375 62.58854Q620.1406 62.58854 620.875 63.36979Q621.625 64.15104 621.625 65.36979Q621.625 66.18229 621.2656 66.885414Q620.9219 67.572914 620.3125 67.947914Q619.7031 68.30729 618.9375 68.30729Q617.6094 68.30729 616.78125 67.33854Q615.9531 66.36979 615.9531 64.15104Q615.9531 61.65104 616.875 60.52604Q617.6719 59.541664 619.03125 59.541664Q620.0469 59.541664 620.6875 60.11979Q621.34375 60.68229 621.46875 61.68229ZM617.1719 65.385414Q617.1719 65.93229 617.3906 66.43229Q617.625 66.916664 618.03125 67.18229Q618.4531 67.447914 618.9219 67.447914Q619.5781 67.447914 620.0625 66.916664Q620.5469 66.36979 620.5469 65.447914Q620.5469 64.55729 620.0625 64.041664Q619.59375 63.52604 618.875 63.52604Q618.15625 63.52604 617.65625 64.041664Q617.1719 64.55729 617.1719 65.385414ZM623.9844 70.697914L623.2344 70.697914Q624.9844 67.885414 624.9844 65.05729Q624.9844 63.96354 624.7344 62.86979Q624.53125 61.99479 624.1719 61.18229Q623.9375 60.666664 623.2344 59.43229L623.9844 59.43229Q625.0781 60.90104 625.6094 62.385414Q626.0625 63.666664 626.0625 65.05729Q626.0625 66.635414 625.4531 68.11979Q624.84375 69.58854 623.9844 70.697914Z" fill-rule="nonzero"/><path fill="#757575" d="M192.40625 34.30625L194.1875 34.15Q194.3125 35.2125 194.76562 35.9Q195.23438 36.5875 196.20312 37.025Q197.1875 37.446877 198.42188 37.446877Q199.5 37.446877 200.32812 37.134377Q201.15625 36.80625 201.5625 36.24375Q201.96875 35.68125 201.96875 35.009377Q201.96875 34.3375 201.57812 33.8375Q201.1875 33.3375 200.29688 32.99375Q199.71875 32.759377 197.73438 32.290627Q195.76562 31.821877 194.98438 31.400002Q193.95312 30.868752 193.45312 30.071877Q192.95312 29.275002 192.95312 28.290627Q192.95312 27.196877 193.5625 26.259377Q194.17188 25.321877 195.35938 24.837502Q196.54688 24.337502 197.98438 24.337502Q199.57812 24.337502 200.79688 24.853127Q202.01562 25.368752 202.65625 26.368752Q203.3125 27.353127 203.35938 28.618752L201.54688 28.759377Q201.40625 27.400002 200.5625 26.712502Q199.71875 26.009377 198.0625 26.009377Q196.34375 26.009377 195.54688 26.650002Q194.76562 27.275002 194.76562 28.150002Q194.76562 28.931252 195.32812 29.431252Q195.875 29.931252 198.1875 30.446877Q200.5 30.962502 201.35938 31.353127Q202.60938 31.931252 203.20312 32.821877Q203.79688 33.696877 203.79688 34.853127Q203.79688 35.99375 203.14062 37.009377Q202.48438 38.025 201.25 38.5875Q200.03125 39.15 198.5 39.15Q196.5625 39.15 195.25 38.5875Q193.9375 38.009377 193.1875 36.86875Q192.4375 35.728127 192.40625 34.30625ZM205.8125 42.86875L205.8125 28.525002L207.42188 28.525002L207.42188 29.868752Q207.98438 29.087502 208.6875 28.696877Q209.40625 28.290627 210.42188 28.290627Q211.75 28.290627 212.76562 28.978127Q213.78125 29.665627 214.29688 30.915627Q214.82812 32.15 214.82812 33.634377Q214.82812 35.228127 214.25 36.509377Q213.6875 37.775 212.59375 38.4625Q211.5 39.134377 210.29688 39.134377Q209.42188 39.134377 208.71875 38.759377Q208.03125 38.384377 207.57812 37.821877L207.57812 42.86875L205.8125 42.86875ZM207.40625 33.775Q207.40625 35.775 208.21875 36.728127Q209.03125 37.68125 210.1875 37.68125Q211.35938 37.68125 212.1875 36.696877Q213.03125 35.7125 213.03125 33.61875Q213.03125 31.650002 212.20312 30.665627Q211.39062 29.665627 210.26562 29.665627Q209.14062 29.665627 208.26562 30.728127Q207.40625 31.775002 207.40625 33.775ZM223.92188 35.55625L225.73438 35.790627Q225.3125 37.36875 224.14062 38.259377Q222.98438 39.134377 221.17188 39.134377Q218.90625 39.134377 217.5625 37.74375Q216.23438 36.3375 216.23438 33.80625Q216.23438 31.181252 217.57812 29.743752Q218.92188 28.290627 221.07812 28.290627Q223.15625 28.290627 224.46875 29.712502Q225.79688 31.118752 225.79688 33.696877Q225.79688 33.853127 225.78125 34.165627L218.04688 34.165627Q218.14062 35.86875 219.01562 36.775Q219.89062 37.68125 221.1875 37.68125Q222.15625 37.68125 222.82812 37.18125Q223.51562 36.665627 223.92188 35.55625ZM218.14062 32.7125L223.9375 32.7125Q223.82812 31.415627 223.28125 30.759377Q222.4375 29.743752 221.09375 29.743752Q219.89062 29.743752 219.0625 30.556252Q218.23438 31.353127 218.14062 32.7125ZM234.92188 35.55625L236.73438 35.790627Q236.3125 37.36875 235.14062 38.259377Q233.98438 39.134377 232.17188 39.134377Q229.90625 39.134377 228.5625 37.74375Q227.23438 36.3375 227.23438 33.80625Q227.23438 31.181252 228.57812 29.743752Q229.92188 28.290627 232.07812 28.290627Q234.15625 28.290627 235.46875 29.712502Q236.79688 31.118752 236.79688 33.696877Q236.79688 33.853127 236.78125 34.165627L229.04688 34.165627Q229.14062 35.86875 230.01562 36.775Q230.89062 37.68125 232.1875 37.68125Q233.15625 37.68125 233.82812 37.18125Q234.51562 36.665627 234.92188 35.55625ZM229.14062 32.7125L234.9375 32.7125Q234.82812 31.415627 234.28125 30.759377Q233.4375 29.743752 232.09375 29.743752Q230.89062 29.743752 230.0625 30.556252Q229.23438 31.353127 229.14062 32.7125ZM245.54688 38.9L245.54688 37.5875Q244.5625 39.134377 242.64062 39.134377Q241.40625 39.134377 240.35938 38.446877Q239.32812 37.759377 238.75 36.540627Q238.1875 35.321877 238.1875 33.728127Q238.1875 32.165627 238.70312 30.900002Q239.21875 29.634377 240.25 28.962502Q241.29688 28.290627 242.5625 28.290627Q243.5 28.290627 244.23438 28.696877Q244.96875 29.087502 245.4375 29.712502L245.4375 24.587502L247.17188 24.587502L247.17188 38.9L245.54688 38.9ZM239.98438 33.728127Q239.98438 35.7125 240.82812 36.696877Q241.67188 37.68125 242.8125 37.68125Q243.96875 37.68125 244.76562 36.74375Q245.57812 35.80625 245.57812 33.86875Q245.57812 31.743752 244.75 30.743752Q243.9375 29.743752 242.73438 29.743752Q241.5625 29.743752 240.76562 30.712502Q239.98438 31.665627 239.98438 33.728127ZM258.70312 38.9L254.75 28.525002L256.60938 28.525002L258.84375 34.74375Q259.20312 35.74375 259.5 36.821877Q259.73438 36.009377 260.15625 34.853127L262.45312 28.525002L264.26562 28.525002L260.34375 38.9L258.70312 38.9ZM264.10938 35.80625L265.85938 35.525Q266.0 36.571877 266.67188 37.134377Q267.34375 37.68125 268.54688 37.68125Q269.75 37.68125 270.32812 37.196877Q270.92188 36.696877 270.92188 36.040627Q270.92188 35.446877 270.40625 35.103127Q270.04688 34.86875 268.60938 34.509377Q266.67188 34.009377 265.92188 33.665627Q265.1875 33.30625 264.79688 32.68125Q264.40625 32.040627 264.40625 31.275002Q264.40625 30.587502 264.71875 29.993752Q265.04688 29.400002 265.59375 29.009377Q266.0 28.712502 266.70312 28.509377Q267.42188 28.290627 268.23438 28.290627Q269.45312 28.290627 270.375 28.650002Q271.29688 28.993752 271.73438 29.603127Q272.17188 30.196877 272.34375 31.196877L270.625 31.431252Q270.5 30.634377 269.9375 30.196877Q269.375 29.743752 268.35938 29.743752Q267.14062 29.743752 266.625 30.150002Q266.10938 30.540627 266.10938 31.071877Q266.10938 31.415627 266.32812 31.696877Q266.53125 31.978127 267.0 32.165627Q267.26562 32.259377 268.54688 32.603127Q270.42188 33.103127 271.15625 33.43125Q271.89062 33.74375 272.3125 34.353127Q272.73438 34.946877 272.73438 35.853127Q272.73438 36.728127 272.21875 37.509377Q271.70312 38.290627 270.73438 38.7125Q269.76562 39.134377 268.54688 39.134377Q266.53125 39.134377 265.46875 38.290627Q264.40625 37.446877 264.10938 35.80625ZM275.3125 38.9L275.3125 36.9L277.3125 36.9L277.3125 38.9L275.3125 38.9ZM287.14062 38.9L287.14062 24.587502L296.79688 24.587502L296.79688 26.275002L289.03125 26.275002L289.03125 30.712502L295.75 30.712502L295.75 32.4L289.03125 32.4L289.03125 38.9L287.14062 38.9ZM299.04688 38.9L299.04688 24.587502L304.4375 24.587502Q305.875 24.587502 306.625 24.712502Q307.67188 24.900002 308.39062 25.400002Q309.10938 25.884377 309.53125 26.775002Q309.96875 27.665627 309.96875 28.728127Q309.96875 30.556252 308.79688 31.821877Q307.64062 33.071877 304.60938 33.071877L300.9375 33.071877L300.9375 38.9L299.04688 38.9ZM300.9375 31.384377L304.64062 31.384377Q306.46875 31.384377 307.23438 30.712502Q308.01562 30.025002 308.01562 28.775002Q308.01562 27.884377 307.5625 27.243752Q307.10938 26.603127 306.375 26.400002Q305.89062 26.275002 304.59375 26.275002L300.9375 26.275002L300.9375 31.384377ZM317.95312 38.9L316.1875 38.9L316.1875 27.696877Q315.5625 28.306252 314.53125 28.915627Q313.5 29.509377 312.67188 29.821877L312.67188 28.118752Q314.15625 27.431252 315.25 26.446877Q316.35938 25.446877 316.8125 24.525002L317.95312 24.525002L317.95312 38.9ZM331.45312 28.087502L329.70312 28.228127Q329.46875 27.196877 329.04688 26.728127Q328.32812 25.962502 327.28125 25.962502Q326.4375 25.962502 325.8125 26.431252Q324.98438 27.040627 324.5 28.212502Q324.01562 29.368752 324.0 31.509377Q324.64062 30.556252 325.54688 30.087502Q326.46875 29.618752 327.48438 29.618752Q329.23438 29.618752 330.46875 30.915627Q331.70312 32.196877 331.70312 34.24375Q331.70312 35.603127 331.125 36.759377Q330.54688 37.915627 329.53125 38.540627Q328.51562 39.15 327.21875 39.15Q325.03125 39.15 323.64062 37.540627Q322.25 35.915627 322.25 32.196877Q322.25 28.056252 323.78125 26.165627Q325.125 24.525002 327.39062 24.525002Q329.07812 24.525002 330.15625 25.478127Q331.23438 26.415627 331.45312 28.087502ZM324.28125 34.259377Q324.28125 35.165627 324.65625 35.99375Q325.04688 36.821877 325.73438 37.259377Q326.4375 37.696877 327.1875 37.696877Q328.3125 37.696877 329.10938 36.80625Q329.90625 35.9 329.90625 34.353127Q329.90625 32.86875 329.10938 32.025Q328.32812 31.165627 327.125 31.165627Q325.9375 31.165627 325.10938 32.025Q324.28125 32.86875 324.28125 34.259377ZM343.17188 43.103127Q341.71875 41.275 340.71875 38.821877Q339.71875 36.353127 339.71875 33.7125Q339.71875 31.384377 340.46875 29.259377Q341.34375 26.790627 343.17188 24.337502L344.4375 24.337502Q343.25 26.368752 342.875 27.243752Q342.28125 28.587502 341.9375 30.056252Q341.51562 31.884377 341.51562 33.728127Q341.51562 38.415627 344.4375 43.103127L343.17188 43.103127ZM349.54688 38.9L345.75 24.587502L347.6875 24.587502L349.85938 33.9625Q350.21875 35.446877 350.46875 36.9Q351.01562 34.603127 351.10938 34.24375L353.84375 24.587502L356.125 24.587502L358.17188 31.821877Q358.95312 34.525 359.29688 36.9Q359.5625 35.540627 360.0 33.775L362.25 24.587502L364.15625 24.587502L360.23438 38.9L358.40625 38.9L355.39062 27.993752Q355.0 26.618752 354.9375 26.306252Q354.70312 27.290627 354.51562 27.993752L351.48438 38.9L349.54688 38.9ZM374.5625 37.2125L374.5625 38.9L365.10938 38.9Q365.09375 38.259377 365.3125 37.68125Q365.67188 36.7125 366.46875 35.775Q367.26562 34.8375 368.76562 33.603127Q371.10938 31.696877 371.92188 30.587502Q372.75 29.462502 372.75 28.462502Q372.75 27.415627 372.0 26.696877Q371.25 25.978127 370.04688 25.978127Q368.78125 25.978127 368.01562 26.743752Q367.25 27.509377 367.25 28.853127L365.4375 28.665627Q365.625 26.650002 366.82812 25.587502Q368.04688 24.525002 370.09375 24.525002Q372.14062 24.525002 373.34375 25.665627Q374.54688 26.806252 374.54688 28.493752Q374.54688 29.353127 374.1875 30.196877Q373.84375 31.025002 373.03125 31.946877Q372.21875 32.853127 370.32812 34.4625Q368.73438 35.790627 368.28125 36.259377Q367.84375 36.728127 367.54688 37.2125L374.5625 37.2125ZM376.14062 34.603127L376.14062 32.8375L381.53125 32.8375L381.53125 34.603127L376.14062 34.603127ZM385.4375 38.9L383.8125 38.9L383.8125 24.587502L385.5625 24.587502L385.5625 29.696877Q386.6875 28.290627 388.40625 28.290627Q389.35938 28.290627 390.21875 28.681252Q391.07812 29.071877 391.625 29.775002Q392.17188 30.462502 392.48438 31.446877Q392.79688 32.43125 392.79688 33.55625Q392.79688 36.228127 391.48438 37.68125Q390.17188 39.134377 388.32812 39.134377Q386.48438 39.134377 385.4375 37.603127L385.4375 38.9ZM385.42188 33.634377Q385.42188 35.49375 385.92188 36.3375Q386.76562 37.68125 388.17188 37.68125Q389.32812 37.68125 390.15625 36.68125Q391.0 35.68125 391.0 33.696877Q391.0 31.665627 390.1875 30.712502Q389.39062 29.743752 388.25 29.743752Q387.09375 29.743752 386.25 30.743752Q385.42188 31.743752 385.42188 33.634377ZM394.82812 26.603127L394.82812 24.587502L396.59375 24.587502L396.59375 26.603127L394.82812 26.603127ZM394.82812 38.9L394.82812 28.525002L396.59375 28.525002L396.59375 38.9L394.82812 38.9ZM402.65625 37.321877L402.90625 38.884377Q402.17188 39.040627 401.57812 39.040627Q400.625 39.040627 400.09375 38.74375Q399.57812 38.43125 399.35938 37.946877Q399.14062 37.446877 399.14062 35.86875L399.14062 29.900002L397.85938 29.900002L397.85938 28.525002L399.14062 28.525002L399.14062 25.962502L400.89062 24.900002L400.89062 28.525002L402.65625 28.525002L402.65625 29.900002L400.89062 29.900002L400.89062 35.9625Q400.89062 36.7125 400.98438 36.93125Q401.07812 37.134377 401.28125 37.275Q401.5 37.4 401.89062 37.4Q402.17188 37.4 402.65625 37.321877ZM405.28125 38.9L405.28125 36.9L407.28125 36.9L407.28125 38.9Q407.28125 40.009377 406.89062 40.68125Q406.5 41.36875 405.65625 41.728127L405.15625 40.978127Q405.71875 40.74375 405.98438 40.259377Q406.25 39.790627 406.28125 38.9L405.28125 38.9ZM416.5 39.759377L418.20312 40.009377Q418.3125 40.80625 418.79688 41.165627Q419.45312 41.65 420.59375 41.65Q421.8125 41.65 422.46875 41.165627Q423.14062 40.68125 423.375 39.80625Q423.51562 39.259377 423.5 37.540627Q422.34375 38.9 420.625 38.9Q418.48438 38.9 417.3125 37.353127Q416.14062 35.80625 416.14062 33.65Q416.14062 32.165627 416.67188 30.915627Q417.21875 29.665627 418.23438 28.978127Q419.26562 28.290627 420.64062 28.290627Q422.46875 28.290627 423.67188 29.775002L423.67188 28.525002L425.28125 28.525002L425.28125 37.49375Q425.28125 39.915627 424.78125 40.915627Q424.29688 41.93125 423.21875 42.509377Q422.15625 43.103127 420.59375 43.103127Q418.75 43.103127 417.59375 42.275Q416.45312 41.446877 416.5 39.759377ZM417.95312 33.525Q417.95312 35.571877 418.76562 36.509377Q419.57812 37.446877 420.79688 37.446877Q422.0 37.446877 422.8125 36.509377Q423.64062 35.571877 423.64062 33.5875Q423.64062 31.681252 422.79688 30.712502Q421.95312 29.743752 420.76562 29.743752Q419.59375 29.743752 418.76562 30.696877Q417.95312 31.650002 417.95312 33.525ZM427.79688 38.9L427.79688 28.525002L429.375 28.525002L429.375 30.103127Q429.98438 28.993752 430.5 28.650002Q431.01562 28.290627 431.625 28.290627Q432.51562 28.290627 433.4375 28.853127L432.82812 30.493752Q432.1875 30.103127 431.54688 30.103127Q430.96875 30.103127 430.5 30.462502Q430.04688 30.806252 429.84375 31.415627Q429.5625 32.353127 429.5625 33.4625L429.5625 38.9L427.79688 38.9ZM434.17188 33.7125Q434.17188 30.837502 435.76562 29.446877Q437.10938 28.290627 439.03125 28.290627Q441.17188 28.290627 442.51562 29.696877Q443.875 31.103127 443.875 33.571877Q443.875 35.571877 443.28125 36.728127Q442.6875 37.86875 441.53125 38.509377Q440.39062 39.134377 439.03125 39.134377Q436.84375 39.134377 435.5 37.74375Q434.17188 36.3375 434.17188 33.7125ZM435.96875 33.7125Q435.96875 35.7125 436.82812 36.696877Q437.70312 37.68125 439.03125 37.68125Q440.34375 37.68125 441.20312 36.696877Q442.07812 35.696877 442.07812 33.65Q442.07812 31.728127 441.20312 30.743752Q440.32812 29.743752 439.03125 29.743752Q437.70312 29.743752 436.82812 30.743752Q435.96875 31.728127 435.96875 33.7125ZM452.60938 38.9L452.60938 37.36875Q451.40625 39.134377 449.32812 39.134377Q448.40625 39.134377 447.60938 38.790627Q446.8125 38.43125 446.42188 37.9Q446.04688 37.36875 445.89062 36.5875Q445.78125 36.071877 445.78125 34.946877L445.78125 28.525002L447.53125 28.525002L447.53125 34.275Q447.53125 35.65 447.64062 36.134377Q447.8125 36.821877 448.34375 37.228127Q448.89062 37.61875 449.67188 37.61875Q450.46875 37.61875 451.15625 37.2125Q451.85938 36.80625 452.14062 36.11875Q452.4375 35.415627 452.4375 34.0875L452.4375 28.525002L454.1875 28.525002L454.1875 38.9L452.60938 38.9ZM455.8125 42.86875L455.8125 28.525002L457.42188 28.525002L457.42188 29.868752Q457.98438 29.087502 458.6875 28.696877Q459.40625 28.290627 460.42188 28.290627Q461.75 28.290627 462.76562 28.978127Q463.78125 29.665627 464.29688 30.915627Q464.82812 32.15 464.82812 33.634377Q464.82812 35.228127 464.25 36.509377Q463.6875 37.775 462.59375 38.4625Q461.5 39.134377 460.29688 39.134377Q459.42188 39.134377 458.71875 38.759377Q458.03125 38.384377 457.57812 37.821877L457.57812 42.86875L455.8125 42.86875ZM457.40625 33.775Q457.40625 35.775 458.21875 36.728127Q459.03125 37.68125 460.1875 37.68125Q461.35938 37.68125 462.1875 36.696877Q463.03125 35.7125 463.03125 33.61875Q463.03125 31.650002 462.20312 30.665627Q461.39062 29.665627 460.26562 29.665627Q459.14062 29.665627 458.26562 30.728127Q457.40625 31.775002 457.40625 33.775ZM472.10938 35.80625L473.85938 35.525Q474.0 36.571877 474.67188 37.134377Q475.34375 37.68125 476.54688 37.68125Q477.75 37.68125 478.32812 37.196877Q478.92188 36.696877 478.92188 36.040627Q478.92188 35.446877 478.40625 35.103127Q478.04688 34.86875 476.60938 34.509377Q474.67188 34.009377 473.92188 33.665627Q473.1875 33.30625 472.79688 32.68125Q472.40625 32.040627 472.40625 31.275002Q472.40625 30.587502 472.71875 29.993752Q473.04688 29.400002 473.59375 29.009377Q474.0 28.712502 474.70312 28.509377Q475.42188 28.290627 476.23438 28.290627Q477.45312 28.290627 478.375 28.650002Q479.29688 28.993752 479.73438 29.603127Q480.17188 30.196877 480.34375 31.196877L478.625 31.431252Q478.5 30.634377 477.9375 30.196877Q477.375 29.743752 476.35938 29.743752Q475.14062 29.743752 474.625 30.150002Q474.10938 30.540627 474.10938 31.071877Q474.10938 31.415627 474.32812 31.696877Q474.53125 31.978127 475.0 32.165627Q475.26562 32.259377 476.54688 32.603127Q478.42188 33.103127 479.15625 33.43125Q479.89062 33.74375 480.3125 34.353127Q480.73438 34.946877 480.73438 35.853127Q480.73438 36.728127 480.21875 37.509377Q479.70312 38.290627 478.73438 38.7125Q477.76562 39.134377 476.54688 39.134377Q474.53125 39.134377 473.46875 38.290627Q472.40625 37.446877 472.10938 35.80625ZM482.82812 26.603127L482.82812 24.587502L484.59375 24.587502L484.59375 26.603127L482.82812 26.603127ZM482.82812 38.9L482.82812 28.525002L484.59375 28.525002L484.59375 38.9L482.82812 38.9ZM485.89062 38.9L485.89062 37.478127L492.5 29.900002Q491.375 29.946877 490.51562 29.946877L486.28125 29.946877L486.28125 28.525002L494.76562 28.525002L494.76562 29.696877L489.14062 36.275L488.0625 37.478127Q489.23438 37.384377 490.28125 37.384377L495.07812 37.384377L495.07812 38.9L485.89062 38.9ZM502.92188 35.55625L504.73438 35.790627Q504.3125 37.36875 503.14062 38.259377Q501.98438 39.134377 500.17188 39.134377Q497.90625 39.134377 496.5625 37.74375Q495.23438 36.3375 495.23438 33.80625Q495.23438 31.181252 496.57812 29.743752Q497.92188 28.290627 500.07812 28.290627Q502.15625 28.290627 503.46875 29.712502Q504.79688 31.118752 504.79688 33.696877Q504.79688 33.853127 504.78125 34.165627L497.04688 34.165627Q497.14062 35.86875 498.01562 36.775Q498.89062 37.68125 500.1875 37.68125Q501.15625 37.68125 501.82812 37.18125Q502.51562 36.665627 502.92188 35.55625ZM497.14062 32.7125L502.9375 32.7125Q502.82812 31.415627 502.28125 30.759377Q501.4375 29.743752 500.09375 29.743752Q498.89062 29.743752 498.0625 30.556252Q497.23438 31.353127 497.14062 32.7125ZM516.0625 30.478127L506.60938 30.478127L506.60938 28.837502L516.0625 28.837502L516.0625 30.478127ZM516.0625 34.821877L506.60938 34.821877L506.60938 33.18125L516.0625 33.18125L516.0625 34.821877ZM524.9531 38.9L523.1875 38.9L523.1875 27.696877Q522.5625 28.306252 521.53125 28.915627Q520.5 29.509377 519.6719 29.821877L519.6719 28.118752Q521.15625 27.431252 522.25 26.446877Q523.3594 25.446877 523.8125 24.525002L524.9531 24.525002L524.9531 38.9ZM538.5625 37.2125L538.5625 38.9L529.1094 38.9Q529.09375 38.259377 529.3125 37.68125Q529.6719 36.7125 530.46875 35.775Q531.2656 34.8375 532.7656 33.603127Q535.1094 31.696877 535.9219 30.587502Q536.75 29.462502 536.75 28.462502Q536.75 27.415627 536.0 26.696877Q535.25 25.978127 534.0469 25.978127Q532.78125 25.978127 532.0156 26.743752Q531.25 27.509377 531.25 28.853127L529.4375 28.665627Q529.625 26.650002 530.8281 25.587502Q532.0469 24.525002 534.09375 24.525002Q536.1406 24.525002 537.34375 25.665627Q538.5469 26.806252 538.5469 28.493752Q538.5469 29.353127 538.1875 30.196877Q537.84375 31.025002 537.03125 31.946877Q536.21875 32.853127 534.3281 34.4625Q532.7344 35.790627 532.28125 36.259377Q531.84375 36.728127 531.5469 37.2125L538.5625 37.2125ZM543.03125 31.134377Q541.9375 30.728127 541.40625 29.993752Q540.8906 29.243752 540.8906 28.212502Q540.8906 26.650002 542.0156 25.587502Q543.1406 24.525002 545.0 24.525002Q546.875 24.525002 548.0156 25.618752Q549.15625 26.696877 549.15625 28.259377Q549.15625 29.259377 548.625 29.993752Q548.1094 30.728127 547.0469 31.134377Q548.375 31.571877 549.0625 32.525Q549.75 33.478127 549.75 34.80625Q549.75 36.65 548.4375 37.9Q547.1406 39.15 545.03125 39.15Q542.90625 39.15 541.6094 37.9Q540.3125 36.634377 540.3125 34.759377Q540.3125 33.36875 541.0156 32.43125Q541.7344 31.478127 543.03125 31.134377ZM542.6875 28.150002Q542.6875 29.165627 543.34375 29.821877Q544.0 30.462502 545.03125 30.462502Q546.0469 30.462502 546.7031 29.821877Q547.3594 29.181252 547.3594 28.259377Q547.3594 27.290627 546.6875 26.634377Q546.0156 25.962502 545.0156 25.962502Q544.0156 25.962502 543.34375 26.618752Q542.6875 27.259377 542.6875 28.150002ZM542.125 34.775Q542.125 35.525 542.46875 36.228127Q542.8281 36.93125 543.53125 37.321877Q544.2344 37.696877 545.0469 37.696877Q546.3125 37.696877 547.125 36.884377Q547.9531 36.071877 547.9531 34.821877Q547.9531 33.55625 547.1094 32.728127Q546.2656 31.900002 544.9844 31.900002Q543.75 31.900002 542.9375 32.728127Q542.125 33.540627 542.125 34.775ZM552.96875 43.103127L551.71875 43.103127Q554.625 38.415627 554.625 33.728127Q554.625 31.884377 554.21875 30.087502Q553.875 28.618752 553.28125 27.275002Q552.90625 26.384377 551.71875 24.337502L552.96875 24.337502Q554.8125 26.790627 555.6875 29.259377Q556.4375 31.384377 556.4375 33.7125Q556.4375 36.353127 555.4219 38.821877Q554.4219 41.275 552.96875 43.103127ZM564.1406 34.603127L564.1406 32.8375L569.53125 32.8375L569.53125 34.603127L564.1406 34.603127ZM577.34375 35.11875L579.09375 34.884377Q579.40625 36.384377 580.125 37.040627Q580.8594 37.696877 581.90625 37.696877Q583.1406 37.696877 583.9844 36.8375Q584.84375 35.978127 584.84375 34.7125Q584.84375 33.49375 584.0469 32.7125Q583.2656 31.931252 582.0469 31.931252Q581.5469 31.931252 580.8125 32.11875L581.0 30.571877Q581.1719 30.603127 581.28125 30.603127Q582.40625 30.603127 583.2969 30.025002Q584.2031 29.431252 584.2031 28.212502Q584.2031 27.243752 583.5469 26.603127Q582.8906 25.962502 581.8594 25.962502Q580.84375 25.962502 580.15625 26.618752Q579.46875 27.259377 579.28125 28.540627L577.5156 28.228127Q577.84375 26.462502 578.9844 25.493752Q580.125 24.525002 581.8281 24.525002Q583.0 24.525002 583.9844 25.025002Q584.96875 25.525002 585.4844 26.400002Q586.0156 27.275002 586.0156 28.243752Q586.0156 29.165627 585.5156 29.931252Q585.0156 30.696877 584.0469 31.150002Q585.3125 31.431252 586.0156 32.36875Q586.71875 33.290627 586.71875 34.665627Q586.71875 36.540627 585.34375 37.853127Q583.9844 39.15 581.8906 39.15Q580.0 39.15 578.75 38.025Q577.5156 36.9 577.34375 35.11875ZM597.5625 37.2125L597.5625 38.9L588.1094 38.9Q588.09375 38.259377 588.3125 37.68125Q588.6719 36.7125 589.46875 35.775Q590.2656 34.8375 591.7656 33.603127Q594.1094 31.696877 594.9219 30.587502Q595.75 29.462502 595.75 28.462502Q595.75 27.415627 595.0 26.696877Q594.25 25.978127 593.0469 25.978127Q591.78125 25.978127 591.0156 26.743752Q590.25 27.509377 590.25 28.853127L588.4375 28.665627Q588.625 26.650002 589.8281 25.587502Q591.0469 24.525002 593.09375 24.525002Q595.1406 24.525002 596.34375 25.665627Q597.5469 26.806252 597.5469 28.493752Q597.5469 29.353127 597.1875 30.196877Q596.84375 31.025002 596.03125 31.946877Q595.21875 32.853127 593.3281 34.4625Q591.7344 35.790627 591.28125 36.259377Q590.84375 36.728127 590.5469 37.2125L597.5625 37.2125ZM599.4531 26.462502L599.4531 24.775002L608.71875 24.775002L608.71875 26.134377Q607.34375 27.587502 606.0 30.009377Q604.65625 32.415627 603.9375 34.9625Q603.40625 36.759377 603.25 38.9L601.4531 38.9Q601.4844 37.2125 602.1094 34.821877Q602.75 32.43125 603.9375 30.212502Q605.125 27.978127 606.4531 26.462502L599.4531 26.462502ZM619.4531 28.087502L617.7031 28.228127Q617.46875 27.196877 617.0469 26.728127Q616.3281 25.962502 615.28125 25.962502Q614.4375 25.962502 613.8125 26.431252Q612.9844 27.040627 612.5 28.212502Q612.0156 29.368752 612.0 31.509377Q612.6406 30.556252 613.5469 30.087502Q614.46875 29.618752 615.4844 29.618752Q617.2344 29.618752 618.46875 30.915627Q619.7031 32.196877 619.7031 34.24375Q619.7031 35.603127 619.125 36.759377Q618.5469 37.915627 617.53125 38.540627Q616.5156 39.15 615.21875 39.15Q613.03125 39.15 611.6406 37.540627Q610.25 35.915627 610.25 32.196877Q610.25 28.056252 611.78125 26.165627Q613.125 24.525002 615.3906 24.525002Q617.0781 24.525002 618.15625 25.478127Q619.2344 26.415627 619.4531 28.087502ZM612.28125 34.259377Q612.28125 35.165627 612.65625 35.99375Q613.0469 36.821877 613.7344 37.259377Q614.4375 37.696877 615.1875 37.696877Q616.3125 37.696877 617.1094 36.80625Q617.90625 35.9 617.90625 34.353127Q617.90625 32.86875 617.1094 32.025Q616.3281 31.165627 615.125 31.165627Q613.9375 31.165627 613.1094 32.025Q612.28125 32.86875 612.28125 34.259377ZM624.03125 31.134377Q622.9375 30.728127 622.40625 29.993752Q621.8906 29.243752 621.8906 28.212502Q621.8906 26.650002 623.0156 25.587502Q624.1406 24.525002 626.0 24.525002Q627.875 24.525002 629.0156 25.618752Q630.15625 26.696877 630.15625 28.259377Q630.15625 29.259377 629.625 29.993752Q629.1094 30.728127 628.0469 31.134377Q629.375 31.571877 630.0625 32.525Q630.75 33.478127 630.75 34.80625Q630.75 36.65 629.4375 37.9Q628.1406 39.15 626.03125 39.15Q623.90625 39.15 622.6094 37.9Q621.3125 36.634377 621.3125 34.759377Q621.3125 33.36875 622.0156 32.43125Q622.7344 31.478127 624.03125 31.134377ZM623.6875 28.150002Q623.6875 29.165627 624.34375 29.821877Q625.0 30.462502 626.03125 30.462502Q627.0469 30.462502 627.7031 29.821877Q628.3594 29.181252 628.3594 28.259377Q628.3594 27.290627 627.6875 26.634377Q627.0156 25.962502 626.0156 25.962502Q625.0156 25.962502 624.34375 26.618752Q623.6875 27.259377 623.6875 28.150002ZM623.125 34.775Q623.125 35.525 623.46875 36.228127Q623.8281 36.93125 624.53125 37.321877Q625.2344 37.696877 626.0469 37.696877Q627.3125 37.696877 628.125 36.884377Q628.9531 36.071877 628.9531 34.821877Q628.9531 33.55625 628.1094 32.728127Q627.2656 31.900002 625.9844 31.900002Q624.75 31.900002 623.9375 32.728127Q623.125 33.540627 623.125 34.775ZM637.6406 38.9L641.4375 33.509377L637.9375 28.525002L640.125 28.525002L641.71875 30.962502Q642.1719 31.650002 642.4375 32.11875Q642.875 31.478127 643.2344 30.978127L644.9844 28.525002L647.0781 28.525002L643.5 33.415627L647.3594 38.9L645.2031 38.9L643.0625 35.68125L642.5 34.80625L639.78125 38.9L637.6406 38.9ZM653.34375 35.11875L655.09375 34.884377Q655.40625 36.384377 656.125 37.040627Q656.8594 37.696877 657.90625 37.696877Q659.1406 37.696877 659.9844 36.8375Q660.84375 35.978127 660.84375 34.7125Q660.84375 33.49375 660.0469 32.7125Q659.2656 31.931252 658.0469 31.931252Q657.5469 31.931252 656.8125 32.11875L657.0 30.571877Q657.1719 30.603127 657.28125 30.603127Q658.40625 30.603127 659.2969 30.025002Q660.2031 29.431252 660.2031 28.212502Q660.2031 27.243752 659.5469 26.603127Q658.8906 25.962502 657.8594 25.962502Q656.84375 25.962502 656.15625 26.618752Q655.46875 27.259377 655.28125 28.540627L653.5156 28.228127Q653.84375 26.462502 654.9844 25.493752Q656.125 24.525002 657.8281 24.525002Q659.0 24.525002 659.9844 25.025002Q660.96875 25.525002 661.4844 26.400002Q662.0156 27.275002 662.0156 28.243752Q662.0156 29.165627 661.5156 29.931252Q661.0156 30.696877 660.0469 31.150002Q661.3125 31.431252 662.0156 32.36875Q662.71875 33.290627 662.71875 34.665627Q662.71875 36.540627 661.34375 37.853127Q659.9844 39.15 657.8906 39.15Q656.0 39.15 654.75 38.025Q653.5156 36.9 653.34375 35.11875ZM673.5625 37.2125L673.5625 38.9L664.1094 38.9Q664.09375 38.259377 664.3125 37.68125Q664.6719 36.7125 665.46875 35.775Q666.2656 34.8375 667.7656 33.603127Q670.1094 31.696877 670.9219 30.587502Q671.75 29.462502 671.75 28.462502Q671.75 27.415627 671.0 26.696877Q670.25 25.978127 669.0469 25.978127Q667.78125 25.978127 667.0156 26.743752Q666.25 27.509377 666.25 28.853127L664.4375 28.665627Q664.625 26.650002 665.8281 25.587502Q667.0469 24.525002 669.09375 24.525002Q671.1406 24.525002 672.34375 25.665627Q673.5469 26.806252 673.5469 28.493752Q673.5469 29.353127 673.1875 30.196877Q672.84375 31.025002 672.03125 31.946877Q671.21875 32.853127 669.3281 34.4625Q667.7344 35.790627 667.28125 36.259377Q666.84375 36.728127 666.5469 37.2125L673.5625 37.2125ZM675.4531 26.462502L675.4531 24.775002L684.71875 24.775002L684.71875 26.134377Q683.34375 27.587502 682.0 30.009377Q680.65625 32.415627 679.9375 34.9625Q679.40625 36.759377 679.25 38.9L677.4531 38.9Q677.4844 37.2125 678.1094 34.821877Q678.75 32.43125 679.9375 30.212502Q681.125 27.978127 682.4531 26.462502L675.4531 26.462502ZM695.4531 28.087502L693.7031 28.228127Q693.46875 27.196877 693.0469 26.728127Q692.3281 25.962502 691.28125 25.962502Q690.4375 25.962502 689.8125 26.431252Q688.9844 27.040627 688.5 28.212502Q688.0156 29.368752 688.0 31.509377Q688.6406 30.556252 689.5469 30.087502Q690.46875 29.618752 691.4844 29.618752Q693.2344 29.618752 694.46875 30.915627Q695.7031 32.196877 695.7031 34.24375Q695.7031 35.603127 695.125 36.759377Q694.5469 37.915627 693.53125 38.540627Q692.5156 39.15 691.21875 39.15Q689.03125 39.15 687.6406 37.540627Q686.25 35.915627 686.25 32.196877Q686.25 28.056252 687.78125 26.165627Q689.125 24.525002 691.3906 24.525002Q693.0781 24.525002 694.15625 25.478127Q695.2344 26.415627 695.4531 28.087502ZM688.28125 34.259377Q688.28125 35.165627 688.65625 35.99375Q689.0469 36.821877 689.7344 37.259377Q690.4375 37.696877 691.1875 37.696877Q692.3125 37.696877 693.1094 36.80625Q693.90625 35.9 693.90625 34.353127Q693.90625 32.86875 693.1094 32.025Q692.3281 31.165627 691.125 31.165627Q689.9375 31.165627 689.1094 32.025Q688.28125 32.86875 688.28125 34.259377ZM700.03125 31.134377Q698.9375 30.728127 698.40625 29.993752Q697.8906 29.243752 697.8906 28.212502Q697.8906 26.650002 699.0156 25.587502Q700.1406 24.525002 702.0 24.525002Q703.875 24.525002 705.0156 25.618752Q706.15625 26.696877 706.15625 28.259377Q706.15625 29.259377 705.625 29.993752Q705.1094 30.728127 704.0469 31.134377Q705.375 31.571877 706.0625 32.525Q706.75 33.478127 706.75 34.80625Q706.75 36.65 705.4375 37.9Q704.1406 39.15 702.03125 39.15Q699.90625 39.15 698.6094 37.9Q697.3125 36.634377 697.3125 34.759377Q697.3125 33.36875 698.0156 32.43125Q698.7344 31.478127 700.03125 31.134377ZM699.6875 28.150002Q699.6875 29.165627 700.34375 29.821877Q701.0 30.462502 702.03125 30.462502Q703.0469 30.462502 703.7031 29.821877Q704.3594 29.181252 704.3594 28.259377Q704.3594 27.290627 703.6875 26.634377Q703.0156 25.962502 702.0156 25.962502Q701.0156 25.962502 700.34375 26.618752Q699.6875 27.259377 699.6875 28.150002ZM699.125 34.775Q699.125 35.525 699.46875 36.228127Q699.8281 36.93125 700.53125 37.321877Q701.2344 37.696877 702.0469 37.696877Q703.3125 37.696877 704.125 36.884377Q704.9531 36.071877 704.9531 34.821877Q704.9531 33.55625 704.1094 32.728127Q703.2656 31.900002 701.9844 31.900002Q700.75 31.900002 699.9375 32.728127Q699.125 33.540627 699.125 34.775ZM714.1406 34.603127L714.1406 32.8375L719.53125 32.8375L719.53125 34.603127L714.1406 34.603127ZM732.96875 38.9L732.96875 35.478127L726.75 35.478127L726.75 33.853127L733.28125 24.587502L734.71875 24.587502L734.71875 33.853127L736.65625 33.853127L736.65625 35.478127L734.71875 35.478127L734.71875 38.9L732.96875 38.9ZM732.96875 33.853127L732.96875 27.400002L728.4844 33.853127L732.96875 33.853127ZM738.3281 31.837502Q738.3281 29.306252 738.84375 27.759377Q739.375 26.196877 740.40625 25.368752Q741.4375 24.525002 743.0 24.525002Q744.15625 24.525002 745.0156 24.993752Q745.8906 25.446877 746.4531 26.321877Q747.0156 27.196877 747.34375 28.462502Q747.6719 29.712502 747.6719 31.837502Q747.6719 34.353127 747.1406 35.9Q746.625 37.446877 745.59375 38.30625Q744.5781 39.15 743.0 39.15Q740.9219 39.15 739.75 37.665627Q738.3281 35.86875 738.3281 31.837502ZM740.1406 31.837502Q740.1406 35.36875 740.9531 36.540627Q741.78125 37.696877 743.0 37.696877Q744.2031 37.696877 745.03125 36.525Q745.8594 35.353127 745.8594 31.837502Q745.8594 28.306252 745.03125 27.150002Q744.2031 25.978127 742.9844 25.978127Q741.7656 25.978127 741.0469 27.009377Q740.1406 28.306252 740.1406 31.837502ZM749.59375 35.5875L751.28125 35.43125Q751.5 36.61875 752.09375 37.165627Q752.7031 37.696877 753.65625 37.696877Q754.46875 37.696877 755.0781 37.3375Q755.6875 36.9625 756.0781 36.3375Q756.46875 35.7125 756.7344 34.665627Q757.0 33.603127 757.0 32.509377Q757.0 32.4 756.9844 32.165627Q756.4531 32.99375 755.5469 33.525Q754.6406 34.040627 753.5625 34.040627Q751.7969 34.040627 750.5625 32.759377Q749.3281 31.462502 749.3281 29.353127Q749.3281 27.181252 750.6094 25.853127Q751.90625 24.525002 753.8281 24.525002Q755.2344 24.525002 756.3906 25.275002Q757.5469 26.025002 758.1406 27.415627Q758.75 28.806252 758.75 31.446877Q758.75 34.196877 758.1406 35.821877Q757.5469 37.446877 756.375 38.30625Q755.2031 39.15 753.625 39.15Q751.9375 39.15 750.875 38.2125Q749.8125 37.275 749.59375 35.5875ZM756.7969 29.275002Q756.7969 27.759377 755.9844 26.868752Q755.1875 25.978127 754.0469 25.978127Q752.875 25.978127 752.0 26.946877Q751.1406 27.900002 751.1406 29.415627Q751.1406 30.790627 751.9531 31.650002Q752.78125 32.49375 754.0 32.49375Q755.21875 32.49375 756.0 31.650002Q756.7969 30.790627 756.7969 29.275002ZM760.3281 31.837502Q760.3281 29.306252 760.84375 27.759377Q761.375 26.196877 762.40625 25.368752Q763.4375 24.525002 765.0 24.525002Q766.15625 24.525002 767.0156 24.993752Q767.8906 25.446877 768.4531 26.321877Q769.0156 27.196877 769.34375 28.462502Q769.6719 29.712502 769.6719 31.837502Q769.6719 34.353127 769.1406 35.9Q768.625 37.446877 767.59375 38.30625Q766.5781 39.15 765.0 39.15Q762.9219 39.15 761.75 37.665627Q760.3281 35.86875 760.3281 31.837502ZM762.1406 31.837502Q762.1406 35.36875 762.9531 36.540627Q763.78125 37.696877 765.0 37.696877Q766.2031 37.696877 767.03125 36.525Q767.8594 35.353127 767.8594 31.837502Q767.8594 28.306252 767.03125 27.150002Q766.2031 25.978127 764.9844 25.978127Q763.7656 25.978127 763.0469 27.009377Q762.1406 28.306252 762.1406 31.837502ZM778.0781 38.9L778.0781 24.587502L784.4219 24.587502Q786.3281 24.587502 787.3281 24.978127Q788.3281 25.353127 788.9219 26.337502Q789.5156 27.306252 789.5156 28.493752Q789.5156 30.009377 788.53125 31.056252Q787.5469 32.103127 785.4844 32.384377Q786.2344 32.74375 786.625 33.103127Q787.4531 33.853127 788.2031 35.009377L790.6875 38.9L788.3125 38.9L786.40625 35.915627Q785.5781 34.634377 785.0469 33.946877Q784.5156 33.259377 784.0781 32.99375Q783.65625 32.7125 783.21875 32.603127Q782.8906 32.540627 782.1719 32.540627L779.96875 32.540627L779.96875 38.9L778.0781 38.9ZM779.96875 30.900002L784.0469 30.900002Q785.34375 30.900002 786.0625 30.634377Q786.7969 30.368752 787.1719 29.775002Q787.5625 29.181252 787.5625 28.493752Q787.5625 27.478127 786.8281 26.821877Q786.09375 26.165627 784.5 26.165627L779.96875 26.165627L779.96875 30.900002ZM795.6875 38.9L795.6875 26.275002L790.96875 26.275002L790.96875 24.587502L802.3125 24.587502L802.3125 26.275002L797.5781 26.275002L797.5781 38.9L795.6875 38.9ZM802.59375 38.9L808.125 31.431252L803.25 24.587502L805.5 24.587502L808.09375 28.259377Q808.90625 29.400002 809.25 30.009377Q809.7344 29.228127 810.375 28.384377L813.2656 24.587502L815.3281 24.587502L810.2969 31.337502L815.71875 38.9L813.375 38.9L809.7656 33.790627Q809.46875 33.353127 809.1406 32.8375Q808.65625 33.61875 808.4531 33.915627L804.8594 38.9L802.59375 38.9Z" fill-rule="nonzero"/></svg>