<svg version="1.1" viewBox="0.0 0.0 1007.0 417.0" fill="none" stroke="none" stroke-linecap="square" stroke-miterlimit="10" width="1007" height="417" xmlns:xlink="http://www.w3.org/1999/xlink" xmlns="http://www.w3.org/2000/svg"><path fill="#ffffff" d="M0 0L1007.0 0L1007.0 417.0L0 417.0L0 0Z" fill-rule="nonzero"/><path stroke="#333333" stroke-width="1.0" stroke-linecap="butt" d="M88.5 93.5L88.5 344.5" fill-rule="nonzero"/><path stroke="#cccccc" stroke-width="1.0" stroke-linecap="butt" d="M305.5 93.5L305.5 344.5" fill-rule="nonzero"/><path stroke="#cccccc" stroke-width="1.0" stroke-linecap="butt" d="M522.5 93.5L522.5 344.5" fill-rule="nonzero"/><path stroke="#cccccc" stroke-width="1.0" stroke-linecap="butt" d="M738.5 93.5L738.5 344.5" fill-rule="nonzero"/><path stroke="#cccccc" stroke-width="1.0" stroke-linecap="butt" d="M955.5 93.5L955.5 344.5" fill-rule="nonzero"/><path stroke="#333333" stroke-width="1.0" stroke-linecap="butt" d="M79.5 344.5L986.5 344.5" fill-rule="nonzero"/><path stroke="#cccccc" stroke-width="1.0" stroke-linecap="butt" d="M79.5 260.5L986.5 260.5" fill-rule="nonzero"/><path stroke="#cccccc" stroke-width="1.0" stroke-linecap="butt" d="M79.5 177.5L986.5 177.5" fill-rule="nonzero"/><path stroke="#cccccc" stroke-width="1.0" stroke-linecap="butt" d="M79.5 93.5L986.5 93.5" fill-rule="nonzero"/><clipPath id="id_0"><path d="M79.85 93.65L986.15 93.65L986.15 344.15L79.85 344.15L79.85 93.65Z" clip-rule="nonzero"/></clipPath><path stroke="#6aa84f" stroke-width="2.0" stroke-linecap="butt" clip-path="url(#id_0)" d="M89.63409 222.24L90.500885 243.95L92.234474 243.115L95.70165 243.95L102.63602 245.62L116.504745 253.97L144.2422 269.835L199.71712 294.885L310.66696 314.925L532.5666 317.43L976.3659 315.76" fill-rule="nonzero"/><path stroke="#ea4335" stroke-width="2.0" stroke-linecap="butt" clip-path="url(#id_0)" d="M89.63409 141.245L90.500885 149.595L92.234474 194.685L95.70165 258.98L102.63602 291.545L116.504745 316.595L144.2422 329.955L199.71712 337.47L310.66696 339.975L532.5666 340.81L976.3659 340.81" fill-rule="nonzero"/><path stroke="#fbbc04" stroke-width="2.0" stroke-linecap="butt" clip-path="url(#id_0)" d="M89.63409 146.255L90.500885 234.765L92.234474 286.535L95.70165 314.09L102.63602 314.925L116.504745 314.925L144.2422 314.925L199.71712 318.265L310.66696 316.595L532.5666 316.595L976.3659 315.76" fill-rule="nonzero"/><path stroke="#c9daf8" stroke-width="2.0" stroke-linecap="butt" clip-path="url(#id_0)" d="M89.63409 127.05L90.500885 127.05L92.234474 131.225L95.70165 130.39L102.63602 128.72L116.504745 145.42L144.2422 188.84L199.71712 263.99L310.66696 299.06L532.5666 304.905L976.3659 303.235" fill-rule="nonzero"/><path fill="#6aa84f" clip-path="url(#id_0)" d="M89.63409 216.24L90.98117 220.3859L95.34042 220.3859L91.81371 222.9482L93.1608 227.0941L89.63409 224.5318L86.107376 227.0941L87.45446 222.9482L83.92775 220.3859L88.287 220.3859Z" fill-rule="nonzero"/><path fill="#6aa84f" clip-path="url(#id_0)" d="M90.500885 237.95L91.84797 242.0959L96.20722 242.0959L92.68051 244.6582L94.027596 248.80411L90.500885 246.24179L86.974174 248.80411L88.32126 244.6582L84.79454 242.0959L89.1538 242.0959Z" fill-rule="nonzero"/><path fill="#6aa84f" clip-path="url(#id_0)" d="M92.234474 237.115L93.58156 241.2609L97.94081 241.2609L94.4141 243.8232L95.761185 247.9691L92.234474 245.4068L88.70776 247.9691L90.05485 243.8232L86.52814 241.2609L90.88739 241.2609Z" fill-rule="nonzero"/><path fill="#6aa84f" clip-path="url(#id_0)" d="M95.70165 237.95L97.04874 242.0959L101.408 242.0959L97.88129 244.6582L99.22837 248.80411L95.70165 246.24179L92.17494 248.80411L93.522026 244.6582L89.995316 242.0959L94.35457 242.0959Z" fill-rule="nonzero"/><path fill="#6aa84f" clip-path="url(#id_0)" d="M102.63602 239.62L103.9831 243.7659L108.34236 243.7659L104.81565 246.3282L106.162735 250.4741L102.63602 247.91179L99.10931 250.4741L100.45639 246.3282L96.92968 243.7659L101.28893 243.7659Z" fill-rule="nonzero"/><path fill="#6aa84f" clip-path="url(#id_0)" d="M116.504745 247.97L117.85183 252.11589L122.21109 252.11589L118.68438 254.6782L120.03146 258.8241L116.504745 256.2618L112.978035 258.8241L114.32512 254.6782L110.79841 252.11589L115.15766 252.11589Z" fill-rule="nonzero"/><path fill="#6aa84f" clip-path="url(#id_0)" d="M144.2422 263.835L145.5893 267.9809L149.94855 267.9809L146.42183 270.5432L147.76892 274.6891L144.2422 272.1268L140.7155 274.6891L142.06258 270.5432L138.53587 267.9809L142.89513 267.9809Z" fill-rule="nonzero"/><path fill="#6aa84f" clip-path="url(#id_0)" d="M199.71712 288.885L201.06421 293.03088L205.42346 293.03088L201.89674 295.5932L203.24384 299.7391L199.71712 297.1768L196.19041 299.7391L197.53749 295.5932L194.01077 293.03088L198.37004 293.03088Z" fill-rule="nonzero"/><path fill="#6aa84f" clip-path="url(#id_0)" d="M310.66696 308.925L312.01404 313.0709L316.3733 313.0709L312.8466 315.6332L314.19366 319.7791L310.66696 317.2168L307.14023 319.7791L308.4873 315.6332L304.9606 313.0709L309.31985 313.0709Z" fill-rule="nonzero"/><path fill="#6aa84f" clip-path="url(#id_0)" d="M532.5666 311.43L533.9137 315.5759L538.27295 315.5759L534.7462 318.1382L536.0933 322.2841L532.5666 319.7218L529.0399 322.2841L530.38696 318.1382L526.8603 315.5759L531.21954 315.5759Z" fill-rule="nonzero"/><path fill="#6aa84f" clip-path="url(#id_0)" d="M976.3659 309.76L977.713 313.90588L982.07227 313.90588L978.54553 316.4682L979.89264 320.6141L976.3659 318.0518L972.8392 320.6141L974.1863 316.4682L970.65955 313.90588L975.0188 313.90588Z" fill-rule="nonzero"/><path fill="#ea4335" clip-path="url(#id_0)" d="M89.63409 135.245L90.98117 139.3909L95.34042 139.3909L91.81371 141.9532L93.1608 146.0991L89.63409 143.53679L86.107376 146.0991L87.45446 141.9532L83.92775 139.3909L88.287 139.3909Z" fill-rule="nonzero"/><path fill="#ea4335" clip-path="url(#id_0)" d="M90.500885 143.595L91.84797 147.74089L96.20722 147.74089L92.68051 150.3032L94.027596 154.4491L90.500885 151.8868L86.974174 154.4491L88.32126 150.3032L84.79454 147.74089L89.1538 147.74089Z" fill-rule="nonzero"/><path fill="#ea4335" clip-path="url(#id_0)" d="M92.234474 188.685L93.58156 192.8309L97.94081 192.8309L94.4141 195.3932L95.761185 199.53911L92.234474 196.97679L88.70776 199.53911L90.05485 195.3932L86.52814 192.8309L90.88739 192.8309Z" fill-rule="nonzero"/><path fill="#ea4335" clip-path="url(#id_0)" d="M95.70165 252.98L97.04874 257.1259L101.408 257.1259L97.88129 259.6882L99.22837 263.8341L95.70165 261.2718L92.17494 263.8341L93.522026 259.6882L89.995316 257.1259L94.35457 257.1259Z" fill-rule="nonzero"/><path fill="#ea4335" clip-path="url(#id_0)" d="M102.63602 285.545L103.9831 289.6909L108.34236 289.6909L104.81565 292.2532L106.162735 296.3991L102.63602 293.8368L99.10931 296.3991L100.45639 292.2532L96.92968 289.6909L101.28893 289.6909Z" fill-rule="nonzero"/><path fill="#ea4335" clip-path="url(#id_0)" d="M116.504745 310.595L117.85183 314.7409L122.21109 314.7409L118.68438 317.3032L120.03146 321.4491L116.504745 318.8868L112.978035 321.4491L114.32512 317.3032L110.79841 314.7409L115.15766 314.7409Z" fill-rule="nonzero"/><path fill="#ea4335" clip-path="url(#id_0)" d="M144.2422 323.955L145.5893 328.1009L149.94855 328.1009L146.42183 330.6632L147.76892 334.8091L144.2422 332.2468L140.7155 334.8091L142.06258 330.6632L138.53587 328.1009L142.89513 328.1009Z" fill-rule="nonzero"/><path fill="#ea4335" clip-path="url(#id_0)" d="M199.71712 331.47L201.06421 335.6159L205.42346 335.6159L201.89674 338.1782L203.24384 342.3241L199.71712 339.7618L196.19041 342.3241L197.53749 338.1782L194.01077 335.6159L198.37004 335.6159Z" fill-rule="nonzero"/><path fill="#ea4335" clip-path="url(#id_0)" d="M310.66696 333.975L312.01404 338.1209L316.3733 338.1209L312.8466 340.6832L314.19366 344.8291L310.66696 342.26678L307.14023 344.8291L308.4873 340.6832L304.9606 338.1209L309.31985 338.1209Z" fill-rule="nonzero"/><path fill="#ea4335" clip-path="url(#id_0)" d="M532.5666 334.81L533.9137 338.9559L538.27295 338.9559L534.7462 341.51822L536.0933 345.6641L532.5666 343.1018L529.0399 345.6641L530.38696 341.51822L526.8603 338.9559L531.21954 338.9559Z" fill-rule="nonzero"/><path fill="#ea4335" clip-path="url(#id_0)" d="M976.3659 334.81L977.713 338.9559L982.07227 338.9559L978.54553 341.51822L979.89264 345.6641L976.3659 343.1018L972.8392 345.6641L974.1863 341.51822L970.65955 338.9559L975.0188 338.9559Z" fill-rule="nonzero"/><path fill="#fbbc04" clip-path="url(#id_0)" d="M89.63409 140.255L90.98117 144.4009L95.34042 144.4009L91.81371 146.96321L93.1608 151.1091L89.63409 148.5468L86.107376 151.1091L87.45446 146.96321L83.92775 144.4009L88.287 144.4009Z" fill-rule="nonzero"/><path fill="#fbbc04" clip-path="url(#id_0)" d="M90.500885 228.765L91.84797 232.9109L96.20722 232.9109L92.68051 235.4732L94.027596 239.6191L90.500885 237.0568L86.974174 239.6191L88.32126 235.4732L84.79454 232.9109L89.1538 232.9109Z" fill-rule="nonzero"/><path fill="#fbbc04" clip-path="url(#id_0)" d="M92.234474 280.535L93.58156 284.6809L97.94081 284.6809L94.4141 287.2432L95.761185 291.3891L92.234474 288.82678L88.70776 291.3891L90.05485 287.2432L86.52814 284.6809L90.88739 284.6809Z" fill-rule="nonzero"/><path fill="#fbbc04" clip-path="url(#id_0)" d="M95.70165 308.09L97.04874 312.2359L101.408 312.2359L97.88129 314.79822L99.22837 318.9441L95.70165 316.3818L92.17494 318.9441L93.522026 314.79822L89.995316 312.2359L94.35457 312.2359Z" fill-rule="nonzero"/><path fill="#fbbc04" clip-path="url(#id_0)" d="M102.63602 308.925L103.9831 313.0709L108.34236 313.0709L104.81565 315.6332L106.162735 319.7791L102.63602 317.2168L99.10931 319.7791L100.45639 315.6332L96.92968 313.0709L101.28893 313.0709Z" fill-rule="nonzero"/><path fill="#fbbc04" clip-path="url(#id_0)" d="M116.504745 308.925L117.85183 313.0709L122.21109 313.0709L118.68438 315.6332L120.03146 319.7791L116.504745 317.2168L112.978035 319.7791L114.32512 315.6332L110.79841 313.0709L115.15766 313.0709Z" fill-rule="nonzero"/><path fill="#fbbc04" clip-path="url(#id_0)" d="M144.2422 308.925L145.5893 313.0709L149.94855 313.0709L146.42183 315.6332L147.76892 319.7791L144.2422 317.2168L140.7155 319.7791L142.06258 315.6332L138.53587 313.0709L142.89513 313.0709Z" fill-rule="nonzero"/><path fill="#fbbc04" clip-path="url(#id_0)" d="M199.71712 312.265L201.06421 316.4109L205.42346 316.4109L201.89674 318.9732L203.24384 323.1191L199.71712 320.5568L196.19041 323.1191L197.53749 318.9732L194.01077 316.4109L198.37004 316.4109Z" fill-rule="nonzero"/><path fill="#fbbc04" clip-path="url(#id_0)" d="M310.66696 310.595L312.01404 314.7409L316.3733 314.7409L312.8466 317.3032L314.19366 321.4491L310.66696 318.8868L307.14023 321.4491L308.4873 317.3032L304.9606 314.7409L309.31985 314.7409Z" fill-rule="nonzero"/><path fill="#fbbc04" clip-path="url(#id_0)" d="M532.5666 310.595L533.9137 314.7409L538.27295 314.7409L534.7462 317.3032L536.0933 321.4491L532.5666 318.8868L529.0399 321.4491L530.38696 317.3032L526.8603 314.7409L531.21954 314.7409Z" fill-rule="nonzero"/><path fill="#fbbc04" clip-path="url(#id_0)" d="M976.3659 309.76L977.713 313.90588L982.07227 313.90588L978.54553 316.4682L979.89264 320.6141L976.3659 318.0518L972.8392 320.6141L974.1863 316.4682L970.65955 313.90588L975.0188 313.90588Z" fill-rule="nonzero"/><path fill="#c9daf8" clip-path="url(#id_0)" d="M85.39145 122.80736L89.63409 125.55L93.876724 122.80736L91.13409 127.05L93.876724 131.29265L89.63409 128.55L85.39145 131.29265L88.13409 127.05Z" fill-rule="nonzero"/><path fill="#c9daf8" clip-path="url(#id_0)" d="M86.25824 122.80736L90.500885 125.55L94.74352 122.80736L92.000885 127.05L94.74352 131.29265L90.500885 128.55L86.25824 131.29265L89.000885 127.05Z" fill-rule="nonzero"/><path fill="#c9daf8" clip-path="url(#id_0)" d="M87.99184 126.98236L92.234474 129.725L96.47711 126.98236L93.734474 131.225L96.47711 135.46764L92.234474 132.725L87.99184 135.46764L90.734474 131.225Z" fill-rule="nonzero"/><path fill="#c9daf8" clip-path="url(#id_0)" d="M91.459015 126.14736L95.70165 128.89L99.9443 126.14736L97.20165 130.39L99.9443 134.63264L95.70165 131.89L91.459015 134.63264L94.20165 130.39Z" fill-rule="nonzero"/><path fill="#c9daf8" clip-path="url(#id_0)" d="M98.39338 124.477356L102.63602 127.22L106.87866 124.477356L104.13602 128.72L106.87866 132.96265L102.63602 130.22L98.39338 132.96265L101.13602 128.72Z" fill-rule="nonzero"/><path fill="#c9daf8" clip-path="url(#id_0)" d="M112.26211 141.17735L116.504745 143.92L120.74739 141.17735L118.004745 145.42L120.74739 149.66264L116.504745 146.92L112.26211 149.66264L115.004745 145.42Z" fill-rule="nonzero"/><path fill="#c9daf8" clip-path="url(#id_0)" d="M139.99956 184.59737L144.2422 187.34L148.48485 184.59737L145.7422 188.84L148.48485 193.08264L144.2422 190.34L139.99956 193.08264L142.7422 188.84Z" fill-rule="nonzero"/><path fill="#c9daf8" clip-path="url(#id_0)" d="M195.47447 259.74734L199.71712 262.49L203.95976 259.74734L201.21712 263.99L203.95976 268.23264L199.71712 265.49L195.47447 268.23264L198.21712 263.99Z" fill-rule="nonzero"/><path fill="#c9daf8" clip-path="url(#id_0)" d="M306.42432 294.81735L310.66696 297.56L314.90958 294.81735L312.16696 299.06L314.90958 303.30264L310.66696 300.56L306.42432 303.30264L309.16696 299.06Z" fill-rule="nonzero"/><path fill="#c9daf8" clip-path="url(#id_0)" d="M528.324 300.66235L532.5666 303.405L536.80927 300.66235L534.0666 304.905L536.80927 309.14764L532.5666 306.405L528.324 309.14764L531.0666 304.905Z" fill-rule="nonzero"/><path fill="#c9daf8" clip-path="url(#id_0)" d="M972.1233 298.99237L976.3659 301.735L980.6086 298.99237L977.8659 303.235L980.6086 307.47763L976.3659 304.735L972.1233 307.47763L974.8659 303.235Z" fill-rule="nonzero"/><path fill="#000000" d="M505.375 393.15L505.375 384.55624L508.60938 384.55624Q509.59375 384.55624 510.1875 384.82187Q510.78125 385.0875 511.10938 385.63437Q511.45312 386.16562 511.45312 386.75937Q511.45312 387.30624 511.15625 387.79062Q510.85938 388.275 510.25 388.57187Q511.03125 388.80624 511.4375 389.36874Q511.85938 389.91562 511.85938 390.66562Q511.85938 391.25937 511.60938 391.79062Q511.35938 392.30624 510.98438 392.5875Q510.60938 392.86874 510.03125 393.00937Q509.46875 393.15 508.65625 393.15L505.375 393.15ZM506.51562 388.16562L508.375 388.16562Q509.125 388.16562 509.45312 388.07187Q509.89062 387.94687 510.10938 387.65Q510.32812 387.3375 510.32812 386.88437Q510.32812 386.4625 510.125 386.13437Q509.92188 385.80624 509.53125 385.69687Q509.15625 385.57187 508.23438 385.57187L506.51562 385.57187L506.51562 388.16562ZM506.51562 392.13437L508.65625 392.13437Q509.20312 392.13437 509.42188 392.0875Q509.82812 392.025 510.07812 391.86874Q510.34375 391.69687 510.51562 391.38437Q510.6875 391.07187 510.6875 390.66562Q510.6875 390.18124 510.4375 389.82187Q510.20312 389.4625 509.76562 389.32187Q509.32812 389.18124 508.5 389.18124L506.51562 389.18124L506.51562 392.13437ZM517.3594 392.38437Q516.7656 392.88437 516.21875 393.0875Q515.6875 393.29062 515.0625 393.29062Q514.03125 393.29062 513.4844 392.79062Q512.9375 392.29062 512.9375 391.50937Q512.9375 391.05624 513.1406 390.68124Q513.34375 390.29062 513.6875 390.07187Q514.03125 389.8375 514.4531 389.72812Q514.75 389.63437 515.3906 389.55624Q516.65625 389.41562 517.2656 389.19687Q517.2656 388.97812 517.2656 388.93124Q517.2656 388.275 516.96875 388.00937Q516.5625 387.66562 515.7656 387.66562Q515.03125 387.66562 514.6719 387.93124Q514.3125 388.18124 514.1406 388.8375L513.1094 388.69687Q513.25 388.04062 513.5781 387.63437Q513.90625 387.22812 514.5156 387.00937Q515.125 386.79062 515.9219 386.79062Q516.71875 386.79062 517.21875 386.97812Q517.71875 387.16562 517.9531 387.44687Q518.1875 387.72812 518.28125 388.16562Q518.3281 388.43124 518.3281 389.13437L518.3281 390.54062Q518.3281 392.00937 518.3906 392.4Q518.46875 392.79062 518.6719 393.15L517.5625 393.15Q517.40625 392.82187 517.3594 392.38437ZM517.2656 390.025Q516.6875 390.25937 515.5469 390.43124Q514.8906 390.525 514.625 390.65Q514.3594 390.75937 514.2031 390.97812Q514.0625 391.19687 514.0625 391.47812Q514.0625 391.9 514.375 392.18124Q514.7031 392.4625 515.3125 392.4625Q515.9219 392.4625 516.3906 392.19687Q516.875 391.93124 517.09375 391.4625Q517.2656 391.10312 517.2656 390.41562L517.2656 390.025ZM522.59375 392.2125L522.75 393.13437Q522.2969 393.22812 521.9531 393.22812Q521.375 393.22812 521.0625 393.05624Q520.75 392.86874 520.6094 392.57187Q520.4844 392.275 520.4844 391.32187L520.4844 387.74374L519.71875 387.74374L519.71875 386.93124L520.4844 386.93124L520.4844 385.38437L521.53125 384.75937L521.53125 386.93124L522.59375 386.93124L522.59375 387.74374L521.53125 387.74374L521.53125 391.38437Q521.53125 391.8375 521.5781 391.9625Q521.6406 392.0875 521.7656 392.16562Q521.8906 392.24374 522.125 392.24374Q522.3125 392.24374 522.59375 392.2125ZM527.3594 390.86874L528.3906 391.00937Q528.21875 392.07187 527.5156 392.68124Q526.8125 393.29062 525.7969 393.29062Q524.5156 393.29062 523.7344 392.4625Q522.96875 391.61874 522.96875 390.05624Q522.96875 389.05624 523.2969 388.30624Q523.6406 387.54062 524.3125 387.16562Q525.0 386.79062 525.8125 386.79062Q526.8125 386.79062 527.4531 387.30624Q528.1094 387.80624 528.2969 388.75937L527.2656 388.91562Q527.125 388.29062 526.75 387.97812Q526.375 387.65 525.84375 387.65Q525.0469 387.65 524.5469 388.22812Q524.0469 388.79062 524.0469 390.025Q524.0469 391.29062 524.53125 391.85312Q525.0156 392.41562 525.78125 392.41562Q526.40625 392.41562 526.8125 392.04062Q527.2344 391.66562 527.3594 390.86874ZM529.2969 393.15L529.2969 384.55624L530.34375 384.55624L530.34375 387.63437Q531.0781 386.79062 532.2031 386.79062Q532.90625 386.79062 533.40625 387.07187Q533.9219 387.3375 534.1406 387.82187Q534.3594 388.29062 534.3594 389.2125L534.3594 393.15L533.3125 393.15L533.3125 389.2125Q533.3125 388.41562 532.96875 388.05624Q532.625 387.69687 532.0 387.69687Q531.53125 387.69687 531.1094 387.94687Q530.7031 388.18124 530.5156 388.60312Q530.34375 389.00937 530.34375 389.74374L530.34375 393.15L529.2969 393.15ZM539.0469 390.38437L540.1094 390.29062Q540.1875 390.94687 540.46875 391.35312Q540.75 391.75937 541.3281 392.025Q541.9219 392.275 542.65625 392.275Q543.2969 392.275 543.7969 392.0875Q544.2969 391.88437 544.53125 391.55624Q544.78125 391.2125 544.78125 390.82187Q544.78125 390.41562 544.5469 390.11874Q544.3125 389.80624 543.78125 389.60312Q543.4219 389.4625 542.2344 389.18124Q541.0625 388.9 540.59375 388.65Q539.96875 388.32187 539.6719 387.85312Q539.375 387.36874 539.375 386.775Q539.375 386.13437 539.7344 385.57187Q540.1094 384.99374 540.8125 384.7125Q541.53125 384.41562 542.3906 384.41562Q543.34375 384.41562 544.0781 384.72812Q544.8125 385.025 545.2031 385.63437Q545.59375 386.22812 545.625 386.97812L544.53125 387.05624Q544.4375 386.24374 543.9219 385.8375Q543.4219 385.41562 542.4375 385.41562Q541.40625 385.41562 540.9375 385.79062Q540.46875 386.16562 540.46875 386.69687Q540.46875 387.16562 540.7969 387.4625Q541.125 387.75937 542.5 388.07187Q543.8906 388.38437 544.40625 388.61874Q545.15625 388.97812 545.5156 389.50937Q545.875 390.025 545.875 390.72812Q545.875 391.41562 545.4844 392.025Q545.09375 392.61874 544.3594 392.9625Q543.625 393.29062 542.7031 393.29062Q541.53125 393.29062 540.7344 392.9625Q539.9531 392.61874 539.5 391.93124Q539.0625 391.24374 539.0469 390.38437ZM547.2969 385.775L547.2969 384.55624L548.3594 384.55624L548.3594 385.775L547.2969 385.775ZM547.2969 393.15L547.2969 386.93124L548.3594 386.93124L548.3594 393.15L547.2969 393.15ZM549.7344 393.15L549.7344 392.29062L553.7031 387.74374Q553.0156 387.775 552.5 387.775L549.96875 387.775L549.96875 386.93124L555.0625 386.93124L555.0625 387.61874L551.6875 391.57187L551.03125 392.29062Q551.75 392.24374 552.3594 392.24374L555.25 392.24374L555.25 393.15L549.7344 393.15ZM559.5469 391.15L560.6406 391.275Q560.3906 392.22812 559.6875 392.75937Q558.9844 393.29062 557.90625 393.29062Q556.5469 393.29062 555.7344 392.44687Q554.9375 391.60312 554.9375 390.0875Q554.9375 388.525 555.75 387.66562Q556.5625 386.79062 557.84375 386.79062Q559.09375 386.79062 559.875 387.63437Q560.6719 388.47812 560.6719 390.025Q560.6719 390.11874 560.6719 390.30624L556.03125 390.30624Q556.09375 391.3375 556.6094 391.88437Q557.125 392.41562 557.90625 392.41562Q558.4844 392.41562 558.8906 392.11874Q559.3125 391.80624 559.5469 391.15ZM556.09375 389.44687L559.5625 389.44687Q559.5 388.65 559.1719 388.25937Q558.65625 387.65 557.8594 387.65Q557.125 387.65 556.625 388.13437Q556.1406 388.61874 556.09375 389.44687Z" fill-rule="nonzero"/><path fill="#000000" d="M29.08437 259.85312L28.99062 258.79062Q29.64687 258.7125 30.05312 258.43124Q30.45937 258.15 30.724995 257.57187Q30.974995 256.97812 30.974995 256.24374Q30.974995 255.60312 30.787495 255.10312Q30.58437 254.60312 30.256245 254.36874Q29.912495 254.11874 29.52187 254.11874Q29.11562 254.11874 28.818745 254.35312Q28.506245 254.5875 28.30312 255.11874Q28.162495 255.47812 27.881245 256.66562Q27.599995 257.8375 27.349995 258.30624Q27.02187 258.93124 26.55312 259.22812Q26.068745 259.525 25.474995 259.525Q24.83437 259.525 24.27187 259.16562Q23.693745 258.79062 23.412495 258.0875Q23.11562 257.36874 23.11562 256.50937Q23.11562 255.55624 23.42812 254.82187Q23.724995 254.0875 24.33437 253.69687Q24.92812 253.30624 25.67812 253.275L25.756245 254.36874Q24.943745 254.4625 24.537495 254.97812Q24.11562 255.47812 24.11562 256.4625Q24.11562 257.49374 24.49062 257.9625Q24.86562 258.43124 25.39687 258.43124Q25.86562 258.43124 26.162495 258.10312Q26.45937 257.775 26.77187 256.4Q27.08437 255.00937 27.318745 254.49374Q27.67812 253.74374 28.20937 253.38437Q28.724995 253.025 29.42812 253.025Q30.11562 253.025 30.724995 253.41562Q31.318745 253.80624 31.662495 254.54062Q31.99062 255.275 31.99062 256.19687Q31.99062 257.36874 31.662495 258.16562Q31.318745 258.94687 30.631245 259.4Q29.943745 259.8375 29.08437 259.85312ZM34.24062 251.60312L25.631245 251.60312L25.631245 250.65L26.42812 250.65Q25.95937 250.30624 25.724995 249.88437Q25.49062 249.44687 25.49062 248.8375Q25.49062 248.04062 25.89687 247.43124Q26.30312 246.82187 27.05312 246.525Q27.80312 246.2125 28.693745 246.2125Q29.64687 246.2125 30.412495 246.55624Q31.17812 246.88437 31.58437 247.54062Q31.99062 248.19687 31.99062 248.91562Q31.99062 249.44687 31.77187 249.86874Q31.537495 250.29062 31.20937 250.55624L34.24062 250.55624L34.24062 251.60312ZM28.77187 250.65Q29.974995 250.65 30.55312 250.16562Q31.11562 249.68124 31.11562 248.99374Q31.11562 248.29062 30.52187 247.79062Q29.92812 247.29062 28.67812 247.29062Q27.49062 247.29062 26.912495 247.775Q26.318745 248.25937 26.318745 248.94687Q26.318745 249.61874 26.943745 250.13437Q27.568745 250.65 28.77187 250.65ZM29.849995 240.35312L29.974995 239.25937Q30.92812 239.50937 31.45937 240.2125Q31.99062 240.91562 31.99062 241.99374Q31.99062 243.35312 31.14687 244.16562Q30.30312 244.9625 28.787495 244.9625Q27.224995 244.9625 26.36562 244.15Q25.49062 243.3375 25.49062 242.05624Q25.49062 240.80624 26.33437 240.025Q27.17812 239.22812 28.724995 239.22812Q28.818745 239.22812 29.006245 239.22812L29.006245 243.86874Q30.037495 243.80624 30.58437 243.29062Q31.11562 242.775 31.11562 241.99374Q31.11562 241.41562 30.818745 241.00937Q30.506245 240.5875 29.849995 240.35312ZM28.14687 243.80624L28.14687 240.3375Q27.349995 240.4 26.95937 240.72812Q26.349995 241.24374 26.349995 242.04062Q26.349995 242.775 26.83437 243.275Q27.318745 243.75937 28.14687 243.80624ZM29.849995 233.35312L29.974995 232.25937Q30.92812 232.50937 31.45937 233.2125Q31.99062 233.91562 31.99062 234.99374Q31.99062 236.35312 31.14687 237.16562Q30.30312 237.9625 28.787495 237.9625Q27.224995 237.9625 26.36562 237.15Q25.49062 236.3375 25.49062 235.05624Q25.49062 233.80624 26.33437 233.025Q27.17812 232.22812 28.724995 232.22812Q28.818745 232.22812 29.006245 232.22812L29.006245 236.86874Q30.037495 236.80624 30.58437 236.29062Q31.11562 235.775 31.11562 234.99374Q31.11562 234.41562 30.818745 234.00937Q30.506245 233.5875 29.849995 233.35312ZM28.14687 236.80624L28.14687 233.3375Q27.349995 233.4 26.95937 233.72812Q26.349995 234.24374 26.349995 235.04062Q26.349995 235.775 26.83437 236.275Q27.318745 236.75937 28.14687 236.80624ZM31.849995 226.57187L31.068745 226.57187Q31.99062 227.16562 31.99062 228.30624Q31.99062 229.05624 31.58437 229.68124Q31.162495 230.30624 30.42812 230.65Q29.693745 230.99374 28.74062 230.99374Q27.818745 230.99374 27.05312 230.68124Q26.287495 230.36874 25.89687 229.74374Q25.49062 229.11874 25.49062 228.35312Q25.49062 227.79062 25.724995 227.35312Q25.95937 226.91562 26.33437 226.63437L23.256245 226.63437L23.256245 225.5875L31.849995 225.5875L31.849995 226.57187ZM28.74062 229.9Q29.943745 229.9 30.537495 229.4Q31.11562 228.9 31.11562 228.2125Q31.11562 227.525 30.55312 227.04062Q29.99062 226.55624 28.83437 226.55624Q27.55312 226.55624 26.95937 227.05624Q26.36562 227.54062 26.36562 228.25937Q26.36562 228.9625 26.943745 229.43124Q27.506245 229.9 28.74062 229.9ZM29.27187 224.025L28.20937 224.025L28.20937 220.775L29.27187 220.775L29.27187 224.025ZM31.849995 215.525L30.92812 215.525Q31.99062 216.25937 31.99062 217.50937Q31.99062 218.05624 31.787495 218.54062Q31.568745 219.00937 31.256245 219.24374Q30.92812 219.47812 30.45937 219.57187Q30.162495 219.63437 29.474995 219.63437L25.631245 219.63437L25.631245 218.57187L29.08437 218.57187Q29.89687 218.57187 30.193745 218.50937Q30.599995 218.41562 30.849995 218.10312Q31.08437 217.775 31.08437 217.29062Q31.08437 216.82187 30.849995 216.41562Q30.599995 215.99374 30.17812 215.82187Q29.756245 215.63437 28.95937 215.63437L25.631245 215.63437L25.631245 214.5875L31.849995 214.5875L31.849995 215.525ZM34.24062 212.60312L25.631245 212.60312L25.631245 211.65L26.42812 211.65Q25.95937 211.30624 25.724995 210.88437Q25.49062 210.44687 25.49062 209.8375Q25.49062 209.04062 25.89687 208.43124Q26.30312 207.82187 27.05312 207.525Q27.80312 207.2125 28.693745 207.2125Q29.64687 207.2125 30.412495 207.55624Q31.17812 207.88437 31.58437 208.54062Q31.99062 209.19687 31.99062 209.91562Q31.99062 210.44687 31.77187 210.86874Q31.537495 211.29062 31.20937 211.55624L34.24062 211.55624L34.24062 212.60312ZM28.77187 211.65Q29.974995 211.65 30.55312 211.16562Q31.11562 210.68124 31.11562 209.99374Q31.11562 209.29062 30.52187 208.79062Q29.92812 208.29062 28.67812 208.29062Q27.49062 208.29062 26.912495 208.775Q26.318745 209.25937 26.318745 209.94687Q26.318745 210.61874 26.943745 211.13437Q27.568745 211.65 28.77187 211.65ZM34.381245 200.5875Q33.27187 201.4625 31.80312 202.07187Q30.318745 202.66562 28.74062 202.66562Q27.349995 202.66562 26.068745 202.22812Q24.58437 201.69687 23.11562 200.5875L23.11562 199.8375Q24.33437 200.54062 24.849995 200.775Q25.662495 201.13437 26.537495 201.3375Q27.631245 201.5875 28.74062 201.5875Q31.568745 201.5875 34.381245 199.8375L34.381245 200.5875ZM31.849995 199.30624L28.61562 197.04062L25.631245 199.13437L25.631245 197.82187L27.08437 196.86874Q27.506245 196.60312 27.787495 196.43124Q27.39687 196.18124 27.099995 195.9625L25.631245 194.91562L25.631245 193.65L28.55312 195.80624L31.849995 193.49374L31.849995 194.775L29.912495 196.05624L29.39687 196.4L31.849995 198.04062L31.849995 199.30624ZM34.381245 192.91562L34.381245 193.66562Q31.568745 191.91562 28.74062 191.91562Q27.64687 191.91562 26.55312 192.16562Q25.67812 192.36874 24.86562 192.72812Q24.349995 192.9625 23.11562 193.66562L23.11562 192.91562Q24.58437 191.82187 26.068745 191.29062Q27.349995 190.8375 28.74062 190.8375Q30.318745 190.8375 31.80312 191.44687Q33.27187 192.05624 34.381245 192.91562Z" fill-rule="nonzero"/><path fill="#000000" d="M67.35 343.91562Q67.35 342.38437 67.6625 341.4625Q67.975 340.525 68.58437 340.025Q69.20937 339.525 70.14687 339.525Q70.83437 339.525 71.35 339.80624Q71.88125 340.0875 72.225 340.61874Q72.56875 341.13437 72.75625 341.88437Q72.94375 342.63437 72.94375 343.91562Q72.94375 345.43124 72.63125 346.35312Q72.33437 347.275 71.70937 347.79062Q71.1 348.29062 70.14687 348.29062Q68.9125 348.29062 68.19375 347.4Q67.35 346.3375 67.35 343.91562ZM68.42812 343.91562Q68.42812 346.025 68.92812 346.72812Q69.42812 347.43124 70.14687 347.43124Q70.88125 347.43124 71.36562 346.72812Q71.86562 346.025 71.86562 343.91562Q71.86562 341.79062 71.36562 341.10312Q70.88125 340.4 70.13125 340.4Q69.4125 340.4 68.975 341.00937Q68.42812 341.79062 68.42812 343.91562Z" fill-rule="nonzero"/><path fill="#000000" d="M71.31875 264.65L70.27187 264.65L70.27187 257.93124Q69.88125 258.29062 69.25625 258.66562Q68.64687 259.025 68.1625 259.19687L68.1625 258.18124Q69.0375 257.75937 69.69375 257.18124Q70.36562 256.5875 70.64687 256.025L71.31875 256.025L71.31875 264.65Z" fill-rule="nonzero"/><path fill="#000000" d="M72.89687 180.13437L72.89687 181.15L67.20937 181.15Q67.20937 180.775 67.33437 180.41562Q67.55312 179.8375 68.02187 179.275Q68.50625 178.7125 69.4125 177.97812Q70.81875 176.82187 71.30312 176.15Q71.80312 175.47812 71.80312 174.88437Q71.80312 174.25937 71.35 173.8375Q70.89687 173.4 70.17812 173.4Q69.4125 173.4 68.95937 173.85312Q68.50625 174.30624 68.49062 175.11874L67.4125 175.00937Q67.52187 173.79062 68.24062 173.16562Q68.975 172.525 70.20937 172.525Q71.44375 172.525 72.1625 173.2125Q72.88125 173.9 72.88125 174.91562Q72.88125 175.43124 72.6625 175.93124Q72.45937 176.41562 71.95937 176.97812Q71.475 177.525 70.35 178.47812Q69.39687 179.275 69.11562 179.57187Q68.85 179.85312 68.67812 180.13437L72.89687 180.13437Z" fill-rule="nonzero"/><path fill="#000000" d="M67.35 95.38438L68.4125 95.24375Q68.58437 96.13438 69.02187 96.54063Q69.45937 96.93125 70.08437 96.93125Q70.83437 96.93125 71.35 96.41563Q71.86562 95.9 71.86562 95.13438Q71.86562 94.41563 71.38125 93.94688Q70.9125 93.4625 70.17812 93.4625Q69.88125 93.4625 69.42812 93.5875L69.55312 92.65Q69.6625 92.66563 69.725 92.66563Q70.39687 92.66563 70.92812 92.32188Q71.475 91.9625 71.475 91.22813Q71.475 90.65 71.08437 90.275Q70.69375 89.88438 70.06875 89.88438Q69.45937 89.88438 69.0375 90.275Q68.63125 90.66563 68.52187 91.43125L67.45937 91.24375Q67.64687 90.19688 68.33437 89.61875Q69.02187 89.025 70.0375 89.025Q70.74062 89.025 71.33437 89.3375Q71.92812 89.63438 72.24062 90.15Q72.55312 90.66563 72.55312 91.25938Q72.55312 91.80625 72.25625 92.275Q71.95937 92.72813 71.38125 92.99375Q72.13125 93.16563 72.55312 93.72813Q72.975 94.275 72.975 95.11875Q72.975 96.24375 72.14687 97.025Q71.33437 97.80625 70.08437 97.80625Q68.95937 97.80625 68.20937 97.13438Q67.45937 96.44688 67.35 95.38438Z" fill-rule="nonzero"/><path fill="#000000" d="M85.76729 356.91562Q85.76729 355.38437 86.07979 354.4625Q86.39229 353.525 87.00166 353.025Q87.62666 352.525 88.56416 352.525Q89.25166 352.525 89.76729 352.80624Q90.29854 353.0875 90.64229 353.61874Q90.98604 354.13437 91.17354 354.88437Q91.36104 355.63437 91.36104 356.91562Q91.36104 358.43124 91.04854 359.35312Q90.75166 360.275 90.12666 360.79062Q89.51729 361.29062 88.56416 361.29062Q87.32979 361.29062 86.61104 360.4Q85.76729 359.3375 85.76729 356.91562ZM86.84541 356.91562Q86.84541 359.025 87.34541 359.72812Q87.84541 360.43124 88.56416 360.43124Q89.29854 360.43124 89.78291 359.72812Q90.28291 359.025 90.28291 356.91562Q90.28291 354.79062 89.78291 354.10312Q89.29854 353.4 88.54854 353.4Q87.82979 353.4 87.39229 354.00937Q86.84541 354.79062 86.84541 356.91562Z" fill-rule="nonzero"/><path fill="#000000" d="M301.01306 360.13437L301.01306 361.15L295.32556 361.15Q295.32556 360.775 295.45056 360.41562Q295.6693 359.8375 296.13806 359.275Q296.62244 358.7125 297.5287 357.97812Q298.93494 356.82187 299.4193 356.15Q299.9193 355.47812 299.9193 354.88437Q299.9193 354.25937 299.4662 353.8375Q299.01306 353.4 298.2943 353.4Q297.5287 353.4 297.07556 353.85312Q296.62244 354.30624 296.6068 355.11874L295.5287 355.00937Q295.63806 353.79062 296.3568 353.16562Q297.0912 352.525 298.32556 352.525Q299.55994 352.525 300.2787 353.2125Q300.99744 353.9 300.99744 354.91562Q300.99744 355.43124 300.7787 355.93124Q300.57556 356.41562 300.07556 356.97812Q299.5912 357.525 298.4662 358.47812Q297.51306 359.275 297.2318 359.57187Q296.9662 359.85312 296.7943 360.13437L301.01306 360.13437ZM302.4662 358.9L303.57556 358.80624Q303.70056 359.61874 304.13806 360.025Q304.5912 360.43124 305.2318 360.43124Q305.9818 360.43124 306.51306 359.85312Q307.0443 359.275 307.0443 358.3375Q307.0443 357.43124 306.5287 356.91562Q306.0287 356.38437 305.20056 356.38437Q304.70056 356.38437 304.2787 356.61874Q303.87244 356.85312 303.63806 357.2125L302.6537 357.0875L303.4818 352.68124L307.76306 352.68124L307.76306 353.68124L304.32556 353.68124L303.87244 355.99374Q304.63806 355.44687 305.4818 355.44687Q306.6068 355.44687 307.37244 356.22812Q308.1537 357.00937 308.1537 358.24374Q308.1537 359.4 307.4818 360.25937Q306.6537 361.29062 305.2318 361.29062Q304.05994 361.29062 303.30994 360.63437Q302.57556 359.97812 302.4662 358.9ZM309.4662 356.91562Q309.4662 355.38437 309.7787 354.4625Q310.0912 353.525 310.70056 353.025Q311.32556 352.525 312.26306 352.525Q312.95056 352.525 313.4662 352.80624Q313.99744 353.0875 314.3412 353.61874Q314.68494 354.13437 314.87244 354.88437Q315.05994 355.63437 315.05994 356.91562Q315.05994 358.43124 314.74744 359.35312Q314.45056 360.275 313.82556 360.79062Q313.2162 361.29062 312.26306 361.29062Q311.0287 361.29062 310.30994 360.4Q309.4662 359.3375 309.4662 356.91562ZM310.5443 356.91562Q310.5443 359.025 311.0443 359.72812Q311.5443 360.43124 312.26306 360.43124Q312.99744 360.43124 313.4818 359.72812Q313.9818 359.025 313.9818 356.91562Q313.9818 354.79062 313.4818 354.10312Q312.99744 353.4 312.24744 353.4Q311.5287 353.4 311.0912 354.00937Q310.5443 354.79062 310.5443 356.91562Z" fill-rule="nonzero"/><path fill="#000000" d="M512.16504 358.9L513.2744 358.80624Q513.3994 359.61874 513.8369 360.025Q514.29004 360.43124 514.93066 360.43124Q515.68066 360.43124 516.2119 359.85312Q516.74316 359.275 516.74316 358.3375Q516.74316 357.43124 516.22754 356.91562Q515.72754 356.38437 514.8994 356.38437Q514.3994 356.38437 513.97754 356.61874Q513.5713 356.85312 513.3369 357.2125L512.35254 357.0875L513.18066 352.68124L517.4619 352.68124L517.4619 353.68124L514.0244 353.68124L513.5713 355.99374Q514.3369 355.44687 515.18066 355.44687Q516.30566 355.44687 517.0713 356.22812Q517.85254 357.00937 517.85254 358.24374Q517.85254 359.4 517.18066 360.25937Q516.35254 361.29062 514.93066 361.29062Q513.7588 361.29062 513.0088 360.63437Q512.2744 359.97812 512.16504 358.9ZM519.16504 356.91562Q519.16504 355.38437 519.47754 354.4625Q519.79004 353.525 520.3994 353.025Q521.0244 352.525 521.9619 352.525Q522.6494 352.525 523.16504 352.80624Q523.6963 353.0875 524.04004 353.61874Q524.3838 354.13437 524.5713 354.88437Q524.7588 355.63437 524.7588 356.91562Q524.7588 358.43124 524.4463 359.35312Q524.1494 360.275 523.5244 360.79062Q522.91504 361.29062 521.9619 361.29062Q520.72754 361.29062 520.0088 360.4Q519.16504 359.3375 519.16504 356.91562ZM520.24316 356.91562Q520.24316 359.025 520.74316 359.72812Q521.24316 360.43124 521.9619 360.43124Q522.6963 360.43124 523.18066 359.72812Q523.68066 359.025 523.68066 356.91562Q523.68066 354.79062 523.18066 354.10312Q522.6963 353.4 521.9463 353.4Q521.22754 353.4 520.79004 354.00937Q520.24316 354.79062 520.24316 356.91562ZM526.16504 356.91562Q526.16504 355.38437 526.47754 354.4625Q526.79004 353.525 527.3994 353.025Q528.0244 352.525 528.9619 352.525Q529.6494 352.525 530.16504 352.80624Q530.6963 353.0875 531.04004 353.61874Q531.3838 354.13437 531.5713 354.88437Q531.7588 355.63437 531.7588 356.91562Q531.7588 358.43124 531.4463 359.35312Q531.1494 360.275 530.5244 360.79062Q529.91504 361.29062 528.9619 361.29062Q527.72754 361.29062 527.0088 360.4Q526.16504 359.3375 526.16504 356.91562ZM527.24316 356.91562Q527.24316 359.025 527.74316 359.72812Q528.24316 360.43124 528.9619 360.43124Q529.6963 360.43124 530.18066 359.72812Q530.68066 359.025 530.68066 356.91562Q530.68066 354.79062 530.18066 354.10312Q529.6963 353.4 528.9463 353.4Q528.22754 353.4 527.79004 354.00937Q527.24316 354.79062 527.24316 356.91562Z" fill-rule="nonzero"/><path fill="#000000" d="M728.92645 353.68124L728.92645 352.66562L734.48895 352.66562L734.48895 353.49374Q733.67645 354.36874 732.86395 355.82187Q732.0671 357.25937 731.6296 358.79062Q731.30145 359.86874 731.2233 361.15L730.1296 361.15Q730.1452 360.13437 730.5202 358.69687Q730.9108 357.25937 731.61395 355.93124Q732.3327 354.60312 733.1452 353.68124L728.92645 353.68124ZM735.86395 358.9L736.9733 358.80624Q737.0983 359.61874 737.5358 360.025Q737.98895 360.43124 738.6296 360.43124Q739.3796 360.43124 739.9108 359.85312Q740.4421 359.275 740.4421 358.3375Q740.4421 357.43124 739.92645 356.91562Q739.42645 356.38437 738.5983 356.38437Q738.0983 356.38437 737.67645 356.61874Q737.2702 356.85312 737.0358 357.2125L736.05145 357.0875L736.8796 352.68124L741.1608 352.68124L741.1608 353.68124L737.7233 353.68124L737.2702 355.99374Q738.0358 355.44687 738.8796 355.44687Q740.0046 355.44687 740.7702 356.22812Q741.55145 357.00937 741.55145 358.24374Q741.55145 359.4 740.8796 360.25937Q740.05145 361.29062 738.6296 361.29062Q737.4577 361.29062 736.7077 360.63437Q735.9733 359.97812 735.86395 358.9ZM742.86395 356.91562Q742.86395 355.38437 743.17645 354.4625Q743.48895 353.525 744.0983 353.025Q744.7233 352.525 745.6608 352.525Q746.3483 352.525 746.86395 352.80624Q747.3952 353.0875 747.73895 353.61874Q748.0827 354.13437 748.2702 354.88437Q748.4577 355.63437 748.4577 356.91562Q748.4577 358.43124 748.1452 359.35312Q747.8483 360.275 747.2233 360.79062Q746.61395 361.29062 745.6608 361.29062Q744.42645 361.29062 743.7077 360.4Q742.86395 359.3375 742.86395 356.91562ZM743.9421 356.91562Q743.9421 359.025 744.4421 359.72812Q744.9421 360.43124 745.6608 360.43124Q746.3952 360.43124 746.8796 359.72812Q747.3796 359.025 747.3796 356.91562Q747.3796 354.79062 746.8796 354.10312Q746.3952 353.4 745.6452 353.4Q744.92645 353.4 744.48895 354.00937Q743.9421 354.79062 743.9421 356.91562Z" fill-rule="nonzero"/><path fill="#000000" d="M946.03156 361.15L944.9847 361.15L944.9847 354.43124Q944.59406 354.79062 943.96906 355.16562Q943.3597 355.525 942.8753 355.69687L942.8753 354.68124Q943.7503 354.25937 944.40656 353.68124Q945.0784 353.0875 945.3597 352.525L946.03156 352.525L946.03156 361.15ZM949.0628 356.91562Q949.0628 355.38437 949.3753 354.4625Q949.6878 353.525 950.2972 353.025Q950.9222 352.525 951.8597 352.525Q952.5472 352.525 953.0628 352.80624Q953.59406 353.0875 953.9378 353.61874Q954.28156 354.13437 954.46906 354.88437Q954.65656 355.63437 954.65656 356.91562Q954.65656 358.43124 954.34406 359.35312Q954.0472 360.275 953.4222 360.79062Q952.8128 361.29062 951.8597 361.29062Q950.6253 361.29062 949.90656 360.4Q949.0628 359.3375 949.0628 356.91562ZM950.1409 356.91562Q950.1409 359.025 950.6409 359.72812Q951.1409 360.43124 951.8597 360.43124Q952.59406 360.43124 953.0784 359.72812Q953.5784 359.025 953.5784 356.91562Q953.5784 354.79062 953.0784 354.10312Q952.59406 353.4 951.84406 353.4Q951.1253 353.4 950.6878 354.00937Q950.1409 354.79062 950.1409 356.91562ZM956.0628 356.91562Q956.0628 355.38437 956.3753 354.4625Q956.6878 353.525 957.2972 353.025Q957.9222 352.525 958.8597 352.525Q959.5472 352.525 960.0628 352.80624Q960.59406 353.0875 960.9378 353.61874Q961.28156 354.13437 961.46906 354.88437Q961.65656 355.63437 961.65656 356.91562Q961.65656 358.43124 961.34406 359.35312Q961.0472 360.275 960.4222 360.79062Q959.8128 361.29062 958.8597 361.29062Q957.6253 361.29062 956.90656 360.4Q956.0628 359.3375 956.0628 356.91562ZM957.1409 356.91562Q957.1409 359.025 957.6409 359.72812Q958.1409 360.43124 958.8597 360.43124Q959.59406 360.43124 960.0784 359.72812Q960.5784 359.025 960.5784 356.91562Q960.5784 354.79062 960.0784 354.10312Q959.59406 353.4 958.84406 353.4Q958.1253 353.4 957.6878 354.00937Q957.1409 354.79062 957.1409 356.91562ZM963.0628 356.91562Q963.0628 355.38437 963.3753 354.4625Q963.6878 353.525 964.2972 353.025Q964.9222 352.525 965.8597 352.525Q966.5472 352.525 967.0628 352.80624Q967.59406 353.0875 967.9378 353.61874Q968.28156 354.13437 968.46906 354.88437Q968.65656 355.63437 968.65656 356.91562Q968.65656 358.43124 968.34406 359.35312Q968.0472 360.275 967.4222 360.79062Q966.8128 361.29062 965.8597 361.29062Q964.6253 361.29062 963.90656 360.4Q963.0628 359.3375 963.0628 356.91562ZM964.1409 356.91562Q964.1409 359.025 964.6409 359.72812Q965.1409 360.43124 965.8597 360.43124Q966.59406 360.43124 967.0784 359.72812Q967.5784 359.025 967.5784 356.91562Q967.5784 354.79062 967.0784 354.10312Q966.59406 353.4 965.84406 353.4Q965.1253 353.4 964.6878 354.00937Q964.1409 354.79062 964.1409 356.91562Z" fill-rule="nonzero"/><path fill="#6aa84f" d="M258.5 59.75L259.84708 63.895897L264.20633 63.895897L260.67963 66.458206L262.0267 70.6041L258.5 68.041794L254.97328 70.6041L256.32037 66.458206L252.79366 63.895897L257.15292 63.895897Z" fill-rule="nonzero"/><path fill="#1a1a1a" d="M277.45312 66.375L277.45312 65.375L281.07812 65.359375L281.07812 68.546875Q280.25 69.21875 279.35938 69.5625Q278.46875 69.890625 277.53125 69.890625Q276.26562 69.890625 275.21875 69.359375Q274.1875 68.8125 273.65625 67.796875Q273.14062 66.765625 273.14062 65.5Q273.14062 64.234375 273.65625 63.15625Q274.1875 62.0625 275.17188 61.546875Q276.15625 61.015625 277.4375 61.015625Q278.375 61.015625 279.125 61.3125Q279.875 61.609375 280.29688 62.15625Q280.73438 62.6875 280.95312 63.5625L279.9375 63.84375Q279.73438 63.1875 279.4375 62.8125Q279.15625 62.4375 278.625 62.21875Q278.09375 61.984375 277.45312 61.984375Q276.67188 61.984375 276.09375 62.21875Q275.53125 62.453125 275.17188 62.84375Q274.82812 63.234375 274.64062 63.703125Q274.3125 64.5 274.3125 65.421875Q274.3125 66.578125 274.70312 67.359375Q275.10938 68.125 275.85938 68.5Q276.60938 68.875 277.46875 68.875Q278.20312 68.875 278.90625 68.59375Q279.60938 68.296875 279.96875 67.984375L279.96875 66.375L277.45312 66.375ZM286.54688 67.75L287.64062 67.875Q287.39062 68.828125 286.6875 69.359375Q285.98438 69.890625 284.90625 69.890625Q283.54688 69.890625 282.73438 69.046875Q281.9375 68.203125 281.9375 66.6875Q281.9375 65.125 282.75 64.265625Q283.5625 63.390625 284.84375 63.390625Q286.09375 63.390625 286.875 64.234375Q287.67188 65.078125 287.67188 66.625Q287.67188 66.71875 287.67188 66.90625L283.03125 66.90625Q283.09375 67.9375 283.60938 68.484375Q284.125 69.015625 284.90625 69.015625Q285.48438 69.015625 285.89062 68.71875Q286.3125 68.40625 286.54688 67.75ZM283.09375 66.046875L286.5625 66.046875Q286.5 65.25 286.17188 64.859375Q285.65625 64.25 284.85938 64.25Q284.125 64.25 283.625 64.734375Q283.14062 65.21875 283.09375 66.046875ZM289.29688 69.75L289.29688 63.53125L290.23438 63.53125L290.23438 64.40625Q290.53125 63.9375 291.01562 63.671875Q291.5 63.390625 292.125 63.390625Q292.8125 63.390625 293.25 63.671875Q293.70312 63.953125 293.875 64.46875Q294.625 63.390625 295.79688 63.390625Q296.73438 63.390625 297.21875 63.90625Q297.71875 64.40625 297.71875 65.484375L297.71875 69.75L296.67188 69.75L296.67188 65.828125Q296.67188 65.203125 296.5625 64.921875Q296.46875 64.640625 296.20312 64.46875Q295.9375 64.296875 295.5625 64.296875Q294.90625 64.296875 294.46875 64.734375Q294.04688 65.171875 294.04688 66.140625L294.04688 69.75L292.98438 69.75L292.98438 65.703125Q292.98438 65.0 292.71875 64.65625Q292.46875 64.296875 291.89062 64.296875Q291.4375 64.296875 291.0625 64.53125Q290.6875 64.765625 290.51562 65.21875Q290.34375 65.671875 290.34375 66.515625L290.34375 69.75L289.29688 69.75ZM300.375 69.75L300.375 61.15625L301.51562 61.15625L301.51562 68.734375L305.75 68.734375L305.75 69.75L300.375 69.75ZM307.29688 62.375L307.29688 61.15625L308.35938 61.15625L308.35938 62.375L307.29688 62.375ZM307.29688 69.75L307.29688 63.53125L308.35938 63.53125L308.35938 69.75L307.29688 69.75ZM312.59375 68.8125L312.75 69.734375Q312.29688 69.828125 311.95312 69.828125Q311.375 69.828125 311.0625 69.65625Q310.75 69.46875 310.60938 69.171875Q310.48438 68.875 310.48438 67.921875L310.48438 64.34375L309.71875 64.34375L309.71875 63.53125L310.48438 63.53125L310.48438 61.984375L311.53125 61.359375L311.53125 63.53125L312.59375 63.53125L312.59375 64.34375L311.53125 64.34375L311.53125 67.984375Q311.53125 68.4375 311.57812 68.5625Q311.64062 68.6875 311.76562 68.765625Q311.89062 68.84375 312.125 68.84375Q312.3125 68.84375 312.59375 68.8125ZM317.54688 67.75L318.64062 67.875Q318.39062 68.828125 317.6875 69.359375Q316.98438 69.890625 315.90625 69.890625Q314.54688 69.890625 313.73438 69.046875Q312.9375 68.203125 312.9375 66.6875Q312.9375 65.125 313.75 64.265625Q314.5625 63.390625 315.84375 63.390625Q317.09375 63.390625 317.875 64.234375Q318.67188 65.078125 318.67188 66.625Q318.67188 66.71875 318.67188 66.90625L314.03125 66.90625Q314.09375 67.9375 314.60938 68.484375Q315.125 69.015625 315.90625 69.015625Q316.48438 69.015625 316.89062 68.71875Q317.3125 68.40625 317.54688 67.75ZM314.09375 66.046875L317.5625 66.046875Q317.5 65.25 317.17188 64.859375Q316.65625 64.25 315.85938 64.25Q315.125 64.25 314.625 64.734375Q314.14062 65.21875 314.09375 66.046875ZM319.875 67.171875L319.875 66.109375L323.125 66.109375L323.125 67.171875L319.875 67.171875ZM326.60938 69.75L326.60938 62.171875L323.78125 62.171875L323.78125 61.15625L330.59375 61.15625L330.59375 62.171875L327.75 62.171875L327.75 69.75L326.60938 69.75ZM331.28125 69.75L331.28125 63.53125L332.23438 63.53125L332.23438 64.46875Q332.59375 63.8125 332.89062 63.609375Q333.20312 63.390625 333.57812 63.390625Q334.10938 63.390625 334.65625 63.71875L334.29688 64.703125Q333.90625 64.46875 333.53125 64.46875Q333.17188 64.46875 332.89062 64.6875Q332.625 64.890625 332.51562 65.265625Q332.32812 65.828125 332.32812 66.484375L332.32812 69.75L331.28125 69.75ZM335.29688 62.375L335.29688 61.15625L336.35938 61.15625L336.35938 62.375L335.29688 62.375ZM335.29688 69.75L335.29688 63.53125L336.35938 63.53125L336.35938 69.75L335.29688 69.75ZM340.59375 68.8125L340.75 69.734375Q340.29688 69.828125 339.95312 69.828125Q339.375 69.828125 339.0625 69.65625Q338.75 69.46875 338.60938 69.171875Q338.48438 68.875 338.48438 67.921875L338.48438 64.34375L337.71875 64.34375L337.71875 63.53125L338.48438 63.53125L338.48438 61.984375L339.53125 61.359375L339.53125 63.53125L340.59375 63.53125L340.59375 64.34375L339.53125 64.34375L339.53125 67.984375Q339.53125 68.4375 339.57812 68.5625Q339.64062 68.6875 339.76562 68.765625Q339.89062 68.84375 340.125 68.84375Q340.3125 68.84375 340.59375 68.8125ZM340.90625 66.640625Q340.90625 64.90625 341.85938 64.078125Q342.65625 63.390625 343.8125 63.390625Q345.09375 63.390625 345.90625 64.234375Q346.73438 65.0625 346.73438 66.546875Q346.73438 67.75 346.375 68.4375Q346.01562 69.125 345.3125 69.515625Q344.625 69.890625 343.8125 69.890625Q342.51562 69.890625 341.70312 69.0625Q340.90625 68.21875 340.90625 66.640625ZM341.98438 66.640625Q341.98438 67.828125 342.5 68.421875Q343.03125 69.015625 343.8125 69.015625Q344.60938 69.015625 345.125 68.421875Q345.64062 67.828125 345.64062 66.609375Q345.64062 65.453125 345.10938 64.859375Q344.59375 64.265625 343.8125 64.265625Q343.03125 64.265625 342.5 64.859375Q341.98438 65.4375 341.98438 66.640625ZM348.29688 69.75L348.29688 63.53125L349.23438 63.53125L349.23438 64.40625Q349.92188 63.390625 351.21875 63.390625Q351.78125 63.390625 352.25 63.59375Q352.73438 63.796875 352.96875 64.125Q353.20312 64.453125 353.29688 64.890625Q353.34375 65.1875 353.34375 65.921875L353.34375 69.75L352.29688 69.75L352.29688 65.96875Q352.29688 65.3125 352.17188 65.0Q352.04688 64.6875 351.73438 64.5Q351.42188 64.296875 351.0 64.296875Q350.32812 64.296875 349.82812 64.734375Q349.34375 65.15625 349.34375 66.34375L349.34375 69.75L348.29688 69.75ZM360.3125 72.28125Q359.4375 71.171875 358.82812 69.703125Q358.23438 68.21875 358.23438 66.640625Q358.23438 65.25 358.67188 63.96875Q359.20312 62.484375 360.3125 61.015625L361.0625 61.015625Q360.35938 62.234375 360.125 62.75Q359.76562 63.5625 359.5625 64.4375Q359.3125 65.53125 359.3125 66.640625Q359.3125 69.46875 361.0625 72.28125L360.3125 72.28125ZM361.48438 69.75L364.78125 61.15625L366.0 61.15625L369.51562 69.75L368.23438 69.75L367.21875 67.140625L363.64062 67.140625L362.6875 69.75L361.48438 69.75ZM363.96875 66.21875L366.875 66.21875L365.98438 63.84375Q365.5625 62.765625 365.375 62.0625Q365.20312 62.890625 364.90625 63.703125L363.96875 66.21875ZM372.96875 69.75L371.92188 69.75L371.92188 63.03125Q371.53125 63.390625 370.90625 63.765625Q370.29688 64.125 369.8125 64.296875L369.8125 63.28125Q370.6875 62.859375 371.34375 62.28125Q372.01562 61.6875 372.29688 61.125L372.96875 61.125L372.96875 69.75ZM381.46875 63.265625L380.42188 63.34375Q380.28125 62.71875 380.03125 62.4375Q379.59375 61.984375 378.96875 61.984375Q378.46875 61.984375 378.07812 62.265625Q377.59375 62.640625 377.29688 63.34375Q377.01562 64.03125 377.0 65.3125Q377.375 64.734375 377.92188 64.453125Q378.48438 64.171875 379.09375 64.171875Q380.14062 64.171875 380.875 64.953125Q381.625 65.734375 381.625 66.953125Q381.625 67.765625 381.26562 68.46875Q380.92188 69.15625 380.3125 69.53125Q379.70312 69.890625 378.9375 69.890625Q377.60938 69.890625 376.78125 68.921875Q375.95312 67.953125 375.95312 65.734375Q375.95312 63.234375 376.875 62.109375Q377.67188 61.125 379.03125 61.125Q380.04688 61.125 380.6875 61.703125Q381.34375 62.265625 381.46875 63.265625ZM377.17188 66.96875Q377.17188 67.515625 377.39062 68.015625Q377.625 68.5 378.03125 68.765625Q378.45312 69.03125 378.92188 69.03125Q379.57812 69.03125 380.0625 68.5Q380.54688 67.953125 380.54688 67.03125Q380.54688 66.140625 380.0625 65.625Q379.59375 65.109375 378.875 65.109375Q378.15625 65.109375 377.65625 65.625Q377.17188 66.140625 377.17188 66.96875ZM383.98438 72.28125L383.23438 72.28125Q384.98438 69.46875 384.98438 66.640625Q384.98438 65.546875 384.73438 64.453125Q384.53125 63.578125 384.17188 62.765625Q383.9375 62.25 383.23438 61.015625L383.98438 61.015625Q385.07812 62.484375 385.60938 63.96875Q386.0625 65.25 386.0625 66.640625Q386.0625 68.21875 385.45312 69.703125Q384.84375 71.171875 383.98438 72.28125Z" fill-rule="nonzero"/><path fill="#ea4335" d="M408.5 59.75L409.84708 63.895897L414.20633 63.895897L410.67963 66.458206L412.0267 70.6041L408.5 68.041794L404.9733 70.6041L406.32037 66.458206L402.79367 63.895897L407.15292 63.895897Z" fill-rule="nonzero"/><path fill="#1a1a1a" d="M425.60938 69.75L425.60938 62.171875L422.78125 62.171875L422.78125 61.15625L429.59375 61.15625L429.59375 62.171875L426.75 62.171875L426.75 69.75L425.60938 69.75ZM429.90625 66.640625Q429.90625 64.90625 430.85938 64.078125Q431.65625 63.390625 432.8125 63.390625Q434.09375 63.390625 434.90625 64.234375Q435.73438 65.0625 435.73438 66.546875Q435.73438 67.75 435.375 68.4375Q435.01562 69.125 434.3125 69.515625Q433.625 69.890625 432.8125 69.890625Q431.51562 69.890625 430.70312 69.0625Q429.90625 68.21875 429.90625 66.640625ZM430.98438 66.640625Q430.98438 67.828125 431.5 68.421875Q432.03125 69.015625 432.8125 69.015625Q433.60938 69.015625 434.125 68.421875Q434.64062 67.828125 434.64062 66.609375Q434.64062 65.453125 434.10938 64.859375Q433.59375 64.265625 432.8125 64.265625Q432.03125 64.265625 431.5 64.859375Q430.98438 65.4375 430.98438 66.640625ZM437.28125 69.75L437.28125 63.53125L438.23438 63.53125L438.23438 64.46875Q438.59375 63.8125 438.89062 63.609375Q439.20312 63.390625 439.57812 63.390625Q440.10938 63.390625 440.65625 63.71875L440.29688 64.703125Q439.90625 64.46875 439.53125 64.46875Q439.17188 64.46875 438.89062 64.6875Q438.625 64.890625 438.51562 65.265625Q438.32812 65.828125 438.32812 66.484375L438.32812 69.75L437.28125 69.75ZM445.35938 67.46875L446.39062 67.609375Q446.21875 68.671875 445.51562 69.28125Q444.8125 69.890625 443.79688 69.890625Q442.51562 69.890625 441.73438 69.0625Q440.96875 68.21875 440.96875 66.65625Q440.96875 65.65625 441.29688 64.90625Q441.64062 64.140625 442.3125 63.765625Q443.0 63.390625 443.8125 63.390625Q444.8125 63.390625 445.45312 63.90625Q446.10938 64.40625 446.29688 65.359375L445.26562 65.515625Q445.125 64.890625 444.75 64.578125Q444.375 64.25 443.84375 64.25Q443.04688 64.25 442.54688 64.828125Q442.04688 65.390625 442.04688 66.625Q442.04688 67.890625 442.53125 68.453125Q443.01562 69.015625 443.78125 69.015625Q444.40625 69.015625 444.8125 68.640625Q445.23438 68.265625 445.35938 67.46875ZM447.29688 69.75L447.29688 61.15625L448.34375 61.15625L448.34375 64.234375Q449.07812 63.390625 450.20312 63.390625Q450.90625 63.390625 451.40625 63.671875Q451.92188 63.9375 452.14062 64.421875Q452.35938 64.890625 452.35938 65.8125L452.35938 69.75L451.3125 69.75L451.3125 65.8125Q451.3125 65.015625 450.96875 64.65625Q450.625 64.296875 450.0 64.296875Q449.53125 64.296875 449.10938 64.546875Q448.70312 64.78125 448.51562 65.203125Q448.34375 65.609375 448.34375 66.34375L448.34375 69.75L447.29688 69.75ZM453.48438 69.75L456.78125 61.15625L458.0 61.15625L461.51562 69.75L460.23438 69.75L459.21875 67.140625L455.64062 67.140625L454.6875 69.75L453.48438 69.75ZM455.96875 66.21875L458.875 66.21875L457.98438 63.84375Q457.5625 62.765625 457.375 62.0625Q457.20312 62.890625 456.90625 63.703125L455.96875 66.21875ZM461.07812 65.5625Q461.07812 63.421875 462.21875 62.21875Q463.375 61.0 465.1875 61.0Q466.39062 61.0 467.34375 61.578125Q468.29688 62.140625 468.79688 63.15625Q469.29688 64.171875 469.29688 65.46875Q469.29688 66.765625 468.76562 67.796875Q468.23438 68.828125 467.26562 69.359375Q466.3125 69.890625 465.1875 69.890625Q463.96875 69.890625 463.01562 69.3125Q462.0625 68.71875 461.5625 67.71875Q461.07812 66.703125 461.07812 65.5625ZM462.25 65.578125Q462.25 67.140625 463.07812 68.03125Q463.92188 68.921875 465.1875 68.921875Q466.46875 68.921875 467.29688 68.03125Q468.125 67.125 468.125 65.453125Q468.125 64.40625 467.76562 63.625Q467.42188 62.84375 466.73438 62.421875Q466.04688 61.984375 465.20312 61.984375Q464.0 61.984375 463.125 62.8125Q462.25 63.640625 462.25 65.578125ZM475.3125 72.28125Q474.4375 71.171875 473.82812 69.703125Q473.23438 68.21875 473.23438 66.640625Q473.23438 65.25 473.67188 63.96875Q474.20312 62.484375 475.3125 61.015625L476.0625 61.015625Q475.35938 62.234375 475.125 62.75Q474.76562 63.5625 474.5625 64.4375Q474.3125 65.53125 474.3125 66.640625Q474.3125 69.46875 476.0625 72.28125L475.3125 72.28125ZM476.48438 69.75L479.78125 61.15625L481.0 61.15625L484.51562 69.75L483.23438 69.75L482.21875 67.140625L478.64062 67.140625L477.6875 69.75L476.48438 69.75ZM478.96875 66.21875L481.875 66.21875L480.98438 63.84375Q480.5625 62.765625 480.375 62.0625Q480.20312 62.890625 479.90625 63.703125L478.96875 66.21875ZM487.96875 69.75L486.92188 69.75L486.92188 63.03125Q486.53125 63.390625 485.90625 63.765625Q485.29688 64.125 484.8125 64.296875L484.8125 63.28125Q485.6875 62.859375 486.34375 62.28125Q487.01562 61.6875 487.29688 61.125L487.96875 61.125L487.96875 69.75ZM496.46875 63.265625L495.42188 63.34375Q495.28125 62.71875 495.03125 62.4375Q494.59375 61.984375 493.96875 61.984375Q493.46875 61.984375 493.07812 62.265625Q492.59375 62.640625 492.29688 63.34375Q492.01562 64.03125 492.0 65.3125Q492.375 64.734375 492.92188 64.453125Q493.48438 64.171875 494.09375 64.171875Q495.14062 64.171875 495.875 64.953125Q496.625 65.734375 496.625 66.953125Q496.625 67.765625 496.26562 68.46875Q495.92188 69.15625 495.3125 69.53125Q494.70312 69.890625 493.9375 69.890625Q492.60938 69.890625 491.78125 68.921875Q490.95312 67.953125 490.95312 65.734375Q490.95312 63.234375 491.875 62.109375Q492.67188 61.125 494.03125 61.125Q495.04688 61.125 495.6875 61.703125Q496.34375 62.265625 496.46875 63.265625ZM492.17188 66.96875Q492.17188 67.515625 492.39062 68.015625Q492.625 68.5 493.03125 68.765625Q493.45312 69.03125 493.92188 69.03125Q494.57812 69.03125 495.0625 68.5Q495.54688 67.953125 495.54688 67.03125Q495.54688 66.140625 495.0625 65.625Q494.59375 65.109375 493.875 65.109375Q493.15625 65.109375 492.65625 65.625Q492.17188 66.140625 492.17188 66.96875ZM498.98438 72.28125L498.23438 72.28125Q499.98438 69.46875 499.98438 66.640625Q499.98438 65.546875 499.73438 64.453125Q499.53125 63.578125 499.17188 62.765625Q498.9375 62.25 498.23438 61.015625L498.98438 61.015625Q500.07812 62.484375 500.60938 63.96875Q501.0625 65.25 501.0625 66.640625Q501.0625 68.21875 500.45312 69.703125Q499.84375 71.171875 498.98438 72.28125Z" fill-rule="nonzero"/><path fill="#fbbc04" d="M523.5 59.75L524.8471 63.895897L529.20636 63.895897L525.6796 66.458206L527.02673 70.6041L523.5 68.041794L519.97327 70.6041L521.3204 66.458206L517.79364 63.895897L522.1529 63.895897Z" fill-rule="nonzero"/><path fill="#1a1a1a" d="M538.375 69.75L538.375 61.15625L541.6094 61.15625Q542.59375 61.15625 543.1875 61.421875Q543.78125 61.6875 544.1094 62.234375Q544.4531 62.765625 544.4531 63.359375Q544.4531 63.90625 544.15625 64.390625Q543.8594 64.875 543.25 65.171875Q544.03125 65.40625 544.4375 65.96875Q544.8594 66.515625 544.8594 67.265625Q544.8594 67.859375 544.6094 68.390625Q544.3594 68.90625 543.9844 69.1875Q543.6094 69.46875 543.03125 69.609375Q542.46875 69.75 541.65625 69.75L538.375 69.75ZM539.5156 64.765625L541.375 64.765625Q542.125 64.765625 542.4531 64.671875Q542.8906 64.546875 543.1094 64.25Q543.3281 63.9375 543.3281 63.484375Q543.3281 63.0625 543.125 62.734375Q542.9219 62.40625 542.53125 62.296875Q542.15625 62.171875 541.2344 62.171875L539.5156 62.171875L539.5156 64.765625ZM539.5156 68.734375L541.65625 68.734375Q542.2031 68.734375 542.4219 68.6875Q542.8281 68.625 543.0781 68.46875Q543.34375 68.296875 543.5156 67.984375Q543.6875 67.671875 543.6875 67.265625Q543.6875 66.78125 543.4375 66.421875Q543.2031 66.0625 542.7656 65.921875Q542.3281 65.78125 541.5 65.78125L539.5156 65.78125L539.5156 68.734375ZM546.2969 62.375L546.2969 61.15625L547.3594 61.15625L547.3594 62.375L546.2969 62.375ZM546.2969 69.75L546.2969 63.53125L547.3594 63.53125L547.3594 69.75L546.2969 69.75ZM551.59375 68.8125L551.75 69.734375Q551.2969 69.828125 550.9531 69.828125Q550.375 69.828125 550.0625 69.65625Q549.75 69.46875 549.6094 69.171875Q549.4844 68.875 549.4844 67.921875L549.4844 64.34375L548.71875 64.34375L548.71875 63.53125L549.4844 63.53125L549.4844 61.984375L550.53125 61.359375L550.53125 63.53125L551.59375 63.53125L551.59375 64.34375L550.53125 64.34375L550.53125 67.984375Q550.53125 68.4375 550.5781 68.5625Q550.6406 68.6875 550.7656 68.765625Q550.8906 68.84375 551.125 68.84375Q551.3125 68.84375 551.59375 68.8125ZM552.375 69.75L552.375 61.15625L555.6094 61.15625Q556.59375 61.15625 557.1875 61.421875Q557.78125 61.6875 558.1094 62.234375Q558.4531 62.765625 558.4531 63.359375Q558.4531 63.90625 558.15625 64.390625Q557.8594 64.875 557.25 65.171875Q558.03125 65.40625 558.4375 65.96875Q558.8594 66.515625 558.8594 67.265625Q558.8594 67.859375 558.6094 68.390625Q558.3594 68.90625 557.9844 69.1875Q557.6094 69.46875 557.03125 69.609375Q556.46875 69.75 555.65625 69.75L552.375 69.75ZM553.5156 64.765625L555.375 64.765625Q556.125 64.765625 556.4531 64.671875Q556.8906 64.546875 557.1094 64.25Q557.3281 63.9375 557.3281 63.484375Q557.3281 63.0625 557.125 62.734375Q556.9219 62.40625 556.53125 62.296875Q556.15625 62.171875 555.2344 62.171875L553.5156 62.171875L553.5156 64.765625ZM553.5156 68.734375L555.65625 68.734375Q556.2031 68.734375 556.4219 68.6875Q556.8281 68.625 557.0781 68.46875Q557.34375 68.296875 557.5156 67.984375Q557.6875 67.671875 557.6875 67.265625Q557.6875 66.78125 557.4375 66.421875Q557.2031 66.0625 556.7656 65.921875Q556.3281 65.78125 555.5 65.78125L553.5156 65.78125L553.5156 68.734375ZM560.375 69.75L560.375 61.15625L561.5156 61.15625L561.5156 68.734375L565.75 68.734375L565.75 69.75L560.375 69.75ZM566.4844 69.75L569.78125 61.15625L571.0 61.15625L574.5156 69.75L573.2344 69.75L572.21875 67.140625L568.6406 67.140625L567.6875 69.75L566.4844 69.75ZM568.96875 66.21875L571.875 66.21875L570.9844 63.84375Q570.5625 62.765625 570.375 62.0625Q570.2031 62.890625 569.90625 63.703125L568.96875 66.21875ZM574.0469 66.984375L575.1094 66.890625Q575.1875 67.546875 575.46875 67.953125Q575.75 68.359375 576.3281 68.625Q576.9219 68.875 577.65625 68.875Q578.2969 68.875 578.7969 68.6875Q579.2969 68.484375 579.53125 68.15625Q579.78125 67.8125 579.78125 67.421875Q579.78125 67.015625 579.5469 66.71875Q579.3125 66.40625 578.78125 66.203125Q578.4219 66.0625 577.2344 65.78125Q576.0625 65.5 575.59375 65.25Q574.96875 64.921875 574.6719 64.453125Q574.375 63.96875 574.375 63.375Q574.375 62.734375 574.7344 62.171875Q575.1094 61.59375 575.8125 61.3125Q576.53125 61.015625 577.3906 61.015625Q578.34375 61.015625 579.0781 61.328125Q579.8125 61.625 580.2031 62.234375Q580.59375 62.828125 580.625 63.578125L579.53125 63.65625Q579.4375 62.84375 578.9219 62.4375Q578.4219 62.015625 577.4375 62.015625Q576.40625 62.015625 575.9375 62.390625Q575.46875 62.765625 575.46875 63.296875Q575.46875 63.765625 575.7969 64.0625Q576.125 64.359375 577.5 64.671875Q578.8906 64.984375 579.40625 65.21875Q580.15625 65.578125 580.5156 66.109375Q580.875 66.625 580.875 67.328125Q580.875 68.015625 580.4844 68.625Q580.09375 69.21875 579.3594 69.5625Q578.625 69.890625 577.7031 69.890625Q576.53125 69.890625 575.7344 69.5625Q574.9531 69.21875 574.5 68.53125Q574.0625 67.84375 574.0469 66.984375ZM587.3125 72.28125Q586.4375 71.171875 585.8281 69.703125Q585.2344 68.21875 585.2344 66.640625Q585.2344 65.25 585.6719 63.96875Q586.2031 62.484375 587.3125 61.015625L588.0625 61.015625Q587.3594 62.234375 587.125 62.75Q586.7656 63.5625 586.5625 64.4375Q586.3125 65.53125 586.3125 66.640625Q586.3125 69.46875 588.0625 72.28125L587.3125 72.28125ZM588.4844 69.75L591.78125 61.15625L593.0 61.15625L596.5156 69.75L595.2344 69.75L594.21875 67.140625L590.6406 67.140625L589.6875 69.75L588.4844 69.75ZM590.96875 66.21875L593.875 66.21875L592.9844 63.84375Q592.5625 62.765625 592.375 62.0625Q592.2031 62.890625 591.90625 63.703125L590.96875 66.21875ZM599.96875 69.75L598.9219 69.75L598.9219 63.03125Q598.53125 63.390625 597.90625 63.765625Q597.2969 64.125 596.8125 64.296875L596.8125 63.28125Q597.6875 62.859375 598.34375 62.28125Q599.0156 61.6875 599.2969 61.125L599.96875 61.125L599.96875 69.75ZM608.46875 63.265625L607.4219 63.34375Q607.28125 62.71875 607.03125 62.4375Q606.59375 61.984375 605.96875 61.984375Q605.46875 61.984375 605.0781 62.265625Q604.59375 62.640625 604.2969 63.34375Q604.0156 64.03125 604.0 65.3125Q604.375 64.734375 604.9219 64.453125Q605.4844 64.171875 606.09375 64.171875Q607.1406 64.171875 607.875 64.953125Q608.625 65.734375 608.625 66.953125Q608.625 67.765625 608.2656 68.46875Q607.9219 69.15625 607.3125 69.53125Q606.7031 69.890625 605.9375 69.890625Q604.6094 69.890625 603.78125 68.921875Q602.9531 67.953125 602.9531 65.734375Q602.9531 63.234375 603.875 62.109375Q604.6719 61.125 606.03125 61.125Q607.0469 61.125 607.6875 61.703125Q608.34375 62.265625 608.46875 63.265625ZM604.1719 66.96875Q604.1719 67.515625 604.3906 68.015625Q604.625 68.5 605.03125 68.765625Q605.4531 69.03125 605.9219 69.03125Q606.5781 69.03125 607.0625 68.5Q607.5469 67.953125 607.5469 67.03125Q607.5469 66.140625 607.0625 65.625Q606.59375 65.109375 605.875 65.109375Q605.15625 65.109375 604.65625 65.625Q604.1719 66.140625 604.1719 66.96875ZM610.9844 72.28125L610.2344 72.28125Q611.9844 69.46875 611.9844 66.640625Q611.9844 65.546875 611.7344 64.453125Q611.53125 63.578125 611.1719 62.765625Q610.9375 62.25 610.2344 61.015625L610.9844 61.015625Q612.0781 62.484375 612.6094 63.96875Q613.0625 65.25 613.0625 66.640625Q613.0625 68.21875 612.4531 69.703125Q611.84375 71.171875 610.9844 72.28125Z" fill-rule="nonzero"/><path fill="#c9daf8" d="M631.2574 61.50736L635.5 64.25L639.7426 61.50736L637.0 65.75L639.7426 69.99264L635.5 67.25L631.2574 69.99264L634.0 65.75Z" fill-rule="nonzero"/><path fill="#1a1a1a" d="M650.3906 69.75L650.3906 61.15625L652.1094 61.15625L654.1406 67.234375Q654.4219 68.09375 654.5469 68.515625Q654.6875 68.046875 655.0 67.140625L657.0625 61.15625L658.59375 61.15625L658.59375 69.75L657.5 69.75L657.5 62.5625L655.0 69.75L653.96875 69.75L651.4844 62.4375L651.4844 69.75L650.3906 69.75ZM663.3594 68.984375Q662.7656 69.484375 662.21875 69.6875Q661.6875 69.890625 661.0625 69.890625Q660.03125 69.890625 659.4844 69.390625Q658.9375 68.890625 658.9375 68.109375Q658.9375 67.65625 659.1406 67.28125Q659.34375 66.890625 659.6875 66.671875Q660.03125 66.4375 660.4531 66.328125Q660.75 66.234375 661.3906 66.15625Q662.65625 66.015625 663.2656 65.796875Q663.2656 65.578125 663.2656 65.53125Q663.2656 64.875 662.96875 64.609375Q662.5625 64.265625 661.7656 64.265625Q661.03125 64.265625 660.6719 64.53125Q660.3125 64.78125 660.1406 65.4375L659.1094 65.296875Q659.25 64.640625 659.5781 64.234375Q659.90625 63.828125 660.5156 63.609375Q661.125 63.390625 661.9219 63.390625Q662.71875 63.390625 663.21875 63.578125Q663.71875 63.765625 663.9531 64.046875Q664.1875 64.328125 664.28125 64.765625Q664.3281 65.03125 664.3281 65.734375L664.3281 67.140625Q664.3281 68.609375 664.3906 69.0Q664.46875 69.390625 664.6719 69.75L663.5625 69.75Q663.40625 69.421875 663.3594 68.984375ZM663.2656 66.625Q662.6875 66.859375 661.5469 67.03125Q660.8906 67.125 660.625 67.25Q660.3594 67.359375 660.2031 67.578125Q660.0625 67.796875 660.0625 68.078125Q660.0625 68.5 660.375 68.78125Q660.7031 69.0625 661.3125 69.0625Q661.9219 69.0625 662.3906 68.796875Q662.875 68.53125 663.09375 68.0625Q663.2656 67.703125 663.2656 67.015625L663.2656 66.625ZM666.28125 69.75L666.28125 63.53125L667.2344 63.53125L667.2344 64.46875Q667.59375 63.8125 667.8906 63.609375Q668.2031 63.390625 668.5781 63.390625Q669.1094 63.390625 669.65625 63.71875L669.2969 64.703125Q668.90625 64.46875 668.53125 64.46875Q668.1719 64.46875 667.8906 64.6875Q667.625 64.890625 667.5156 65.265625Q667.3281 65.828125 667.3281 66.484375L667.3281 69.75L666.28125 69.75ZM670.2656 69.75L670.2656 61.15625L671.3281 61.15625L671.3281 69.75L670.2656 69.75ZM673.2969 62.375L673.2969 61.15625L674.3594 61.15625L674.3594 62.375L673.2969 62.375ZM673.2969 69.75L673.2969 63.53125L674.3594 63.53125L674.3594 69.75L673.2969 69.75ZM676.2969 69.75L676.2969 63.53125L677.2344 63.53125L677.2344 64.40625Q677.9219 63.390625 679.21875 63.390625Q679.78125 63.390625 680.25 63.59375Q680.7344 63.796875 680.96875 64.125Q681.2031 64.453125 681.2969 64.890625Q681.34375 65.1875 681.34375 65.921875L681.34375 69.75L680.2969 69.75L680.2969 65.96875Q680.2969 65.3125 680.1719 65.0Q680.0469 64.6875 679.7344 64.5Q679.4219 64.296875 679.0 64.296875Q678.3281 64.296875 677.8281 64.734375Q677.34375 65.15625 677.34375 66.34375L677.34375 69.75L676.2969 69.75ZM688.3125 72.28125Q687.4375 71.171875 686.8281 69.703125Q686.2344 68.21875 686.2344 66.640625Q686.2344 65.25 686.6719 63.96875Q687.2031 62.484375 688.3125 61.015625L689.0625 61.015625Q688.3594 62.234375 688.125 62.75Q687.7656 63.5625 687.5625 64.4375Q687.3125 65.53125 687.3125 66.640625Q687.3125 69.46875 689.0625 72.28125L688.3125 72.28125ZM689.4844 69.75L692.78125 61.15625L694.0 61.15625L697.5156 69.75L696.2344 69.75L695.21875 67.140625L691.6406 67.140625L690.6875 69.75L689.4844 69.75ZM691.96875 66.21875L694.875 66.21875L693.9844 63.84375Q693.5625 62.765625 693.375 62.0625Q693.2031 62.890625 692.90625 63.703125L691.96875 66.21875ZM700.96875 69.75L699.9219 69.75L699.9219 63.03125Q699.53125 63.390625 698.90625 63.765625Q698.2969 64.125 697.8125 64.296875L697.8125 63.28125Q698.6875 62.859375 699.34375 62.28125Q700.0156 61.6875 700.2969 61.125L700.96875 61.125L700.96875 69.75ZM709.46875 63.265625L708.4219 63.34375Q708.28125 62.71875 708.03125 62.4375Q707.59375 61.984375 706.96875 61.984375Q706.46875 61.984375 706.0781 62.265625Q705.59375 62.640625 705.2969 63.34375Q705.0156 64.03125 705.0 65.3125Q705.375 64.734375 705.9219 64.453125Q706.4844 64.171875 707.09375 64.171875Q708.1406 64.171875 708.875 64.953125Q709.625 65.734375 709.625 66.953125Q709.625 67.765625 709.2656 68.46875Q708.9219 69.15625 708.3125 69.53125Q707.7031 69.890625 706.9375 69.890625Q705.6094 69.890625 704.78125 68.921875Q703.9531 67.953125 703.9531 65.734375Q703.9531 63.234375 704.875 62.109375Q705.6719 61.125 707.03125 61.125Q708.0469 61.125 708.6875 61.703125Q709.34375 62.265625 709.46875 63.265625ZM705.1719 66.96875Q705.1719 67.515625 705.3906 68.015625Q705.625 68.5 706.03125 68.765625Q706.4531 69.03125 706.9219 69.03125Q707.5781 69.03125 708.0625 68.5Q708.5469 67.953125 708.5469 67.03125Q708.5469 66.140625 708.0625 65.625Q707.59375 65.109375 706.875 65.109375Q706.15625 65.109375 705.65625 65.625Q705.1719 66.140625 705.1719 66.96875ZM713.875 67.171875L713.875 66.109375L717.125 66.109375L717.125 67.171875L713.875 67.171875ZM723.875 69.75L720.5469 61.15625L721.78125 61.15625L724.0156 67.40625Q724.28125 68.15625 724.46875 68.8125Q724.6719 68.109375 724.9375 67.40625L727.25 61.15625L728.40625 61.15625L725.0469 69.75L723.875 69.75ZM728.375 69.75L728.375 61.15625L729.5156 61.15625L729.5156 68.734375L733.75 68.734375L733.75 69.75L728.375 69.75ZM735.375 69.75L735.375 61.15625L736.5156 61.15625L736.5156 68.734375L740.75 68.734375L740.75 69.75L735.375 69.75ZM742.3906 69.75L742.3906 61.15625L744.1094 61.15625L746.1406 67.234375Q746.4219 68.09375 746.5469 68.515625Q746.6875 68.046875 747.0 67.140625L749.0625 61.15625L750.59375 61.15625L750.59375 69.75L749.5 69.75L749.5 62.5625L747.0 69.75L745.96875 69.75L743.4844 62.4375L743.4844 69.75L742.3906 69.75ZM751.9844 72.28125L751.2344 72.28125Q752.9844 69.46875 752.9844 66.640625Q752.9844 65.546875 752.7344 64.453125Q752.53125 63.578125 752.1719 62.765625Q751.9375 62.25 751.2344 61.015625L751.9844 61.015625Q753.0781 62.484375 753.6094 63.96875Q754.0625 65.25 754.0625 66.640625Q754.0625 68.21875 753.4531 69.703125Q752.84375 71.171875 751.9844 72.28125Z" fill-rule="nonzero"/><path fill="#757575" d="M213.90625 35.25625L215.6875 35.1Q215.8125 36.1625 216.26562 36.85Q216.73438 37.5375 217.70312 37.975Q218.6875 38.396873 219.92188 38.396873Q221.0 38.396873 221.82812 38.084373Q222.65625 37.75625 223.0625 37.19375Q223.46875 36.63125 223.46875 35.959373Q223.46875 35.2875 223.07812 34.7875Q222.6875 34.2875 221.79688 33.94375Q221.21875 33.709373 219.23438 33.240623Q217.26562 32.771873 216.48438 32.35Q215.45312 31.818748 214.95312 31.021873Q214.45312 30.224998 214.45312 29.240623Q214.45312 28.146873 215.0625 27.209373Q215.67188 26.271873 216.85938 25.787498Q218.04688 25.287498 219.48438 25.287498Q221.07812 25.287498 222.29688 25.803123Q223.51562 26.318748 224.15625 27.318748Q224.8125 28.303123 224.85938 29.568748L223.04688 29.709373Q222.90625 28.349998 222.0625 27.662498Q221.21875 26.959373 219.5625 26.959373Q217.84375 26.959373 217.04688 27.599998Q216.26562 28.224998 216.26562 29.099998Q216.26562 29.881248 216.82812 30.381248Q217.375 30.881248 219.6875 31.396873Q222.0 31.912498 222.85938 32.303123Q224.10938 32.88125 224.70312 33.771873Q225.29688 34.646873 225.29688 35.803123Q225.29688 36.94375 224.64062 37.959373Q223.98438 38.975 222.75 39.5375Q221.53125 40.1 220.0 40.1Q218.0625 40.1 216.75 39.5375Q215.4375 38.959373 214.6875 37.81875Q213.9375 36.678123 213.90625 35.25625ZM227.3125 43.81875L227.3125 29.474998L228.92188 29.474998L228.92188 30.818748Q229.48438 30.037498 230.1875 29.646873Q230.90625 29.240623 231.92188 29.240623Q233.25 29.240623 234.26562 29.928123Q235.28125 30.615623 235.79688 31.865623Q236.32812 33.1 236.32812 34.584373Q236.32812 36.178123 235.75 37.459373Q235.1875 38.725 234.09375 39.4125Q233.0 40.084373 231.79688 40.084373Q230.92188 40.084373 230.21875 39.709373Q229.53125 39.334373 229.07812 38.771873L229.07812 43.81875L227.3125 43.81875ZM228.90625 34.725Q228.90625 36.725 229.71875 37.678123Q230.53125 38.63125 231.6875 38.63125Q232.85938 38.63125 233.6875 37.646873Q234.53125 36.6625 234.53125 34.56875Q234.53125 32.6 233.70312 31.615623Q232.89062 30.615623 231.76562 30.615623Q230.64062 30.615623 229.76562 31.678123Q228.90625 32.725 228.90625 34.725ZM245.42188 36.50625L247.23438 36.740623Q246.8125 38.31875 245.64062 39.209373Q244.48438 40.084373 242.67188 40.084373Q240.40625 40.084373 239.0625 38.69375Q237.73438 37.2875 237.73438 34.75625Q237.73438 32.13125 239.07812 30.693748Q240.42188 29.240623 242.57812 29.240623Q244.65625 29.240623 245.96875 30.662498Q247.29688 32.06875 247.29688 34.646873Q247.29688 34.803123 247.28125 35.115623L239.54688 35.115623Q239.64062 36.81875 240.51562 37.725Q241.39062 38.63125 242.6875 38.63125Q243.65625 38.63125 244.32812 38.13125Q245.01562 37.615623 245.42188 36.50625ZM239.64062 33.6625L245.4375 33.6625Q245.32812 32.365623 244.78125 31.709373Q243.9375 30.693748 242.59375 30.693748Q241.39062 30.693748 240.5625 31.506248Q239.73438 32.303123 239.64062 33.6625ZM256.42188 36.50625L258.23438 36.740623Q257.8125 38.31875 256.64062 39.209373Q255.48438 40.084373 253.67188 40.084373Q251.40625 40.084373 250.0625 38.69375Q248.73438 37.2875 248.73438 34.75625Q248.73438 32.13125 250.07812 30.693748Q251.42188 29.240623 253.57812 29.240623Q255.65625 29.240623 256.96875 30.662498Q258.29688 32.06875 258.29688 34.646873Q258.29688 34.803123 258.28125 35.115623L250.54688 35.115623Q250.64062 36.81875 251.51562 37.725Q252.39062 38.63125 253.6875 38.63125Q254.65625 38.63125 255.32812 38.13125Q256.01562 37.615623 256.42188 36.50625ZM250.64062 33.6625L256.4375 33.6625Q256.32812 32.365623 255.78125 31.709373Q254.9375 30.693748 253.59375 30.693748Q252.39062 30.693748 251.5625 31.506248Q250.73438 32.303123 250.64062 33.6625ZM267.04688 39.85L267.04688 38.5375Q266.0625 40.084373 264.14062 40.084373Q262.90625 40.084373 261.85938 39.396873Q260.82812 38.709373 260.25 37.490623Q259.6875 36.271873 259.6875 34.678123Q259.6875 33.115623 260.20312 31.849998Q260.71875 30.584373 261.75 29.912498Q262.79688 29.240623 264.0625 29.240623Q265.0 29.240623 265.73438 29.646873Q266.46875 30.037498 266.9375 30.662498L266.9375 25.537498L268.67188 25.537498L268.67188 39.85L267.04688 39.85ZM261.48438 34.678123Q261.48438 36.6625 262.32812 37.646873Q263.17188 38.63125 264.3125 38.63125Q265.46875 38.63125 266.26562 37.69375Q267.07812 36.75625 267.07812 34.81875Q267.07812 32.69375 266.25 31.693748Q265.4375 30.693748 264.23438 30.693748Q263.0625 30.693748 262.26562 31.662498Q261.48438 32.615623 261.48438 34.678123ZM280.20312 39.85L276.25 29.474998L278.10938 29.474998L280.34375 35.69375Q280.70312 36.69375 281.0 37.771873Q281.23438 36.959373 281.65625 35.803123L283.95312 29.474998L285.76562 29.474998L281.84375 39.85L280.20312 39.85ZM285.60938 36.75625L287.35938 36.475Q287.5 37.521873 288.17188 38.084373Q288.84375 38.63125 290.04688 38.63125Q291.25 38.63125 291.82812 38.146873Q292.42188 37.646873 292.42188 36.990623Q292.42188 36.396873 291.90625 36.053123Q291.54688 35.81875 290.10938 35.459373Q288.17188 34.959373 287.42188 34.615623Q286.6875 34.25625 286.29688 33.63125Q285.90625 32.990623 285.90625 32.225Q285.90625 31.537498 286.21875 30.943748Q286.54688 30.349998 287.09375 29.959373Q287.5 29.662498 288.20312 29.459373Q288.92188 29.240623 289.73438 29.240623Q290.95312 29.240623 291.875 29.599998Q292.79688 29.943748 293.23438 30.553123Q293.67188 31.146873 293.84375 32.146873L292.125 32.38125Q292.0 31.584373 291.4375 31.146873Q290.875 30.693748 289.85938 30.693748Q288.64062 30.693748 288.125 31.099998Q287.60938 31.490623 287.60938 32.021873Q287.60938 32.365623 287.82812 32.646873Q288.03125 32.928123 288.5 33.115623Q288.76562 33.209373 290.04688 33.553123Q291.92188 34.053123 292.65625 34.38125Q293.39062 34.69375 293.8125 35.303123Q294.23438 35.896873 294.23438 36.803123Q294.23438 37.678123 293.71875 38.459373Q293.20312 39.240623 292.23438 39.6625Q291.26562 40.084373 290.04688 40.084373Q288.03125 40.084373 286.96875 39.240623Q285.90625 38.396873 285.60938 36.75625ZM296.8125 39.85L296.8125 37.85L298.8125 37.85L298.8125 39.85L296.8125 39.85ZM308.64062 39.85L308.64062 25.537498L318.29688 25.537498L318.29688 27.224998L310.53125 27.224998L310.53125 31.662498L317.25 31.662498L317.25 33.35L310.53125 33.35L310.53125 39.85L308.64062 39.85ZM320.54688 39.85L320.54688 25.537498L325.9375 25.537498Q327.375 25.537498 328.125 25.662498Q329.17188 25.849998 329.89062 26.349998Q330.60938 26.834373 331.03125 27.724998Q331.46875 28.615623 331.46875 29.678123Q331.46875 31.506248 330.29688 32.771873Q329.14062 34.021873 326.10938 34.021873L322.4375 34.021873L322.4375 39.85L320.54688 39.85ZM322.4375 32.334373L326.14062 32.334373Q327.96875 32.334373 328.73438 31.662498Q329.51562 30.974998 329.51562 29.724998Q329.51562 28.834373 329.0625 28.193748Q328.60938 27.553123 327.875 27.349998Q327.39062 27.224998 326.09375 27.224998L322.4375 27.224998L322.4375 32.334373ZM339.45312 39.85L337.6875 39.85L337.6875 28.646873Q337.0625 29.256248 336.03125 29.865623Q335.0 30.459373 334.17188 30.771873L334.17188 29.068748Q335.65625 28.381248 336.75 27.396873Q337.85938 26.396873 338.3125 25.474998L339.45312 25.474998L339.45312 39.85ZM352.95312 29.037498L351.20312 29.178123Q350.96875 28.146873 350.54688 27.678123Q349.82812 26.912498 348.78125 26.912498Q347.9375 26.912498 347.3125 27.381248Q346.48438 27.990623 346.0 29.162498Q345.51562 30.318748 345.5 32.459373Q346.14062 31.506248 347.04688 31.037498Q347.96875 30.568748 348.98438 30.568748Q350.73438 30.568748 351.96875 31.865623Q353.20312 33.146873 353.20312 35.19375Q353.20312 36.553123 352.625 37.709373Q352.04688 38.865623 351.03125 39.490623Q350.01562 40.1 348.71875 40.1Q346.53125 40.1 345.14062 38.490623Q343.75 36.865623 343.75 33.146873Q343.75 29.006248 345.28125 27.115623Q346.625 25.474998 348.89062 25.474998Q350.57812 25.474998 351.65625 26.428123Q352.73438 27.365623 352.95312 29.037498ZM345.78125 35.209373Q345.78125 36.115623 346.15625 36.94375Q346.54688 37.771873 347.23438 38.209373Q347.9375 38.646873 348.6875 38.646873Q349.8125 38.646873 350.60938 37.75625Q351.40625 36.85 351.40625 35.303123Q351.40625 33.81875 350.60938 32.975Q349.82812 32.115623 348.625 32.115623Q347.4375 32.115623 346.60938 32.975Q345.78125 33.81875 345.78125 35.209373ZM364.67188 44.053123Q363.21875 42.225 362.21875 39.771873Q361.21875 37.303123 361.21875 34.6625Q361.21875 32.334373 361.96875 30.209373Q362.84375 27.740623 364.67188 25.287498L365.9375 25.287498Q364.75 27.318748 364.375 28.193748Q363.78125 29.537498 363.4375 31.006248Q363.01562 32.834373 363.01562 34.678123Q363.01562 39.365623 365.9375 44.053123L364.67188 44.053123ZM371.04688 39.85L367.25 25.537498L369.1875 25.537498L371.35938 34.9125Q371.71875 36.396873 371.96875 37.85Q372.51562 35.553123 372.60938 35.19375L375.34375 25.537498L377.625 25.537498L379.67188 32.771873Q380.45312 35.475 380.79688 37.85Q381.0625 36.490623 381.5 34.725L383.75 25.537498L385.65625 25.537498L381.73438 39.85L379.90625 39.85L376.89062 28.943748Q376.5 27.568748 376.4375 27.256248Q376.20312 28.240623 376.01562 28.943748L372.98438 39.85L371.04688 39.85ZM392.46875 39.85L392.46875 36.428123L386.25 36.428123L386.25 34.803123L392.78125 25.537498L394.21875 25.537498L394.21875 34.803123L396.15625 34.803123L396.15625 36.428123L394.21875 36.428123L394.21875 39.85L392.46875 39.85ZM392.46875 34.803123L392.46875 28.349998L387.98438 34.803123L392.46875 34.803123ZM397.64062 35.553123L397.64062 33.7875L403.03125 33.7875L403.03125 35.553123L397.64062 35.553123ZM406.9375 39.85L405.3125 39.85L405.3125 25.537498L407.0625 25.537498L407.0625 30.646873Q408.1875 29.240623 409.90625 29.240623Q410.85938 29.240623 411.71875 29.631248Q412.57812 30.021873 413.125 30.724998Q413.67188 31.412498 413.98438 32.396873Q414.29688 33.38125 414.29688 34.50625Q414.29688 37.178123 412.98438 38.63125Q411.67188 40.084373 409.82812 40.084373Q407.98438 40.084373 406.9375 38.553123L406.9375 39.85ZM406.92188 34.584373Q406.92188 36.44375 407.42188 37.2875Q408.26562 38.63125 409.67188 38.63125Q410.82812 38.63125 411.65625 37.63125Q412.5 36.63125 412.5 34.646873Q412.5 32.615623 411.6875 31.662498Q410.89062 30.693748 409.75 30.693748Q408.59375 30.693748 407.75 31.693748Q406.92188 32.69375 406.92188 34.584373ZM416.32812 27.553123L416.32812 25.537498L418.09375 25.537498L418.09375 27.553123L416.32812 27.553123ZM416.32812 39.85L416.32812 29.474998L418.09375 29.474998L418.09375 39.85L416.32812 39.85ZM424.15625 38.271873L424.40625 39.834373Q423.67188 39.990623 423.07812 39.990623Q422.125 39.990623 421.59375 39.69375Q421.07812 39.38125 420.85938 38.896873Q420.64062 38.396873 420.64062 36.81875L420.64062 30.849998L419.35938 30.849998L419.35938 29.474998L420.64062 29.474998L420.64062 26.912498L422.39062 25.849998L422.39062 29.474998L424.15625 29.474998L424.15625 30.849998L422.39062 30.849998L422.39062 36.9125Q422.39062 37.6625 422.48438 37.88125Q422.57812 38.084373 422.78125 38.225Q423.0 38.35 423.39062 38.35Q423.67188 38.35 424.15625 38.271873ZM426.78125 39.85L426.78125 37.85L428.78125 37.85L428.78125 39.85Q428.78125 40.959373 428.39062 41.63125Q428.0 42.31875 427.15625 42.678123L426.65625 41.928123Q427.21875 41.69375 427.48438 41.209373Q427.75 40.740623 427.78125 39.85L426.78125 39.85ZM438.0 40.709373L439.70312 40.959373Q439.8125 41.75625 440.29688 42.115623Q440.95312 42.6 442.09375 42.6Q443.3125 42.6 443.96875 42.115623Q444.64062 41.63125 444.875 40.75625Q445.01562 40.209373 445.0 38.490623Q443.84375 39.85 442.125 39.85Q439.98438 39.85 438.8125 38.303123Q437.64062 36.75625 437.64062 34.6Q437.64062 33.115623 438.17188 31.865623Q438.71875 30.615623 439.73438 29.928123Q440.76562 29.240623 442.14062 29.240623Q443.96875 29.240623 445.17188 30.724998L445.17188 29.474998L446.78125 29.474998L446.78125 38.44375Q446.78125 40.865623 446.28125 41.865623Q445.79688 42.88125 444.71875 43.459373Q443.65625 44.053123 442.09375 44.053123Q440.25 44.053123 439.09375 43.225Q437.95312 42.396873 438.0 40.709373ZM439.45312 34.475Q439.45312 36.521873 440.26562 37.459373Q441.07812 38.396873 442.29688 38.396873Q443.5 38.396873 444.3125 37.459373Q445.14062 36.521873 445.14062 34.5375Q445.14062 32.63125 444.29688 31.662498Q443.45312 30.693748 442.26562 30.693748Q441.09375 30.693748 440.26562 31.646873Q439.45312 32.6 439.45312 34.475ZM449.29688 39.85L449.29688 29.474998L450.875 29.474998L450.875 31.053123Q451.48438 29.943748 452.0 29.599998Q452.51562 29.240623 453.125 29.240623Q454.01562 29.240623 454.9375 29.803123L454.32812 31.443748Q453.6875 31.053123 453.04688 31.053123Q452.46875 31.053123 452.0 31.412498Q451.54688 31.756248 451.34375 32.365623Q451.0625 33.303123 451.0625 34.4125L451.0625 39.85L449.29688 39.85ZM455.67188 34.6625Q455.67188 31.787498 457.26562 30.396873Q458.60938 29.240623 460.53125 29.240623Q462.67188 29.240623 464.01562 30.646873Q465.375 32.053123 465.375 34.521873Q465.375 36.521873 464.78125 37.678123Q464.1875 38.81875 463.03125 39.459373Q461.89062 40.084373 460.53125 40.084373Q458.34375 40.084373 457.0 38.69375Q455.67188 37.2875 455.67188 34.6625ZM457.46875 34.6625Q457.46875 36.6625 458.32812 37.646873Q459.20312 38.63125 460.53125 38.63125Q461.84375 38.63125 462.70312 37.646873Q463.57812 36.646873 463.57812 34.6Q463.57812 32.678123 462.70312 31.693748Q461.82812 30.693748 460.53125 30.693748Q459.20312 30.693748 458.32812 31.693748Q457.46875 32.678123 457.46875 34.6625ZM474.10938 39.85L474.10938 38.31875Q472.90625 40.084373 470.82812 40.084373Q469.90625 40.084373 469.10938 39.740623Q468.3125 39.38125 467.92188 38.85Q467.54688 38.31875 467.39062 37.5375Q467.28125 37.021873 467.28125 35.896873L467.28125 29.474998L469.03125 29.474998L469.03125 35.225Q469.03125 36.6 469.14062 37.084373Q469.3125 37.771873 469.84375 38.178123Q470.39062 38.56875 471.17188 38.56875Q471.96875 38.56875 472.65625 38.1625Q473.35938 37.75625 473.64062 37.06875Q473.9375 36.365623 473.9375 35.0375L473.9375 29.474998L475.6875 29.474998L475.6875 39.85L474.10938 39.85ZM477.3125 43.81875L477.3125 29.474998L478.92188 29.474998L478.92188 30.818748Q479.48438 30.037498 480.1875 29.646873Q480.90625 29.240623 481.92188 29.240623Q483.25 29.240623 484.26562 29.928123Q485.28125 30.615623 485.79688 31.865623Q486.32812 33.1 486.32812 34.584373Q486.32812 36.178123 485.75 37.459373Q485.1875 38.725 484.09375 39.4125Q483.0 40.084373 481.79688 40.084373Q480.92188 40.084373 480.21875 39.709373Q479.53125 39.334373 479.07812 38.771873L479.07812 43.81875L477.3125 43.81875ZM478.90625 34.725Q478.90625 36.725 479.71875 37.678123Q480.53125 38.63125 481.6875 38.63125Q482.85938 38.63125 483.6875 37.646873Q484.53125 36.6625 484.53125 34.56875Q484.53125 32.6 483.70312 31.615623Q482.89062 30.615623 481.76562 30.615623Q480.64062 30.615623 479.76562 31.678123Q478.90625 32.725 478.90625 34.725ZM493.60938 36.75625L495.35938 36.475Q495.5 37.521873 496.17188 38.084373Q496.84375 38.63125 498.04688 38.63125Q499.25 38.63125 499.82812 38.146873Q500.42188 37.646873 500.42188 36.990623Q500.42188 36.396873 499.90625 36.053123Q499.54688 35.81875 498.10938 35.459373Q496.17188 34.959373 495.42188 34.615623Q494.6875 34.25625 494.29688 33.63125Q493.90625 32.990623 493.90625 32.225Q493.90625 31.537498 494.21875 30.943748Q494.54688 30.349998 495.09375 29.959373Q495.5 29.662498 496.20312 29.459373Q496.92188 29.240623 497.73438 29.240623Q498.95312 29.240623 499.875 29.599998Q500.79688 29.943748 501.23438 30.553123Q501.67188 31.146873 501.84375 32.146873L500.125 32.38125Q500.0 31.584373 499.4375 31.146873Q498.875 30.693748 497.85938 30.693748Q496.64062 30.693748 496.125 31.099998Q495.60938 31.490623 495.60938 32.021873Q495.60938 32.365623 495.82812 32.646873Q496.03125 32.928123 496.5 33.115623Q496.76562 33.209373 498.04688 33.553123Q499.92188 34.053123 500.65625 34.38125Q501.39062 34.69375 501.8125 35.303123Q502.23438 35.896873 502.23438 36.803123Q502.23438 37.678123 501.71875 38.459373Q501.20312 39.240623 500.23438 39.6625Q499.26562 40.084373 498.04688 40.084373Q496.03125 40.084373 494.96875 39.240623Q493.90625 38.396873 493.60938 36.75625ZM504.32812 27.553123L504.32812 25.537498L506.09375 25.537498L506.09375 27.553123L504.32812 27.553123ZM504.32812 39.85L504.32812 29.474998L506.09375 29.474998L506.09375 39.85L504.32812 39.85ZM507.39062 39.85L507.39062 38.428123L514.0 30.849998Q512.875 30.896873 512.0156 30.896873L507.78125 30.896873L507.78125 29.474998L516.2656 29.474998L516.2656 30.646873L510.64062 37.225L509.5625 38.428123Q510.73438 38.334373 511.78125 38.334373L516.5781 38.334373L516.5781 39.85L507.39062 39.85ZM524.4219 36.50625L526.2344 36.740623Q525.8125 38.31875 524.6406 39.209373Q523.4844 40.084373 521.6719 40.084373Q519.40625 40.084373 518.0625 38.69375Q516.7344 37.2875 516.7344 34.75625Q516.7344 32.13125 518.0781 30.693748Q519.4219 29.240623 521.5781 29.240623Q523.65625 29.240623 524.96875 30.662498Q526.2969 32.06875 526.2969 34.646873Q526.2969 34.803123 526.28125 35.115623L518.5469 35.115623Q518.6406 36.81875 519.5156 37.725Q520.3906 38.63125 521.6875 38.63125Q522.65625 38.63125 523.3281 38.13125Q524.0156 37.615623 524.4219 36.50625ZM518.6406 33.6625L524.4375 33.6625Q524.3281 32.365623 523.78125 31.709373Q522.9375 30.693748 521.59375 30.693748Q520.3906 30.693748 519.5625 31.506248Q518.7344 32.303123 518.6406 33.6625ZM537.5625 31.428123L528.1094 31.428123L528.1094 29.787498L537.5625 29.787498L537.5625 31.428123ZM537.5625 35.771873L528.1094 35.771873L528.1094 34.13125L537.5625 34.13125L537.5625 35.771873ZM546.4531 39.85L544.6875 39.85L544.6875 28.646873Q544.0625 29.256248 543.03125 29.865623Q542.0 30.459373 541.1719 30.771873L541.1719 29.068748Q542.65625 28.381248 543.75 27.396873Q544.8594 26.396873 545.3125 25.474998L546.4531 25.474998L546.4531 39.85ZM560.0625 38.1625L560.0625 39.85L550.6094 39.85Q550.59375 39.209373 550.8125 38.63125Q551.1719 37.6625 551.96875 36.725Q552.7656 35.7875 554.2656 34.553123Q556.6094 32.646873 557.4219 31.537498Q558.25 30.412498 558.25 29.412498Q558.25 28.365623 557.5 27.646873Q556.75 26.928123 555.5469 26.928123Q554.28125 26.928123 553.5156 27.693748Q552.75 28.459373 552.75 29.803123L550.9375 29.615623Q551.125 27.599998 552.3281 26.537498Q553.5469 25.474998 555.59375 25.474998Q557.6406 25.474998 558.84375 26.615623Q560.0469 27.756248 560.0469 29.443748Q560.0469 30.303123 559.6875 31.146873Q559.34375 31.974998 558.53125 32.896873Q557.71875 33.803123 555.8281 35.4125Q554.2344 36.740623 553.78125 37.209373Q553.34375 37.678123 553.0469 38.1625L560.0625 38.1625ZM564.53125 32.084373Q563.4375 31.678123 562.90625 30.943748Q562.3906 30.193748 562.3906 29.162498Q562.3906 27.599998 563.5156 26.537498Q564.6406 25.474998 566.5 25.474998Q568.375 25.474998 569.5156 26.568748Q570.65625 27.646873 570.65625 29.209373Q570.65625 30.209373 570.125 30.943748Q569.6094 31.678123 568.5469 32.084373Q569.875 32.521873 570.5625 33.475Q571.25 34.428123 571.25 35.75625Q571.25 37.6 569.9375 38.85Q568.6406 40.1 566.53125 40.1Q564.40625 40.1 563.1094 38.85Q561.8125 37.584373 561.8125 35.709373Q561.8125 34.31875 562.5156 33.38125Q563.2344 32.428123 564.53125 32.084373ZM564.1875 29.099998Q564.1875 30.115623 564.84375 30.771873Q565.5 31.412498 566.53125 31.412498Q567.5469 31.412498 568.2031 30.771873Q568.8594 30.131248 568.8594 29.209373Q568.8594 28.240623 568.1875 27.584373Q567.5156 26.912498 566.5156 26.912498Q565.5156 26.912498 564.84375 27.568748Q564.1875 28.209373 564.1875 29.099998ZM563.625 35.725Q563.625 36.475 563.96875 37.178123Q564.3281 37.88125 565.03125 38.271873Q565.7344 38.646873 566.5469 38.646873Q567.8125 38.646873 568.625 37.834373Q569.4531 37.021873 569.4531 35.771873Q569.4531 34.50625 568.6094 33.678123Q567.7656 32.85 566.4844 32.85Q565.25 32.85 564.4375 33.678123Q563.625 34.490623 563.625 35.725ZM574.46875 44.053123L573.21875 44.053123Q576.125 39.365623 576.125 34.678123Q576.125 32.834373 575.71875 31.037498Q575.375 29.568748 574.78125 28.224998Q574.40625 27.334373 573.21875 25.287498L574.46875 25.287498Q576.3125 27.740623 577.1875 30.209373Q577.9375 32.334373 577.9375 34.6625Q577.9375 37.303123 576.9219 39.771873Q575.9219 42.225 574.46875 44.053123ZM585.6406 35.553123L585.6406 33.7875L591.03125 33.7875L591.03125 35.553123L585.6406 35.553123ZM605.4531 39.85L603.6875 39.85L603.6875 28.646873Q603.0625 29.256248 602.03125 29.865623Q601.0 30.459373 600.1719 30.771873L600.1719 29.068748Q601.65625 28.381248 602.75 27.396873Q603.8594 26.396873 604.3125 25.474998L605.4531 25.474998L605.4531 39.85ZM618.9531 29.037498L617.2031 29.178123Q616.96875 28.146873 616.5469 27.678123Q615.8281 26.912498 614.78125 26.912498Q613.9375 26.912498 613.3125 27.381248Q612.4844 27.990623 612.0 29.162498Q611.5156 30.318748 611.5 32.459373Q612.1406 31.506248 613.0469 31.037498Q613.96875 30.568748 614.9844 30.568748Q616.7344 30.568748 617.96875 31.865623Q619.2031 33.146873 619.2031 35.19375Q619.2031 36.553123 618.625 37.709373Q618.0469 38.865623 617.03125 39.490623Q616.0156 40.1 614.71875 40.1Q612.53125 40.1 611.1406 38.490623Q609.75 36.865623 609.75 33.146873Q609.75 29.006248 611.28125 27.115623Q612.625 25.474998 614.8906 25.474998Q616.5781 25.474998 617.65625 26.428123Q618.7344 27.365623 618.9531 29.037498ZM611.78125 35.209373Q611.78125 36.115623 612.15625 36.94375Q612.5469 37.771873 613.2344 38.209373Q613.9375 38.646873 614.6875 38.646873Q615.8125 38.646873 616.6094 37.75625Q617.40625 36.85 617.40625 35.303123Q617.40625 33.81875 616.6094 32.975Q615.8281 32.115623 614.625 32.115623Q613.4375 32.115623 612.6094 32.975Q611.78125 33.81875 611.78125 35.209373ZM620.84375 36.06875L622.59375 35.834373Q622.90625 37.334373 623.625 37.990623Q624.3594 38.646873 625.40625 38.646873Q626.6406 38.646873 627.4844 37.7875Q628.34375 36.928123 628.34375 35.6625Q628.34375 34.44375 627.5469 33.6625Q626.7656 32.88125 625.5469 32.88125Q625.0469 32.88125 624.3125 33.06875L624.5 31.521873Q624.6719 31.553123 624.78125 31.553123Q625.90625 31.553123 626.7969 30.974998Q627.7031 30.381248 627.7031 29.162498Q627.7031 28.193748 627.0469 27.553123Q626.3906 26.912498 625.3594 26.912498Q624.34375 26.912498 623.65625 27.568748Q622.96875 28.209373 622.78125 29.490623L621.0156 29.178123Q621.34375 27.412498 622.4844 26.443748Q623.625 25.474998 625.3281 25.474998Q626.5 25.474998 627.4844 25.974998Q628.46875 26.474998 628.9844 27.349998Q629.5156 28.224998 629.5156 29.193748Q629.5156 30.115623 629.0156 30.881248Q628.5156 31.646873 627.5469 32.1Q628.8125 32.38125 629.5156 33.31875Q630.21875 34.240623 630.21875 35.615623Q630.21875 37.490623 628.84375 38.803123Q627.4844 40.1 625.3906 40.1Q623.5 40.1 622.25 38.975Q621.0156 37.85 620.84375 36.06875ZM634.53125 32.084373Q633.4375 31.678123 632.90625 30.943748Q632.3906 30.193748 632.3906 29.162498Q632.3906 27.599998 633.5156 26.537498Q634.6406 25.474998 636.5 25.474998Q638.375 25.474998 639.5156 26.568748Q640.65625 27.646873 640.65625 29.209373Q640.65625 30.209373 640.125 30.943748Q639.6094 31.678123 638.5469 32.084373Q639.875 32.521873 640.5625 33.475Q641.25 34.428123 641.25 35.75625Q641.25 37.6 639.9375 38.85Q638.6406 40.1 636.53125 40.1Q634.40625 40.1 633.1094 38.85Q631.8125 37.584373 631.8125 35.709373Q631.8125 34.31875 632.5156 33.38125Q633.2344 32.428123 634.53125 32.084373ZM634.1875 29.099998Q634.1875 30.115623 634.84375 30.771873Q635.5 31.412498 636.53125 31.412498Q637.5469 31.412498 638.2031 30.771873Q638.8594 30.131248 638.8594 29.209373Q638.8594 28.240623 638.1875 27.584373Q637.5156 26.912498 636.5156 26.912498Q635.5156 26.912498 634.84375 27.568748Q634.1875 28.209373 634.1875 29.099998ZM633.625 35.725Q633.625 36.475 633.96875 37.178123Q634.3281 37.88125 635.03125 38.271873Q635.7344 38.646873 636.5469 38.646873Q637.8125 38.646873 638.625 37.834373Q639.4531 37.021873 639.4531 35.771873Q639.4531 34.50625 638.6094 33.678123Q637.7656 32.85 636.4844 32.85Q635.25 32.85 634.4375 33.678123Q633.625 34.490623 633.625 35.725ZM648.46875 39.85L648.46875 36.428123L642.25 36.428123L642.25 34.803123L648.78125 25.537498L650.21875 25.537498L650.21875 34.803123L652.15625 34.803123L652.15625 36.428123L650.21875 36.428123L650.21875 39.85L648.46875 39.85ZM648.46875 34.803123L648.46875 28.349998L643.9844 34.803123L648.46875 34.803123ZM659.1406 39.85L662.9375 34.459373L659.4375 29.474998L661.625 29.474998L663.21875 31.912498Q663.6719 32.6 663.9375 33.06875Q664.375 32.428123 664.7344 31.928123L666.4844 29.474998L668.5781 29.474998L665.0 34.365623L668.8594 39.85L666.7031 39.85L664.5625 36.63125L664.0 35.75625L661.28125 39.85L659.1406 39.85ZM681.4531 39.85L679.6875 39.85L679.6875 28.646873Q679.0625 29.256248 678.03125 29.865623Q677.0 30.459373 676.1719 30.771873L676.1719 29.068748Q677.65625 28.381248 678.75 27.396873Q679.8594 26.396873 680.3125 25.474998L681.4531 25.474998L681.4531 39.85ZM694.9531 29.037498L693.2031 29.178123Q692.96875 28.146873 692.5469 27.678123Q691.8281 26.912498 690.78125 26.912498Q689.9375 26.912498 689.3125 27.381248Q688.4844 27.990623 688.0 29.162498Q687.5156 30.318748 687.5 32.459373Q688.1406 31.506248 689.0469 31.037498Q689.96875 30.568748 690.9844 30.568748Q692.7344 30.568748 693.96875 31.865623Q695.2031 33.146873 695.2031 35.19375Q695.2031 36.553123 694.625 37.709373Q694.0469 38.865623 693.03125 39.490623Q692.0156 40.1 690.71875 40.1Q688.53125 40.1 687.1406 38.490623Q685.75 36.865623 685.75 33.146873Q685.75 29.006248 687.28125 27.115623Q688.625 25.474998 690.8906 25.474998Q692.5781 25.474998 693.65625 26.428123Q694.7344 27.365623 694.9531 29.037498ZM687.78125 35.209373Q687.78125 36.115623 688.15625 36.94375Q688.5469 37.771873 689.2344 38.209373Q689.9375 38.646873 690.6875 38.646873Q691.8125 38.646873 692.6094 37.75625Q693.40625 36.85 693.40625 35.303123Q693.40625 33.81875 692.6094 32.975Q691.8281 32.115623 690.625 32.115623Q689.4375 32.115623 688.6094 32.975Q687.78125 33.81875 687.78125 35.209373ZM696.84375 36.06875L698.59375 35.834373Q698.90625 37.334373 699.625 37.990623Q700.3594 38.646873 701.40625 38.646873Q702.6406 38.646873 703.4844 37.7875Q704.34375 36.928123 704.34375 35.6625Q704.34375 34.44375 703.5469 33.6625Q702.7656 32.88125 701.5469 32.88125Q701.0469 32.88125 700.3125 33.06875L700.5 31.521873Q700.6719 31.553123 700.78125 31.553123Q701.90625 31.553123 702.7969 30.974998Q703.7031 30.381248 703.7031 29.162498Q703.7031 28.193748 703.0469 27.553123Q702.3906 26.912498 701.3594 26.912498Q700.34375 26.912498 699.65625 27.568748Q698.96875 28.209373 698.78125 29.490623L697.0156 29.178123Q697.34375 27.412498 698.4844 26.443748Q699.625 25.474998 701.3281 25.474998Q702.5 25.474998 703.4844 25.974998Q704.46875 26.474998 704.9844 27.349998Q705.5156 28.224998 705.5156 29.193748Q705.5156 30.115623 705.0156 30.881248Q704.5156 31.646873 703.5469 32.1Q704.8125 32.38125 705.5156 33.31875Q706.21875 34.240623 706.21875 35.615623Q706.21875 37.490623 704.84375 38.803123Q703.4844 40.1 701.3906 40.1Q699.5 40.1 698.25 38.975Q697.0156 37.85 696.84375 36.06875ZM710.53125 32.084373Q709.4375 31.678123 708.90625 30.943748Q708.3906 30.193748 708.3906 29.162498Q708.3906 27.599998 709.5156 26.537498Q710.6406 25.474998 712.5 25.474998Q714.375 25.474998 715.5156 26.568748Q716.65625 27.646873 716.65625 29.209373Q716.65625 30.209373 716.125 30.943748Q715.6094 31.678123 714.5469 32.084373Q715.875 32.521873 716.5625 33.475Q717.25 34.428123 717.25 35.75625Q717.25 37.6 715.9375 38.85Q714.6406 40.1 712.53125 40.1Q710.40625 40.1 709.1094 38.85Q707.8125 37.584373 707.8125 35.709373Q707.8125 34.31875 708.5156 33.38125Q709.2344 32.428123 710.53125 32.084373ZM710.1875 29.099998Q710.1875 30.115623 710.84375 30.771873Q711.5 31.412498 712.53125 31.412498Q713.5469 31.412498 714.2031 30.771873Q714.8594 30.131248 714.8594 29.209373Q714.8594 28.240623 714.1875 27.584373Q713.5156 26.912498 712.5156 26.912498Q711.5156 26.912498 710.84375 27.568748Q710.1875 28.209373 710.1875 29.099998ZM709.625 35.725Q709.625 36.475 709.96875 37.178123Q710.3281 37.88125 711.03125 38.271873Q711.7344 38.646873 712.5469 38.646873Q713.8125 38.646873 714.625 37.834373Q715.4531 37.021873 715.4531 35.771873Q715.4531 34.50625 714.6094 33.678123Q713.7656 32.85 712.4844 32.85Q711.25 32.85 710.4375 33.678123Q709.625 34.490623 709.625 35.725ZM724.46875 39.85L724.46875 36.428123L718.25 36.428123L718.25 34.803123L724.78125 25.537498L726.21875 25.537498L726.21875 34.803123L728.15625 34.803123L728.15625 36.428123L726.21875 36.428123L726.21875 39.85L724.46875 39.85ZM724.46875 34.803123L724.46875 28.349998L719.9844 34.803123L724.46875 34.803123ZM735.6406 35.553123L735.6406 33.7875L741.03125 33.7875L741.03125 35.553123L735.6406 35.553123ZM749.6094 39.85L749.6094 25.537498L751.5 25.537498L751.5 31.412498L758.9375 31.412498L758.9375 25.537498L760.8281 25.537498L760.8281 39.85L758.9375 39.85L758.9375 33.1L751.5 33.1L751.5 39.85L749.6094 39.85ZM768.4531 39.85L766.6875 39.85L766.6875 28.646873Q766.0625 29.256248 765.03125 29.865623Q764.0 30.459373 763.1719 30.771873L763.1719 29.068748Q764.65625 28.381248 765.75 27.396873Q766.8594 26.396873 767.3125 25.474998L768.4531 25.474998L768.4531 39.85ZM772.8281 32.7875Q772.8281 30.256248 773.34375 28.709373Q773.875 27.146873 774.90625 26.318748Q775.9375 25.474998 777.5 25.474998Q778.65625 25.474998 779.5156 25.943748Q780.3906 26.396873 780.9531 27.271873Q781.5156 28.146873 781.84375 29.412498Q782.1719 30.662498 782.1719 32.7875Q782.1719 35.303123 781.6406 36.85Q781.125 38.396873 780.09375 39.25625Q779.0781 40.1 777.5 40.1Q775.4219 40.1 774.25 38.615623Q772.8281 36.81875 772.8281 32.7875ZM774.6406 32.7875Q774.6406 36.31875 775.4531 37.490623Q776.28125 38.646873 777.5 38.646873Q778.7031 38.646873 779.53125 37.475Q780.3594 36.303123 780.3594 32.7875Q780.3594 29.256248 779.53125 28.099998Q778.7031 26.928123 777.4844 26.928123Q776.2656 26.928123 775.5469 27.959373Q774.6406 29.256248 774.6406 32.7875ZM783.8281 32.7875Q783.8281 30.256248 784.34375 28.709373Q784.875 27.146873 785.90625 26.318748Q786.9375 25.474998 788.5 25.474998Q789.65625 25.474998 790.5156 25.943748Q791.3906 26.396873 791.9531 27.271873Q792.5156 28.146873 792.84375 29.412498Q793.1719 30.662498 793.1719 32.7875Q793.1719 35.303123 792.6406 36.85Q792.125 38.396873 791.09375 39.25625Q790.0781 40.1 788.5 40.1Q786.4219 40.1 785.25 38.615623Q783.8281 36.81875 783.8281 32.7875ZM785.6406 32.7875Q785.6406 36.31875 786.4531 37.490623Q787.28125 38.646873 788.5 38.646873Q789.7031 38.646873 790.53125 37.475Q791.3594 36.303123 791.3594 32.7875Q791.3594 29.256248 790.53125 28.099998Q789.7031 26.928123 788.4844 26.928123Q787.2656 26.928123 786.5469 27.959373Q785.6406 29.256248 785.6406 32.7875Z" fill-rule="nonzero"/></svg>