<svg version="1.1" viewBox="0.0 0.0 1007.0 417.0" fill="none" stroke="none" stroke-linecap="square" stroke-miterlimit="10" width="1007" height="417" xmlns:xlink="http://www.w3.org/1999/xlink" xmlns="http://www.w3.org/2000/svg"><path fill="#ffffff" d="M0 0L1007.0 0L1007.0 417.0L0 417.0L0 0Z" fill-rule="nonzero"/><path stroke="#333333" stroke-width="1.0" stroke-linecap="butt" d="M88.5 93.5L88.5 344.5" fill-rule="nonzero"/><path stroke="#cccccc" stroke-width="1.0" stroke-linecap="butt" d="M305.5 93.5L305.5 344.5" fill-rule="nonzero"/><path stroke="#cccccc" stroke-width="1.0" stroke-linecap="butt" d="M522.5 93.5L522.5 344.5" fill-rule="nonzero"/><path stroke="#cccccc" stroke-width="1.0" stroke-linecap="butt" d="M738.5 93.5L738.5 344.5" fill-rule="nonzero"/><path stroke="#cccccc" stroke-width="1.0" stroke-linecap="butt" d="M955.5 93.5L955.5 344.5" fill-rule="nonzero"/><path stroke="#333333" stroke-width="1.0" stroke-linecap="butt" d="M79.5 344.5L986.5 344.5" fill-rule="nonzero"/><path stroke="#cccccc" stroke-width="1.0" stroke-linecap="butt" d="M79.5 260.5L986.5 260.5" fill-rule="nonzero"/><path stroke="#cccccc" stroke-width="1.0" stroke-linecap="butt" d="M79.5 177.5L986.5 177.5" fill-rule="nonzero"/><path stroke="#cccccc" stroke-width="1.0" stroke-linecap="butt" d="M79.5 93.5L986.5 93.5" fill-rule="nonzero"/><clipPath id="id_0"><path d="M79.85 93.65L986.15 93.65L986.15 344.15L79.85 344.15L79.85 93.65Z" clip-rule="nonzero"/></clipPath><path stroke="#6aa84f" stroke-width="2.0" stroke-linecap="butt" clip-path="url(#id_0)" d="M89.63409 207.21L90.500885 218.9L92.234474 217.23L95.70165 218.9L102.63602 220.57L116.504745 243.95L144.2422 282.36L199.71712 296.555L310.66696 298.225L532.5666 299.895L976.3659 300.73" fill-rule="nonzero"/><path stroke="#ea4335" stroke-width="2.0" stroke-linecap="butt" clip-path="url(#id_0)" d="M89.63409 149.595L90.500885 146.255L92.234474 167.13L95.70165 240.61L102.63602 277.35L116.504745 309.08L144.2422 326.615L199.71712 333.295L310.66696 336.635L532.5666 337.47L976.3659 337.47" fill-rule="nonzero"/><path stroke="#fbbc04" stroke-width="2.0" stroke-linecap="butt" clip-path="url(#id_0)" d="M89.63409 154.605L90.500885 230.59L92.234474 279.02L95.70165 288.205L102.63602 293.215L116.504745 313.255L144.2422 328.285L199.71712 334.13L310.66696 337.47L532.5666 337.47L976.3659 338.305" fill-rule="nonzero"/><path stroke="#c9daf8" stroke-width="2.0" stroke-linecap="butt" clip-path="url(#id_0)" d="M89.63409 136.235L90.500885 134.565L92.234474 136.235L95.70165 139.575L102.63602 139.575L116.504745 164.625L144.2422 214.725L199.71712 243.95L310.66696 270.67L532.5666 273.175L976.3659 275.68" fill-rule="nonzero"/><path fill="#6aa84f" clip-path="url(#id_0)" d="M85.39145 202.96736L89.63409 205.71L93.876724 202.96736L91.13409 207.21L93.876724 211.45264L89.63409 208.71L85.39145 211.45264L88.13409 207.21Z" fill-rule="nonzero"/><path fill="#6aa84f" clip-path="url(#id_0)" d="M86.25824 214.65736L90.500885 217.4L94.74352 214.65736L92.000885 218.9L94.74352 223.14264L90.500885 220.4L86.25824 223.14264L89.000885 218.9Z" fill-rule="nonzero"/><path fill="#6aa84f" clip-path="url(#id_0)" d="M87.99184 212.98737L92.234474 215.73L96.47711 212.98737L93.734474 217.23L96.47711 221.47264L92.234474 218.73L87.99184 221.47264L90.734474 217.23Z" fill-rule="nonzero"/><path fill="#6aa84f" clip-path="url(#id_0)" d="M91.459015 214.65736L95.70165 217.4L99.9443 214.65736L97.20165 218.9L99.9443 223.14264L95.70165 220.4L91.459015 223.14264L94.20165 218.9Z" fill-rule="nonzero"/><path fill="#6aa84f" clip-path="url(#id_0)" d="M98.39338 216.32736L102.63602 219.07L106.87866 216.32736L104.13602 220.57L106.87866 224.81264L102.63602 222.07L98.39338 224.81264L101.13602 220.57Z" fill-rule="nonzero"/><path fill="#6aa84f" clip-path="url(#id_0)" d="M112.26211 239.70735L116.504745 242.45L120.74739 239.70735L118.004745 243.95L120.74739 248.19264L116.504745 245.45L112.26211 248.19264L115.004745 243.95Z" fill-rule="nonzero"/><path fill="#6aa84f" clip-path="url(#id_0)" d="M139.99956 278.11737L144.2422 280.86L148.48485 278.11737L145.7422 282.36L148.48485 286.60263L144.2422 283.86L139.99956 286.60263L142.7422 282.36Z" fill-rule="nonzero"/><path fill="#6aa84f" clip-path="url(#id_0)" d="M195.47447 292.31235L199.71712 295.055L203.95976 292.31235L201.21712 296.555L203.95976 300.79764L199.71712 298.055L195.47447 300.79764L198.21712 296.555Z" fill-rule="nonzero"/><path fill="#6aa84f" clip-path="url(#id_0)" d="M306.42432 293.98236L310.66696 296.725L314.90958 293.98236L312.16696 298.225L314.90958 302.46765L310.66696 299.725L306.42432 302.46765L309.16696 298.225Z" fill-rule="nonzero"/><path fill="#6aa84f" clip-path="url(#id_0)" d="M528.324 295.65237L532.5666 298.395L536.80927 295.65237L534.0666 299.895L536.80927 304.13763L532.5666 301.395L528.324 304.13763L531.0666 299.895Z" fill-rule="nonzero"/><path fill="#6aa84f" clip-path="url(#id_0)" d="M972.1233 296.48737L976.3659 299.23L980.6086 296.48737L977.8659 300.73L980.6086 304.97263L976.3659 302.23L972.1233 304.97263L974.8659 300.73Z" fill-rule="nonzero"/><path fill="#ea4335" clip-path="url(#id_0)" d="M85.39145 145.35236L89.63409 148.095L93.876724 145.35236L91.13409 149.595L93.876724 153.83765L89.63409 151.095L85.39145 153.83765L88.13409 149.595Z" fill-rule="nonzero"/><path fill="#ea4335" clip-path="url(#id_0)" d="M86.25824 142.01236L90.500885 144.755L94.74352 142.01236L92.000885 146.255L94.74352 150.49763L90.500885 147.755L86.25824 150.49763L89.000885 146.255Z" fill-rule="nonzero"/><path fill="#ea4335" clip-path="url(#id_0)" d="M87.99184 162.88736L92.234474 165.63L96.47711 162.88736L93.734474 167.13L96.47711 171.37263L92.234474 168.63L87.99184 171.37263L90.734474 167.13Z" fill-rule="nonzero"/><path fill="#ea4335" clip-path="url(#id_0)" d="M91.459015 236.36736L95.70165 239.11L99.9443 236.36736L97.20165 240.61L99.9443 244.85265L95.70165 242.11L91.459015 244.85265L94.20165 240.61Z" fill-rule="nonzero"/><path fill="#ea4335" clip-path="url(#id_0)" d="M98.39338 273.10736L102.63602 275.85L106.87866 273.10736L104.13602 277.35L106.87866 281.59265L102.63602 278.85L98.39338 281.59265L101.13602 277.35Z" fill-rule="nonzero"/><path fill="#ea4335" clip-path="url(#id_0)" d="M112.26211 304.83737L116.504745 307.58L120.74739 304.83737L118.004745 309.08L120.74739 313.32263L116.504745 310.58L112.26211 313.32263L115.004745 309.08Z" fill-rule="nonzero"/><path fill="#ea4335" clip-path="url(#id_0)" d="M139.99956 322.37234L144.2422 325.115L148.48485 322.37234L145.7422 326.615L148.48485 330.85764L144.2422 328.115L139.99956 330.85764L142.7422 326.615Z" fill-rule="nonzero"/><path fill="#ea4335" clip-path="url(#id_0)" d="M195.47447 329.05237L199.71712 331.795L203.95976 329.05237L201.21712 333.295L203.95976 337.53763L199.71712 334.795L195.47447 337.53763L198.21712 333.295Z" fill-rule="nonzero"/><path fill="#ea4335" clip-path="url(#id_0)" d="M306.42432 332.39236L310.66696 335.135L314.90958 332.39236L312.16696 336.635L314.90958 340.87766L310.66696 338.135L306.42432 340.87766L309.16696 336.635Z" fill-rule="nonzero"/><path fill="#ea4335" clip-path="url(#id_0)" d="M528.324 333.22736L532.5666 335.97L536.80927 333.22736L534.0666 337.47L536.80927 341.71265L532.5666 338.97L528.324 341.71265L531.0666 337.47Z" fill-rule="nonzero"/><path fill="#ea4335" clip-path="url(#id_0)" d="M972.1233 333.22736L976.3659 335.97L980.6086 333.22736L977.8659 337.47L980.6086 341.71265L976.3659 338.97L972.1233 341.71265L974.8659 337.47Z" fill-rule="nonzero"/><path fill="#fbbc04" clip-path="url(#id_0)" d="M85.39145 150.36237L89.63409 153.105L93.876724 150.36237L91.13409 154.605L93.876724 158.84764L89.63409 156.105L85.39145 158.84764L88.13409 154.605Z" fill-rule="nonzero"/><path fill="#fbbc04" clip-path="url(#id_0)" d="M86.25824 226.34737L90.500885 229.09L94.74352 226.34737L92.000885 230.59L94.74352 234.83264L90.500885 232.09L86.25824 234.83264L89.000885 230.59Z" fill-rule="nonzero"/><path fill="#fbbc04" clip-path="url(#id_0)" d="M87.99184 274.77737L92.234474 277.52L96.47711 274.77737L93.734474 279.02L96.47711 283.26263L92.234474 280.52L87.99184 283.26263L90.734474 279.02Z" fill-rule="nonzero"/><path fill="#fbbc04" clip-path="url(#id_0)" d="M91.459015 283.96237L95.70165 286.705L99.9443 283.96237L97.20165 288.205L99.9443 292.44763L95.70165 289.705L91.459015 292.44763L94.20165 288.205Z" fill-rule="nonzero"/><path fill="#fbbc04" clip-path="url(#id_0)" d="M98.39338 288.97235L102.63602 291.715L106.87866 288.97235L104.13602 293.215L106.87866 297.45764L102.63602 294.715L98.39338 297.45764L101.13602 293.215Z" fill-rule="nonzero"/><path fill="#fbbc04" clip-path="url(#id_0)" d="M112.26211 309.01236L116.504745 311.755L120.74739 309.01236L118.004745 313.255L120.74739 317.49765L116.504745 314.755L112.26211 317.49765L115.004745 313.255Z" fill-rule="nonzero"/><path fill="#fbbc04" clip-path="url(#id_0)" d="M139.99956 324.04236L144.2422 326.785L148.48485 324.04236L145.7422 328.285L148.48485 332.52765L144.2422 329.785L139.99956 332.52765L142.7422 328.285Z" fill-rule="nonzero"/><path fill="#fbbc04" clip-path="url(#id_0)" d="M195.47447 329.88736L199.71712 332.63L203.95976 329.88736L201.21712 334.13L203.95976 338.37265L199.71712 335.63L195.47447 338.37265L198.21712 334.13Z" fill-rule="nonzero"/><path fill="#fbbc04" clip-path="url(#id_0)" d="M306.42432 333.22736L310.66696 335.97L314.90958 333.22736L312.16696 337.47L314.90958 341.71265L310.66696 338.97L306.42432 341.71265L309.16696 337.47Z" fill-rule="nonzero"/><path fill="#fbbc04" clip-path="url(#id_0)" d="M528.324 333.22736L532.5666 335.97L536.80927 333.22736L534.0666 337.47L536.80927 341.71265L532.5666 338.97L528.324 341.71265L531.0666 337.47Z" fill-rule="nonzero"/><path fill="#fbbc04" clip-path="url(#id_0)" d="M972.1233 334.06235L976.3659 336.805L980.6086 334.06235L977.8659 338.305L980.6086 342.54764L976.3659 339.805L972.1233 342.54764L974.8659 338.305Z" fill-rule="nonzero"/><path fill="#c9daf8" clip-path="url(#id_0)" d="M85.39145 131.99236L89.63409 134.735L93.876724 131.99236L91.13409 136.235L93.876724 140.47765L89.63409 137.735L85.39145 140.47765L88.13409 136.235Z" fill-rule="nonzero"/><path fill="#c9daf8" clip-path="url(#id_0)" d="M86.25824 130.32236L90.500885 133.065L94.74352 130.32236L92.000885 134.565L94.74352 138.80765L90.500885 136.065L86.25824 138.80765L89.000885 134.565Z" fill-rule="nonzero"/><path fill="#c9daf8" clip-path="url(#id_0)" d="M87.99184 131.99236L92.234474 134.735L96.47711 131.99236L93.734474 136.235L96.47711 140.47765L92.234474 137.735L87.99184 140.47765L90.734474 136.235Z" fill-rule="nonzero"/><path fill="#c9daf8" clip-path="url(#id_0)" d="M91.459015 135.33235L95.70165 138.075L99.9443 135.33235L97.20165 139.575L99.9443 143.81764L95.70165 141.075L91.459015 143.81764L94.20165 139.575Z" fill-rule="nonzero"/><path fill="#c9daf8" clip-path="url(#id_0)" d="M98.39338 135.33235L102.63602 138.075L106.87866 135.33235L104.13602 139.575L106.87866 143.81764L102.63602 141.075L98.39338 143.81764L101.13602 139.575Z" fill-rule="nonzero"/><path fill="#c9daf8" clip-path="url(#id_0)" d="M112.26211 160.38235L116.504745 163.125L120.74739 160.38235L118.004745 164.625L120.74739 168.86765L116.504745 166.125L112.26211 168.86765L115.004745 164.625Z" fill-rule="nonzero"/><path fill="#c9daf8" clip-path="url(#id_0)" d="M139.99956 210.48236L144.2422 213.225L148.48485 210.48236L145.7422 214.725L148.48485 218.96764L144.2422 216.225L139.99956 218.96764L142.7422 214.725Z" fill-rule="nonzero"/><path fill="#c9daf8" clip-path="url(#id_0)" d="M195.47447 239.70735L199.71712 242.45L203.95976 239.70735L201.21712 243.95L203.95976 248.19264L199.71712 245.45L195.47447 248.19264L198.21712 243.95Z" fill-rule="nonzero"/><path fill="#c9daf8" clip-path="url(#id_0)" d="M306.42432 266.42737L310.66696 269.17L314.90958 266.42737L312.16696 270.67L314.90958 274.91263L310.66696 272.17L306.42432 274.91263L309.16696 270.67Z" fill-rule="nonzero"/><path fill="#c9daf8" clip-path="url(#id_0)" d="M528.324 268.93237L532.5666 271.675L536.80927 268.93237L534.0666 273.175L536.80927 277.41763L532.5666 274.675L528.324 277.41763L531.0666 273.175Z" fill-rule="nonzero"/><path fill="#c9daf8" clip-path="url(#id_0)" d="M972.1233 271.43735L976.3659 274.18L980.6086 271.43735L977.8659 275.68L980.6086 279.92264L976.3659 277.18L972.1233 279.92264L974.8659 275.68Z" fill-rule="nonzero"/><path fill="#000000" d="M505.375 393.15L505.375 384.55624L508.60938 384.55624Q509.59375 384.55624 510.1875 384.82187Q510.78125 385.0875 511.10938 385.63437Q511.45312 386.16562 511.45312 386.75937Q511.45312 387.30624 511.15625 387.79062Q510.85938 388.275 510.25 388.57187Q511.03125 388.80624 511.4375 389.36874Q511.85938 389.91562 511.85938 390.66562Q511.85938 391.25937 511.60938 391.79062Q511.35938 392.30624 510.98438 392.5875Q510.60938 392.86874 510.03125 393.00937Q509.46875 393.15 508.65625 393.15L505.375 393.15ZM506.51562 388.16562L508.375 388.16562Q509.125 388.16562 509.45312 388.07187Q509.89062 387.94687 510.10938 387.65Q510.32812 387.3375 510.32812 386.88437Q510.32812 386.4625 510.125 386.13437Q509.92188 385.80624 509.53125 385.69687Q509.15625 385.57187 508.23438 385.57187L506.51562 385.57187L506.51562 388.16562ZM506.51562 392.13437L508.65625 392.13437Q509.20312 392.13437 509.42188 392.0875Q509.82812 392.025 510.07812 391.86874Q510.34375 391.69687 510.51562 391.38437Q510.6875 391.07187 510.6875 390.66562Q510.6875 390.18124 510.4375 389.82187Q510.20312 389.4625 509.76562 389.32187Q509.32812 389.18124 508.5 389.18124L506.51562 389.18124L506.51562 392.13437ZM517.3594 392.38437Q516.7656 392.88437 516.21875 393.0875Q515.6875 393.29062 515.0625 393.29062Q514.03125 393.29062 513.4844 392.79062Q512.9375 392.29062 512.9375 391.50937Q512.9375 391.05624 513.1406 390.68124Q513.34375 390.29062 513.6875 390.07187Q514.03125 389.8375 514.4531 389.72812Q514.75 389.63437 515.3906 389.55624Q516.65625 389.41562 517.2656 389.19687Q517.2656 388.97812 517.2656 388.93124Q517.2656 388.275 516.96875 388.00937Q516.5625 387.66562 515.7656 387.66562Q515.03125 387.66562 514.6719 387.93124Q514.3125 388.18124 514.1406 388.8375L513.1094 388.69687Q513.25 388.04062 513.5781 387.63437Q513.90625 387.22812 514.5156 387.00937Q515.125 386.79062 515.9219 386.79062Q516.71875 386.79062 517.21875 386.97812Q517.71875 387.16562 517.9531 387.44687Q518.1875 387.72812 518.28125 388.16562Q518.3281 388.43124 518.3281 389.13437L518.3281 390.54062Q518.3281 392.00937 518.3906 392.4Q518.46875 392.79062 518.6719 393.15L517.5625 393.15Q517.40625 392.82187 517.3594 392.38437ZM517.2656 390.025Q516.6875 390.25937 515.5469 390.43124Q514.8906 390.525 514.625 390.65Q514.3594 390.75937 514.2031 390.97812Q514.0625 391.19687 514.0625 391.47812Q514.0625 391.9 514.375 392.18124Q514.7031 392.4625 515.3125 392.4625Q515.9219 392.4625 516.3906 392.19687Q516.875 391.93124 517.09375 391.4625Q517.2656 391.10312 517.2656 390.41562L517.2656 390.025ZM522.59375 392.2125L522.75 393.13437Q522.2969 393.22812 521.9531 393.22812Q521.375 393.22812 521.0625 393.05624Q520.75 392.86874 520.6094 392.57187Q520.4844 392.275 520.4844 391.32187L520.4844 387.74374L519.71875 387.74374L519.71875 386.93124L520.4844 386.93124L520.4844 385.38437L521.53125 384.75937L521.53125 386.93124L522.59375 386.93124L522.59375 387.74374L521.53125 387.74374L521.53125 391.38437Q521.53125 391.8375 521.5781 391.9625Q521.6406 392.0875 521.7656 392.16562Q521.8906 392.24374 522.125 392.24374Q522.3125 392.24374 522.59375 392.2125ZM527.3594 390.86874L528.3906 391.00937Q528.21875 392.07187 527.5156 392.68124Q526.8125 393.29062 525.7969 393.29062Q524.5156 393.29062 523.7344 392.4625Q522.96875 391.61874 522.96875 390.05624Q522.96875 389.05624 523.2969 388.30624Q523.6406 387.54062 524.3125 387.16562Q525.0 386.79062 525.8125 386.79062Q526.8125 386.79062 527.4531 387.30624Q528.1094 387.80624 528.2969 388.75937L527.2656 388.91562Q527.125 388.29062 526.75 387.97812Q526.375 387.65 525.84375 387.65Q525.0469 387.65 524.5469 388.22812Q524.0469 388.79062 524.0469 390.025Q524.0469 391.29062 524.53125 391.85312Q525.0156 392.41562 525.78125 392.41562Q526.40625 392.41562 526.8125 392.04062Q527.2344 391.66562 527.3594 390.86874ZM529.2969 393.15L529.2969 384.55624L530.34375 384.55624L530.34375 387.63437Q531.0781 386.79062 532.2031 386.79062Q532.90625 386.79062 533.40625 387.07187Q533.9219 387.3375 534.1406 387.82187Q534.3594 388.29062 534.3594 389.2125L534.3594 393.15L533.3125 393.15L533.3125 389.2125Q533.3125 388.41562 532.96875 388.05624Q532.625 387.69687 532.0 387.69687Q531.53125 387.69687 531.1094 387.94687Q530.7031 388.18124 530.5156 388.60312Q530.34375 389.00937 530.34375 389.74374L530.34375 393.15L529.2969 393.15ZM539.0469 390.38437L540.1094 390.29062Q540.1875 390.94687 540.46875 391.35312Q540.75 391.75937 541.3281 392.025Q541.9219 392.275 542.65625 392.275Q543.2969 392.275 543.7969 392.0875Q544.2969 391.88437 544.53125 391.55624Q544.78125 391.2125 544.78125 390.82187Q544.78125 390.41562 544.5469 390.11874Q544.3125 389.80624 543.78125 389.60312Q543.4219 389.4625 542.2344 389.18124Q541.0625 388.9 540.59375 388.65Q539.96875 388.32187 539.6719 387.85312Q539.375 387.36874 539.375 386.775Q539.375 386.13437 539.7344 385.57187Q540.1094 384.99374 540.8125 384.7125Q541.53125 384.41562 542.3906 384.41562Q543.34375 384.41562 544.0781 384.72812Q544.8125 385.025 545.2031 385.63437Q545.59375 386.22812 545.625 386.97812L544.53125 387.05624Q544.4375 386.24374 543.9219 385.8375Q543.4219 385.41562 542.4375 385.41562Q541.40625 385.41562 540.9375 385.79062Q540.46875 386.16562 540.46875 386.69687Q540.46875 387.16562 540.7969 387.4625Q541.125 387.75937 542.5 388.07187Q543.8906 388.38437 544.40625 388.61874Q545.15625 388.97812 545.5156 389.50937Q545.875 390.025 545.875 390.72812Q545.875 391.41562 545.4844 392.025Q545.09375 392.61874 544.3594 392.9625Q543.625 393.29062 542.7031 393.29062Q541.53125 393.29062 540.7344 392.9625Q539.9531 392.61874 539.5 391.93124Q539.0625 391.24374 539.0469 390.38437ZM547.2969 385.775L547.2969 384.55624L548.3594 384.55624L548.3594 385.775L547.2969 385.775ZM547.2969 393.15L547.2969 386.93124L548.3594 386.93124L548.3594 393.15L547.2969 393.15ZM549.7344 393.15L549.7344 392.29062L553.7031 387.74374Q553.0156 387.775 552.5 387.775L549.96875 387.775L549.96875 386.93124L555.0625 386.93124L555.0625 387.61874L551.6875 391.57187L551.03125 392.29062Q551.75 392.24374 552.3594 392.24374L555.25 392.24374L555.25 393.15L549.7344 393.15ZM559.5469 391.15L560.6406 391.275Q560.3906 392.22812 559.6875 392.75937Q558.9844 393.29062 557.90625 393.29062Q556.5469 393.29062 555.7344 392.44687Q554.9375 391.60312 554.9375 390.0875Q554.9375 388.525 555.75 387.66562Q556.5625 386.79062 557.84375 386.79062Q559.09375 386.79062 559.875 387.63437Q560.6719 388.47812 560.6719 390.025Q560.6719 390.11874 560.6719 390.30624L556.03125 390.30624Q556.09375 391.3375 556.6094 391.88437Q557.125 392.41562 557.90625 392.41562Q558.4844 392.41562 558.8906 392.11874Q559.3125 391.80624 559.5469 391.15ZM556.09375 389.44687L559.5625 389.44687Q559.5 388.65 559.1719 388.25937Q558.65625 387.65 557.8594 387.65Q557.125 387.65 556.625 388.13437Q556.1406 388.61874 556.09375 389.44687Z" fill-rule="nonzero"/><path fill="#000000" d="M29.08437 259.85312L28.99062 258.79062Q29.64687 258.7125 30.05312 258.43124Q30.45937 258.15 30.724995 257.57187Q30.974995 256.97812 30.974995 256.24374Q30.974995 255.60312 30.787495 255.10312Q30.58437 254.60312 30.256245 254.36874Q29.912495 254.11874 29.52187 254.11874Q29.11562 254.11874 28.818745 254.35312Q28.506245 254.5875 28.30312 255.11874Q28.162495 255.47812 27.881245 256.66562Q27.599995 257.8375 27.349995 258.30624Q27.02187 258.93124 26.55312 259.22812Q26.068745 259.525 25.474995 259.525Q24.83437 259.525 24.27187 259.16562Q23.693745 258.79062 23.412495 258.0875Q23.11562 257.36874 23.11562 256.50937Q23.11562 255.55624 23.42812 254.82187Q23.724995 254.0875 24.33437 253.69687Q24.92812 253.30624 25.67812 253.275L25.756245 254.36874Q24.943745 254.4625 24.537495 254.97812Q24.11562 255.47812 24.11562 256.4625Q24.11562 257.49374 24.49062 257.9625Q24.86562 258.43124 25.39687 258.43124Q25.86562 258.43124 26.162495 258.10312Q26.45937 257.775 26.77187 256.4Q27.08437 255.00937 27.318745 254.49374Q27.67812 253.74374 28.20937 253.38437Q28.724995 253.025 29.42812 253.025Q30.11562 253.025 30.724995 253.41562Q31.318745 253.80624 31.662495 254.54062Q31.99062 255.275 31.99062 256.19687Q31.99062 257.36874 31.662495 258.16562Q31.318745 258.94687 30.631245 259.4Q29.943745 259.8375 29.08437 259.85312ZM34.24062 251.60312L25.631245 251.60312L25.631245 250.65L26.42812 250.65Q25.95937 250.30624 25.724995 249.88437Q25.49062 249.44687 25.49062 248.8375Q25.49062 248.04062 25.89687 247.43124Q26.30312 246.82187 27.05312 246.525Q27.80312 246.2125 28.693745 246.2125Q29.64687 246.2125 30.412495 246.55624Q31.17812 246.88437 31.58437 247.54062Q31.99062 248.19687 31.99062 248.91562Q31.99062 249.44687 31.77187 249.86874Q31.537495 250.29062 31.20937 250.55624L34.24062 250.55624L34.24062 251.60312ZM28.77187 250.65Q29.974995 250.65 30.55312 250.16562Q31.11562 249.68124 31.11562 248.99374Q31.11562 248.29062 30.52187 247.79062Q29.92812 247.29062 28.67812 247.29062Q27.49062 247.29062 26.912495 247.775Q26.318745 248.25937 26.318745 248.94687Q26.318745 249.61874 26.943745 250.13437Q27.568745 250.65 28.77187 250.65ZM29.849995 240.35312L29.974995 239.25937Q30.92812 239.50937 31.45937 240.2125Q31.99062 240.91562 31.99062 241.99374Q31.99062 243.35312 31.14687 244.16562Q30.30312 244.9625 28.787495 244.9625Q27.224995 244.9625 26.36562 244.15Q25.49062 243.3375 25.49062 242.05624Q25.49062 240.80624 26.33437 240.025Q27.17812 239.22812 28.724995 239.22812Q28.818745 239.22812 29.006245 239.22812L29.006245 243.86874Q30.037495 243.80624 30.58437 243.29062Q31.11562 242.775 31.11562 241.99374Q31.11562 241.41562 30.818745 241.00937Q30.506245 240.5875 29.849995 240.35312ZM28.14687 243.80624L28.14687 240.3375Q27.349995 240.4 26.95937 240.72812Q26.349995 241.24374 26.349995 242.04062Q26.349995 242.775 26.83437 243.275Q27.318745 243.75937 28.14687 243.80624ZM29.849995 233.35312L29.974995 232.25937Q30.92812 232.50937 31.45937 233.2125Q31.99062 233.91562 31.99062 234.99374Q31.99062 236.35312 31.14687 237.16562Q30.30312 237.9625 28.787495 237.9625Q27.224995 237.9625 26.36562 237.15Q25.49062 236.3375 25.49062 235.05624Q25.49062 233.80624 26.33437 233.025Q27.17812 232.22812 28.724995 232.22812Q28.818745 232.22812 29.006245 232.22812L29.006245 236.86874Q30.037495 236.80624 30.58437 236.29062Q31.11562 235.775 31.11562 234.99374Q31.11562 234.41562 30.818745 234.00937Q30.506245 233.5875 29.849995 233.35312ZM28.14687 236.80624L28.14687 233.3375Q27.349995 233.4 26.95937 233.72812Q26.349995 234.24374 26.349995 235.04062Q26.349995 235.775 26.83437 236.275Q27.318745 236.75937 28.14687 236.80624ZM31.849995 226.57187L31.068745 226.57187Q31.99062 227.16562 31.99062 228.30624Q31.99062 229.05624 31.58437 229.68124Q31.162495 230.30624 30.42812 230.65Q29.693745 230.99374 28.74062 230.99374Q27.818745 230.99374 27.05312 230.68124Q26.287495 230.36874 25.89687 229.74374Q25.49062 229.11874 25.49062 228.35312Q25.49062 227.79062 25.724995 227.35312Q25.95937 226.91562 26.33437 226.63437L23.256245 226.63437L23.256245 225.5875L31.849995 225.5875L31.849995 226.57187ZM28.74062 229.9Q29.943745 229.9 30.537495 229.4Q31.11562 228.9 31.11562 228.2125Q31.11562 227.525 30.55312 227.04062Q29.99062 226.55624 28.83437 226.55624Q27.55312 226.55624 26.95937 227.05624Q26.36562 227.54062 26.36562 228.25937Q26.36562 228.9625 26.943745 229.43124Q27.506245 229.9 28.74062 229.9ZM29.27187 224.025L28.20937 224.025L28.20937 220.775L29.27187 220.775L29.27187 224.025ZM31.849995 215.525L30.92812 215.525Q31.99062 216.25937 31.99062 217.50937Q31.99062 218.05624 31.787495 218.54062Q31.568745 219.00937 31.256245 219.24374Q30.92812 219.47812 30.45937 219.57187Q30.162495 219.63437 29.474995 219.63437L25.631245 219.63437L25.631245 218.57187L29.08437 218.57187Q29.89687 218.57187 30.193745 218.50937Q30.599995 218.41562 30.849995 218.10312Q31.08437 217.775 31.08437 217.29062Q31.08437 216.82187 30.849995 216.41562Q30.599995 215.99374 30.17812 215.82187Q29.756245 215.63437 28.95937 215.63437L25.631245 215.63437L25.631245 214.5875L31.849995 214.5875L31.849995 215.525ZM34.24062 212.60312L25.631245 212.60312L25.631245 211.65L26.42812 211.65Q25.95937 211.30624 25.724995 210.88437Q25.49062 210.44687 25.49062 209.8375Q25.49062 209.04062 25.89687 208.43124Q26.30312 207.82187 27.05312 207.525Q27.80312 207.2125 28.693745 207.2125Q29.64687 207.2125 30.412495 207.55624Q31.17812 207.88437 31.58437 208.54062Q31.99062 209.19687 31.99062 209.91562Q31.99062 210.44687 31.77187 210.86874Q31.537495 211.29062 31.20937 211.55624L34.24062 211.55624L34.24062 212.60312ZM28.77187 211.65Q29.974995 211.65 30.55312 211.16562Q31.11562 210.68124 31.11562 209.99374Q31.11562 209.29062 30.52187 208.79062Q29.92812 208.29062 28.67812 208.29062Q27.49062 208.29062 26.912495 208.775Q26.318745 209.25937 26.318745 209.94687Q26.318745 210.61874 26.943745 211.13437Q27.568745 211.65 28.77187 211.65ZM34.381245 200.5875Q33.27187 201.4625 31.80312 202.07187Q30.318745 202.66562 28.74062 202.66562Q27.349995 202.66562 26.068745 202.22812Q24.58437 201.69687 23.11562 200.5875L23.11562 199.8375Q24.33437 200.54062 24.849995 200.775Q25.662495 201.13437 26.537495 201.3375Q27.631245 201.5875 28.74062 201.5875Q31.568745 201.5875 34.381245 199.8375L34.381245 200.5875ZM31.849995 199.30624L28.61562 197.04062L25.631245 199.13437L25.631245 197.82187L27.08437 196.86874Q27.506245 196.60312 27.787495 196.43124Q27.39687 196.18124 27.099995 195.9625L25.631245 194.91562L25.631245 193.65L28.55312 195.80624L31.849995 193.49374L31.849995 194.775L29.912495 196.05624L29.39687 196.4L31.849995 198.04062L31.849995 199.30624ZM34.381245 192.91562L34.381245 193.66562Q31.568745 191.91562 28.74062 191.91562Q27.64687 191.91562 26.55312 192.16562Q25.67812 192.36874 24.86562 192.72812Q24.349995 192.9625 23.11562 193.66562L23.11562 192.91562Q24.58437 191.82187 26.068745 191.29062Q27.349995 190.8375 28.74062 190.8375Q30.318745 190.8375 31.80312 191.44687Q33.27187 192.05624 34.381245 192.91562Z" fill-rule="nonzero"/><path fill="#000000" d="M67.35 343.91562Q67.35 342.38437 67.6625 341.4625Q67.975 340.525 68.58437 340.025Q69.20937 339.525 70.14687 339.525Q70.83437 339.525 71.35 339.80624Q71.88125 340.0875 72.225 340.61874Q72.56875 341.13437 72.75625 341.88437Q72.94375 342.63437 72.94375 343.91562Q72.94375 345.43124 72.63125 346.35312Q72.33437 347.275 71.70937 347.79062Q71.1 348.29062 70.14687 348.29062Q68.9125 348.29062 68.19375 347.4Q67.35 346.3375 67.35 343.91562ZM68.42812 343.91562Q68.42812 346.025 68.92812 346.72812Q69.42812 347.43124 70.14687 347.43124Q70.88125 347.43124 71.36562 346.72812Q71.86562 346.025 71.86562 343.91562Q71.86562 341.79062 71.36562 341.10312Q70.88125 340.4 70.13125 340.4Q69.4125 340.4 68.975 341.00937Q68.42812 341.79062 68.42812 343.91562Z" fill-rule="nonzero"/><path fill="#000000" d="M71.31875 264.65L70.27187 264.65L70.27187 257.93124Q69.88125 258.29062 69.25625 258.66562Q68.64687 259.025 68.1625 259.19687L68.1625 258.18124Q69.0375 257.75937 69.69375 257.18124Q70.36562 256.5875 70.64687 256.025L71.31875 256.025L71.31875 264.65Z" fill-rule="nonzero"/><path fill="#000000" d="M72.89687 180.13437L72.89687 181.15L67.20937 181.15Q67.20937 180.775 67.33437 180.41562Q67.55312 179.8375 68.02187 179.275Q68.50625 178.7125 69.4125 177.97812Q70.81875 176.82187 71.30312 176.15Q71.80312 175.47812 71.80312 174.88437Q71.80312 174.25937 71.35 173.8375Q70.89687 173.4 70.17812 173.4Q69.4125 173.4 68.95937 173.85312Q68.50625 174.30624 68.49062 175.11874L67.4125 175.00937Q67.52187 173.79062 68.24062 173.16562Q68.975 172.525 70.20937 172.525Q71.44375 172.525 72.1625 173.2125Q72.88125 173.9 72.88125 174.91562Q72.88125 175.43124 72.6625 175.93124Q72.45937 176.41562 71.95937 176.97812Q71.475 177.525 70.35 178.47812Q69.39687 179.275 69.11562 179.57187Q68.85 179.85312 68.67812 180.13437L72.89687 180.13437Z" fill-rule="nonzero"/><path fill="#000000" d="M67.35 95.38438L68.4125 95.24375Q68.58437 96.13438 69.02187 96.54063Q69.45937 96.93125 70.08437 96.93125Q70.83437 96.93125 71.35 96.41563Q71.86562 95.9 71.86562 95.13438Q71.86562 94.41563 71.38125 93.94688Q70.9125 93.4625 70.17812 93.4625Q69.88125 93.4625 69.42812 93.5875L69.55312 92.65Q69.6625 92.66563 69.725 92.66563Q70.39687 92.66563 70.92812 92.32188Q71.475 91.9625 71.475 91.22813Q71.475 90.65 71.08437 90.275Q70.69375 89.88438 70.06875 89.88438Q69.45937 89.88438 69.0375 90.275Q68.63125 90.66563 68.52187 91.43125L67.45937 91.24375Q67.64687 90.19688 68.33437 89.61875Q69.02187 89.025 70.0375 89.025Q70.74062 89.025 71.33437 89.3375Q71.92812 89.63438 72.24062 90.15Q72.55312 90.66563 72.55312 91.25938Q72.55312 91.80625 72.25625 92.275Q71.95937 92.72813 71.38125 92.99375Q72.13125 93.16563 72.55312 93.72813Q72.975 94.275 72.975 95.11875Q72.975 96.24375 72.14687 97.025Q71.33437 97.80625 70.08437 97.80625Q68.95937 97.80625 68.20937 97.13438Q67.45937 96.44688 67.35 95.38438Z" fill-rule="nonzero"/><path fill="#000000" d="M85.76729 356.91562Q85.76729 355.38437 86.07979 354.4625Q86.39229 353.525 87.00166 353.025Q87.62666 352.525 88.56416 352.525Q89.25166 352.525 89.76729 352.80624Q90.29854 353.0875 90.64229 353.61874Q90.98604 354.13437 91.17354 354.88437Q91.36104 355.63437 91.36104 356.91562Q91.36104 358.43124 91.04854 359.35312Q90.75166 360.275 90.12666 360.79062Q89.51729 361.29062 88.56416 361.29062Q87.32979 361.29062 86.61104 360.4Q85.76729 359.3375 85.76729 356.91562ZM86.84541 356.91562Q86.84541 359.025 87.34541 359.72812Q87.84541 360.43124 88.56416 360.43124Q89.29854 360.43124 89.78291 359.72812Q90.28291 359.025 90.28291 356.91562Q90.28291 354.79062 89.78291 354.10312Q89.29854 353.4 88.54854 353.4Q87.82979 353.4 87.39229 354.00937Q86.84541 354.79062 86.84541 356.91562Z" fill-rule="nonzero"/><path fill="#000000" d="M301.01306 360.13437L301.01306 361.15L295.32556 361.15Q295.32556 360.775 295.45056 360.41562Q295.6693 359.8375 296.13806 359.275Q296.62244 358.7125 297.5287 357.97812Q298.93494 356.82187 299.4193 356.15Q299.9193 355.47812 299.9193 354.88437Q299.9193 354.25937 299.4662 353.8375Q299.01306 353.4 298.2943 353.4Q297.5287 353.4 297.07556 353.85312Q296.62244 354.30624 296.6068 355.11874L295.5287 355.00937Q295.63806 353.79062 296.3568 353.16562Q297.0912 352.525 298.32556 352.525Q299.55994 352.525 300.2787 353.2125Q300.99744 353.9 300.99744 354.91562Q300.99744 355.43124 300.7787 355.93124Q300.57556 356.41562 300.07556 356.97812Q299.5912 357.525 298.4662 358.47812Q297.51306 359.275 297.2318 359.57187Q296.9662 359.85312 296.7943 360.13437L301.01306 360.13437ZM302.4662 358.9L303.57556 358.80624Q303.70056 359.61874 304.13806 360.025Q304.5912 360.43124 305.2318 360.43124Q305.9818 360.43124 306.51306 359.85312Q307.0443 359.275 307.0443 358.3375Q307.0443 357.43124 306.5287 356.91562Q306.0287 356.38437 305.20056 356.38437Q304.70056 356.38437 304.2787 356.61874Q303.87244 356.85312 303.63806 357.2125L302.6537 357.0875L303.4818 352.68124L307.76306 352.68124L307.76306 353.68124L304.32556 353.68124L303.87244 355.99374Q304.63806 355.44687 305.4818 355.44687Q306.6068 355.44687 307.37244 356.22812Q308.1537 357.00937 308.1537 358.24374Q308.1537 359.4 307.4818 360.25937Q306.6537 361.29062 305.2318 361.29062Q304.05994 361.29062 303.30994 360.63437Q302.57556 359.97812 302.4662 358.9ZM309.4662 356.91562Q309.4662 355.38437 309.7787 354.4625Q310.0912 353.525 310.70056 353.025Q311.32556 352.525 312.26306 352.525Q312.95056 352.525 313.4662 352.80624Q313.99744 353.0875 314.3412 353.61874Q314.68494 354.13437 314.87244 354.88437Q315.05994 355.63437 315.05994 356.91562Q315.05994 358.43124 314.74744 359.35312Q314.45056 360.275 313.82556 360.79062Q313.2162 361.29062 312.26306 361.29062Q311.0287 361.29062 310.30994 360.4Q309.4662 359.3375 309.4662 356.91562ZM310.5443 356.91562Q310.5443 359.025 311.0443 359.72812Q311.5443 360.43124 312.26306 360.43124Q312.99744 360.43124 313.4818 359.72812Q313.9818 359.025 313.9818 356.91562Q313.9818 354.79062 313.4818 354.10312Q312.99744 353.4 312.24744 353.4Q311.5287 353.4 311.0912 354.00937Q310.5443 354.79062 310.5443 356.91562Z" fill-rule="nonzero"/><path fill="#000000" d="M512.16504 358.9L513.2744 358.80624Q513.3994 359.61874 513.8369 360.025Q514.29004 360.43124 514.93066 360.43124Q515.68066 360.43124 516.2119 359.85312Q516.74316 359.275 516.74316 358.3375Q516.74316 357.43124 516.22754 356.91562Q515.72754 356.38437 514.8994 356.38437Q514.3994 356.38437 513.97754 356.61874Q513.5713 356.85312 513.3369 357.2125L512.35254 357.0875L513.18066 352.68124L517.4619 352.68124L517.4619 353.68124L514.0244 353.68124L513.5713 355.99374Q514.3369 355.44687 515.18066 355.44687Q516.30566 355.44687 517.0713 356.22812Q517.85254 357.00937 517.85254 358.24374Q517.85254 359.4 517.18066 360.25937Q516.35254 361.29062 514.93066 361.29062Q513.7588 361.29062 513.0088 360.63437Q512.2744 359.97812 512.16504 358.9ZM519.16504 356.91562Q519.16504 355.38437 519.47754 354.4625Q519.79004 353.525 520.3994 353.025Q521.0244 352.525 521.9619 352.525Q522.6494 352.525 523.16504 352.80624Q523.6963 353.0875 524.04004 353.61874Q524.3838 354.13437 524.5713 354.88437Q524.7588 355.63437 524.7588 356.91562Q524.7588 358.43124 524.4463 359.35312Q524.1494 360.275 523.5244 360.79062Q522.91504 361.29062 521.9619 361.29062Q520.72754 361.29062 520.0088 360.4Q519.16504 359.3375 519.16504 356.91562ZM520.24316 356.91562Q520.24316 359.025 520.74316 359.72812Q521.24316 360.43124 521.9619 360.43124Q522.6963 360.43124 523.18066 359.72812Q523.68066 359.025 523.68066 356.91562Q523.68066 354.79062 523.18066 354.10312Q522.6963 353.4 521.9463 353.4Q521.22754 353.4 520.79004 354.00937Q520.24316 354.79062 520.24316 356.91562ZM526.16504 356.91562Q526.16504 355.38437 526.47754 354.4625Q526.79004 353.525 527.3994 353.025Q528.0244 352.525 528.9619 352.525Q529.6494 352.525 530.16504 352.80624Q530.6963 353.0875 531.04004 353.61874Q531.3838 354.13437 531.5713 354.88437Q531.7588 355.63437 531.7588 356.91562Q531.7588 358.43124 531.4463 359.35312Q531.1494 360.275 530.5244 360.79062Q529.91504 361.29062 528.9619 361.29062Q527.72754 361.29062 527.0088 360.4Q526.16504 359.3375 526.16504 356.91562ZM527.24316 356.91562Q527.24316 359.025 527.74316 359.72812Q528.24316 360.43124 528.9619 360.43124Q529.6963 360.43124 530.18066 359.72812Q530.68066 359.025 530.68066 356.91562Q530.68066 354.79062 530.18066 354.10312Q529.6963 353.4 528.9463 353.4Q528.22754 353.4 527.79004 354.00937Q527.24316 354.79062 527.24316 356.91562Z" fill-rule="nonzero"/><path fill="#000000" d="M728.92645 353.68124L728.92645 352.66562L734.48895 352.66562L734.48895 353.49374Q733.67645 354.36874 732.86395 355.82187Q732.0671 357.25937 731.6296 358.79062Q731.30145 359.86874 731.2233 361.15L730.1296 361.15Q730.1452 360.13437 730.5202 358.69687Q730.9108 357.25937 731.61395 355.93124Q732.3327 354.60312 733.1452 353.68124L728.92645 353.68124ZM735.86395 358.9L736.9733 358.80624Q737.0983 359.61874 737.5358 360.025Q737.98895 360.43124 738.6296 360.43124Q739.3796 360.43124 739.9108 359.85312Q740.4421 359.275 740.4421 358.3375Q740.4421 357.43124 739.92645 356.91562Q739.42645 356.38437 738.5983 356.38437Q738.0983 356.38437 737.67645 356.61874Q737.2702 356.85312 737.0358 357.2125L736.05145 357.0875L736.8796 352.68124L741.1608 352.68124L741.1608 353.68124L737.7233 353.68124L737.2702 355.99374Q738.0358 355.44687 738.8796 355.44687Q740.0046 355.44687 740.7702 356.22812Q741.55145 357.00937 741.55145 358.24374Q741.55145 359.4 740.8796 360.25937Q740.05145 361.29062 738.6296 361.29062Q737.4577 361.29062 736.7077 360.63437Q735.9733 359.97812 735.86395 358.9ZM742.86395 356.91562Q742.86395 355.38437 743.17645 354.4625Q743.48895 353.525 744.0983 353.025Q744.7233 352.525 745.6608 352.525Q746.3483 352.525 746.86395 352.80624Q747.3952 353.0875 747.73895 353.61874Q748.0827 354.13437 748.2702 354.88437Q748.4577 355.63437 748.4577 356.91562Q748.4577 358.43124 748.1452 359.35312Q747.8483 360.275 747.2233 360.79062Q746.61395 361.29062 745.6608 361.29062Q744.42645 361.29062 743.7077 360.4Q742.86395 359.3375 742.86395 356.91562ZM743.9421 356.91562Q743.9421 359.025 744.4421 359.72812Q744.9421 360.43124 745.6608 360.43124Q746.3952 360.43124 746.8796 359.72812Q747.3796 359.025 747.3796 356.91562Q747.3796 354.79062 746.8796 354.10312Q746.3952 353.4 745.6452 353.4Q744.92645 353.4 744.48895 354.00937Q743.9421 354.79062 743.9421 356.91562Z" fill-rule="nonzero"/><path fill="#000000" d="M946.03156 361.15L944.9847 361.15L944.9847 354.43124Q944.59406 354.79062 943.96906 355.16562Q943.3597 355.525 942.8753 355.69687L942.8753 354.68124Q943.7503 354.25937 944.40656 353.68124Q945.0784 353.0875 945.3597 352.525L946.03156 352.525L946.03156 361.15ZM949.0628 356.91562Q949.0628 355.38437 949.3753 354.4625Q949.6878 353.525 950.2972 353.025Q950.9222 352.525 951.8597 352.525Q952.5472 352.525 953.0628 352.80624Q953.59406 353.0875 953.9378 353.61874Q954.28156 354.13437 954.46906 354.88437Q954.65656 355.63437 954.65656 356.91562Q954.65656 358.43124 954.34406 359.35312Q954.0472 360.275 953.4222 360.79062Q952.8128 361.29062 951.8597 361.29062Q950.6253 361.29062 949.90656 360.4Q949.0628 359.3375 949.0628 356.91562ZM950.1409 356.91562Q950.1409 359.025 950.6409 359.72812Q951.1409 360.43124 951.8597 360.43124Q952.59406 360.43124 953.0784 359.72812Q953.5784 359.025 953.5784 356.91562Q953.5784 354.79062 953.0784 354.10312Q952.59406 353.4 951.84406 353.4Q951.1253 353.4 950.6878 354.00937Q950.1409 354.79062 950.1409 356.91562ZM956.0628 356.91562Q956.0628 355.38437 956.3753 354.4625Q956.6878 353.525 957.2972 353.025Q957.9222 352.525 958.8597 352.525Q959.5472 352.525 960.0628 352.80624Q960.59406 353.0875 960.9378 353.61874Q961.28156 354.13437 961.46906 354.88437Q961.65656 355.63437 961.65656 356.91562Q961.65656 358.43124 961.34406 359.35312Q961.0472 360.275 960.4222 360.79062Q959.8128 361.29062 958.8597 361.29062Q957.6253 361.29062 956.90656 360.4Q956.0628 359.3375 956.0628 356.91562ZM957.1409 356.91562Q957.1409 359.025 957.6409 359.72812Q958.1409 360.43124 958.8597 360.43124Q959.59406 360.43124 960.0784 359.72812Q960.5784 359.025 960.5784 356.91562Q960.5784 354.79062 960.0784 354.10312Q959.59406 353.4 958.84406 353.4Q958.1253 353.4 957.6878 354.00937Q957.1409 354.79062 957.1409 356.91562ZM963.0628 356.91562Q963.0628 355.38437 963.3753 354.4625Q963.6878 353.525 964.2972 353.025Q964.9222 352.525 965.8597 352.525Q966.5472 352.525 967.0628 352.80624Q967.59406 353.0875 967.9378 353.61874Q968.28156 354.13437 968.46906 354.88437Q968.65656 355.63437 968.65656 356.91562Q968.65656 358.43124 968.34406 359.35312Q968.0472 360.275 967.4222 360.79062Q966.8128 361.29062 965.8597 361.29062Q964.6253 361.29062 963.90656 360.4Q963.0628 359.3375 963.0628 356.91562ZM964.1409 356.91562Q964.1409 359.025 964.6409 359.72812Q965.1409 360.43124 965.8597 360.43124Q966.59406 360.43124 967.0784 359.72812Q967.5784 359.025 967.5784 356.91562Q967.5784 354.79062 967.0784 354.10312Q966.59406 353.4 965.84406 353.4Q965.1253 353.4 964.6878 354.00937Q964.1409 354.79062 964.1409 356.91562Z" fill-rule="nonzero"/><path fill="#6aa84f" d="M254.25735 61.50736L258.5 64.25L262.74265 61.50736L260.0 65.75L262.74265 69.99264L258.5 67.25L254.25735 69.99264L257.0 65.75Z" fill-rule="nonzero"/><path fill="#1a1a1a" d="M277.45312 66.375L277.45312 65.375L281.07812 65.359375L281.07812 68.546875Q280.25 69.21875 279.35938 69.5625Q278.46875 69.890625 277.53125 69.890625Q276.26562 69.890625 275.21875 69.359375Q274.1875 68.8125 273.65625 67.796875Q273.14062 66.765625 273.14062 65.5Q273.14062 64.234375 273.65625 63.15625Q274.1875 62.0625 275.17188 61.546875Q276.15625 61.015625 277.4375 61.015625Q278.375 61.015625 279.125 61.3125Q279.875 61.609375 280.29688 62.15625Q280.73438 62.6875 280.95312 63.5625L279.9375 63.84375Q279.73438 63.1875 279.4375 62.8125Q279.15625 62.4375 278.625 62.21875Q278.09375 61.984375 277.45312 61.984375Q276.67188 61.984375 276.09375 62.21875Q275.53125 62.453125 275.17188 62.84375Q274.82812 63.234375 274.64062 63.703125Q274.3125 64.5 274.3125 65.421875Q274.3125 66.578125 274.70312 67.359375Q275.10938 68.125 275.85938 68.5Q276.60938 68.875 277.46875 68.875Q278.20312 68.875 278.90625 68.59375Q279.60938 68.296875 279.96875 67.984375L279.96875 66.375L277.45312 66.375ZM286.54688 67.75L287.64062 67.875Q287.39062 68.828125 286.6875 69.359375Q285.98438 69.890625 284.90625 69.890625Q283.54688 69.890625 282.73438 69.046875Q281.9375 68.203125 281.9375 66.6875Q281.9375 65.125 282.75 64.265625Q283.5625 63.390625 284.84375 63.390625Q286.09375 63.390625 286.875 64.234375Q287.67188 65.078125 287.67188 66.625Q287.67188 66.71875 287.67188 66.90625L283.03125 66.90625Q283.09375 67.9375 283.60938 68.484375Q284.125 69.015625 284.90625 69.015625Q285.48438 69.015625 285.89062 68.71875Q286.3125 68.40625 286.54688 67.75ZM283.09375 66.046875L286.5625 66.046875Q286.5 65.25 286.17188 64.859375Q285.65625 64.25 284.85938 64.25Q284.125 64.25 283.625 64.734375Q283.14062 65.21875 283.09375 66.046875ZM289.29688 69.75L289.29688 63.53125L290.23438 63.53125L290.23438 64.40625Q290.53125 63.9375 291.01562 63.671875Q291.5 63.390625 292.125 63.390625Q292.8125 63.390625 293.25 63.671875Q293.70312 63.953125 293.875 64.46875Q294.625 63.390625 295.79688 63.390625Q296.73438 63.390625 297.21875 63.90625Q297.71875 64.40625 297.71875 65.484375L297.71875 69.75L296.67188 69.75L296.67188 65.828125Q296.67188 65.203125 296.5625 64.921875Q296.46875 64.640625 296.20312 64.46875Q295.9375 64.296875 295.5625 64.296875Q294.90625 64.296875 294.46875 64.734375Q294.04688 65.171875 294.04688 66.140625L294.04688 69.75L292.98438 69.75L292.98438 65.703125Q292.98438 65.0 292.71875 64.65625Q292.46875 64.296875 291.89062 64.296875Q291.4375 64.296875 291.0625 64.53125Q290.6875 64.765625 290.51562 65.21875Q290.34375 65.671875 290.34375 66.515625L290.34375 69.75L289.29688 69.75ZM300.375 69.75L300.375 61.15625L301.51562 61.15625L301.51562 68.734375L305.75 68.734375L305.75 69.75L300.375 69.75ZM307.29688 62.375L307.29688 61.15625L308.35938 61.15625L308.35938 62.375L307.29688 62.375ZM307.29688 69.75L307.29688 63.53125L308.35938 63.53125L308.35938 69.75L307.29688 69.75ZM312.59375 68.8125L312.75 69.734375Q312.29688 69.828125 311.95312 69.828125Q311.375 69.828125 311.0625 69.65625Q310.75 69.46875 310.60938 69.171875Q310.48438 68.875 310.48438 67.921875L310.48438 64.34375L309.71875 64.34375L309.71875 63.53125L310.48438 63.53125L310.48438 61.984375L311.53125 61.359375L311.53125 63.53125L312.59375 63.53125L312.59375 64.34375L311.53125 64.34375L311.53125 67.984375Q311.53125 68.4375 311.57812 68.5625Q311.64062 68.6875 311.76562 68.765625Q311.89062 68.84375 312.125 68.84375Q312.3125 68.84375 312.59375 68.8125ZM317.54688 67.75L318.64062 67.875Q318.39062 68.828125 317.6875 69.359375Q316.98438 69.890625 315.90625 69.890625Q314.54688 69.890625 313.73438 69.046875Q312.9375 68.203125 312.9375 66.6875Q312.9375 65.125 313.75 64.265625Q314.5625 63.390625 315.84375 63.390625Q317.09375 63.390625 317.875 64.234375Q318.67188 65.078125 318.67188 66.625Q318.67188 66.71875 318.67188 66.90625L314.03125 66.90625Q314.09375 67.9375 314.60938 68.484375Q315.125 69.015625 315.90625 69.015625Q316.48438 69.015625 316.89062 68.71875Q317.3125 68.40625 317.54688 67.75ZM314.09375 66.046875L317.5625 66.046875Q317.5 65.25 317.17188 64.859375Q316.65625 64.25 315.85938 64.25Q315.125 64.25 314.625 64.734375Q314.14062 65.21875 314.09375 66.046875ZM319.875 67.171875L319.875 66.109375L323.125 66.109375L323.125 67.171875L319.875 67.171875ZM326.60938 69.75L326.60938 62.171875L323.78125 62.171875L323.78125 61.15625L330.59375 61.15625L330.59375 62.171875L327.75 62.171875L327.75 69.75L326.60938 69.75ZM331.28125 69.75L331.28125 63.53125L332.23438 63.53125L332.23438 64.46875Q332.59375 63.8125 332.89062 63.609375Q333.20312 63.390625 333.57812 63.390625Q334.10938 63.390625 334.65625 63.71875L334.29688 64.703125Q333.90625 64.46875 333.53125 64.46875Q333.17188 64.46875 332.89062 64.6875Q332.625 64.890625 332.51562 65.265625Q332.32812 65.828125 332.32812 66.484375L332.32812 69.75L331.28125 69.75ZM335.29688 62.375L335.29688 61.15625L336.35938 61.15625L336.35938 62.375L335.29688 62.375ZM335.29688 69.75L335.29688 63.53125L336.35938 63.53125L336.35938 69.75L335.29688 69.75ZM340.59375 68.8125L340.75 69.734375Q340.29688 69.828125 339.95312 69.828125Q339.375 69.828125 339.0625 69.65625Q338.75 69.46875 338.60938 69.171875Q338.48438 68.875 338.48438 67.921875L338.48438 64.34375L337.71875 64.34375L337.71875 63.53125L338.48438 63.53125L338.48438 61.984375L339.53125 61.359375L339.53125 63.53125L340.59375 63.53125L340.59375 64.34375L339.53125 64.34375L339.53125 67.984375Q339.53125 68.4375 339.57812 68.5625Q339.64062 68.6875 339.76562 68.765625Q339.89062 68.84375 340.125 68.84375Q340.3125 68.84375 340.59375 68.8125ZM340.90625 66.640625Q340.90625 64.90625 341.85938 64.078125Q342.65625 63.390625 343.8125 63.390625Q345.09375 63.390625 345.90625 64.234375Q346.73438 65.0625 346.73438 66.546875Q346.73438 67.75 346.375 68.4375Q346.01562 69.125 345.3125 69.515625Q344.625 69.890625 343.8125 69.890625Q342.51562 69.890625 341.70312 69.0625Q340.90625 68.21875 340.90625 66.640625ZM341.98438 66.640625Q341.98438 67.828125 342.5 68.421875Q343.03125 69.015625 343.8125 69.015625Q344.60938 69.015625 345.125 68.421875Q345.64062 67.828125 345.64062 66.609375Q345.64062 65.453125 345.10938 64.859375Q344.59375 64.265625 343.8125 64.265625Q343.03125 64.265625 342.5 64.859375Q341.98438 65.4375 341.98438 66.640625ZM348.29688 69.75L348.29688 63.53125L349.23438 63.53125L349.23438 64.40625Q349.92188 63.390625 351.21875 63.390625Q351.78125 63.390625 352.25 63.59375Q352.73438 63.796875 352.96875 64.125Q353.20312 64.453125 353.29688 64.890625Q353.34375 65.1875 353.34375 65.921875L353.34375 69.75L352.29688 69.75L352.29688 65.96875Q352.29688 65.3125 352.17188 65.0Q352.04688 64.6875 351.73438 64.5Q351.42188 64.296875 351.0 64.296875Q350.32812 64.296875 349.82812 64.734375Q349.34375 65.15625 349.34375 66.34375L349.34375 69.75L348.29688 69.75ZM360.3125 72.28125Q359.4375 71.171875 358.82812 69.703125Q358.23438 68.21875 358.23438 66.640625Q358.23438 65.25 358.67188 63.96875Q359.20312 62.484375 360.3125 61.015625L361.0625 61.015625Q360.35938 62.234375 360.125 62.75Q359.76562 63.5625 359.5625 64.4375Q359.3125 65.53125 359.3125 66.640625Q359.3125 69.46875 361.0625 72.28125L360.3125 72.28125ZM361.48438 69.75L364.78125 61.15625L366.0 61.15625L369.51562 69.75L368.23438 69.75L367.21875 67.140625L363.64062 67.140625L362.6875 69.75L361.48438 69.75ZM363.96875 66.21875L366.875 66.21875L365.98438 63.84375Q365.5625 62.765625 365.375 62.0625Q365.20312 62.890625 364.90625 63.703125L363.96875 66.21875ZM372.96875 69.75L371.92188 69.75L371.92188 63.03125Q371.53125 63.390625 370.90625 63.765625Q370.29688 64.125 369.8125 64.296875L369.8125 63.28125Q370.6875 62.859375 371.34375 62.28125Q372.01562 61.6875 372.29688 61.125L372.96875 61.125L372.96875 69.75ZM381.46875 63.265625L380.42188 63.34375Q380.28125 62.71875 380.03125 62.4375Q379.59375 61.984375 378.96875 61.984375Q378.46875 61.984375 378.07812 62.265625Q377.59375 62.640625 377.29688 63.34375Q377.01562 64.03125 377.0 65.3125Q377.375 64.734375 377.92188 64.453125Q378.48438 64.171875 379.09375 64.171875Q380.14062 64.171875 380.875 64.953125Q381.625 65.734375 381.625 66.953125Q381.625 67.765625 381.26562 68.46875Q380.92188 69.15625 380.3125 69.53125Q379.70312 69.890625 378.9375 69.890625Q377.60938 69.890625 376.78125 68.921875Q375.95312 67.953125 375.95312 65.734375Q375.95312 63.234375 376.875 62.109375Q377.67188 61.125 379.03125 61.125Q380.04688 61.125 380.6875 61.703125Q381.34375 62.265625 381.46875 63.265625ZM377.17188 66.96875Q377.17188 67.515625 377.39062 68.015625Q377.625 68.5 378.03125 68.765625Q378.45312 69.03125 378.92188 69.03125Q379.57812 69.03125 380.0625 68.5Q380.54688 67.953125 380.54688 67.03125Q380.54688 66.140625 380.0625 65.625Q379.59375 65.109375 378.875 65.109375Q378.15625 65.109375 377.65625 65.625Q377.17188 66.140625 377.17188 66.96875ZM383.98438 72.28125L383.23438 72.28125Q384.98438 69.46875 384.98438 66.640625Q384.98438 65.546875 384.73438 64.453125Q384.53125 63.578125 384.17188 62.765625Q383.9375 62.25 383.23438 61.015625L383.98438 61.015625Q385.07812 62.484375 385.60938 63.96875Q386.0625 65.25 386.0625 66.640625Q386.0625 68.21875 385.45312 69.703125Q384.84375 71.171875 383.98438 72.28125Z" fill-rule="nonzero"/><path fill="#ea4335" d="M404.25735 61.50736L408.5 64.25L412.74265 61.50736L410.0 65.75L412.74265 69.99264L408.5 67.25L404.25735 69.99264L407.0 65.75Z" fill-rule="nonzero"/><path fill="#1a1a1a" d="M425.60938 69.75L425.60938 62.171875L422.78125 62.171875L422.78125 61.15625L429.59375 61.15625L429.59375 62.171875L426.75 62.171875L426.75 69.75L425.60938 69.75ZM429.90625 66.640625Q429.90625 64.90625 430.85938 64.078125Q431.65625 63.390625 432.8125 63.390625Q434.09375 63.390625 434.90625 64.234375Q435.73438 65.0625 435.73438 66.546875Q435.73438 67.75 435.375 68.4375Q435.01562 69.125 434.3125 69.515625Q433.625 69.890625 432.8125 69.890625Q431.51562 69.890625 430.70312 69.0625Q429.90625 68.21875 429.90625 66.640625ZM430.98438 66.640625Q430.98438 67.828125 431.5 68.421875Q432.03125 69.015625 432.8125 69.015625Q433.60938 69.015625 434.125 68.421875Q434.64062 67.828125 434.64062 66.609375Q434.64062 65.453125 434.10938 64.859375Q433.59375 64.265625 432.8125 64.265625Q432.03125 64.265625 431.5 64.859375Q430.98438 65.4375 430.98438 66.640625ZM437.28125 69.75L437.28125 63.53125L438.23438 63.53125L438.23438 64.46875Q438.59375 63.8125 438.89062 63.609375Q439.20312 63.390625 439.57812 63.390625Q440.10938 63.390625 440.65625 63.71875L440.29688 64.703125Q439.90625 64.46875 439.53125 64.46875Q439.17188 64.46875 438.89062 64.6875Q438.625 64.890625 438.51562 65.265625Q438.32812 65.828125 438.32812 66.484375L438.32812 69.75L437.28125 69.75ZM445.35938 67.46875L446.39062 67.609375Q446.21875 68.671875 445.51562 69.28125Q444.8125 69.890625 443.79688 69.890625Q442.51562 69.890625 441.73438 69.0625Q440.96875 68.21875 440.96875 66.65625Q440.96875 65.65625 441.29688 64.90625Q441.64062 64.140625 442.3125 63.765625Q443.0 63.390625 443.8125 63.390625Q444.8125 63.390625 445.45312 63.90625Q446.10938 64.40625 446.29688 65.359375L445.26562 65.515625Q445.125 64.890625 444.75 64.578125Q444.375 64.25 443.84375 64.25Q443.04688 64.25 442.54688 64.828125Q442.04688 65.390625 442.04688 66.625Q442.04688 67.890625 442.53125 68.453125Q443.01562 69.015625 443.78125 69.015625Q444.40625 69.015625 444.8125 68.640625Q445.23438 68.265625 445.35938 67.46875ZM447.29688 69.75L447.29688 61.15625L448.34375 61.15625L448.34375 64.234375Q449.07812 63.390625 450.20312 63.390625Q450.90625 63.390625 451.40625 63.671875Q451.92188 63.9375 452.14062 64.421875Q452.35938 64.890625 452.35938 65.8125L452.35938 69.75L451.3125 69.75L451.3125 65.8125Q451.3125 65.015625 450.96875 64.65625Q450.625 64.296875 450.0 64.296875Q449.53125 64.296875 449.10938 64.546875Q448.70312 64.78125 448.51562 65.203125Q448.34375 65.609375 448.34375 66.34375L448.34375 69.75L447.29688 69.75ZM453.48438 69.75L456.78125 61.15625L458.0 61.15625L461.51562 69.75L460.23438 69.75L459.21875 67.140625L455.64062 67.140625L454.6875 69.75L453.48438 69.75ZM455.96875 66.21875L458.875 66.21875L457.98438 63.84375Q457.5625 62.765625 457.375 62.0625Q457.20312 62.890625 456.90625 63.703125L455.96875 66.21875ZM461.07812 65.5625Q461.07812 63.421875 462.21875 62.21875Q463.375 61.0 465.1875 61.0Q466.39062 61.0 467.34375 61.578125Q468.29688 62.140625 468.79688 63.15625Q469.29688 64.171875 469.29688 65.46875Q469.29688 66.765625 468.76562 67.796875Q468.23438 68.828125 467.26562 69.359375Q466.3125 69.890625 465.1875 69.890625Q463.96875 69.890625 463.01562 69.3125Q462.0625 68.71875 461.5625 67.71875Q461.07812 66.703125 461.07812 65.5625ZM462.25 65.578125Q462.25 67.140625 463.07812 68.03125Q463.92188 68.921875 465.1875 68.921875Q466.46875 68.921875 467.29688 68.03125Q468.125 67.125 468.125 65.453125Q468.125 64.40625 467.76562 63.625Q467.42188 62.84375 466.73438 62.421875Q466.04688 61.984375 465.20312 61.984375Q464.0 61.984375 463.125 62.8125Q462.25 63.640625 462.25 65.578125ZM475.3125 72.28125Q474.4375 71.171875 473.82812 69.703125Q473.23438 68.21875 473.23438 66.640625Q473.23438 65.25 473.67188 63.96875Q474.20312 62.484375 475.3125 61.015625L476.0625 61.015625Q475.35938 62.234375 475.125 62.75Q474.76562 63.5625 474.5625 64.4375Q474.3125 65.53125 474.3125 66.640625Q474.3125 69.46875 476.0625 72.28125L475.3125 72.28125ZM476.48438 69.75L479.78125 61.15625L481.0 61.15625L484.51562 69.75L483.23438 69.75L482.21875 67.140625L478.64062 67.140625L477.6875 69.75L476.48438 69.75ZM478.96875 66.21875L481.875 66.21875L480.98438 63.84375Q480.5625 62.765625 480.375 62.0625Q480.20312 62.890625 479.90625 63.703125L478.96875 66.21875ZM487.96875 69.75L486.92188 69.75L486.92188 63.03125Q486.53125 63.390625 485.90625 63.765625Q485.29688 64.125 484.8125 64.296875L484.8125 63.28125Q485.6875 62.859375 486.34375 62.28125Q487.01562 61.6875 487.29688 61.125L487.96875 61.125L487.96875 69.75ZM496.46875 63.265625L495.42188 63.34375Q495.28125 62.71875 495.03125 62.4375Q494.59375 61.984375 493.96875 61.984375Q493.46875 61.984375 493.07812 62.265625Q492.59375 62.640625 492.29688 63.34375Q492.01562 64.03125 492.0 65.3125Q492.375 64.734375 492.92188 64.453125Q493.48438 64.171875 494.09375 64.171875Q495.14062 64.171875 495.875 64.953125Q496.625 65.734375 496.625 66.953125Q496.625 67.765625 496.26562 68.46875Q495.92188 69.15625 495.3125 69.53125Q494.70312 69.890625 493.9375 69.890625Q492.60938 69.890625 491.78125 68.921875Q490.95312 67.953125 490.95312 65.734375Q490.95312 63.234375 491.875 62.109375Q492.67188 61.125 494.03125 61.125Q495.04688 61.125 495.6875 61.703125Q496.34375 62.265625 496.46875 63.265625ZM492.17188 66.96875Q492.17188 67.515625 492.39062 68.015625Q492.625 68.5 493.03125 68.765625Q493.45312 69.03125 493.92188 69.03125Q494.57812 69.03125 495.0625 68.5Q495.54688 67.953125 495.54688 67.03125Q495.54688 66.140625 495.0625 65.625Q494.59375 65.109375 493.875 65.109375Q493.15625 65.109375 492.65625 65.625Q492.17188 66.140625 492.17188 66.96875ZM498.98438 72.28125L498.23438 72.28125Q499.98438 69.46875 499.98438 66.640625Q499.98438 65.546875 499.73438 64.453125Q499.53125 63.578125 499.17188 62.765625Q498.9375 62.25 498.23438 61.015625L498.98438 61.015625Q500.07812 62.484375 500.60938 63.96875Q501.0625 65.25 501.0625 66.640625Q501.0625 68.21875 500.45312 69.703125Q499.84375 71.171875 498.98438 72.28125Z" fill-rule="nonzero"/><path fill="#fbbc04" d="M519.2574 61.50736L523.5 64.25L527.7426 61.50736L525.0 65.75L527.7426 69.99264L523.5 67.25L519.2574 69.99264L522.0 65.75Z" fill-rule="nonzero"/><path fill="#1a1a1a" d="M538.375 69.75L538.375 61.15625L541.6094 61.15625Q542.59375 61.15625 543.1875 61.421875Q543.78125 61.6875 544.1094 62.234375Q544.4531 62.765625 544.4531 63.359375Q544.4531 63.90625 544.15625 64.390625Q543.8594 64.875 543.25 65.171875Q544.03125 65.40625 544.4375 65.96875Q544.8594 66.515625 544.8594 67.265625Q544.8594 67.859375 544.6094 68.390625Q544.3594 68.90625 543.9844 69.1875Q543.6094 69.46875 543.03125 69.609375Q542.46875 69.75 541.65625 69.75L538.375 69.75ZM539.5156 64.765625L541.375 64.765625Q542.125 64.765625 542.4531 64.671875Q542.8906 64.546875 543.1094 64.25Q543.3281 63.9375 543.3281 63.484375Q543.3281 63.0625 543.125 62.734375Q542.9219 62.40625 542.53125 62.296875Q542.15625 62.171875 541.2344 62.171875L539.5156 62.171875L539.5156 64.765625ZM539.5156 68.734375L541.65625 68.734375Q542.2031 68.734375 542.4219 68.6875Q542.8281 68.625 543.0781 68.46875Q543.34375 68.296875 543.5156 67.984375Q543.6875 67.671875 543.6875 67.265625Q543.6875 66.78125 543.4375 66.421875Q543.2031 66.0625 542.7656 65.921875Q542.3281 65.78125 541.5 65.78125L539.5156 65.78125L539.5156 68.734375ZM546.2969 62.375L546.2969 61.15625L547.3594 61.15625L547.3594 62.375L546.2969 62.375ZM546.2969 69.75L546.2969 63.53125L547.3594 63.53125L547.3594 69.75L546.2969 69.75ZM551.59375 68.8125L551.75 69.734375Q551.2969 69.828125 550.9531 69.828125Q550.375 69.828125 550.0625 69.65625Q549.75 69.46875 549.6094 69.171875Q549.4844 68.875 549.4844 67.921875L549.4844 64.34375L548.71875 64.34375L548.71875 63.53125L549.4844 63.53125L549.4844 61.984375L550.53125 61.359375L550.53125 63.53125L551.59375 63.53125L551.59375 64.34375L550.53125 64.34375L550.53125 67.984375Q550.53125 68.4375 550.5781 68.5625Q550.6406 68.6875 550.7656 68.765625Q550.8906 68.84375 551.125 68.84375Q551.3125 68.84375 551.59375 68.8125ZM552.375 69.75L552.375 61.15625L555.6094 61.15625Q556.59375 61.15625 557.1875 61.421875Q557.78125 61.6875 558.1094 62.234375Q558.4531 62.765625 558.4531 63.359375Q558.4531 63.90625 558.15625 64.390625Q557.8594 64.875 557.25 65.171875Q558.03125 65.40625 558.4375 65.96875Q558.8594 66.515625 558.8594 67.265625Q558.8594 67.859375 558.6094 68.390625Q558.3594 68.90625 557.9844 69.1875Q557.6094 69.46875 557.03125 69.609375Q556.46875 69.75 555.65625 69.75L552.375 69.75ZM553.5156 64.765625L555.375 64.765625Q556.125 64.765625 556.4531 64.671875Q556.8906 64.546875 557.1094 64.25Q557.3281 63.9375 557.3281 63.484375Q557.3281 63.0625 557.125 62.734375Q556.9219 62.40625 556.53125 62.296875Q556.15625 62.171875 555.2344 62.171875L553.5156 62.171875L553.5156 64.765625ZM553.5156 68.734375L555.65625 68.734375Q556.2031 68.734375 556.4219 68.6875Q556.8281 68.625 557.0781 68.46875Q557.34375 68.296875 557.5156 67.984375Q557.6875 67.671875 557.6875 67.265625Q557.6875 66.78125 557.4375 66.421875Q557.2031 66.0625 556.7656 65.921875Q556.3281 65.78125 555.5 65.78125L553.5156 65.78125L553.5156 68.734375ZM560.375 69.75L560.375 61.15625L561.5156 61.15625L561.5156 68.734375L565.75 68.734375L565.75 69.75L560.375 69.75ZM566.4844 69.75L569.78125 61.15625L571.0 61.15625L574.5156 69.75L573.2344 69.75L572.21875 67.140625L568.6406 67.140625L567.6875 69.75L566.4844 69.75ZM568.96875 66.21875L571.875 66.21875L570.9844 63.84375Q570.5625 62.765625 570.375 62.0625Q570.2031 62.890625 569.90625 63.703125L568.96875 66.21875ZM574.0469 66.984375L575.1094 66.890625Q575.1875 67.546875 575.46875 67.953125Q575.75 68.359375 576.3281 68.625Q576.9219 68.875 577.65625 68.875Q578.2969 68.875 578.7969 68.6875Q579.2969 68.484375 579.53125 68.15625Q579.78125 67.8125 579.78125 67.421875Q579.78125 67.015625 579.5469 66.71875Q579.3125 66.40625 578.78125 66.203125Q578.4219 66.0625 577.2344 65.78125Q576.0625 65.5 575.59375 65.25Q574.96875 64.921875 574.6719 64.453125Q574.375 63.96875 574.375 63.375Q574.375 62.734375 574.7344 62.171875Q575.1094 61.59375 575.8125 61.3125Q576.53125 61.015625 577.3906 61.015625Q578.34375 61.015625 579.0781 61.328125Q579.8125 61.625 580.2031 62.234375Q580.59375 62.828125 580.625 63.578125L579.53125 63.65625Q579.4375 62.84375 578.9219 62.4375Q578.4219 62.015625 577.4375 62.015625Q576.40625 62.015625 575.9375 62.390625Q575.46875 62.765625 575.46875 63.296875Q575.46875 63.765625 575.7969 64.0625Q576.125 64.359375 577.5 64.671875Q578.8906 64.984375 579.40625 65.21875Q580.15625 65.578125 580.5156 66.109375Q580.875 66.625 580.875 67.328125Q580.875 68.015625 580.4844 68.625Q580.09375 69.21875 579.3594 69.5625Q578.625 69.890625 577.7031 69.890625Q576.53125 69.890625 575.7344 69.5625Q574.9531 69.21875 574.5 68.53125Q574.0625 67.84375 574.0469 66.984375ZM587.3125 72.28125Q586.4375 71.171875 585.8281 69.703125Q585.2344 68.21875 585.2344 66.640625Q585.2344 65.25 585.6719 63.96875Q586.2031 62.484375 587.3125 61.015625L588.0625 61.015625Q587.3594 62.234375 587.125 62.75Q586.7656 63.5625 586.5625 64.4375Q586.3125 65.53125 586.3125 66.640625Q586.3125 69.46875 588.0625 72.28125L587.3125 72.28125ZM588.4844 69.75L591.78125 61.15625L593.0 61.15625L596.5156 69.75L595.2344 69.75L594.21875 67.140625L590.6406 67.140625L589.6875 69.75L588.4844 69.75ZM590.96875 66.21875L593.875 66.21875L592.9844 63.84375Q592.5625 62.765625 592.375 62.0625Q592.2031 62.890625 591.90625 63.703125L590.96875 66.21875ZM599.96875 69.75L598.9219 69.75L598.9219 63.03125Q598.53125 63.390625 597.90625 63.765625Q597.2969 64.125 596.8125 64.296875L596.8125 63.28125Q597.6875 62.859375 598.34375 62.28125Q599.0156 61.6875 599.2969 61.125L599.96875 61.125L599.96875 69.75ZM608.46875 63.265625L607.4219 63.34375Q607.28125 62.71875 607.03125 62.4375Q606.59375 61.984375 605.96875 61.984375Q605.46875 61.984375 605.0781 62.265625Q604.59375 62.640625 604.2969 63.34375Q604.0156 64.03125 604.0 65.3125Q604.375 64.734375 604.9219 64.453125Q605.4844 64.171875 606.09375 64.171875Q607.1406 64.171875 607.875 64.953125Q608.625 65.734375 608.625 66.953125Q608.625 67.765625 608.2656 68.46875Q607.9219 69.15625 607.3125 69.53125Q606.7031 69.890625 605.9375 69.890625Q604.6094 69.890625 603.78125 68.921875Q602.9531 67.953125 602.9531 65.734375Q602.9531 63.234375 603.875 62.109375Q604.6719 61.125 606.03125 61.125Q607.0469 61.125 607.6875 61.703125Q608.34375 62.265625 608.46875 63.265625ZM604.1719 66.96875Q604.1719 67.515625 604.3906 68.015625Q604.625 68.5 605.03125 68.765625Q605.4531 69.03125 605.9219 69.03125Q606.5781 69.03125 607.0625 68.5Q607.5469 67.953125 607.5469 67.03125Q607.5469 66.140625 607.0625 65.625Q606.59375 65.109375 605.875 65.109375Q605.15625 65.109375 604.65625 65.625Q604.1719 66.140625 604.1719 66.96875ZM610.9844 72.28125L610.2344 72.28125Q611.9844 69.46875 611.9844 66.640625Q611.9844 65.546875 611.7344 64.453125Q611.53125 63.578125 611.1719 62.765625Q610.9375 62.25 610.2344 61.015625L610.9844 61.015625Q612.0781 62.484375 612.6094 63.96875Q613.0625 65.25 613.0625 66.640625Q613.0625 68.21875 612.4531 69.703125Q611.84375 71.171875 610.9844 72.28125Z" fill-rule="nonzero"/><path fill="#c9daf8" d="M631.2574 61.50736L635.5 64.25L639.7426 61.50736L637.0 65.75L639.7426 69.99264L635.5 67.25L631.2574 69.99264L634.0 65.75Z" fill-rule="nonzero"/><path fill="#1a1a1a" d="M650.3906 69.75L650.3906 61.15625L652.1094 61.15625L654.1406 67.234375Q654.4219 68.09375 654.5469 68.515625Q654.6875 68.046875 655.0 67.140625L657.0625 61.15625L658.59375 61.15625L658.59375 69.75L657.5 69.75L657.5 62.5625L655.0 69.75L653.96875 69.75L651.4844 62.4375L651.4844 69.75L650.3906 69.75ZM663.3594 68.984375Q662.7656 69.484375 662.21875 69.6875Q661.6875 69.890625 661.0625 69.890625Q660.03125 69.890625 659.4844 69.390625Q658.9375 68.890625 658.9375 68.109375Q658.9375 67.65625 659.1406 67.28125Q659.34375 66.890625 659.6875 66.671875Q660.03125 66.4375 660.4531 66.328125Q660.75 66.234375 661.3906 66.15625Q662.65625 66.015625 663.2656 65.796875Q663.2656 65.578125 663.2656 65.53125Q663.2656 64.875 662.96875 64.609375Q662.5625 64.265625 661.7656 64.265625Q661.03125 64.265625 660.6719 64.53125Q660.3125 64.78125 660.1406 65.4375L659.1094 65.296875Q659.25 64.640625 659.5781 64.234375Q659.90625 63.828125 660.5156 63.609375Q661.125 63.390625 661.9219 63.390625Q662.71875 63.390625 663.21875 63.578125Q663.71875 63.765625 663.9531 64.046875Q664.1875 64.328125 664.28125 64.765625Q664.3281 65.03125 664.3281 65.734375L664.3281 67.140625Q664.3281 68.609375 664.3906 69.0Q664.46875 69.390625 664.6719 69.75L663.5625 69.75Q663.40625 69.421875 663.3594 68.984375ZM663.2656 66.625Q662.6875 66.859375 661.5469 67.03125Q660.8906 67.125 660.625 67.25Q660.3594 67.359375 660.2031 67.578125Q660.0625 67.796875 660.0625 68.078125Q660.0625 68.5 660.375 68.78125Q660.7031 69.0625 661.3125 69.0625Q661.9219 69.0625 662.3906 68.796875Q662.875 68.53125 663.09375 68.0625Q663.2656 67.703125 663.2656 67.015625L663.2656 66.625ZM666.28125 69.75L666.28125 63.53125L667.2344 63.53125L667.2344 64.46875Q667.59375 63.8125 667.8906 63.609375Q668.2031 63.390625 668.5781 63.390625Q669.1094 63.390625 669.65625 63.71875L669.2969 64.703125Q668.90625 64.46875 668.53125 64.46875Q668.1719 64.46875 667.8906 64.6875Q667.625 64.890625 667.5156 65.265625Q667.3281 65.828125 667.3281 66.484375L667.3281 69.75L666.28125 69.75ZM670.2656 69.75L670.2656 61.15625L671.3281 61.15625L671.3281 69.75L670.2656 69.75ZM673.2969 62.375L673.2969 61.15625L674.3594 61.15625L674.3594 62.375L673.2969 62.375ZM673.2969 69.75L673.2969 63.53125L674.3594 63.53125L674.3594 69.75L673.2969 69.75ZM676.2969 69.75L676.2969 63.53125L677.2344 63.53125L677.2344 64.40625Q677.9219 63.390625 679.21875 63.390625Q679.78125 63.390625 680.25 63.59375Q680.7344 63.796875 680.96875 64.125Q681.2031 64.453125 681.2969 64.890625Q681.34375 65.1875 681.34375 65.921875L681.34375 69.75L680.2969 69.75L680.2969 65.96875Q680.2969 65.3125 680.1719 65.0Q680.0469 64.6875 679.7344 64.5Q679.4219 64.296875 679.0 64.296875Q678.3281 64.296875 677.8281 64.734375Q677.34375 65.15625 677.34375 66.34375L677.34375 69.75L676.2969 69.75ZM688.3125 72.28125Q687.4375 71.171875 686.8281 69.703125Q686.2344 68.21875 686.2344 66.640625Q686.2344 65.25 686.6719 63.96875Q687.2031 62.484375 688.3125 61.015625L689.0625 61.015625Q688.3594 62.234375 688.125 62.75Q687.7656 63.5625 687.5625 64.4375Q687.3125 65.53125 687.3125 66.640625Q687.3125 69.46875 689.0625 72.28125L688.3125 72.28125ZM689.4844 69.75L692.78125 61.15625L694.0 61.15625L697.5156 69.75L696.2344 69.75L695.21875 67.140625L691.6406 67.140625L690.6875 69.75L689.4844 69.75ZM691.96875 66.21875L694.875 66.21875L693.9844 63.84375Q693.5625 62.765625 693.375 62.0625Q693.2031 62.890625 692.90625 63.703125L691.96875 66.21875ZM700.96875 69.75L699.9219 69.75L699.9219 63.03125Q699.53125 63.390625 698.90625 63.765625Q698.2969 64.125 697.8125 64.296875L697.8125 63.28125Q698.6875 62.859375 699.34375 62.28125Q700.0156 61.6875 700.2969 61.125L700.96875 61.125L700.96875 69.75ZM709.46875 63.265625L708.4219 63.34375Q708.28125 62.71875 708.03125 62.4375Q707.59375 61.984375 706.96875 61.984375Q706.46875 61.984375 706.0781 62.265625Q705.59375 62.640625 705.2969 63.34375Q705.0156 64.03125 705.0 65.3125Q705.375 64.734375 705.9219 64.453125Q706.4844 64.171875 707.09375 64.171875Q708.1406 64.171875 708.875 64.953125Q709.625 65.734375 709.625 66.953125Q709.625 67.765625 709.2656 68.46875Q708.9219 69.15625 708.3125 69.53125Q707.7031 69.890625 706.9375 69.890625Q705.6094 69.890625 704.78125 68.921875Q703.9531 67.953125 703.9531 65.734375Q703.9531 63.234375 704.875 62.109375Q705.6719 61.125 707.03125 61.125Q708.0469 61.125 708.6875 61.703125Q709.34375 62.265625 709.46875 63.265625ZM705.1719 66.96875Q705.1719 67.515625 705.3906 68.015625Q705.625 68.5 706.03125 68.765625Q706.4531 69.03125 706.9219 69.03125Q707.5781 69.03125 708.0625 68.5Q708.5469 67.953125 708.5469 67.03125Q708.5469 66.140625 708.0625 65.625Q707.59375 65.109375 706.875 65.109375Q706.15625 65.109375 705.65625 65.625Q705.1719 66.140625 705.1719 66.96875ZM713.875 67.171875L713.875 66.109375L717.125 66.109375L717.125 67.171875L713.875 67.171875ZM723.875 69.75L720.5469 61.15625L721.78125 61.15625L724.0156 67.40625Q724.28125 68.15625 724.46875 68.8125Q724.6719 68.109375 724.9375 67.40625L727.25 61.15625L728.40625 61.15625L725.0469 69.75L723.875 69.75ZM728.375 69.75L728.375 61.15625L729.5156 61.15625L729.5156 68.734375L733.75 68.734375L733.75 69.75L728.375 69.75ZM735.375 69.75L735.375 61.15625L736.5156 61.15625L736.5156 68.734375L740.75 68.734375L740.75 69.75L735.375 69.75ZM742.3906 69.75L742.3906 61.15625L744.1094 61.15625L746.1406 67.234375Q746.4219 68.09375 746.5469 68.515625Q746.6875 68.046875 747.0 67.140625L749.0625 61.15625L750.59375 61.15625L750.59375 69.75L749.5 69.75L749.5 62.5625L747.0 69.75L745.96875 69.75L743.4844 62.4375L743.4844 69.75L742.3906 69.75ZM751.9844 72.28125L751.2344 72.28125Q752.9844 69.46875 752.9844 66.640625Q752.9844 65.546875 752.7344 64.453125Q752.53125 63.578125 752.1719 62.765625Q751.9375 62.25 751.2344 61.015625L751.9844 61.015625Q753.0781 62.484375 753.6094 63.96875Q754.0625 65.25 754.0625 66.640625Q754.0625 68.21875 753.4531 69.703125Q752.84375 71.171875 751.9844 72.28125Z" fill-rule="nonzero"/><path fill="#757575" d="M224.90625 35.25625L226.6875 35.1Q226.8125 36.1625 227.26562 36.85Q227.73438 37.5375 228.70312 37.975Q229.6875 38.396873 230.92188 38.396873Q232.0 38.396873 232.82812 38.084373Q233.65625 37.75625 234.0625 37.19375Q234.46875 36.63125 234.46875 35.959373Q234.46875 35.2875 234.07812 34.7875Q233.6875 34.2875 232.79688 33.94375Q232.21875 33.709373 230.23438 33.240623Q228.26562 32.771873 227.48438 32.35Q226.45312 31.818748 225.95312 31.021873Q225.45312 30.224998 225.45312 29.240623Q225.45312 28.146873 226.0625 27.209373Q226.67188 26.271873 227.85938 25.787498Q229.04688 25.287498 230.48438 25.287498Q232.07812 25.287498 233.29688 25.803123Q234.51562 26.318748 235.15625 27.318748Q235.8125 28.303123 235.85938 29.568748L234.04688 29.709373Q233.90625 28.349998 233.0625 27.662498Q232.21875 26.959373 230.5625 26.959373Q228.84375 26.959373 228.04688 27.599998Q227.26562 28.224998 227.26562 29.099998Q227.26562 29.881248 227.82812 30.381248Q228.375 30.881248 230.6875 31.396873Q233.0 31.912498 233.85938 32.303123Q235.10938 32.88125 235.70312 33.771873Q236.29688 34.646873 236.29688 35.803123Q236.29688 36.94375 235.64062 37.959373Q234.98438 38.975 233.75 39.5375Q232.53125 40.1 231.0 40.1Q229.0625 40.1 227.75 39.5375Q226.4375 38.959373 225.6875 37.81875Q224.9375 36.678123 224.90625 35.25625ZM238.3125 43.81875L238.3125 29.474998L239.92188 29.474998L239.92188 30.818748Q240.48438 30.037498 241.1875 29.646873Q241.90625 29.240623 242.92188 29.240623Q244.25 29.240623 245.26562 29.928123Q246.28125 30.615623 246.79688 31.865623Q247.32812 33.1 247.32812 34.584373Q247.32812 36.178123 246.75 37.459373Q246.1875 38.725 245.09375 39.4125Q244.0 40.084373 242.79688 40.084373Q241.92188 40.084373 241.21875 39.709373Q240.53125 39.334373 240.07812 38.771873L240.07812 43.81875L238.3125 43.81875ZM239.90625 34.725Q239.90625 36.725 240.71875 37.678123Q241.53125 38.63125 242.6875 38.63125Q243.85938 38.63125 244.6875 37.646873Q245.53125 36.6625 245.53125 34.56875Q245.53125 32.6 244.70312 31.615623Q243.89062 30.615623 242.76562 30.615623Q241.64062 30.615623 240.76562 31.678123Q239.90625 32.725 239.90625 34.725ZM256.42188 36.50625L258.23438 36.740623Q257.8125 38.31875 256.64062 39.209373Q255.48438 40.084373 253.67188 40.084373Q251.40625 40.084373 250.0625 38.69375Q248.73438 37.2875 248.73438 34.75625Q248.73438 32.13125 250.07812 30.693748Q251.42188 29.240623 253.57812 29.240623Q255.65625 29.240623 256.96875 30.662498Q258.29688 32.06875 258.29688 34.646873Q258.29688 34.803123 258.28125 35.115623L250.54688 35.115623Q250.64062 36.81875 251.51562 37.725Q252.39062 38.63125 253.6875 38.63125Q254.65625 38.63125 255.32812 38.13125Q256.01562 37.615623 256.42188 36.50625ZM250.64062 33.6625L256.4375 33.6625Q256.32812 32.365623 255.78125 31.709373Q254.9375 30.693748 253.59375 30.693748Q252.39062 30.693748 251.5625 31.506248Q250.73438 32.303123 250.64062 33.6625ZM267.42188 36.50625L269.23438 36.740623Q268.8125 38.31875 267.64062 39.209373Q266.48438 40.084373 264.67188 40.084373Q262.40625 40.084373 261.0625 38.69375Q259.73438 37.2875 259.73438 34.75625Q259.73438 32.13125 261.07812 30.693748Q262.42188 29.240623 264.57812 29.240623Q266.65625 29.240623 267.96875 30.662498Q269.29688 32.06875 269.29688 34.646873Q269.29688 34.803123 269.28125 35.115623L261.54688 35.115623Q261.64062 36.81875 262.51562 37.725Q263.39062 38.63125 264.6875 38.63125Q265.65625 38.63125 266.32812 38.13125Q267.01562 37.615623 267.42188 36.50625ZM261.64062 33.6625L267.4375 33.6625Q267.32812 32.365623 266.78125 31.709373Q265.9375 30.693748 264.59375 30.693748Q263.39062 30.693748 262.5625 31.506248Q261.73438 32.303123 261.64062 33.6625ZM278.04688 39.85L278.04688 38.5375Q277.0625 40.084373 275.14062 40.084373Q273.90625 40.084373 272.85938 39.396873Q271.82812 38.709373 271.25 37.490623Q270.6875 36.271873 270.6875 34.678123Q270.6875 33.115623 271.20312 31.849998Q271.71875 30.584373 272.75 29.912498Q273.79688 29.240623 275.0625 29.240623Q276.0 29.240623 276.73438 29.646873Q277.46875 30.037498 277.9375 30.662498L277.9375 25.537498L279.67188 25.537498L279.67188 39.85L278.04688 39.85ZM272.48438 34.678123Q272.48438 36.6625 273.32812 37.646873Q274.17188 38.63125 275.3125 38.63125Q276.46875 38.63125 277.26562 37.69375Q278.07812 36.75625 278.07812 34.81875Q278.07812 32.69375 277.25 31.693748Q276.4375 30.693748 275.23438 30.693748Q274.0625 30.693748 273.26562 31.662498Q272.48438 32.615623 272.48438 34.678123ZM291.20312 39.85L287.25 29.474998L289.10938 29.474998L291.34375 35.69375Q291.70312 36.69375 292.0 37.771873Q292.23438 36.959373 292.65625 35.803123L294.95312 29.474998L296.76562 29.474998L292.84375 39.85L291.20312 39.85ZM296.60938 36.75625L298.35938 36.475Q298.5 37.521873 299.17188 38.084373Q299.84375 38.63125 301.04688 38.63125Q302.25 38.63125 302.82812 38.146873Q303.42188 37.646873 303.42188 36.990623Q303.42188 36.396873 302.90625 36.053123Q302.54688 35.81875 301.10938 35.459373Q299.17188 34.959373 298.42188 34.615623Q297.6875 34.25625 297.29688 33.63125Q296.90625 32.990623 296.90625 32.225Q296.90625 31.537498 297.21875 30.943748Q297.54688 30.349998 298.09375 29.959373Q298.5 29.662498 299.20312 29.459373Q299.92188 29.240623 300.73438 29.240623Q301.95312 29.240623 302.875 29.599998Q303.79688 29.943748 304.23438 30.553123Q304.67188 31.146873 304.84375 32.146873L303.125 32.38125Q303.0 31.584373 302.4375 31.146873Q301.875 30.693748 300.85938 30.693748Q299.64062 30.693748 299.125 31.099998Q298.60938 31.490623 298.60938 32.021873Q298.60938 32.365623 298.82812 32.646873Q299.03125 32.928123 299.5 33.115623Q299.76562 33.209373 301.04688 33.553123Q302.92188 34.053123 303.65625 34.38125Q304.39062 34.69375 304.8125 35.303123Q305.23438 35.896873 305.23438 36.803123Q305.23438 37.678123 304.71875 38.459373Q304.20312 39.240623 303.23438 39.6625Q302.26562 40.084373 301.04688 40.084373Q299.03125 40.084373 297.96875 39.240623Q296.90625 38.396873 296.60938 36.75625ZM307.8125 39.85L307.8125 37.85L309.8125 37.85L309.8125 39.85L307.8125 39.85ZM319.64062 39.85L319.64062 25.537498L329.29688 25.537498L329.29688 27.224998L321.53125 27.224998L321.53125 31.662498L328.25 31.662498L328.25 33.35L321.53125 33.35L321.53125 39.85L319.64062 39.85ZM331.54688 39.85L331.54688 25.537498L336.9375 25.537498Q338.375 25.537498 339.125 25.662498Q340.17188 25.849998 340.89062 26.349998Q341.60938 26.834373 342.03125 27.724998Q342.46875 28.615623 342.46875 29.678123Q342.46875 31.506248 341.29688 32.771873Q340.14062 34.021873 337.10938 34.021873L333.4375 34.021873L333.4375 39.85L331.54688 39.85ZM333.4375 32.334373L337.14062 32.334373Q338.96875 32.334373 339.73438 31.662498Q340.51562 30.974998 340.51562 29.724998Q340.51562 28.834373 340.0625 28.193748Q339.60938 27.553123 338.875 27.349998Q338.39062 27.224998 337.09375 27.224998L333.4375 27.224998L333.4375 32.334373ZM350.45312 39.85L348.6875 39.85L348.6875 28.646873Q348.0625 29.256248 347.03125 29.865623Q346.0 30.459373 345.17188 30.771873L345.17188 29.068748Q346.65625 28.381248 347.75 27.396873Q348.85938 26.396873 349.3125 25.474998L350.45312 25.474998L350.45312 39.85ZM363.95312 29.037498L362.20312 29.178123Q361.96875 28.146873 361.54688 27.678123Q360.82812 26.912498 359.78125 26.912498Q358.9375 26.912498 358.3125 27.381248Q357.48438 27.990623 357.0 29.162498Q356.51562 30.318748 356.5 32.459373Q357.14062 31.506248 358.04688 31.037498Q358.96875 30.568748 359.98438 30.568748Q361.73438 30.568748 362.96875 31.865623Q364.20312 33.146873 364.20312 35.19375Q364.20312 36.553123 363.625 37.709373Q363.04688 38.865623 362.03125 39.490623Q361.01562 40.1 359.71875 40.1Q357.53125 40.1 356.14062 38.490623Q354.75 36.865623 354.75 33.146873Q354.75 29.006248 356.28125 27.115623Q357.625 25.474998 359.89062 25.474998Q361.57812 25.474998 362.65625 26.428123Q363.73438 27.365623 363.95312 29.037498ZM356.78125 35.209373Q356.78125 36.115623 357.15625 36.94375Q357.54688 37.771873 358.23438 38.209373Q358.9375 38.646873 359.6875 38.646873Q360.8125 38.646873 361.60938 37.75625Q362.40625 36.85 362.40625 35.303123Q362.40625 33.81875 361.60938 32.975Q360.82812 32.115623 359.625 32.115623Q358.4375 32.115623 357.60938 32.975Q356.78125 33.81875 356.78125 35.209373ZM375.67188 44.053123Q374.21875 42.225 373.21875 39.771873Q372.21875 37.303123 372.21875 34.6625Q372.21875 32.334373 372.96875 30.209373Q373.84375 27.740623 375.67188 25.287498L376.9375 25.287498Q375.75 27.318748 375.375 28.193748Q374.78125 29.537498 374.4375 31.006248Q374.01562 32.834373 374.01562 34.678123Q374.01562 39.365623 376.9375 44.053123L375.67188 44.053123ZM382.04688 39.85L378.25 25.537498L380.1875 25.537498L382.35938 34.9125Q382.71875 36.396873 382.96875 37.85Q383.51562 35.553123 383.60938 35.19375L386.34375 25.537498L388.625 25.537498L390.67188 32.771873Q391.45312 35.475 391.79688 37.85Q392.0625 36.490623 392.5 34.725L394.75 25.537498L396.65625 25.537498L392.73438 39.85L390.90625 39.85L387.89062 28.943748Q387.5 27.568748 387.4375 27.256248Q387.20312 28.240623 387.01562 28.943748L383.98438 39.85L382.04688 39.85ZM403.46875 39.85L403.46875 36.428123L397.25 36.428123L397.25 34.803123L403.78125 25.537498L405.21875 25.537498L405.21875 34.803123L407.15625 34.803123L407.15625 36.428123L405.21875 36.428123L405.21875 39.85L403.46875 39.85ZM403.46875 34.803123L403.46875 28.349998L398.98438 34.803123L403.46875 34.803123ZM408.64062 35.553123L408.64062 33.7875L414.03125 33.7875L414.03125 35.553123L408.64062 35.553123ZM417.9375 39.85L416.3125 39.85L416.3125 25.537498L418.0625 25.537498L418.0625 30.646873Q419.1875 29.240623 420.90625 29.240623Q421.85938 29.240623 422.71875 29.631248Q423.57812 30.021873 424.125 30.724998Q424.67188 31.412498 424.98438 32.396873Q425.29688 33.38125 425.29688 34.50625Q425.29688 37.178123 423.98438 38.63125Q422.67188 40.084373 420.82812 40.084373Q418.98438 40.084373 417.9375 38.553123L417.9375 39.85ZM417.92188 34.584373Q417.92188 36.44375 418.42188 37.2875Q419.26562 38.63125 420.67188 38.63125Q421.82812 38.63125 422.65625 37.63125Q423.5 36.63125 423.5 34.646873Q423.5 32.615623 422.6875 31.662498Q421.89062 30.693748 420.75 30.693748Q419.59375 30.693748 418.75 31.693748Q417.92188 32.69375 417.92188 34.584373ZM427.32812 27.553123L427.32812 25.537498L429.09375 25.537498L429.09375 27.553123L427.32812 27.553123ZM427.32812 39.85L427.32812 29.474998L429.09375 29.474998L429.09375 39.85L427.32812 39.85ZM435.15625 38.271873L435.40625 39.834373Q434.67188 39.990623 434.07812 39.990623Q433.125 39.990623 432.59375 39.69375Q432.07812 39.38125 431.85938 38.896873Q431.64062 38.396873 431.64062 36.81875L431.64062 30.849998L430.35938 30.849998L430.35938 29.474998L431.64062 29.474998L431.64062 26.912498L433.39062 25.849998L433.39062 29.474998L435.15625 29.474998L435.15625 30.849998L433.39062 30.849998L433.39062 36.9125Q433.39062 37.6625 433.48438 37.88125Q433.57812 38.084373 433.78125 38.225Q434.0 38.35 434.39062 38.35Q434.67188 38.35 435.15625 38.271873ZM437.78125 39.85L437.78125 37.85L439.78125 37.85L439.78125 39.85Q439.78125 40.959373 439.39062 41.63125Q439.0 42.31875 438.15625 42.678123L437.65625 41.928123Q438.21875 41.69375 438.48438 41.209373Q438.75 40.740623 438.78125 39.85L437.78125 39.85ZM449.0 40.709373L450.70312 40.959373Q450.8125 41.75625 451.29688 42.115623Q451.95312 42.6 453.09375 42.6Q454.3125 42.6 454.96875 42.115623Q455.64062 41.63125 455.875 40.75625Q456.01562 40.209373 456.0 38.490623Q454.84375 39.85 453.125 39.85Q450.98438 39.85 449.8125 38.303123Q448.64062 36.75625 448.64062 34.6Q448.64062 33.115623 449.17188 31.865623Q449.71875 30.615623 450.73438 29.928123Q451.76562 29.240623 453.14062 29.240623Q454.96875 29.240623 456.17188 30.724998L456.17188 29.474998L457.78125 29.474998L457.78125 38.44375Q457.78125 40.865623 457.28125 41.865623Q456.79688 42.88125 455.71875 43.459373Q454.65625 44.053123 453.09375 44.053123Q451.25 44.053123 450.09375 43.225Q448.95312 42.396873 449.0 40.709373ZM450.45312 34.475Q450.45312 36.521873 451.26562 37.459373Q452.07812 38.396873 453.29688 38.396873Q454.5 38.396873 455.3125 37.459373Q456.14062 36.521873 456.14062 34.5375Q456.14062 32.63125 455.29688 31.662498Q454.45312 30.693748 453.26562 30.693748Q452.09375 30.693748 451.26562 31.646873Q450.45312 32.6 450.45312 34.475ZM460.29688 39.85L460.29688 29.474998L461.875 29.474998L461.875 31.053123Q462.48438 29.943748 463.0 29.599998Q463.51562 29.240623 464.125 29.240623Q465.01562 29.240623 465.9375 29.803123L465.32812 31.443748Q464.6875 31.053123 464.04688 31.053123Q463.46875 31.053123 463.0 31.412498Q462.54688 31.756248 462.34375 32.365623Q462.0625 33.303123 462.0625 34.4125L462.0625 39.85L460.29688 39.85ZM466.67188 34.6625Q466.67188 31.787498 468.26562 30.396873Q469.60938 29.240623 471.53125 29.240623Q473.67188 29.240623 475.01562 30.646873Q476.375 32.053123 476.375 34.521873Q476.375 36.521873 475.78125 37.678123Q475.1875 38.81875 474.03125 39.459373Q472.89062 40.084373 471.53125 40.084373Q469.34375 40.084373 468.0 38.69375Q466.67188 37.2875 466.67188 34.6625ZM468.46875 34.6625Q468.46875 36.6625 469.32812 37.646873Q470.20312 38.63125 471.53125 38.63125Q472.84375 38.63125 473.70312 37.646873Q474.57812 36.646873 474.57812 34.6Q474.57812 32.678123 473.70312 31.693748Q472.82812 30.693748 471.53125 30.693748Q470.20312 30.693748 469.32812 31.693748Q468.46875 32.678123 468.46875 34.6625ZM485.10938 39.85L485.10938 38.31875Q483.90625 40.084373 481.82812 40.084373Q480.90625 40.084373 480.10938 39.740623Q479.3125 39.38125 478.92188 38.85Q478.54688 38.31875 478.39062 37.5375Q478.28125 37.021873 478.28125 35.896873L478.28125 29.474998L480.03125 29.474998L480.03125 35.225Q480.03125 36.6 480.14062 37.084373Q480.3125 37.771873 480.84375 38.178123Q481.39062 38.56875 482.17188 38.56875Q482.96875 38.56875 483.65625 38.1625Q484.35938 37.75625 484.64062 37.06875Q484.9375 36.365623 484.9375 35.0375L484.9375 29.474998L486.6875 29.474998L486.6875 39.85L485.10938 39.85ZM488.3125 43.81875L488.3125 29.474998L489.92188 29.474998L489.92188 30.818748Q490.48438 30.037498 491.1875 29.646873Q491.90625 29.240623 492.92188 29.240623Q494.25 29.240623 495.26562 29.928123Q496.28125 30.615623 496.79688 31.865623Q497.32812 33.1 497.32812 34.584373Q497.32812 36.178123 496.75 37.459373Q496.1875 38.725 495.09375 39.4125Q494.0 40.084373 492.79688 40.084373Q491.92188 40.084373 491.21875 39.709373Q490.53125 39.334373 490.07812 38.771873L490.07812 43.81875L488.3125 43.81875ZM489.90625 34.725Q489.90625 36.725 490.71875 37.678123Q491.53125 38.63125 492.6875 38.63125Q493.85938 38.63125 494.6875 37.646873Q495.53125 36.6625 495.53125 34.56875Q495.53125 32.6 494.70312 31.615623Q493.89062 30.615623 492.76562 30.615623Q491.64062 30.615623 490.76562 31.678123Q489.90625 32.725 489.90625 34.725ZM504.60938 36.75625L506.35938 36.475Q506.5 37.521873 507.17188 38.084373Q507.84375 38.63125 509.04688 38.63125Q510.25 38.63125 510.82812 38.146873Q511.42188 37.646873 511.42188 36.990623Q511.42188 36.396873 510.90625 36.053123Q510.54688 35.81875 509.10938 35.459373Q507.17188 34.959373 506.42188 34.615623Q505.6875 34.25625 505.29688 33.63125Q504.90625 32.990623 504.90625 32.225Q504.90625 31.537498 505.21875 30.943748Q505.54688 30.349998 506.09375 29.959373Q506.5 29.662498 507.20312 29.459373Q507.92188 29.240623 508.73438 29.240623Q509.95312 29.240623 510.875 29.599998Q511.79688 29.943748 512.2344 30.553123Q512.6719 31.146873 512.84375 32.146873L511.125 32.38125Q511.0 31.584373 510.4375 31.146873Q509.875 30.693748 508.85938 30.693748Q507.64062 30.693748 507.125 31.099998Q506.60938 31.490623 506.60938 32.021873Q506.60938 32.365623 506.82812 32.646873Q507.03125 32.928123 507.5 33.115623Q507.76562 33.209373 509.04688 33.553123Q510.92188 34.053123 511.65625 34.38125Q512.3906 34.69375 512.8125 35.303123Q513.2344 35.896873 513.2344 36.803123Q513.2344 37.678123 512.71875 38.459373Q512.2031 39.240623 511.23438 39.6625Q510.26562 40.084373 509.04688 40.084373Q507.03125 40.084373 505.96875 39.240623Q504.90625 38.396873 504.60938 36.75625ZM515.3281 27.553123L515.3281 25.537498L517.09375 25.537498L517.09375 27.553123L515.3281 27.553123ZM515.3281 39.85L515.3281 29.474998L517.09375 29.474998L517.09375 39.85L515.3281 39.85ZM518.3906 39.85L518.3906 38.428123L525.0 30.849998Q523.875 30.896873 523.0156 30.896873L518.78125 30.896873L518.78125 29.474998L527.2656 29.474998L527.2656 30.646873L521.6406 37.225L520.5625 38.428123Q521.7344 38.334373 522.78125 38.334373L527.5781 38.334373L527.5781 39.85L518.3906 39.85ZM535.4219 36.50625L537.2344 36.740623Q536.8125 38.31875 535.6406 39.209373Q534.4844 40.084373 532.6719 40.084373Q530.40625 40.084373 529.0625 38.69375Q527.7344 37.2875 527.7344 34.75625Q527.7344 32.13125 529.0781 30.693748Q530.4219 29.240623 532.5781 29.240623Q534.65625 29.240623 535.96875 30.662498Q537.2969 32.06875 537.2969 34.646873Q537.2969 34.803123 537.28125 35.115623L529.5469 35.115623Q529.6406 36.81875 530.5156 37.725Q531.3906 38.63125 532.6875 38.63125Q533.65625 38.63125 534.3281 38.13125Q535.0156 37.615623 535.4219 36.50625ZM529.6406 33.6625L535.4375 33.6625Q535.3281 32.365623 534.78125 31.709373Q533.9375 30.693748 532.59375 30.693748Q531.3906 30.693748 530.5625 31.506248Q529.7344 32.303123 529.6406 33.6625ZM548.5625 31.428123L539.1094 31.428123L539.1094 29.787498L548.5625 29.787498L548.5625 31.428123ZM548.5625 35.771873L539.1094 35.771873L539.1094 34.13125L548.5625 34.13125L548.5625 35.771873ZM557.4531 39.85L555.6875 39.85L555.6875 28.646873Q555.0625 29.256248 554.03125 29.865623Q553.0 30.459373 552.1719 30.771873L552.1719 29.068748Q553.65625 28.381248 554.75 27.396873Q555.8594 26.396873 556.3125 25.474998L557.4531 25.474998L557.4531 39.85ZM571.0625 38.1625L571.0625 39.85L561.6094 39.85Q561.59375 39.209373 561.8125 38.63125Q562.1719 37.6625 562.96875 36.725Q563.7656 35.7875 565.2656 34.553123Q567.6094 32.646873 568.4219 31.537498Q569.25 30.412498 569.25 29.412498Q569.25 28.365623 568.5 27.646873Q567.75 26.928123 566.5469 26.928123Q565.28125 26.928123 564.5156 27.693748Q563.75 28.459373 563.75 29.803123L561.9375 29.615623Q562.125 27.599998 563.3281 26.537498Q564.5469 25.474998 566.59375 25.474998Q568.6406 25.474998 569.84375 26.615623Q571.0469 27.756248 571.0469 29.443748Q571.0469 30.303123 570.6875 31.146873Q570.34375 31.974998 569.53125 32.896873Q568.71875 33.803123 566.8281 35.4125Q565.2344 36.740623 564.78125 37.209373Q564.34375 37.678123 564.0469 38.1625L571.0625 38.1625ZM575.53125 32.084373Q574.4375 31.678123 573.90625 30.943748Q573.3906 30.193748 573.3906 29.162498Q573.3906 27.599998 574.5156 26.537498Q575.6406 25.474998 577.5 25.474998Q579.375 25.474998 580.5156 26.568748Q581.65625 27.646873 581.65625 29.209373Q581.65625 30.209373 581.125 30.943748Q580.6094 31.678123 579.5469 32.084373Q580.875 32.521873 581.5625 33.475Q582.25 34.428123 582.25 35.75625Q582.25 37.6 580.9375 38.85Q579.6406 40.1 577.53125 40.1Q575.40625 40.1 574.1094 38.85Q572.8125 37.584373 572.8125 35.709373Q572.8125 34.31875 573.5156 33.38125Q574.2344 32.428123 575.53125 32.084373ZM575.1875 29.099998Q575.1875 30.115623 575.84375 30.771873Q576.5 31.412498 577.53125 31.412498Q578.5469 31.412498 579.2031 30.771873Q579.8594 30.131248 579.8594 29.209373Q579.8594 28.240623 579.1875 27.584373Q578.5156 26.912498 577.5156 26.912498Q576.5156 26.912498 575.84375 27.568748Q575.1875 28.209373 575.1875 29.099998ZM574.625 35.725Q574.625 36.475 574.96875 37.178123Q575.3281 37.88125 576.03125 38.271873Q576.7344 38.646873 577.5469 38.646873Q578.8125 38.646873 579.625 37.834373Q580.4531 37.021873 580.4531 35.771873Q580.4531 34.50625 579.6094 33.678123Q578.7656 32.85 577.4844 32.85Q576.25 32.85 575.4375 33.678123Q574.625 34.490623 574.625 35.725ZM585.46875 44.053123L584.21875 44.053123Q587.125 39.365623 587.125 34.678123Q587.125 32.834373 586.71875 31.037498Q586.375 29.568748 585.78125 28.224998Q585.40625 27.334373 584.21875 25.287498L585.46875 25.287498Q587.3125 27.740623 588.1875 30.209373Q588.9375 32.334373 588.9375 34.6625Q588.9375 37.303123 587.9219 39.771873Q586.9219 42.225 585.46875 44.053123ZM596.6406 35.553123L596.6406 33.7875L602.03125 33.7875L602.03125 35.553123L596.6406 35.553123ZM612.53125 32.084373Q611.4375 31.678123 610.90625 30.943748Q610.3906 30.193748 610.3906 29.162498Q610.3906 27.599998 611.5156 26.537498Q612.6406 25.474998 614.5 25.474998Q616.375 25.474998 617.5156 26.568748Q618.65625 27.646873 618.65625 29.209373Q618.65625 30.209373 618.125 30.943748Q617.6094 31.678123 616.5469 32.084373Q617.875 32.521873 618.5625 33.475Q619.25 34.428123 619.25 35.75625Q619.25 37.6 617.9375 38.85Q616.6406 40.1 614.53125 40.1Q612.40625 40.1 611.1094 38.85Q609.8125 37.584373 609.8125 35.709373Q609.8125 34.31875 610.5156 33.38125Q611.2344 32.428123 612.53125 32.084373ZM612.1875 29.099998Q612.1875 30.115623 612.84375 30.771873Q613.5 31.412498 614.53125 31.412498Q615.5469 31.412498 616.2031 30.771873Q616.8594 30.131248 616.8594 29.209373Q616.8594 28.240623 616.1875 27.584373Q615.5156 26.912498 614.5156 26.912498Q613.5156 26.912498 612.84375 27.568748Q612.1875 28.209373 612.1875 29.099998ZM611.625 35.725Q611.625 36.475 611.96875 37.178123Q612.3281 37.88125 613.03125 38.271873Q613.7344 38.646873 614.5469 38.646873Q615.8125 38.646873 616.625 37.834373Q617.4531 37.021873 617.4531 35.771873Q617.4531 34.50625 616.6094 33.678123Q615.7656 32.85 614.4844 32.85Q613.25 32.85 612.4375 33.678123Q611.625 34.490623 611.625 35.725ZM627.4531 39.85L625.6875 39.85L625.6875 28.646873Q625.0625 29.256248 624.03125 29.865623Q623.0 30.459373 622.1719 30.771873L622.1719 29.068748Q623.65625 28.381248 624.75 27.396873Q625.8594 26.396873 626.3125 25.474998L627.4531 25.474998L627.4531 39.85ZM632.09375 36.5375L633.78125 36.38125Q634.0 37.56875 634.59375 38.115623Q635.2031 38.646873 636.15625 38.646873Q636.96875 38.646873 637.5781 38.2875Q638.1875 37.9125 638.5781 37.2875Q638.96875 36.6625 639.2344 35.615623Q639.5 34.553123 639.5 33.459373Q639.5 33.35 639.4844 33.115623Q638.9531 33.94375 638.0469 34.475Q637.1406 34.990623 636.0625 34.990623Q634.2969 34.990623 633.0625 33.709373Q631.8281 32.4125 631.8281 30.303123Q631.8281 28.131248 633.1094 26.803123Q634.40625 25.474998 636.3281 25.474998Q637.7344 25.474998 638.8906 26.224998Q640.0469 26.974998 640.6406 28.365623Q641.25 29.756248 641.25 32.396873Q641.25 35.146873 640.6406 36.771873Q640.0469 38.396873 638.875 39.25625Q637.7031 40.1 636.125 40.1Q634.4375 40.1 633.375 39.1625Q632.3125 38.225 632.09375 36.5375ZM639.2969 30.224998Q639.2969 28.709373 638.4844 27.818748Q637.6875 26.928123 636.5469 26.928123Q635.375 26.928123 634.5 27.896873Q633.6406 28.849998 633.6406 30.365623Q633.6406 31.740623 634.4531 32.6Q635.28125 33.44375 636.5 33.44375Q637.71875 33.44375 638.5 32.6Q639.2969 31.740623 639.2969 30.224998ZM652.0625 38.1625L652.0625 39.85L642.6094 39.85Q642.59375 39.209373 642.8125 38.63125Q643.1719 37.6625 643.96875 36.725Q644.7656 35.7875 646.2656 34.553123Q648.6094 32.646873 649.4219 31.537498Q650.25 30.412498 650.25 29.412498Q650.25 28.365623 649.5 27.646873Q648.75 26.928123 647.5469 26.928123Q646.28125 26.928123 645.5156 27.693748Q644.75 28.459373 644.75 29.803123L642.9375 29.615623Q643.125 27.599998 644.3281 26.537498Q645.5469 25.474998 647.59375 25.474998Q649.6406 25.474998 650.84375 26.615623Q652.0469 27.756248 652.0469 29.443748Q652.0469 30.303123 651.6875 31.146873Q651.34375 31.974998 650.53125 32.896873Q649.71875 33.803123 647.8281 35.4125Q646.2344 36.740623 645.78125 37.209373Q645.34375 37.678123 645.0469 38.1625L652.0625 38.1625ZM659.1406 39.85L662.9375 34.459373L659.4375 29.474998L661.625 29.474998L663.21875 31.912498Q663.6719 32.6 663.9375 33.06875Q664.375 32.428123 664.7344 31.928123L666.4844 29.474998L668.5781 29.474998L665.0 34.365623L668.8594 39.85L666.7031 39.85L664.5625 36.63125L664.0 35.75625L661.28125 39.85L659.1406 39.85ZM677.53125 32.084373Q676.4375 31.678123 675.90625 30.943748Q675.3906 30.193748 675.3906 29.162498Q675.3906 27.599998 676.5156 26.537498Q677.6406 25.474998 679.5 25.474998Q681.375 25.474998 682.5156 26.568748Q683.65625 27.646873 683.65625 29.209373Q683.65625 30.209373 683.125 30.943748Q682.6094 31.678123 681.5469 32.084373Q682.875 32.521873 683.5625 33.475Q684.25 34.428123 684.25 35.75625Q684.25 37.6 682.9375 38.85Q681.6406 40.1 679.53125 40.1Q677.40625 40.1 676.1094 38.85Q674.8125 37.584373 674.8125 35.709373Q674.8125 34.31875 675.5156 33.38125Q676.2344 32.428123 677.53125 32.084373ZM677.1875 29.099998Q677.1875 30.115623 677.84375 30.771873Q678.5 31.412498 679.53125 31.412498Q680.5469 31.412498 681.2031 30.771873Q681.8594 30.131248 681.8594 29.209373Q681.8594 28.240623 681.1875 27.584373Q680.5156 26.912498 679.5156 26.912498Q678.5156 26.912498 677.84375 27.568748Q677.1875 28.209373 677.1875 29.099998ZM676.625 35.725Q676.625 36.475 676.96875 37.178123Q677.3281 37.88125 678.03125 38.271873Q678.7344 38.646873 679.5469 38.646873Q680.8125 38.646873 681.625 37.834373Q682.4531 37.021873 682.4531 35.771873Q682.4531 34.50625 681.6094 33.678123Q680.7656 32.85 679.4844 32.85Q678.25 32.85 677.4375 33.678123Q676.625 34.490623 676.625 35.725ZM692.4531 39.85L690.6875 39.85L690.6875 28.646873Q690.0625 29.256248 689.03125 29.865623Q688.0 30.459373 687.1719 30.771873L687.1719 29.068748Q688.65625 28.381248 689.75 27.396873Q690.8594 26.396873 691.3125 25.474998L692.4531 25.474998L692.4531 39.85ZM697.09375 36.5375L698.78125 36.38125Q699.0 37.56875 699.59375 38.115623Q700.2031 38.646873 701.15625 38.646873Q701.96875 38.646873 702.5781 38.2875Q703.1875 37.9125 703.5781 37.2875Q703.96875 36.6625 704.2344 35.615623Q704.5 34.553123 704.5 33.459373Q704.5 33.35 704.4844 33.115623Q703.9531 33.94375 703.0469 34.475Q702.1406 34.990623 701.0625 34.990623Q699.2969 34.990623 698.0625 33.709373Q696.8281 32.4125 696.8281 30.303123Q696.8281 28.131248 698.1094 26.803123Q699.40625 25.474998 701.3281 25.474998Q702.7344 25.474998 703.8906 26.224998Q705.0469 26.974998 705.6406 28.365623Q706.25 29.756248 706.25 32.396873Q706.25 35.146873 705.6406 36.771873Q705.0469 38.396873 703.875 39.25625Q702.7031 40.1 701.125 40.1Q699.4375 40.1 698.375 39.1625Q697.3125 38.225 697.09375 36.5375ZM704.2969 30.224998Q704.2969 28.709373 703.4844 27.818748Q702.6875 26.928123 701.5469 26.928123Q700.375 26.928123 699.5 27.896873Q698.6406 28.849998 698.6406 30.365623Q698.6406 31.740623 699.4531 32.6Q700.28125 33.44375 701.5 33.44375Q702.71875 33.44375 703.5 32.6Q704.2969 31.740623 704.2969 30.224998ZM717.0625 38.1625L717.0625 39.85L707.6094 39.85Q707.59375 39.209373 707.8125 38.63125Q708.1719 37.6625 708.96875 36.725Q709.7656 35.7875 711.2656 34.553123Q713.6094 32.646873 714.4219 31.537498Q715.25 30.412498 715.25 29.412498Q715.25 28.365623 714.5 27.646873Q713.75 26.928123 712.5469 26.928123Q711.28125 26.928123 710.5156 27.693748Q709.75 28.459373 709.75 29.803123L707.9375 29.615623Q708.125 27.599998 709.3281 26.537498Q710.5469 25.474998 712.59375 25.474998Q714.6406 25.474998 715.84375 26.615623Q717.0469 27.756248 717.0469 29.443748Q717.0469 30.303123 716.6875 31.146873Q716.34375 31.974998 715.53125 32.896873Q714.71875 33.803123 712.8281 35.4125Q711.2344 36.740623 710.78125 37.209373Q710.34375 37.678123 710.0469 38.1625L717.0625 38.1625ZM724.6406 35.553123L724.6406 33.7875L730.03125 33.7875L730.03125 35.553123L724.6406 35.553123ZM736.96875 39.85L742.46875 25.537498L744.5156 25.537498L750.375 39.85L748.21875 39.85L746.5469 35.50625L740.5625 35.50625L738.9844 39.85L736.96875 39.85ZM741.1094 33.975L745.9531 33.975L744.46875 30.006248Q743.78125 28.193748 743.4531 27.037498Q743.1719 28.412498 742.6719 29.771873L741.1094 33.975ZM757.4531 39.85L755.6875 39.85L755.6875 28.646873Q755.0625 29.256248 754.03125 29.865623Q753.0 30.459373 752.1719 30.771873L752.1719 29.068748Q753.65625 28.381248 754.75 27.396873Q755.8594 26.396873 756.3125 25.474998L757.4531 25.474998L757.4531 39.85ZM761.8281 32.7875Q761.8281 30.256248 762.34375 28.709373Q762.875 27.146873 763.90625 26.318748Q764.9375 25.474998 766.5 25.474998Q767.65625 25.474998 768.5156 25.943748Q769.3906 26.396873 769.9531 27.271873Q770.5156 28.146873 770.84375 29.412498Q771.1719 30.662498 771.1719 32.7875Q771.1719 35.303123 770.6406 36.85Q770.125 38.396873 769.09375 39.25625Q768.0781 40.1 766.5 40.1Q764.4219 40.1 763.25 38.615623Q761.8281 36.81875 761.8281 32.7875ZM763.6406 32.7875Q763.6406 36.31875 764.4531 37.490623Q765.28125 38.646873 766.5 38.646873Q767.7031 38.646873 768.53125 37.475Q769.3594 36.303123 769.3594 32.7875Q769.3594 29.256248 768.53125 28.099998Q767.7031 26.928123 766.4844 26.928123Q765.2656 26.928123 764.5469 27.959373Q763.6406 29.256248 763.6406 32.7875ZM772.8281 32.7875Q772.8281 30.256248 773.34375 28.709373Q773.875 27.146873 774.90625 26.318748Q775.9375 25.474998 777.5 25.474998Q778.65625 25.474998 779.5156 25.943748Q780.3906 26.396873 780.9531 27.271873Q781.5156 28.146873 781.84375 29.412498Q782.1719 30.662498 782.1719 32.7875Q782.1719 35.303123 781.6406 36.85Q781.125 38.396873 780.09375 39.25625Q779.0781 40.1 777.5 40.1Q775.4219 40.1 774.25 38.615623Q772.8281 36.81875 772.8281 32.7875ZM774.6406 32.7875Q774.6406 36.31875 775.4531 37.490623Q776.28125 38.646873 777.5 38.646873Q778.7031 38.646873 779.53125 37.475Q780.3594 36.303123 780.3594 32.7875Q780.3594 29.256248 779.53125 28.099998Q778.7031 26.928123 777.4844 26.928123Q776.2656 26.928123 775.5469 27.959373Q774.6406 29.256248 774.6406 32.7875Z" fill-rule="nonzero"/></svg>